<?xml version="1.0" encoding="utf-8"?>
<!-- Generator: Adobe Illustrator 21.1.0, SVG Export Plug-In . SVG Version: 6.00 Build 0)  -->
<svg version="1.1" id="Capa_1" xmlns="http://www.w3.org/2000/svg" xmlns:xlink="http://www.w3.org/1999/xlink" x="0px" y="0px"
	 width="810px" height="142px" viewBox="0 0 810 142" style="enable-background:new 0 0 810 142;" xml:space="preserve">
<g>
	<g>
		<path d="M404.7,97.9c-0.5-1.2-2.3-5.6-2.5-6.3c-0.2-0.7-1.2-1.6-0.6-1.9c0.5-0.3,1.5-0.3,2.2,0c0.7,0.3,1.8,0.9,2.2,0.8
			c0.5-0.1,0.5-1.5,0.8-2c0.3-0.5,0.7-1.5-0.4-1.8c-1-0.3-3.1-0.1-3.7,0c-0.7,0.1-0.9,0.2-1.3,0.1c-0.4-0.1-1.3-0.6-1.8-0.6
			s-0.9,0.6-1.5,0.6c-0.6,0-1.6-0.2-2.5-0.2s-2.2-0.3-2.4,0c-0.3,0.3-0.4,1-0.5,1.2c-0.1,0.3-0.4,0.9-0.5,1.3c0,0.4,0.1,0.9,1.1,0.7
			c1.1-0.2,2.4-0.4,3-0.4c0.6,0,1.5-0.1,1.3,0.6c-0.2,0.7-0.8,1.7-1.1,2.2c-0.3,0.5-1.2,2.2-1.2,2.2c-0.6,1.2-2.1,4.5-2.6,5.3
			c-0.5,0.8-1.3,2.6-1.8,3.7c-0.5,1.1-1.3,2-1.4,2.7c0,0.7,0.3,0.7,1,0.7c0.7,0,1.1-0.1,1.9-0.1c0.8,0,1.7,0.1,1.8-0.5
			c0.1-0.5-0.8-0.8-0.8-1.3c-0.1-0.4,0.3-1.3,0.7-2.3c0.4-1,0.7-2.6,1.4-2.8c0.7-0.2,1.9-0.1,3.2-0.1c1.3,0,2.6-0.3,3.2,0.1
			c0.6,0.4,0.8,0.9,1.1,1.9c0.4,1,0.8,2.2,1,2.7c0.2,0.5,0.2,0.9-0.1,1.2c-0.3,0.3-0.7,0.9,0,0.9c0.6,0,2.7,0,3.3,0
			c0.5,0,1.1-0.5,0.3-1.9C406.8,103.1,405.2,99.1,404.7,97.9z M400.9,97.4c-0.2,0.2-1.4,0-2.2,0c-0.8,0-1.5,0.1-1.8-0.3
			c-0.2-0.4,0.5-2.2,0.8-3.1c0.3-0.7,0.7-1.8,1.3-1.8c0.6,0,1.2,1.9,1.6,2.9C401.1,96.1,401.1,97.2,400.9,97.4z M383.3,86.5
			c-1,0-2.7,0.1-2.7,0.8c0,0.8,0.6,1.4,0.3,2.2c-0.3,0.8-1.9,4.7-2.4,5.7c-0.4,1-2.5,5.5-2.7,5.6c-0.2,0.1-0.6-0.2-1.2-1.4
			c-0.6-1.2-3.4-8.1-3.7-9c-0.4-0.9-1.3-2.1-0.9-2.4c0.4-0.3,1.1-0.8,0.8-1.2c-0.3-0.4-1.2-0.6-2.5-0.6c-1.3,0-3.1,0.4-3.1,1.2
			c-0.1,0.8,0.9,0.3,1.3,1c0.4,0.7,1,2,1,2c0.6,1.5,2.7,5.6,3.7,8.3c1,2.6,2.3,5,2.4,5.6c0.2,0.6,0.9,2.6,1.6,2.6
			c0.7,0,1.2-1.9,2-3.6c0.8-1.6,2.3-5.4,3.3-7.4c1-2,2.4-4.8,2.8-5.5c0.4-0.6,0.5-1.6,0.9-1.9c0.4-0.3,1.1-0.7,1.1-1.3
			C385.3,86.6,384.3,86.5,383.3,86.5z M335,97.7c-0.5-1.2-2.3-5.6-2.5-6.3c-0.2-0.7-1.2-1.6-0.6-1.9c0.5-0.3,1.5-0.3,2.2,0
			c0.7,0.3,1.8,0.9,2.2,0.8c0.5-0.1,0.5-1.5,0.8-2c0.3-0.5,0.6-1.5-0.4-1.8c-1-0.3-3.1-0.1-3.7,0.1c-0.7,0.1-0.9,0.2-1.3,0.1
			c-0.4-0.1-1.3-0.6-1.8-0.6c-0.4,0-0.9,0.6-1.5,0.6c-0.6,0-1.6-0.2-2.5-0.2c-0.8,0-2.2-0.2-2.4,0c-0.3,0.3-0.4,1-0.5,1.2
			c-0.1,0.3-0.4,0.9-0.5,1.3c0,0.4,0.1,0.9,1.1,0.7c1.1-0.2,2.4-0.4,3-0.4c0.6,0,1.5-0.1,1.3,0.6c-0.2,0.7-0.8,1.7-1.1,2.2
			c-0.3,0.5-1.2,2.2-1.2,2.2c-0.6,1.2-2.1,4.5-2.6,5.3c-0.5,0.8-1.3,2.6-1.8,3.7c-0.5,1.1-1.3,2-1.3,2.7c0,0.7,0.3,0.7,1,0.7
			c0.7,0,1.1-0.2,1.9-0.1c0.8,0,1.7,0.1,1.8-0.5c0.1-0.5-0.8-0.8-0.8-1.3c-0.1-0.4,0.3-1.3,0.7-2.3c0.4-1,0.7-2.6,1.4-2.8
			c0.7-0.2,1.9-0.1,3.2-0.1c1.3,0,2.6-0.3,3.2,0.1c0.6,0.4,0.8,0.9,1.1,1.9c0.4,1,0.8,2.2,1,2.7c0.2,0.5,0.2,0.9-0.1,1.2
			c-0.3,0.3-0.7,0.9,0,0.9c0.6,0,2.7,0,3.3-0.1c0.5,0,1.1-0.5,0.3-1.9C337.1,102.9,335.5,98.9,335,97.7z M331.2,97.3
			c-0.2,0.2-1.4,0-2.2,0c-0.8,0-1.5,0.2-1.8-0.2c-0.2-0.4,0.5-2.2,0.8-3.1c0.3-0.7,0.7-1.8,1.3-1.8c0.6,0,1.3,1.9,1.6,2.9
			C331.4,96,331.4,97.1,331.2,97.3z M420.7,94.3c0,0-1.3-0.4-1.9-0.7c-0.6-0.3-0.7-0.3-1.6-1.4c-0.8-1.1,0.3-2.5,0.8-2.9
			c0.6-0.4,3.2-0.6,4.8,0.7c1.6,1.3,1.8,0.9,2.7,0.3c0.9-0.6,1.3-1.3,1-1.9c-0.3-0.7-1.6-1.4-4-2.1c-2.4-0.6-4.4,0.6-6.1,1.6
			c-1.6,1-1.9,3.7-1.8,5.1c0.1,1.4,1.8,3.7,3.9,4.2c2.1,0.5,5.9,1.6,5.9,3.9c0,2.3-1.1,2.7-2.6,2.9c-1.6,0.2-1.9-0.2-3.5-0.7
			c-1.6-0.5-1.3-1.7-1.9-2c-0.6-0.3-1.4,0.6-1.8,2c-0.4,1.4-0.2,2.5,0.4,2.8c0.5,0.3,0.9-0.1,1.6,0.1c0.7,0.2,1.8,0.7,3.7,0.7
			c1.9-0.1,3.5-1,4.5-1.9c0.9-0.9,1.9-2.4,1.9-4.1c0-1.7-0.3-3.2-1.2-4.4C424.7,95.2,422.1,94.8,420.7,94.3z M448,87.6
			c-0.8-0.3-2.3-1.1-4.2-1.3c-1.9-0.2-3.5,0.6-5,1.3c-1.5,0.7-2.7,2-4.3,3.8c-1.7,1.8-1.9,4.1-1.8,6.8c0.1,2.7,2.5,6.4,4.5,7.7
			c2,1.2,5.2,1.4,6.8,1.4c1.6-0.1,4.2-2.3,4.7-2.7c0.5-0.4,0.5-1.4,0.4-2c-0.2-0.5-1.2,0.4-2,0.8c-0.8,0.5-2.2,0.7-4.1,0.7
			c-1.9,0.1-2.3-0.3-3.7-0.9c-1.4-0.6-2.4-1.9-3.1-3.6c-0.7-1.7-0.4-2.9-0.4-4.6c0-1.7,1.4-3.6,2.2-4.4c0.8-0.8,2.8-1.4,3.6-1.4
			c0,0,0.6-0.2,1.6,0c1,0.2,1.8,0.4,2.9,1.1c1,0.7,1.5,0.8,2,0.4c0.5-0.4,1.4-1,1.5-1.6C449.7,88.7,448.7,87.9,448,87.6z
			 M514.1,87.3c-1.8-0.8-3.5-1.2-5.1-1.2c-1.6,0-3.6,0-4.6,0c-1,0-2.7-0.1-2.7,0.6c0,0.7,0.8,0.7,1,1.2c0.2,0.5,0.4,1.9,0.4,2.8
			c0,0.9,0.1,2.4,0.1,2.4c0,1.2,0.1,4.3,0.1,5.6c0,1.3,0,4.7-0.2,5.2c-0.1,0.5-0.9,0.6-1.2,1c-0.3,0.4-0.7,1-0.3,1.1
			c0.4,0.1,1.7,0,2.2,0c0.5,0,2.7,0,3.9,0c1.2,0,3.3-0.1,4.3-0.4c1-0.3,3.3-1.3,4.6-3.3c1.3-2,2.1-4.1,2.1-6.1c0-2-0.4-3.9-1.1-5.2
			C517.1,89.8,515.9,88.1,514.1,87.3z M513.5,103.5c-1,0.8-3.3,0.8-3.9,0.7c-0.6-0.1-2.7-0.2-3.2-0.6c-0.5-0.4-0.5-2.8-0.5-4
			c0-1.2,0.1-6.6,0.1-7.7c0,0,0-1.4,0-2.2c0-0.8,0.3-1.6,0.9-1.8c0.6-0.2,2.6-0.4,4.9,0.8c2.3,1.2,4.1,3.8,4.3,7.3
			C516.3,99.6,514.5,102.7,513.5,103.5z M529.2,88.4c0.7-0.3,1.8-0.1,2.7,0c0.9,0,2.4,0,2.8,0.5c0.4,0.5,0.7,1,1.2,1
			c0.5,0,1-1.3,1.2-2.1c0.1-0.8-0.4-1.6-1.6-1.6c-1.2,0-5.6,0.1-6.7,0.1c-1.1,0-4.3,0.1-4.6,0.5c-0.3,0.4-0.4,0.9,0,1.2
			c0.4,0.3,1,0.3,1.2,1.1c0.1,0.9,0.2,2,0.2,2c0,1.6,0.1,6.4,0.1,7.7c0,1.3-0.1,4.8-0.2,5.1c-0.1,0.3-1.8,0.9-1.8,1.6
			c0,0.7,1.4,0.4,2.7,0.4c1.3,0,3.6,0.2,4.5,0.3c1,0,2.8,0,3.3,0.1c0.4,0.1,0.9,0.3,1.1,0.5c0.2,0.2,0.8,0.9,1.2-0.3
			c0.4-1.2,0.6-2.3,0.5-2.7c-0.1-0.4-0.4-0.6-0.8-0.6c-0.4,0-0.4,0.6-1.3,0.7c-0.9,0.1-2.7,0-3.3,0c-0.7,0-2.7,0.3-3.1-0.3
			c-0.3-0.6-0.2-2.5-0.1-3.7c0-1.2-0.2-2.7,0.3-2.8c0.5-0.1,2,0,2.8,0.1c0.8,0,1.6,0,2.1,0.3c0.5,0.3,1,0.8,1.5-0.7
			c0.5-1.5,0.6-2.2-0.2-2.3c-0.9-0.1-2.7-0.1-3.5-0.1c-0.8,0-2.8,0.3-2.9-0.1c-0.1-0.4,0-2.3,0.1-3.4
			C528.4,89.6,528.5,88.7,529.2,88.4z M474.1,104.5c-0.3-0.5-1.8-4.3-2.6-6.2c-0.8-1.8-2.7-6.7-2.8-7.2c-0.1-0.5-0.7-1.1,0-1.3
			c0.7-0.2,1.7-0.2,2.3,0.2c0.6,0.4,1.3,0.7,1.7,0.5c0.4-0.3,0.6-1.3,0.8-1.8c0.2-0.5,0.4-1.4-0.2-1.8c-0.6-0.3-1-0.3-1.6-0.1
			c-0.7,0.2-2.1,0.2-2.7,0.2c-0.7,0-1.1-0.1-1.4-0.2c-0.4-0.2-1-0.4-1.3-0.4c-0.3,0-1.1,0.6-1.6,0.6c-0.5,0-2-0.2-2.9-0.2
			c-0.9,0-2.3-0.1-2.7,0.3c-0.3,0.4-0.7,1.6-0.6,2.3c0.1,0.6,0.1,0.9,0.6,1.1c0.5,0.2,1,0,1.4-0.1c0.9-0.2,3-1,3.2-0.4
			c0.2,0.6-0.5,1.9-0.8,2.5c-0.3,0.6-1.7,2.9-2.1,4c-0.4,1.1-1.8,4.1-2.3,4.8c-0.5,0.7-1.7,3.7-1.7,4.2c0,0.5-0.2,1.3,0.5,1.4
			c0.6,0.1,2.3,0,2.5,0c0.2,0,0.9-0.5,1-0.8c0.1-0.4-0.5-0.8-0.5-1.1c0-0.4-0.2-1.1,0.3-1.8c0.5-0.7,0.4-1.4,0.6-1.8
			c0.2-0.4,0.6-1.1,1.6-1.2c1-0.2,2.1-0.2,3-0.2c1,0,2.3-0.2,2.8,0.4c0.5,0.6,1.1,1.7,1.3,2.5c0.2,0.8,0.7,1.9,0.6,2.4
			c-0.1,0.5-0.5,0.7-0.5,1.2c0,0.5,0.4,0.6,2.1,0.6c1.7,0,2.3-0.1,2.6-0.1s0.9-0.6,0.6-1.1C475.1,105.2,474.4,105,474.1,104.5z
			 M465.5,97.5c-1.1,0-1.7,0-1.8-0.6c-0.2-0.6,0.3-1.7,0.8-2.5c0.1-0.2,0.8-1.9,1.1-1.9c0.4,0,1,1.2,1.2,1.7
			c0.2,0.5,0.5,1.6,0.7,2.4C467.6,97.4,466.6,97.5,465.5,97.5z M237.8,86.7c-0.6-0.1-6.1,0-7.4,0c-1.3,0-3.7-0.2-4.3-0.1
			c-0.6,0.1-0.8,0.5-0.8,0.7c0,0.5,0.2,1.2,0.6,1.4c0.4,0.2,0.9,0.3,0.9,0.9c0,0.6,0.4,12.3,0.4,13.2c-0.1,0.9-0.1,1.5-0.3,1.8
			c-0.2,0.3-1.4,0.6-1.4,1c-0.1,0.4,0,0.6,0.1,0.9c0.2,0.2,0.9,0.4,1.5,0.3c0.6-0.1,1.6-0.2,2.3,0c0.8,0.1,2.4,0.2,2.7,0.1
			c0.4-0.1,1.5-1.2,1.5-1.5c0-0.4-0.4-0.8-1.1-0.8c-0.7,0-2.2-0.2-2.3-0.6c-0.1-0.4-0.3-3.7-0.2-4.3c0-0.6-0.2-1.9,0.2-2.1
			c0.4-0.1,1.2-0.4,1.8-0.3c0.6,0.1,2.3,0.2,2.7,0.3c0.4,0.1,0.8,0.2,0.9,0.5c0.2,0.3,0.8,0.2,1.1-0.8c0.3-1.1,0.9-2,0-2.4
			c-0.9-0.4-1.8-0.3-2.8-0.3c-1,0-3.1,0.4-3.5-0.1c-0.3-0.5-0.1-3.2-0.1-3.8c0-0.6,0-1.4,0.8-1.5c0.8-0.1,2.2-0.1,2.9,0
			c0.6,0.1,1.9,0.2,2.3,0.4c0.4,0.3,1.1,0.9,1.6,0.6c0.5-0.2,0.7-1.8,0.7-2.4C238.6,87.2,238.4,86.7,237.8,86.7z M210.2,86.5
			c-2.8-0.3-5.5,0.8-6.8,1.5c-1.3,0.7-2.3,1.4-2.9,2.2c-0.6,0.8-1.5,2.2-1.7,2.5c-0.3,0.9-1.5,4.5-0.4,7.4c1.2,2.9,2.4,4.5,4.4,5.5
			c1.9,1,4.7,1.7,6.2,1.5c1.5-0.2,4.8-2.1,6.5-3.8c1.7-1.7,3-4,3-6.7c0-2.7-0.7-4.8-2.3-6.7C214.6,88.2,212.9,86.8,210.2,86.5z
			 M212.6,102.6c-2.5,1.9-5.4,1.1-7.9-0.2c-2.5-1.3-3.3-4.8-3.3-5.9c0-0.6,0.2-0.6,0.3-1.4c0.1-0.8,0.8-2.6,1.4-3.7
			c0.6-1.2,2.4-1.6,3.9-1.7c1.5-0.1,3.5-0.2,5.4,1.3c1.9,1.5,3,4.1,3,5.8C215.4,98.6,215.1,100.7,212.6,102.6z M189.9,87.6
			c-0.8-0.3-2.3-1.1-4.2-1.2c-1.9-0.2-3.5,0.6-5,1.4c-1.5,0.7-2.7,2-4.3,3.8c-1.7,1.8-1.9,4.1-1.8,6.8c0.1,2.7,2.6,6.4,4.5,7.6
			c2,1.2,5.2,1.4,6.8,1.3c1.6-0.1,4.2-2.3,4.7-2.7c0.5-0.4,0.5-1.4,0.4-2c-0.2-0.5-1.2,0.4-2,0.9c-0.8,0.5-2.2,0.7-4.1,0.7
			c-1.9,0.1-2.3-0.3-3.7-0.9c-1.4-0.6-2.4-1.9-3.1-3.6c-0.7-1.7-0.4-2.9-0.4-4.6c0-1.7,1.4-3.6,2.2-4.4c0.8-0.8,2.8-1.4,3.6-1.4
			c0,0,0.6-0.2,1.6,0c1,0.2,1.8,0.4,2.9,1.1c1,0.7,1.5,0.8,2,0.4c0.5-0.4,1.4-1,1.5-1.6C191.7,88.6,190.7,87.9,189.9,87.6z
			 M312.7,86.5c-1.1,0-2.6,0.2-2.6,0.7c0,0.6,0.7,0.8,0.7,1.3c0,0.5,0.2,1.6,0.2,2.7c0,1.3-0.1,4.2,0,6.6c0,2.4-0.1,4.6-0.2,5.4
			c-0.1,0.9-0.6,1.7-0.8,2.2c-0.3,0.4-0.3,0.8,0,0.9c0.3,0.1,0.8,0.1,1.7,0.1c0.8,0,2.4,0.1,2.7-0.1c0.2-0.1,0.3-0.7-0.1-1.2
			c-0.4-0.5-0.4-1.5-0.4-2.6c0-1.1-0.1-5.5-0.1-7.1c0.1-1.6,0.1-5.5,0.2-6.1c0.1-0.6,0-1.2,0.4-1.3c0.4-0.1,0.7-0.9,0.4-1.1
			C314.5,86.7,313.8,86.5,312.7,86.5z M299.5,87.7c-1.8-0.8-3.5-1.2-5.2-1.2c-1.6,0-3.6,0-4.6,0c-1,0-2.7-0.1-2.7,0.6
			c0,0.7,0.8,0.7,1,1.2c0.2,0.5,0.4,1.9,0.5,2.8c0,0.9,0.1,2.4,0.1,2.4c0,1.2,0.1,4.3,0.1,5.6c0,1.3,0,4.7-0.2,5.2
			c-0.1,0.5-0.9,0.6-1.2,1c-0.3,0.4-0.7,1-0.3,1.1c0.4,0.1,1.7,0,2.2,0c0.5,0,2.7-0.1,3.9-0.1c1.2,0,3.3-0.1,4.3-0.4
			c1-0.3,3.3-1.3,4.6-3.3c1.3-2,2.1-4.1,2.1-6.1c0-2-0.5-3.9-1.1-5.2C302.5,90.2,301.2,88.5,299.5,87.7z M298.9,103.9
			c-1,0.8-3.3,0.9-3.9,0.7c-0.6-0.1-2.7-0.2-3.2-0.6c-0.5-0.4-0.6-2.8-0.5-4c0-1.2,0-6.6,0-7.7c0,0,0-1.4,0-2.2
			c0-0.8,0.3-1.6,0.9-1.8c0.6-0.2,2.6-0.5,4.9,0.8c2.3,1.2,4.1,3.7,4.3,7.3C301.7,100,299.9,103.1,298.9,103.9z M280.1,104.3
			c-0.3-0.5-1.8-4.3-2.7-6.1c-0.8-1.8-2.7-6.7-2.8-7.2c-0.1-0.5-0.7-1.1,0-1.3c0.7-0.2,1.7-0.2,2.3,0.1c0.6,0.4,1.3,0.7,1.7,0.4
			c0.4-0.3,0.6-1.3,0.8-1.8c0.2-0.5,0.4-1.4-0.2-1.8c-0.6-0.3-1-0.3-1.6-0.1c-0.7,0.2-2.1,0.2-2.7,0.2c-0.7,0-1.1-0.1-1.5-0.2
			c-0.4-0.1-1-0.4-1.3-0.4c-0.3,0-1.1,0.6-1.6,0.6c-0.5,0-2-0.1-2.9-0.2c-0.9,0-2.3-0.1-2.7,0.3c-0.3,0.4-0.7,1.6-0.6,2.3
			c0.1,0.6,0.2,0.9,0.6,1.1c0.5,0.2,1,0,1.4-0.1c0.9-0.2,3-1,3.2-0.4c0.2,0.6-0.4,1.9-0.7,2.5c-0.3,0.6-1.7,2.9-2.1,4.1
			c-0.4,1.2-1.8,4.1-2.3,4.8c-0.5,0.7-1.7,3.7-1.7,4.2c0,0.5-0.2,1.3,0.5,1.4c0.6,0.1,2.3,0,2.5,0c0.2,0,0.9-0.5,1-0.8
			c0.1-0.4-0.5-0.8-0.5-1.1c0-0.4-0.2-1.1,0.3-1.8c0.5-0.7,0.4-1.4,0.6-1.8c0.2-0.4,0.6-1.1,1.6-1.2c1-0.2,2-0.3,3-0.3
			c1,0,2.3-0.2,2.8,0.3c0.5,0.6,1.1,1.7,1.3,2.5c0.2,0.8,0.7,1.9,0.6,2.3c-0.1,0.5-0.5,0.7-0.4,1.2c0,0.5,0.4,0.6,2.1,0.6
			c1.7,0,2.3-0.1,2.6-0.1c0.3,0,0.9-0.6,0.6-1.1C281.1,105,280.4,104.8,280.1,104.3z M271.4,97.3c-1.1,0-1.7,0-1.8-0.6
			c-0.2-0.6,0.3-1.7,0.7-2.5c0.1-0.2,0.7-1.9,1.1-1.9c0.4,0,1,1.2,1.2,1.7c0.2,0.5,0.5,1.6,0.7,2.3
			C273.6,97.2,272.5,97.3,271.4,97.3z M251,97.5c0,0,1.2-0.4,2-0.7c0.8-0.3,2.3-1.5,2.5-2.8c0.2-1.3,0.5-2.8-0.3-4.5
			c-0.8-1.7-2.6-2.7-3.4-2.7c-0.8,0-5.1-0.1-5.7-0.1c-0.7,0-1.9,0.1-2.2,0.4c-0.4,0.3-0.4,0.4-0.3,0.6c0.1,0.2,0.8,0.4,0.8,1
			c0,0.5,0.1,2.8,0.1,2.8c0,1.8,0.2,6,0.2,7c0,1-0.1,5-0.1,5.7c0,0.7,0.1,1-0.2,1.1c-0.3,0.2-1,0.6-0.7,1.1c0.2,0.4,1.1,0.4,1.9,0.4
			c0.8,0,2.1-0.1,2.4-0.2c0.3,0,0.4-0.2-0.1-1.2c-0.5-1-0.6-2.5-0.6-4.3c0-1.8-0.1-6.8-0.1-8.5c0-1.6,0.1-3.3,0.1-3.7
			c0-0.4,0.5-0.9,1.8-0.7c1.4,0.2,3.4,1,3.5,3.5c0,2.5-0.4,3.1-1.6,3.8c-1.1,0.7-3.2,1-3.4,1.4c-0.2,0.4,0.6,1.2,1.2,2
			c0.6,0.8,1.9,2.6,2.4,3.4c0.5,0.8,1.3,2.2,1.3,2.6c0,0.5,0,0.6-0.3,0.7c-0.2,0.1-0.4,1,0.5,1c0.9,0,1.9,0,2.4,0
			c0.5,0,1.6,0.1,1.5-0.6c-0.1-0.6-1.1-2-1.7-3C254.2,102,251,97.5,251,97.5z M809.6,104.3c-0.8-1.4-2.5-5.4-3-6.6
			c-0.5-1.2-2.3-5.6-2.5-6.3c-0.2-0.7-1.2-1.6-0.6-1.9c0.5-0.3,1.5-0.3,2.2,0c0.7,0.3,1.8,0.9,2.2,0.8c0.5-0.2,0.5-1.5,0.8-2
			c0.3-0.5,0.6-1.5-0.4-1.7c-1-0.2-3.1-0.1-3.7,0.1c-0.7,0.1-0.9,0.2-1.3,0.1c-0.4-0.1-1.3-0.6-1.8-0.6c-0.4,0-0.9,0.6-1.5,0.6
			c-0.6,0-1.6-0.2-2.5-0.2c-0.8,0-2.2-0.2-2.4,0.1s-0.4,1-0.5,1.2c-0.1,0.3-0.4,0.9-0.5,1.3c0,0.4,0.1,0.9,1.1,0.7
			c1.1-0.2,2.4-0.4,3-0.4c0.6,0,1.5-0.1,1.3,0.6c-0.2,0.7-0.8,1.7-1,2.2c-0.3,0.5-1.2,2.2-1.2,2.2c-0.6,1.2-2,4.5-2.6,5.3
			c-0.5,0.8-1.3,2.6-1.8,3.7c-0.5,1.1-1.3,2-1.3,2.7c0,0.7,0.3,0.7,1,0.7c0.7,0,1.1-0.2,1.9-0.1c0.8,0,1.7,0.1,1.8-0.5
			c0.1-0.5-0.8-0.8-0.9-1.3c-0.1-0.4,0.3-1.3,0.7-2.3c0.4-1,0.7-2.6,1.4-2.8c0.7-0.2,1.9-0.1,3.2-0.1c1.3,0,2.6-0.3,3.2,0.1
			c0.6,0.4,0.8,0.9,1.1,1.9c0.4,1,0.8,2.2,1,2.7c0.2,0.5,0.2,0.9-0.1,1.2c-0.3,0.3-0.7,0.9,0,0.9c0.6,0,2.7-0.1,3.3-0.1
			C809.8,106.3,810.4,105.7,809.6,104.3z M802.8,97.3c-0.2,0.2-1.4,0-2.2,0c-0.8,0-1.5,0.2-1.8-0.2c-0.2-0.4,0.5-2.2,0.8-3.1
			c0.3-0.7,0.7-1.8,1.3-1.8c0.6,0,1.3,1.9,1.6,2.9C803,96,803,97.1,802.8,97.3z M644.9,87.1c-0.7,0.1-5.2,0.2-6.6,0.2
			c-1.4,0-5.7-0.5-6.3-0.5c-0.5,0-1.2,0.4-1.2,1.1c0,0.8-0.1,2.4,0.3,2.8c0.4,0.5,0.8,0.2,1.2-0.3c0.5-0.5,1.2-0.7,2-0.7
			c0.8,0,1.8-0.2,2.1-0.1c0.3,0.2,0.3,1,0.4,1.5c0,0.5,0.3,3.2,0.3,3.2c0.1,2.2-0.1,5.3-0.2,7.1c-0.1,1.8-0.7,3.8-1,4.3
			c-0.3,0.5-0.2,1.5,0.7,1.6c0.9,0.1,1.8-0.1,2.5,0c0.6,0.1,2.1-0.2,2.2-0.8c0.1-0.6-0.7-0.6-1-0.9c-0.2-0.3-0.5-3.8-0.5-5
			c0-1.2,0-5.5,0.1-7.2c0-1.6-0.2-3.1,0.4-3.5c0.5-0.4,1.9-0.5,2.7-0.3c0.7,0.3,1.5,0.4,1.6,0.9c0.1,0.4,1,0.7,1.2,0.1
			c0.3-0.5,0.6-2.7,0.4-3.1C645.9,87.3,645.6,87,644.9,87.1z M659.1,98.3c0,0,1.2-0.4,2-0.7c0.8-0.3,2.3-1.5,2.5-2.9
			c0.2-1.3,0.5-2.8-0.3-4.5c-0.8-1.7-2.6-2.7-3.4-2.7c-0.8,0-5.1-0.1-5.7-0.1c-0.7,0-1.9,0.1-2.2,0.4c-0.4,0.3-0.4,0.4-0.3,0.6
			c0.1,0.2,0.8,0.4,0.8,1c0,0.5,0.1,2.8,0.1,2.8c0,1.8,0.2,6,0.2,7c0,1-0.1,5,0,5.7c0,0.7,0.1,1-0.2,1.1c-0.3,0.2-1,0.6-0.7,1.1
			c0.2,0.5,1.1,0.4,1.9,0.4c0.8,0,2.1-0.1,2.4-0.2c0.3,0,0.4-0.2-0.1-1.2c-0.6-1-0.6-2.5-0.6-4.3c0-1.8-0.1-6.8-0.1-8.5
			c0-1.6,0.1-3.3,0.1-3.7c0-0.4,0.5-0.9,1.8-0.7c1.4,0.2,3.4,1,3.5,3.5c0,2.5-0.4,3.1-1.5,3.8c-1.1,0.7-3.2,1-3.4,1.4
			c-0.2,0.4,0.6,1.2,1.2,2c0.6,0.8,1.9,2.5,2.4,3.4c0.6,0.8,1.3,2.2,1.3,2.6c0,0.5,0,0.6-0.3,0.7c-0.2,0.1-0.4,1,0.5,1
			c0.9,0,1.9,0,2.4,0c0.5,0,1.6,0,1.5-0.6c-0.1-0.6-1.1-2-1.7-3C662.4,102.7,659.1,98.3,659.1,98.3z M581.3,97.7
			c-0.3-0.3-3,0-4.6-0.1c-1.6-0.1-1.7,0.3-2,0.7c-0.3,0.4-0.5,1.9-0.2,2.4c0.3,0.5,2.2,0.2,2.8,0.1c0.6,0,1.4,0.1,1.3,1.2
			c-0.1,1.1-1.4,1.8-2.7,2.3c-1.3,0.5-1.8,0.7-4,0.4c-2.2-0.3-2.9-1.3-4.1-2.8c-1.2-1.5-1.5-3.4-1.4-5.4c0.1-1.9,1.4-4.5,2.9-5.7
			c1.5-1.2,3.3-0.9,4.1-0.8c0.7,0,0.9,0.1,1.5,0.2c0.6,0.1,1.4,0.5,1.9,0.8c0.5,0.3,0.8,1.2,1.3,1.2c0.5,0,2-1,2.5-1.8
			c0.5-0.7,0-1.4-0.5-1.8c-0.5-0.4-1.5-1-2.8-1.3c-1.3-0.3-2-0.4-4.4-0.1c-2.5,0.3-4.8,1.6-6.4,2.9c-1.6,1.3-3,3-3.3,6.6
			c-0.3,3.6,1.3,7,2.2,8c0.9,0.9,4,3,5.1,3.1c1.1,0.1,4.2,0,5-0.3c0.7-0.3,1.6-0.9,2.3-1.9c0.7-1,0.8-0.6,0.7-0.3
			c0,0.3-0.2,1.7-0.7,2.4c-0.5,0.7-1.1,1.5-0.7,1.8c0.4,0.2,1.6-0.2,2.3-0.9c0.8-0.7,1.5-1.8,1.6-2.6c0.2-0.8,0.3-4.4,0.3-5.3
			C581.5,100,581.6,98,581.3,97.7z M772.8,102.2c-0.2-1.1-1.2-7.1-1.4-9.2c-0.2-2-0.4-4.6-0.7-5.1c-0.3-0.5-1-1.2-1.8-1.2
			c-0.8,0-1.7,0.5-1.5,1.3c0.1,0.7,0.1,1.7-0.2,2.3c-0.2,0.6-2.2,4.4-2.6,5.5c-0.4,1-1.6,3.2-1.8,3.8c-0.3,0.6-0.6,1.6-1,0.9
			c-0.4-0.7-3.4-7-3.7-7.9c-0.3-0.8-1.4-3.1-1.9-3.6c-0.5-0.6-0.8-1.3-1.2-1.4c-0.4-0.2-1.1-0.2-1.5,0.2c-0.3,0.4-0.7,0.8-0.5,1.3
			c0.2,0.6,0.5,1.2,0.5,2.1c0,0.9-0.4,3.4-0.6,4.9c-0.2,1.5-0.2,3.8-0.6,5.4c-0.4,1.7-1.2,3.8-1.2,4.4c0,0.6,0.5,1.1,1.2,1
			c0.8-0.1,1.5-0.2,2-0.2c0.5,0,0.5-0.7-0.1-1.2c-0.5-0.5-0.3-2.1-0.2-3c0.1-0.9,0.2-5.9,0.4-6.5c0.2-0.6,0.3-2.4,0.6-2.4
			c0.3,0,2.1,3.4,2.6,4.5c0.4,1.1,1.4,3.1,1.6,3.7c0.2,0.6,1.2,2.3,1.3,2.9c0.2,0.6,0.8,1.7,1.3,1.6c0.5-0.1,1.2-1.2,1.6-2.1
			c0.4-0.9,0.8-1.8,1.2-2.6c0.8-1.8,1.6-3.8,2-4.9c0.4-1.1,1.3-3.7,1.6-3.7c0.3,0,0.4,2,0.7,3.7c0.3,1.7,0.6,5.3,0.8,6.6
			c0.1,1.2,0.3,1.9,0.1,2.2c-0.2,0.3-0.9,1-0.2,1.3c0.7,0.3,1.7,0.3,2.5,0.3c0.8-0.1,1.9-0.5,1.6-1.3
			C773.3,104.7,773,103.3,772.8,102.2z M735.8,87.1c-2.8-0.3-5.5,0.8-6.8,1.6c-1.3,0.7-2.3,1.4-2.9,2.3c-0.6,0.8-1.5,2.2-1.7,2.5
			c-0.3,0.9-1.5,4.5-0.3,7.4c1.2,2.9,2.4,4.5,4.4,5.5c1.9,1,4.7,1.7,6.2,1.5c1.5-0.2,4.8-2.1,6.5-3.8c1.6-1.7,3-4,3-6.7
			c0-2.7-0.7-4.8-2.3-6.6C740.2,88.8,738.5,87.4,735.8,87.1z M738.2,103.2c-2.5,1.9-5.4,1.1-7.9-0.2c-2.5-1.2-3.3-4.8-3.3-5.9
			c0-0.6,0.2-0.6,0.3-1.4c0.1-0.8,0.8-2.6,1.4-3.7c0.6-1.2,2.4-1.6,3.9-1.7c1.5-0.1,3.5-0.2,5.4,1.3c1.9,1.5,3,4.1,3,5.8
			C741,99.2,740.7,101.3,738.2,103.2z M716.5,87c-0.8-0.3-1.2-0.3-1.9-0.3c-0.7-0.1-2.1,0.6-1.9,1.1c0.1,0.5,0.8,0.5,1.1,1.6
			c0.3,1.1,0.3,2.8,0.4,3.8c0.1,1,0.2,3.4,0.1,4.3c0,0.9,0,4.6-0.1,4.9c-0.1,0.2-0.7-0.5-1.1-1c-0.4-0.5-6.2-7-7.3-8.1
			c-1.1-1.2-4.3-4.9-4.6-5.2c-0.2-0.3-0.8-0.9-1.2-0.9c-0.4,0-0.8-0.2-1.4,0.3c-0.6,0.5-1.1,1-0.9,1.6c0.2,0.6,0.8,1.1,1,1.4
			c0.3,0.3,0.5,0.5,0.5,1.3c0,0.8,0,5.9,0.1,7.4c0.1,1.6-0.1,5.6-0.2,6.1c-0.2,0.6-0.2,0.4-0.6,0.7c-0.4,0.2-0.6,1-0.2,1.4
			c0.5,0.3,1.7,0,2.2,0.1c0.5,0.1,2.1-0.1,2.2-0.6c0.1-0.5,0-0.7-0.6-1c-0.5-0.3-0.6-1.2-0.7-2.1c-0.1-0.8-0.4-5.6-0.4-6.3
			c0-0.7-0.2-4.3,0.1-4.3c0.3,0,0.8,0.3,1.2,0.9c0.4,0.6,1.3,1.2,2.2,2.2c1.5,1.8,4.1,4.5,5.1,5.6c1,1.1,1.9,2.3,2.5,3
			c0.7,0.7,1.6,2,2.1,2.2c0.4,0.2,1.3,0.3,1.4-0.2c0.1-0.5,0.2-8.8,0.2-11.4c-0.1-2.6-0.1-3.4,0-3.6c0.1-0.3,0.3-1.4,0.3-1.9
			c0-0.5,0-1.4,0.4-1.6C717.1,88,717.3,87.3,716.5,87z M783.2,86.8c-1.1,0-2.6,0.2-2.5,0.8c0,0.6,0.7,0.8,0.7,1.3
			c0,0.5,0.2,1.6,0.2,2.7c0,1.3,0,4.2,0,6.6c0.1,2.4-0.1,4.6-0.2,5.4c-0.1,0.9-0.6,1.7-0.8,2.2c-0.3,0.4-0.3,0.8,0,0.9
			c0.3,0.1,0.8,0.1,1.7,0.1c0.8,0,2.4,0.1,2.7-0.1c0.2-0.1,0.3-0.7-0.1-1.2c-0.4-0.5-0.4-1.5-0.4-2.6c0-1.1-0.2-5.5-0.1-7.1
			c0.1-1.6,0.1-5.5,0.2-6.1c0.1-0.6,0-1.2,0.4-1.3c0.4-0.1,0.7-0.9,0.4-1.1C785,87,784.3,86.8,783.2,86.8z M683.6,86.7
			c-2.8-0.3-5.5,0.8-6.8,1.6c-1.3,0.7-2.3,1.4-2.9,2.3c-0.6,0.8-1.5,2.2-1.7,2.5c-0.3,0.9-1.5,4.5-0.3,7.4c1.2,2.9,2.4,4.5,4.4,5.5
			c1.9,1,4.7,1.7,6.2,1.5c1.5-0.2,4.8-2.1,6.5-3.8c1.6-1.7,3-4,3-6.7c0-2.7-0.7-4.8-2.3-6.6C688,88.4,686.4,87,683.6,86.7z
			 M686,102.8c-2.5,1.9-5.4,1.1-7.9-0.2c-2.5-1.2-3.3-4.8-3.3-5.9c0-0.6,0.2-0.6,0.3-1.4c0.1-0.8,0.8-2.6,1.4-3.7
			c0.6-1.2,2.4-1.6,3.9-1.7c1.5-0.1,3.5-0.2,5.4,1.3c1.9,1.5,3,4.1,3,5.8C688.9,98.7,688.5,100.9,686,102.8z M602.6,98.5
			c-0.5-1.2-2.3-5.6-2.5-6.3c-0.2-0.7-1.2-1.6-0.6-1.9c0.5-0.3,1.5-0.3,2.2,0c0.7,0.3,1.8,0.9,2.2,0.7c0.5-0.2,0.5-1.5,0.8-2
			c0.3-0.5,0.6-1.5-0.4-1.7c-1-0.2-3.1-0.1-3.7,0.1c-0.7,0.2-0.9,0.2-1.3,0.1c-0.4-0.1-1.3-0.6-1.8-0.6c-0.4,0-0.9,0.6-1.5,0.6
			c-0.6,0-1.6-0.2-2.5-0.2c-0.8,0-2.2-0.2-2.4,0.1c-0.3,0.3-0.4,1-0.5,1.2c-0.1,0.3-0.4,0.9-0.5,1.3c0,0.4,0.1,0.9,1.1,0.7
			c1.1-0.2,2.4-0.4,3-0.4c0.6,0,1.5-0.1,1.3,0.6c-0.2,0.7-0.8,1.7-1,2.2c-0.3,0.5-1.2,2.2-1.2,2.2c-0.6,1.2-2,4.5-2.6,5.3
			c-0.5,0.8-1.3,2.6-1.8,3.7c-0.5,1.1-1.3,2-1.3,2.7c0,0.7,0.3,0.7,1,0.7c0.7,0,1.1-0.2,1.9-0.1c0.8,0,1.7,0.1,1.8-0.5
			c0.1-0.5-0.8-0.8-0.9-1.3c-0.1-0.4,0.3-1.3,0.7-2.3c0.4-1,0.7-2.6,1.4-2.8c0.7-0.2,1.9-0.1,3.2-0.1c1.3,0,2.6-0.4,3.2,0
			c0.6,0.4,0.8,0.9,1.1,1.9c0.4,1,0.8,2.2,1,2.7c0.2,0.5,0.2,0.9-0.1,1.2c-0.3,0.3-0.7,0.9,0,0.9c0.6,0,2.7-0.1,3.3-0.1
			c0.5,0,1.1-0.5,0.3-1.9C604.8,103.7,603.1,99.7,602.6,98.5z M598.8,98.1c-0.2,0.2-1.4,0-2.2,0c-0.8,0-1.5,0.2-1.8-0.2
			c-0.2-0.4,0.5-2.2,0.8-3.1c0.2-0.7,0.7-1.8,1.3-1.8c0.6,0,1.3,1.9,1.6,2.9C599,96.8,599,97.8,598.8,98.1z M623.8,96.9
			c-1.5-1.4-4-1.2-6.2-2.4c-2.2-1.2-2.8-2.2-2.2-3.1c0.6-1,1.4-2,3.2-1.7c1.8,0.4,2.9,1.1,3.2,1.4c0.3,0.3,1.3,0.9,2.3,0
			c1-1,1.4-2,0.5-2.7c-0.9-0.7-3.5-1.9-4.9-1.7c-1.4,0.2-3.4,0.4-4.5,1.7c-1.1,1.3-2.5,3.1-2.1,4.8c0.4,1.8,1.4,3.2,2.9,3.9
			c1.5,0.6,3.4,0.6,4.4,1.3c1.1,0.7,2.7,1.5,2.8,3.2c0.1,1.7-0.4,2.6-1.5,2.8c-1,0.2-1.2,0.2-1.9,0.2c-0.9,0-2.3-0.3-3.3-1.2
			c-1.1-0.9-1.2-1.6-1.8-1.6c-0.6,0-0.9,0.4-1.2,1c-0.3,0.6-0.6,1.7-0.7,2.4c-0.1,0.7,0,1.9,0.8,1.9c0.8,0,0.8-0.6,1.9-0.4
			c1.1,0.2,1.3,0.9,2.9,0.8c1.6-0.1,3.1-0.1,4.3-1.2c1.2-1.1,2.8-2.3,2.8-4.8C625.5,99,625.3,98.3,623.8,96.9z"/>
		<path d="M253.3,39.5c0,1.8,0.1,6,0.2,7c0,1-0.1,5-0.1,5.7c0,0.7,0.1,1-0.2,1.1c-0.3,0.2-1,0.6-0.7,1.1c0.2,0.4,1.1,0.4,1.9,0.4
			c0.8,0,2.1-0.1,2.4-0.2c0.3,0,0.4-0.2-0.1-1.2c-0.5-1-0.6-2.5-0.6-4.3c0-1.8-0.1-6.8-0.1-8.5c0-1.6,0.1-3.3,0.1-3.7
			c0-0.4,0.5-0.9,1.8-0.7c1.4,0.2,3.4,1,3.5,3.5c0,2.5-0.4,3.1-1.6,3.8c-1.1,0.7-3.2,1-3.4,1.4c-0.2,0.4,0.6,1.2,1.2,2
			c0.6,0.8,1.9,2.6,2.4,3.4c0.5,0.8,1.3,2.2,1.3,2.6c0,0.5,0,0.6-0.3,0.7c-0.2,0.1-0.4,1,0.5,1c0.9,0,1.9,0,2.4,0
			c0.5,0,1.6,0.1,1.5-0.6c-0.1-0.6-1.1-2-1.7-3c-0.6-1-3.8-5.5-3.8-5.5s1.2-0.4,2-0.7c0.8-0.3,2.3-1.5,2.5-2.8
			c0.2-1.3,0.5-2.7-0.3-4.5c-0.8-1.7-2.6-2.7-3.4-2.7c-0.8,0-5.1-0.1-5.7-0.1c-0.7,0-1.9,0.1-2.2,0.4c-0.4,0.3-0.4,0.4-0.3,0.6
			c0.1,0.2,0.8,0.4,0.8,1C253.2,37.3,253.3,39.5,253.3,39.5z"/>
		<path d="M737.9,39.5c0,1.8,0.2,6,0.2,7c0,1-0.1,5,0,5.7c0,0.7,0.1,1-0.2,1.1c-0.3,0.2-1,0.6-0.7,1.1c0.2,0.5,1.1,0.4,1.9,0.4
			c0.8,0,2.1-0.1,2.4-0.2c0.3,0,0.4-0.2-0.1-1.2s-0.6-2.5-0.6-4.3c0-1.8-0.1-6.8-0.1-8.5c0-1.6,0.1-3.3,0.1-3.7
			c0-0.4,0.5-0.9,1.8-0.7c1.4,0.2,3.4,1,3.5,3.5c0,2.5-0.4,3.1-1.5,3.8c-1.1,0.7-3.2,1-3.4,1.4c-0.2,0.4,0.6,1.2,1.2,2
			c0.6,0.8,1.9,2.6,2.4,3.4c0.5,0.8,1.3,2.2,1.3,2.6c0,0.5,0,0.6-0.3,0.7c-0.2,0.1-0.4,1,0.5,1c0.9,0,1.9,0,2.4,0
			c0.5,0,1.6,0,1.5-0.6c-0.1-0.6-1.1-2-1.7-3c-0.6-1-3.8-5.5-3.8-5.5s1.2-0.4,2-0.7c0.8-0.3,2.3-1.5,2.5-2.9
			c0.2-1.3,0.5-2.8-0.3-4.5c-0.8-1.7-2.6-2.7-3.4-2.7c-0.8,0-5.1-0.1-5.7-0.1c-0.7,0-1.9,0.1-2.2,0.4c-0.4,0.3-0.4,0.4-0.3,0.6
			c0.1,0.2,0.8,0.4,0.8,1C737.7,37.3,737.9,39.5,737.9,39.5z"/>
		<path d="M373.9,39.6c0,1.3-0.1,4.2,0,6.6c0,2.4-0.1,4.6-0.2,5.4c-0.1,0.9-0.6,1.7-0.8,2.2c-0.3,0.4-0.3,0.8,0,0.9
			c0.3,0.1,0.8,0.1,1.7,0.1c0.8,0,2.4,0.1,2.7,0c0.2-0.1,0.3-0.7-0.1-1.2c-0.4-0.5-0.4-1.5-0.4-2.6c0-1.1-0.1-5.5-0.1-7.1
			c0.1-1.6,0.1-5.5,0.2-6.1c0.1-0.6,0-1.2,0.4-1.3c0.4-0.1,0.7-0.9,0.4-1.1c-0.3-0.3-1-0.4-2-0.4c-1.1,0-2.6,0.2-2.5,0.7
			c0,0.6,0.7,0.8,0.7,1.3C373.7,37.4,373.9,38.4,373.9,39.6z"/>
		<path d="M705.8,39.6c0,1.3-0.1,4.2,0,6.6c0,2.4-0.1,4.6-0.2,5.4c-0.1,0.9-0.6,1.7-0.8,2.2c-0.3,0.4-0.3,0.8,0,0.9
			c0.3,0.1,0.8,0.1,1.7,0.1c0.8,0,2.4,0.1,2.7,0c0.2-0.1,0.3-0.7-0.1-1.2c-0.4-0.5-0.4-1.5-0.4-2.6c0-1.1-0.1-5.5-0.1-7.1
			c0.1-1.6,0.1-5.5,0.2-6.1c0.1-0.6,0-1.2,0.4-1.3c0.4-0.1,0.7-0.9,0.4-1.1c-0.3-0.3-1-0.4-2-0.4c-1.1,0-2.6,0.2-2.5,0.7
			c0,0.6,0.7,0.8,0.7,1.3C705.6,37.4,705.8,38.4,705.8,39.6z"/>
		<path d="M223.7,42.3c1.4,0.5,4,0.9,4.9,2.1c0.9,1.2,1.2,2.7,1.2,4.4c0,1.7-1,3.2-1.9,4.1c-0.9,0.9-2.6,1.8-4.5,1.9
			c-1.9,0.1-2.9-0.5-3.7-0.7c-0.7-0.2-1.1,0.3-1.6-0.1c-0.5-0.3-0.8-1.4-0.4-2.8c0.4-1.4,1.2-2.3,1.8-2c0.6,0.3,0.3,1.5,1.9,2
			c1.6,0.5,1.9,0.9,3.5,0.7c1.6-0.2,2.6-0.6,2.6-2.9c0-2.3-3.8-3.4-5.9-3.9c-2.1-0.5-3.8-2.7-3.9-4.2c-0.1-1.4,0.2-4.1,1.8-5.1
			c1.6-1,3.6-2.2,6.1-1.6c2.4,0.6,3.7,1.4,4,2.1c0.3,0.7-0.1,1.3-1,1.9c-0.9,0.6-1.1,1.1-2.7-0.3c-1.6-1.3-4.2-1.1-4.8-0.7
			c-0.6,0.4-1.7,1.8-0.8,2.9c0.8,1.1,0.9,1.1,1.6,1.4C222.4,42,223.7,42.3,223.7,42.3z"/>
		<path d="M497.5,38.7c0,1.6,0.1,6.4,0.1,7.7c0,1.3-0.1,4.8-0.2,5.1c-0.1,0.3-1.8,0.9-1.8,1.6c0,0.7,1.4,0.4,2.7,0.4
			c1.3,0,3.6,0.2,4.5,0.3c1,0,2.8,0,3.3,0.1c0.4,0.1,0.9,0.3,1.1,0.5c0.2,0.2,0.8,0.9,1.2-0.3c0.4-1.2,0.6-2.3,0.5-2.7
			c-0.1-0.4-0.4-0.6-0.8-0.6c-0.4,0-0.4,0.6-1.3,0.7c-0.9,0.1-2.7,0-3.3,0c-0.7,0-2.7,0.3-3.1-0.3c-0.3-0.6-0.2-2.5-0.1-3.7
			c0-1.2-0.2-2.7,0.3-2.8c0.5-0.1,2,0,2.8,0.1c0.8,0,1.6,0,2.1,0.3c0.5,0.3,1,0.8,1.5-0.7c0.5-1.5,0.6-2.2-0.2-2.3
			c-0.9-0.1-2.7-0.1-3.5-0.1c-0.8,0-2.8,0.3-2.9-0.1c-0.1-0.4,0-2.3,0.1-3.4c0-1.1,0.1-2,0.8-2.3c0.7-0.3,1.8-0.1,2.7,0
			c0.9,0,2.4,0,2.8,0.5c0.4,0.5,0.7,1,1.2,1c0.5,0,1-1.3,1.2-2.1c0.1-0.8-0.4-1.6-1.6-1.6c-1.2,0-5.6,0.1-6.7,0.1
			c-1.1,0-4.3,0.1-4.6,0.5c-0.3,0.4-0.4,0.9,0,1.2c0.4,0.3,1,0.3,1.2,1.1C497.4,37.5,497.5,38.7,497.5,38.7z"/>
		<path d="M773.6,38.7c0,1.6,0.1,6.4,0.1,7.7c0,1.3-0.1,4.8-0.2,5.1c-0.1,0.3-1.8,0.9-1.8,1.6c0,0.7,1.4,0.4,2.7,0.4
			c1.3,0,3.6,0.2,4.5,0.3c1,0,2.8,0,3.3,0.1c0.4,0.1,0.9,0.3,1.1,0.5c0.2,0.2,0.8,0.9,1.2-0.3c0.4-1.2,0.6-2.3,0.5-2.7
			c-0.1-0.4-0.4-0.6-0.8-0.6s-0.4,0.6-1.3,0.7c-0.9,0.1-2.7,0-3.3,0c-0.7,0-2.7,0.3-3.1-0.3c-0.3-0.6-0.2-2.5-0.1-3.7
			c0-1.2-0.2-2.7,0.3-2.8c0.5-0.1,2,0,2.8,0.1c0.8,0,1.6,0,2.1,0.3c0.5,0.3,1,0.8,1.5-0.7c0.5-1.5,0.6-2.2-0.2-2.3
			c-0.9-0.1-2.7-0.1-3.5-0.1c-0.8,0-2.8,0.3-2.9-0.1c-0.1-0.4,0-2.3,0.1-3.4c0-1.1,0.1-2,0.8-2.3c0.7-0.3,1.8-0.1,2.7,0
			c0.9,0,2.4,0,2.8,0.5c0.4,0.5,0.7,1,1.2,1c0.5,0,1-1.3,1.2-2.1c0.1-0.8-0.4-1.6-1.6-1.6c-1.2,0-5.6,0.1-6.7,0.1
			c-1.1,0-4.3,0.1-4.6,0.5c-0.3,0.4-0.4,0.9,0,1.2c0.4,0.3,1,0.3,1.2,1.1C773.5,37.5,773.6,38.7,773.6,38.7z"/>
		<path d="M182.1,35.2c-0.9,0-2.6-0.3-4.1,0.8c-1.5,1.2-2.8,3.7-2.9,5.7c-0.1,1.9,0.2,3.9,1.4,5.4c1.2,1.5,1.9,2.5,4.1,2.8
			c2.2,0.3,2.7,0.2,4-0.4c1.3-0.5,2.6-1.2,2.7-2.3c0.1-1.1-0.7-1.3-1.3-1.2c-0.6,0-2.5,0.3-2.8-0.1c-0.3-0.5-0.1-1.9,0.2-2.4
			c0.3-0.4,0.4-0.8,2-0.7c1.6,0.1,4.3-0.2,4.6,0.1c0.3,0.3,0.2,2.3,0.3,3.2c0,0.9-0.2,4.5-0.3,5.3c-0.1,0.8-0.9,1.9-1.6,2.6
			c-0.8,0.7-2,1.1-2.3,0.9c-0.4-0.2,0.2-1.1,0.7-1.8c0.5-0.7,0.7-2,0.7-2.4c0-0.3,0-0.7-0.7,0.3c-0.7,1-1.5,1.6-2.3,1.9
			c-0.7,0.3-3.9,0.4-5,0.3c-1.1-0.1-4.2-2.2-5.1-3.1c-0.9-0.9-2.5-4.4-2.2-8c0.3-3.6,1.7-5.3,3.3-6.6c1.6-1.3,4-2.6,6.4-2.9
			c2.5-0.3,3.1-0.2,4.4,0.1c1.3,0.3,2.3,1,2.8,1.3c0.5,0.4,1,1.1,0.5,1.8c-0.5,0.7-2,1.8-2.5,1.8c-0.5,0-0.8-0.9-1.3-1.2
			c-0.5-0.3-1.3-0.8-1.9-0.8C183,35.3,182.8,35.3,182.1,35.2z"/>
		<path d="M542.2,51.9c-0.9,0-2.3-0.3-3.3-1.1c-1.1-0.9-1.2-1.6-1.8-1.6c-0.6,0-0.9,0.4-1.2,1c-0.3,0.6-0.6,1.7-0.7,2.4
			c-0.1,0.7,0,1.9,0.8,1.9c0.8,0,0.8-0.6,1.9-0.4c1.1,0.2,1.3,0.9,2.9,0.8c1.6-0.1,3.1-0.1,4.3-1.2c1.2-1.1,2.8-2.3,2.8-4.8
			c0.1-2.5-0.1-3.2-1.6-4.6c-1.5-1.4-4-1.2-6.2-2.4c-2.2-1.2-2.8-2.2-2.2-3.1c0.6-1,1.4-2,3.2-1.7c1.8,0.4,2.8,1.1,3.2,1.4
			c0.3,0.3,1.3,0.9,2.3,0c1-1,1.4-2,0.5-2.7c-0.9-0.7-3.5-1.9-4.9-1.7c-1.4,0.2-3.4,0.4-4.5,1.7c-1.1,1.3-2.5,3.1-2.1,4.8
			c0.4,1.8,1.4,3.3,2.9,3.9c1.5,0.6,3.4,0.6,4.4,1.3c1.1,0.7,2.7,1.5,2.8,3.2c0.1,1.7-0.4,2.6-1.5,2.8
			C543,51.9,542.9,51.9,542.2,51.9z"/>
		<path d="M239.5,41.8c0.1,2.2-0.1,5.3-0.2,7.1c-0.1,1.8-0.7,3.8-1,4.3c-0.3,0.5-0.2,1.5,0.7,1.6c0.9,0.1,1.8-0.1,2.5,0
			c0.6,0.1,2.1-0.2,2.2-0.8c0.1-0.6-0.7-0.6-1-0.9c-0.2-0.3-0.5-3.8-0.5-5c0-1.3,0-5.5,0.1-7.2c0-1.6-0.2-3.1,0.4-3.5
			c0.5-0.4,1.9-0.5,2.7-0.3c0.7,0.3,1.5,0.4,1.6,0.9c0.1,0.4,1,0.7,1.2,0.1c0.3-0.5,0.6-2.7,0.4-3.1c-0.2-0.4-0.5-0.7-1.2-0.6
			c-0.7,0.1-5.2,0.2-6.6,0.2c-1.4,0-5.7-0.5-6.3-0.5c-0.5,0-1.2,0.4-1.2,1.1c0,0.8-0.1,2.4,0.3,2.8c0.4,0.5,0.8,0.2,1.2-0.3
			c0.5-0.5,1.2-0.7,2-0.7c0.8,0,1.8-0.2,2.1-0.1c0.3,0.2,0.3,1,0.4,1.5C239.2,39.1,239.5,41.8,239.5,41.8z"/>
		<path d="M759.6,41.8c0.1,2.2-0.1,5.3-0.2,7.1c-0.1,1.8-0.7,3.8-1,4.3c-0.3,0.5-0.2,1.5,0.7,1.6c0.9,0.1,1.8-0.1,2.5,0
			c0.6,0.1,2.1-0.2,2.2-0.8c0.1-0.6-0.7-0.6-1-0.9c-0.2-0.3-0.5-3.8-0.5-5c0-1.3,0-5.5,0.1-7.2c0-1.6-0.2-3.1,0.4-3.5
			s1.9-0.5,2.7-0.3c0.7,0.3,1.5,0.4,1.6,0.9c0.1,0.4,1,0.7,1.2,0.1c0.3-0.5,0.6-2.7,0.4-3.1c-0.2-0.4-0.5-0.7-1.2-0.6
			c-0.7,0.1-5.2,0.2-6.6,0.2c-1.4,0-5.7-0.5-6.3-0.5c-0.5,0-1.2,0.4-1.2,1.1c0,0.8-0.1,2.4,0.3,2.8c0.4,0.5,0.8,0.2,1.2-0.3
			c0.5-0.5,1.2-0.7,2-0.7c0.8,0,1.8-0.2,2.1-0.1c0.3,0.2,0.3,1,0.4,1.5C759.4,39.1,759.6,41.8,759.6,41.8z"/>
		<path d="M301.9,43.7c1.5,1.8,4.1,4.5,5.1,5.6c1,1.1,1.9,2.3,2.5,3c0.7,0.7,1.6,2,2.1,2.2c0.5,0.2,1.3,0.3,1.4-0.2
			c0.1-0.5,0.2-8.8,0.2-11.4c-0.1-2.6-0.1-3.4,0-3.6c0.1-0.3,0.3-1.4,0.3-1.9c0-0.5,0-1.4,0.4-1.6c0.3-0.2,0.5-0.9-0.3-1.2
			c-0.8-0.3-1.2-0.3-1.9-0.3c-0.7-0.1-2.1,0.6-1.9,1.1c0.1,0.5,0.8,0.5,1.1,1.6c0.3,1.1,0.3,2.8,0.4,3.8c0.1,1,0.2,3.4,0.1,4.3
			c0,0.9,0,4.6-0.1,4.9c-0.1,0.2-0.7-0.5-1.1-1c-0.4-0.5-6.2-7-7.3-8.1c-1.1-1.2-4.3-4.9-4.6-5.2c-0.2-0.3-0.8-0.9-1.2-0.9
			c-0.4,0-0.8-0.2-1.4,0.3c-0.6,0.5-1.1,1-0.9,1.6c0.2,0.6,0.8,1.1,1,1.4c0.3,0.3,0.5,0.5,0.5,1.3c0,0.8,0,5.9,0.1,7.4
			c0.1,1.6-0.1,5.6-0.2,6.1c-0.2,0.6-0.2,0.4-0.6,0.7c-0.4,0.2-0.6,1-0.2,1.4c0.5,0.3,1.7,0,2.2,0.1c0.5,0.1,2.1-0.1,2.2-0.6
			c0.1-0.5,0-0.7-0.6-1c-0.5-0.3-0.6-1.2-0.7-2.1c-0.1-0.8-0.4-5.6-0.4-6.3c0-0.7-0.2-4.3,0.1-4.3c0.3,0,0.8,0.3,1.2,0.9
			C300.1,42,301,42.6,301.9,43.7z"/>
		<path d="M665.5,43.7c1.5,1.8,4.1,4.5,5.1,5.6c1,1.1,1.9,2.3,2.5,3c0.7,0.7,1.6,2,2.1,2.2c0.4,0.2,1.3,0.3,1.4-0.2
			c0.1-0.5,0.2-8.8,0.1-11.4c-0.1-2.6-0.1-3.4,0-3.6c0.1-0.3,0.3-1.4,0.3-1.9c0-0.5,0-1.4,0.4-1.6c0.3-0.2,0.5-0.9-0.2-1.2
			c-0.8-0.3-1.2-0.3-1.9-0.3c-0.7-0.1-2.1,0.6-1.9,1.1c0.1,0.5,0.8,0.5,1.1,1.6c0.3,1.1,0.3,2.8,0.4,3.8c0.1,1,0.2,3.4,0.1,4.3
			c0,0.9,0,4.6-0.1,4.9c-0.1,0.2-0.7-0.5-1.1-1c-0.4-0.5-6.2-7-7.3-8.1c-1.1-1.2-4.3-4.9-4.6-5.2c-0.2-0.3-0.8-0.9-1.2-0.9
			c-0.4,0-0.8-0.2-1.4,0.3c-0.6,0.5-1.1,1-0.9,1.6c0.2,0.6,0.8,1.1,1,1.4c0.3,0.3,0.5,0.5,0.5,1.3c0,0.8,0,5.9,0.1,7.4
			c0.1,1.6-0.1,5.6-0.2,6.1c-0.2,0.6-0.2,0.4-0.6,0.7c-0.4,0.2-0.6,1-0.2,1.4c0.5,0.3,1.7,0,2.2,0.1c0.5,0.1,2.1-0.1,2.2-0.6
			c0.1-0.5,0-0.7-0.6-1c-0.5-0.3-0.6-1.2-0.7-2.1c-0.1-0.8-0.4-5.6-0.4-6.3c0-0.7-0.2-4.3,0.1-4.3c0.3,0,0.8,0.3,1.2,0.9
			C663.7,42,664.6,42.6,665.5,43.7z"/>
		<path d="M358.3,49.4c0.8-1.8,1.6-3.8,2-4.9c0.4-1.1,1.3-3.7,1.6-3.7c0.3,0,0.4,2,0.7,3.7c0.3,1.7,0.6,5.3,0.8,6.6
			c0.1,1.2,0.3,1.9,0.1,2.2c-0.2,0.3-0.9,1-0.2,1.3c0.7,0.3,1.7,0.3,2.5,0.3c0.8-0.1,1.9-0.5,1.6-1.3c-0.3-0.9-0.6-2.2-0.8-3.3
			c-0.2-1.1-1.2-7.1-1.4-9.2c-0.2-2-0.4-4.6-0.7-5.1c-0.3-0.5-1-1.2-1.8-1.2c-0.8,0-1.7,0.5-1.5,1.2c0.1,0.7,0.1,1.7-0.2,2.3
			c-0.2,0.6-2.2,4.4-2.6,5.5c-0.4,1-1.6,3.2-1.8,3.8c-0.3,0.6-0.6,1.6-1,0.9c-0.4-0.7-3.4-7-3.7-7.9c-0.3-0.8-1.4-3.1-1.9-3.6
			c-0.5-0.6-0.8-1.3-1.2-1.4c-0.4-0.2-1.1-0.2-1.5,0.2c-0.3,0.4-0.7,0.8-0.5,1.3c0.2,0.6,0.5,1.2,0.5,2.1c0,0.9-0.4,3.4-0.6,4.9
			c-0.2,1.5-0.2,3.8-0.6,5.4c-0.4,1.7-1.2,3.8-1.2,4.4c0,0.6,0.5,1.1,1.2,1c0.8-0.1,1.5-0.2,2-0.2c0.5,0,0.5-0.7-0.1-1.2
			c-0.5-0.5-0.3-2.1-0.2-3c0.1-0.9,0.2-5.9,0.4-6.5c0.2-0.6,0.3-2.4,0.6-2.4c0.3,0,2.1,3.4,2.6,4.5c0.4,1.1,1.4,3.1,1.6,3.7
			c0.2,0.6,1.2,2.3,1.3,2.9c0.2,0.6,0.8,1.7,1.3,1.6c0.5-0.1,1.2-1.2,1.6-2.1C357.5,51,357.9,50.1,358.3,49.4z"/>
		<path d="M288.6,37.6c-1.6-1.9-3.3-3.3-6.1-3.6c-2.8-0.3-5.5,0.8-6.8,1.5c-1.3,0.7-2.3,1.4-2.9,2.2c-0.6,0.8-1.5,2.2-1.7,2.5
			c-0.3,0.9-1.5,4.5-0.4,7.4c1.2,2.9,2.4,4.5,4.4,5.5c1.9,1,4.7,1.7,6.2,1.5c1.5-0.2,4.8-2.1,6.5-3.8c1.7-1.7,3-4,3-6.7
			C290.9,41.6,290.2,39.5,288.6,37.6z M285,50.1c-2.5,1.9-5.4,1.1-7.9-0.2c-2.5-1.3-3.3-4.8-3.3-5.9c0-0.6,0.2-0.6,0.3-1.4
			c0.1-0.8,0.8-2.6,1.4-3.7c0.6-1.2,2.4-1.5,3.9-1.7c1.5-0.1,3.5-0.2,5.4,1.3c1.9,1.5,3,4.1,3,5.8C287.8,46.1,287.5,48.3,285,50.1z"
			/>
		<path d="M337.2,37.6c-1.6-1.9-3.3-3.3-6.1-3.6c-2.8-0.3-5.5,0.8-6.8,1.5c-1.3,0.7-2.3,1.4-2.9,2.2c-0.6,0.8-1.5,2.2-1.7,2.5
			c-0.3,0.9-1.5,4.5-0.4,7.4c1.2,2.9,2.4,4.5,4.4,5.5c1.9,1,4.7,1.7,6.2,1.5c1.5-0.2,4.8-2.1,6.5-3.8c1.7-1.7,3-4,3-6.7
			C339.4,41.6,338.8,39.5,337.2,37.6z M333.5,50.1c-2.5,1.9-5.4,1.1-7.9-0.2c-2.5-1.3-3.3-4.8-3.3-5.9c0-0.6,0.2-0.6,0.3-1.4
			c0.1-0.8,0.8-2.6,1.4-3.7c0.6-1.2,2.4-1.5,3.9-1.7c1.5-0.1,3.5-0.2,5.4,1.3c1.9,1.5,3,4.1,3,5.8C336.4,46.1,336,48.3,333.5,50.1z"
			/>
		<path d="M459.9,37.6c-1.6-1.9-3.3-3.3-6.1-3.6c-2.8-0.3-5.5,0.8-6.8,1.5c-1.3,0.7-2.3,1.4-2.9,2.2c-0.6,0.8-1.5,2.2-1.7,2.5
			c-0.3,0.9-1.5,4.5-0.4,7.4c1.2,2.9,2.4,4.5,4.4,5.5c1.9,1,4.7,1.7,6.2,1.5c1.5-0.2,4.8-2.1,6.5-3.8c1.7-1.7,3-4,3-6.7
			C462.2,41.6,461.5,39.5,459.9,37.6z M456.3,50.1c-2.5,1.9-5.4,1.1-7.9-0.2c-2.5-1.3-3.3-4.8-3.3-5.9c0-0.6,0.2-0.6,0.3-1.4
			c0.1-0.8,0.8-2.6,1.4-3.7c0.6-1.2,2.4-1.5,3.9-1.7c1.5-0.1,3.5-0.2,5.4,1.3c1.9,1.5,3,4.1,3,5.8C459.1,46.1,458.8,48.3,456.3,50.1
			z"/>
		<path d="M211.9,52.5c-0.8-1.4-2.4-5.4-3-6.6c-0.5-1.2-2.3-5.6-2.5-6.3c-0.2-0.7-1.2-1.6-0.6-1.9c0.5-0.3,1.5-0.3,2.2,0
			c0.7,0.3,1.8,0.9,2.2,0.8c0.5-0.2,0.5-1.5,0.8-2c0.3-0.5,0.6-1.5-0.4-1.8c-1-0.3-3.1-0.1-3.7,0.1c-0.7,0.1-0.9,0.2-1.3,0.1
			c-0.4-0.1-1.3-0.6-1.8-0.6c-0.4,0-0.9,0.6-1.5,0.6c-0.6,0-1.6-0.2-2.5-0.2c-0.8,0-2.2-0.2-2.4,0c-0.3,0.3-0.4,1-0.5,1.2
			c-0.1,0.3-0.4,0.9-0.5,1.3c0,0.4,0.1,0.9,1.1,0.7c1.1-0.2,2.4-0.4,3-0.4c0.6,0,1.5-0.1,1.3,0.6c-0.2,0.7-0.8,1.7-1,2.2
			c-0.3,0.5-1.2,2.2-1.2,2.2c-0.6,1.2-2.1,4.5-2.6,5.3c-0.5,0.8-1.3,2.6-1.8,3.7c-0.5,1.1-1.3,2-1.3,2.7c0,0.7,0.3,0.7,1,0.7
			c0.7,0,1.1-0.2,1.9-0.1c0.8,0,1.7,0.1,1.8-0.5c0.1-0.5-0.8-0.8-0.8-1.3c-0.1-0.4,0.3-1.3,0.7-2.3c0.4-1,0.7-2.6,1.4-2.8
			c0.7-0.2,1.9-0.1,3.2-0.1c1.3,0,2.6-0.3,3.2,0.1c0.6,0.4,0.8,0.9,1.1,1.9c0.4,1,0.8,2.2,1,2.7c0.2,0.5,0.2,0.9-0.1,1.2
			c-0.3,0.3-0.7,0.9,0,0.9c0.6,0,2.7,0,3.3-0.1C212.1,54.4,212.7,53.9,211.9,52.5z M205.1,45.4c-0.2,0.2-1.4,0-2.2,0
			c-0.8,0-1.5,0.2-1.8-0.2c-0.2-0.4,0.5-2.2,0.8-3.1c0.3-0.7,0.7-1.8,1.3-1.8c0.6,0,1.3,1.9,1.6,2.9
			C205.3,44.2,205.3,45.2,205.1,45.4z"/>
		<path d="M399,52.5c-0.8-1.4-2.4-5.4-3-6.6c-0.5-1.2-2.3-5.6-2.5-6.3c-0.2-0.7-1.2-1.6-0.6-1.9c0.5-0.3,1.5-0.3,2.2,0
			c0.7,0.3,1.8,0.9,2.2,0.8c0.5-0.2,0.5-1.5,0.8-2c0.3-0.5,0.6-1.5-0.4-1.8c-1-0.3-3.1-0.1-3.7,0.1c-0.7,0.1-0.9,0.2-1.3,0.1
			c-0.4-0.1-1.3-0.6-1.8-0.6c-0.4,0-0.9,0.6-1.5,0.6c-0.6,0-1.6-0.2-2.5-0.2c-0.8,0-2.2-0.2-2.4,0c-0.3,0.3-0.4,1-0.5,1.2
			c-0.1,0.3-0.4,0.9-0.5,1.3c0,0.4,0.1,0.9,1.1,0.7c1.1-0.2,2.4-0.4,3-0.4c0.6,0,1.5-0.1,1.3,0.6c-0.2,0.7-0.8,1.7-1.1,2.2
			c-0.3,0.5-1.2,2.2-1.2,2.2c-0.6,1.2-2.1,4.5-2.6,5.3c-0.5,0.8-1.3,2.6-1.8,3.7c-0.5,1.1-1.3,2-1.3,2.7c0,0.7,0.3,0.7,1,0.7
			c0.7,0,1.1-0.2,1.9-0.1c0.8,0,1.7,0.1,1.8-0.5c0.1-0.5-0.8-0.8-0.8-1.3c-0.1-0.4,0.3-1.3,0.7-2.3c0.4-1,0.7-2.6,1.4-2.8
			c0.7-0.2,1.9-0.1,3.2-0.1c1.3,0,2.6-0.3,3.2,0.1c0.6,0.4,0.8,0.9,1.1,1.9c0.4,1,0.8,2.2,1,2.7c0.2,0.5,0.2,0.9-0.1,1.2
			c-0.3,0.3-0.7,0.9,0,0.9c0.6,0,2.7,0,3.2-0.1C399.2,54.4,399.8,53.9,399,52.5z M392.2,45.4c-0.2,0.2-1.4,0-2.2,0
			c-0.8,0-1.5,0.2-1.8-0.2c-0.2-0.4,0.5-2.2,0.8-3.1c0.3-0.7,0.7-1.8,1.3-1.8c0.6,0,1.3,1.9,1.6,2.9
			C392.4,44.2,392.4,45.2,392.2,45.4z"/>
		<path d="M653,52.5c-0.8-1.4-2.4-5.4-3-6.6c-0.5-1.2-2.3-5.6-2.5-6.3c-0.2-0.7-1.2-1.6-0.6-1.9c0.5-0.3,1.5-0.3,2.2,0
			c0.7,0.3,1.8,0.9,2.2,0.8c0.5-0.2,0.5-1.5,0.8-2c0.3-0.5,0.7-1.5-0.4-1.8c-1-0.3-3.1-0.1-3.7,0.1c-0.7,0.1-0.9,0.2-1.3,0.1
			c-0.4-0.1-1.3-0.6-1.8-0.6c-0.4,0-0.9,0.6-1.5,0.6c-0.6,0-1.6-0.2-2.5-0.2c-0.8,0-2.2-0.2-2.4,0c-0.3,0.3-0.4,1-0.5,1.2
			c-0.1,0.3-0.4,0.9-0.5,1.3c0,0.4,0.1,0.9,1.1,0.7c1.1-0.2,2.4-0.4,3-0.4c0.6,0,1.5-0.1,1.3,0.6c-0.2,0.7-0.8,1.7-1.1,2.2
			c-0.3,0.5-1.2,2.2-1.2,2.2c-0.6,1.2-2.1,4.5-2.6,5.3c-0.5,0.8-1.3,2.6-1.8,3.7c-0.5,1.1-1.3,2-1.3,2.7c0,0.7,0.3,0.7,1,0.7
			c0.7,0,1.1-0.2,1.9-0.1c0.8,0,1.7,0.1,1.8-0.5c0.1-0.5-0.8-0.8-0.8-1.3c-0.1-0.4,0.3-1.3,0.7-2.3c0.4-1,0.7-2.6,1.4-2.8
			c0.7-0.2,1.9-0.1,3.2-0.1c1.3,0,2.6-0.3,3.2,0.1c0.6,0.4,0.8,0.9,1.1,1.9c0.4,1,0.8,2.2,1,2.7c0.2,0.5,0.2,0.9-0.1,1.2
			c-0.3,0.3-0.7,0.9,0,0.9c0.6,0,2.7,0,3.3-0.1C653.2,54.4,653.8,53.9,653,52.5z M646.2,45.4c-0.2,0.2-1.4,0-2.2,0
			c-0.8,0-1.5,0.2-1.8-0.2c-0.2-0.4,0.5-2.2,0.8-3.1c0.3-0.7,0.7-1.8,1.3-1.8c0.6,0,1.3,1.9,1.6,2.9
			C646.4,44.2,646.5,45.2,646.2,45.4z"/>
		<path d="M588.6,52.4c-0.8-1.4-2.5-5.4-3-6.6c-0.5-1.2-2.3-5.6-2.5-6.3c-0.2-0.7-1.2-1.6-0.6-1.9c0.5-0.3,1.5-0.3,2.2,0
			c0.7,0.2,1.8,0.9,2.2,0.7c0.5-0.2,0.5-1.5,0.8-2c0.3-0.5,0.6-1.5-0.4-1.7c-1-0.2-3.1-0.1-3.7,0.1c-0.7,0.2-0.9,0.2-1.3,0.1
			c-0.4-0.1-1.3-0.6-1.8-0.6c-0.4,0-0.9,0.6-1.5,0.6c-0.6,0-1.6-0.2-2.5-0.2c-0.8,0-2.2-0.2-2.4,0.1c-0.3,0.3-0.4,1-0.5,1.2
			c-0.1,0.3-0.4,0.9-0.5,1.3c0,0.4,0.1,0.9,1.1,0.7c1.1-0.2,2.4-0.4,3-0.4c0.6,0,1.5-0.1,1.3,0.6c-0.2,0.7-0.8,1.7-1,2.2
			c-0.3,0.5-1.2,2.2-1.2,2.2c-0.6,1.2-2,4.5-2.6,5.3c-0.5,0.8-1.3,2.6-1.8,3.7c-0.5,1.1-1.3,2-1.3,2.7c0,0.7,0.3,0.7,1,0.7
			c0.7,0,1.1-0.2,1.9-0.1c0.8,0,1.7,0.1,1.8-0.5c0.1-0.5-0.8-0.8-0.9-1.3c-0.1-0.4,0.3-1.3,0.7-2.3c0.4-1,0.7-2.6,1.4-2.8
			c0.7-0.2,1.9-0.1,3.2-0.1c1.3,0,2.6-0.4,3.2,0c0.6,0.4,0.8,0.9,1.1,1.9c0.4,1,0.8,2.2,1,2.7c0.2,0.5,0.2,0.9-0.1,1.2
			c-0.3,0.3-0.7,0.9,0,0.9c0.6,0,2.7-0.1,3.3-0.1C588.8,54.4,589.5,53.9,588.6,52.4z M581.9,45.4c-0.2,0.2-1.4,0-2.2,0
			c-0.8,0-1.5,0.2-1.8-0.2c-0.2-0.4,0.5-2.2,0.8-3.1c0.3-0.7,0.7-1.8,1.3-1.8c0.6,0,1.3,1.9,1.6,2.9C582,44.1,582.1,45.2,581.9,45.4
			z"/>
		<path d="M700,52.4c-0.8-1.4-2.5-5.4-3-6.6c-0.5-1.2-2.3-5.6-2.5-6.3c-0.2-0.7-1.2-1.6-0.6-1.9c0.5-0.3,1.5-0.3,2.2,0
			c0.7,0.2,1.8,0.9,2.2,0.7c0.5-0.2,0.5-1.5,0.8-2c0.3-0.5,0.6-1.5-0.4-1.7c-1-0.2-3.1-0.1-3.7,0.1c-0.7,0.2-0.9,0.2-1.3,0.1
			c-0.4-0.1-1.3-0.6-1.8-0.6c-0.4,0-0.9,0.6-1.5,0.6c-0.6,0-1.6-0.2-2.5-0.2c-0.8,0-2.2-0.2-2.4,0.1c-0.3,0.3-0.4,1-0.5,1.2
			c-0.1,0.3-0.4,0.9-0.5,1.3c0,0.4,0.1,0.9,1.1,0.7c1.1-0.2,2.4-0.4,3-0.4c0.6,0,1.5-0.1,1.3,0.6c-0.2,0.7-0.8,1.7-1,2.2
			c-0.3,0.5-1.2,2.2-1.2,2.2c-0.6,1.2-2,4.5-2.6,5.3c-0.5,0.8-1.3,2.6-1.8,3.7c-0.5,1.1-1.3,2-1.3,2.7c0,0.7,0.3,0.7,1,0.7
			c0.7,0,1.1-0.2,1.9-0.1c0.8,0,1.7,0.1,1.8-0.5c0.1-0.5-0.8-0.8-0.9-1.3c-0.1-0.4,0.3-1.3,0.7-2.3c0.4-1,0.7-2.6,1.4-2.8
			c0.7-0.2,1.9-0.1,3.2-0.1c1.3,0,2.6-0.4,3.2,0c0.6,0.4,0.8,0.9,1.1,1.9c0.4,1,0.8,2.2,1,2.7c0.2,0.5,0.2,0.9-0.1,1.2
			c-0.3,0.3-0.7,0.9,0,0.9c0.6,0,2.7-0.1,3.3-0.1C700.2,54.4,700.8,53.9,700,52.4z M693.3,45.4c-0.2,0.2-1.4,0-2.2,0
			c-0.8,0-1.5,0.2-1.8-0.2c-0.2-0.4,0.5-2.2,0.8-3.1c0.2-0.7,0.7-1.8,1.3-1.8c0.6,0,1.3,1.9,1.6,2.9
			C693.4,44.1,693.5,45.2,693.3,45.4z"/>
		<path d="M731.8,52.4c-0.8-1.4-2.5-5.4-3-6.6c-0.5-1.2-2.3-5.6-2.5-6.3c-0.2-0.7-1.2-1.6-0.6-1.9c0.5-0.3,1.5-0.3,2.2,0
			c0.7,0.2,1.8,0.9,2.2,0.7c0.5-0.2,0.5-1.5,0.8-2c0.3-0.5,0.6-1.5-0.4-1.7c-1-0.2-3.1-0.1-3.7,0.1c-0.7,0.2-0.9,0.2-1.3,0.1
			c-0.4-0.1-1.3-0.6-1.8-0.6c-0.4,0-0.9,0.6-1.5,0.6c-0.6,0-1.6-0.2-2.5-0.2c-0.8,0-2.2-0.2-2.4,0.1c-0.3,0.3-0.4,1-0.5,1.2
			c-0.1,0.3-0.4,0.9-0.5,1.3c0,0.4,0.1,0.9,1.1,0.7c1.1-0.2,2.4-0.4,3-0.4c0.6,0,1.5-0.1,1.3,0.6c-0.2,0.7-0.8,1.7-1,2.2
			c-0.3,0.5-1.2,2.2-1.2,2.2c-0.6,1.2-2,4.5-2.6,5.3c-0.5,0.8-1.3,2.6-1.8,3.7c-0.5,1.1-1.3,2-1.3,2.7c0,0.7,0.3,0.7,1,0.7
			c0.7,0,1.1-0.2,1.9-0.1c0.8,0,1.7,0.1,1.8-0.5c0.1-0.5-0.8-0.8-0.9-1.3c-0.1-0.4,0.3-1.3,0.7-2.3c0.4-1,0.7-2.6,1.4-2.8
			c0.7-0.2,1.9-0.1,3.2-0.1c1.3,0,2.6-0.4,3.2,0c0.6,0.4,0.8,0.9,1.1,1.9c0.4,1,0.8,2.2,1,2.7c0.2,0.5,0.2,0.9-0.1,1.2
			c-0.3,0.3-0.7,0.9,0,0.9c0.6,0,2.7-0.1,3.3-0.1C732,54.4,732.6,53.9,731.8,52.4z M725,45.4c-0.2,0.2-1.4,0-2.2,0
			c-0.8,0-1.5,0.2-1.8-0.2c-0.2-0.4,0.5-2.2,0.8-3.1c0.3-0.7,0.7-1.8,1.3-1.8c0.6,0,1.3,1.9,1.6,2.9C725.2,44.1,725.2,45.2,725,45.4
			z"/>
		<path d="M806.4,52.4c-0.8-1.4-2.5-5.4-3-6.6c-0.5-1.2-2.3-5.6-2.5-6.3c-0.2-0.7-1.2-1.6-0.6-1.9c0.5-0.3,1.5-0.3,2.2,0
			c0.7,0.2,1.8,0.9,2.2,0.7c0.5-0.2,0.5-1.5,0.8-2c0.3-0.5,0.6-1.5-0.4-1.7c-1-0.2-3.1-0.1-3.7,0.1c-0.7,0.2-0.9,0.2-1.3,0.1
			c-0.4-0.1-1.3-0.6-1.8-0.6c-0.4,0-0.9,0.6-1.5,0.6c-0.6,0-1.6-0.2-2.5-0.2c-0.8,0-2.2-0.2-2.4,0.1c-0.3,0.3-0.4,1-0.5,1.2
			c-0.1,0.3-0.4,0.9-0.5,1.3c0,0.4,0.1,0.9,1.1,0.7c1.1-0.2,2.4-0.4,3-0.4c0.6,0,1.5-0.1,1.3,0.6c-0.2,0.7-0.8,1.7-1,2.2
			c-0.3,0.5-1.2,2.2-1.2,2.2c-0.6,1.2-2,4.5-2.6,5.3c-0.5,0.8-1.3,2.6-1.8,3.7c-0.5,1.1-1.3,2-1.3,2.7c0,0.7,0.3,0.7,1,0.7
			c0.7,0,1.1-0.2,1.9-0.1c0.8,0,1.7,0.1,1.8-0.5c0.1-0.5-0.8-0.8-0.9-1.3c-0.1-0.4,0.3-1.3,0.7-2.3c0.4-1,0.7-2.6,1.4-2.8
			c0.7-0.2,1.9-0.1,3.2-0.1c1.3,0,2.6-0.4,3.2,0c0.6,0.4,0.8,0.9,1.1,1.9c0.4,1,0.8,2.2,1,2.7c0.2,0.5,0.2,0.9-0.1,1.2
			c-0.3,0.3-0.7,0.9,0,0.9c0.6,0,2.7-0.1,3.3-0.1C806.6,54.4,807.2,53.9,806.4,52.4z M799.6,45.4c-0.2,0.2-1.4,0-2.2,0
			c-0.8,0-1.5,0.2-1.8-0.2c-0.2-0.4,0.5-2.2,0.8-3.1c0.2-0.7,0.7-1.8,1.3-1.8c0.6,0,1.3,1.9,1.6,2.9
			C799.8,44.1,799.9,45.2,799.6,45.4z"/>
		<path d="M404.8,34.9c0.3-0.5,1.1-1,1.6-0.4c0.5,0.5,1.7,0.4,2.7,0.4c1,0,4.8,0,5.7,0c0.9,0,4.3-0.2,4,1.4
			c-0.3,1.6-1.8,2.5-2.7,3.6c-0.9,1.2-4.2,5.7-4.9,6.6c-0.7,0.9-3.4,4.4-3.2,5.1c0.2,0.6,2.3,0.5,3.4,0.5c1.1,0,5.1,0.1,5.5-0.1
			c0.5-0.2,1.5-0.6,1.5,0.5c0,1.2,0.3,2.2-0.5,2.3c-0.8,0.1-1-0.4-1.7-0.5c-0.7-0.1-10.8,0.1-11.7-0.1c-1-0.2,0.3-1.8,1-2.6
			c0.7-0.8,6.7-8.8,7.6-10.1c0.9-1.3,3.2-3.2,2.3-4c-1-0.8-4.2-0.8-5.5-0.8c-1.4,0.1-3.3-0.1-3.8,0.2c-0.5,0.3-1.2,0.8-1.4,0.5
			C404.2,37.1,404.6,35.3,404.8,34.9z"/>
		<path d="M424,41.3c0,1.1,0,5.5-0.1,7.1c-0.1,1.6-0.1,4.2-0.4,4.8c-0.3,0.7-0.1,1.3,0.9,1.4c1,0.1,2.5,0.3,2.9-0.2
			c0.3-0.5-1-1.2-1-1.9c0-0.8-0.3-2.9-0.3-3.8c0-0.9-0.1-2.1,0.7-2.1c0.8,0,2.3,1.8,3.1,2.7c0.8,0.9,2.4,2.7,2.7,3.1
			c0.3,0.4,0.9,1.1,0.5,1.6c-0.3,0.5,0.7,0.5,1.5,0.5c0.8,0,3.1,0.1,3.3-0.3c0.3-0.3-1-1.5-1.8-2.4c-0.9-0.9-5.1-5.4-5.9-6.4
			c-0.8-1-2-2,0.4-4c2.4-2,5.3-5.4,5.9-5.9c0.7-0.5,2-1.4,1.5-1.8c-0.5-0.4-2.3-0.4-3-0.3c-0.7,0.1-1.3,1-1.4,1.4
			c-0.1,0.5-0.7,1.6-1.6,2.5c-0.9,1-4.6,5.2-5.1,5.6c-0.5,0.4-0.6-1.3-0.5-3.5c0.1-2.2-0.7-3.9-0.1-4.4c0.6-0.5,0.8-1.2,0.3-1.4
			c-0.5-0.1-1.8-0.1-2.3-0.1c-0.5,0-1.2,0.5-1,1.3c0.3,0.8,0.5,0.9,0.5,1.7C423.9,37.7,424,41.3,424,41.3z"/>
		<path d="M514.1,39.9c0,1.1,0.1,3.3,0.1,4.6c0,1.3,0.3,5.7,0.9,7c0.6,1.2,2,2.7,3.8,3.1c1.7,0.4,4.2,0.3,5.5-0.7c1.4-1,2-2,2.5-2
			c0.4-0.1,0.4,0.6,0.5,1.6c0.1,1,1,1.1,1.7,1.1c0.8,0,1.7-0.5,1.3-1.2c-0.4-0.7-0.7-2.2-0.6-5.1c0.1-2.9,0-8.5,0-9.8
			c0-1.2,0-2.7,0.3-3.3c0.3-0.5,0.8-1.3,0.1-1.4c-0.8-0.1-2.6-0.1-3.3,0.1c-0.7,0.2,0.2,0.9,0.5,1.5c0.3,0.6,0.3,1.4,0.3,2.3
			c0,0.9,0.1,9.4,0,10.1c-0.1,0.7-2,4.1-4.6,4.6c-2.7,0.5-5.1-0.5-5.7-2.4c-0.6-1.9-0.8-5.9-0.8-8.2c0.1-2.3,0-4.9,0.5-5.8
			c0.5-0.9,0.8-1.8,0.5-2.1c-0.3-0.3-1.2-0.3-2-0.3c-0.8,0-2,0-2.1,0.4c-0.1,0.4,0.5,1.7,0.5,2.3C513.8,37,514.1,39.9,514.1,39.9z"
			/>
		<path d="M553.1,40.2c0,2.2,0,5.5,0,7s-0.1,4.4-0.3,5.2c-0.3,0.8-0.7,1.4-0.7,1.9c0,0.5,1,0.3,2.2,0.3c1.2,0,2.5-0.1,2-1
			c-0.5-0.8-0.8-2.1-0.8-3.5c0-1.4-0.3-4,0.4-3.9c0.8,0.1,2.2,0.6,3.1,1.9c0.9,1.3,2.5,2.8,3.3,4c0.8,1.2,1.4,1.9,1.3,2.3
			c-0.1,0.4,1.6,0.4,2.1,0.3c0.5-0.1,2.1-0.1,1.6-0.9c-0.5-0.8-3.6-4-5.1-5.5c-1.5-1.4-4.1-3.8-4-4.4c0.1-0.7,3-3.9,4.4-5.1
			c1.4-1.2,4.8-4,4.4-4.6c-0.3-0.5-1-0.6-1.7-0.5c-0.8,0.1-1.8-0.2-1.9,0.4c-0.1,0.6,0,1.2-0.4,1.8c-0.4,0.6-3.8,4.6-4.7,5.5
			c-0.9,0.9-2.1,2.5-2.5,1.6c-0.4-0.9-0.5-5.3-0.5-6.4c0-1,1.1-1.4,1.2-2c0.1-0.5-1.2-0.5-2.1-0.5c-0.8,0-2.4,0-2.4,0.5
			c0,0.5,0.9,1.6,0.9,2.1C552.8,37.3,553.1,40.2,553.1,40.2z"/>
		<path d="M595.1,38.3c0.1,1.7,0.1,6.3,0.1,7.7c0,1.4-0.1,4.2-0.2,4.8c-0.1,0.7-0.5,1.4-0.8,2c-0.3,0.7,1.6,1.2,2.6,1.2
			s2.5-0.2,4.2-0.2c1.7,0,2.3,0.6,2.9,0.9c0.5,0.3,1.6-0.8,1.7-2c0.1-1.2-0.2-1.4-1.2-1.4c-1,0-1.7,0.5-2.5,0.8
			c-0.8,0.2-2.9,0.2-3.6,0.2c-0.7,0-0.9-3.6-0.9-4.8s0.3-10.4,0.3-11.4s0.5-1.2,0.5-1.8c0-0.6-1.4-0.6-2-0.6c-0.6,0-1.8,0.1-1.8,0.5
			c0,0.5,0.7,1,0.7,1.6S595.1,38.3,595.1,38.3z"/>
	</g>
	<path d="M62.1,75.4c0.4,0,0.6-0.1,0.7-0.3c0.1-0.2,0.1-0.4-0.1-0.6C62.5,74.3,62,74,61.8,74c-0.2,0-0.7,0.2-0.7,0.2
		c-0.2,0.5-0.2,0.7,0.1,1C61.4,75.4,61.7,75.5,62.1,75.4z M64.1,79.5c-0.2-0.2-0.8-0.1-0.8-0.1c-0.2,0-0.3,0-0.4,0.2
		c-0.1,0.2-0.3,0.2-0.3,0.4c0,0.2-0.1,0.4,0.1,0.6c0.1,0.1,0.3,0.3,0.5,0.3c0.2,0.1,0.5,0.1,0.7,0.1c0.2-0.1,0.4,0,0.6-0.3
		c0.1-0.3,0.3-0.5,0.1-0.7C64.5,79.8,64.3,79.7,64.1,79.5z M63.1,78.3c0.1-0.2,0.1-0.5,0-0.6c-0.1-0.1-0.3-0.4-0.5-0.4
		c-0.1-0.1-0.2-0.2-0.3-0.2c-0.2,0-0.7,0.5-0.7,0.5c-0.1,0.2-0.1,0.7,0.1,0.9c0.1,0.2,0.5,0.3,0.6,0.4c0.2,0.1,0.3,0.1,0.5-0.1
		C62.9,78.8,63.1,78.6,63.1,78.3z M64.7,73.7c0,0,0.6-0.2,0.9-0.4c0.4-0.2,0.2-0.4,0.1-0.7c-0.1-0.3-0.2-0.5-0.5-0.8
		c-0.3-0.3-0.6,0.1-1,0.3c-0.4,0.1-0.2,0.8-0.2,1C64.2,73.3,64.3,73.4,64.7,73.7z M67.6,71.3c0.6,0,0.6-0.1,0.8-0.2
		c0.2-0.1,0.2-0.5,0.2-0.9c0-0.4-0.3-0.5-0.6-0.6c-0.3-0.1-0.6,0.2-0.9,0.4c-0.3,0.2-0.3,0.7-0.1,0.9C67.1,71,67.3,71.3,67.6,71.3z
		 M62,73.2c0.4-0.1,0.7-0.4,0.7-0.7c0-0.3-0.3-1-0.6-1c-0.3,0-0.7-0.1-0.9,0c-0.3,0.1-0.8,0.3-0.5,0.7c0.2,0.4,0.1,0.4,0.3,0.7
		C61.3,73.1,62,73.2,62,73.2z M65.4,74.2c-0.4,0-0.6,0-0.9,0.2c-0.3,0.1-0.2,0.5-0.1,0.7c0.1,0.1,0.6,0.4,0.8,0.4c0,0,0.8-0.1,1-0.4
		c0.2-0.3,0-0.4-0.1-0.7C66.1,74.1,65.8,74.2,65.4,74.2z M66.2,78.6c0.1-0.3,0.1-0.5,0.1-0.7c0-0.2,0.2-0.3-0.1-0.5
		c-0.3-0.3-0.8-0.4-0.9-0.5c-0.1-0.1-0.6-0.3-0.6-0.3c-0.4,0.1-0.5,0.3-0.5,0.6c-0.1,0.3-0.2,0.7-0.1,0.9c0.1,0.2,0.6,0.6,0.9,0.6
		c0.2,0,0.4,0,0.8,0C66,78.8,66.2,78.9,66.2,78.6z M70.2,82.1c0.1-0.3,0.3-0.5,0.3-0.7c0-0.2-0.1-0.5-0.3-0.6
		c-0.2-0.1-0.3-0.1-0.6-0.2c-0.3-0.1-0.3-0.1-0.6-0.1c-0.3,0.1-0.4,0.2-0.5,0.3c-0.1,0.1-0.2,0.2-0.2,0.3c0,0.2,0.1,0.5,0.1,0.5
		c0.1,0.3,0.4,0.5,0.5,0.6c0.1,0.1-0.1,0.1,0.3,0.2C69.7,82.6,70.1,82.4,70.2,82.1z M69.2,80.1c0.2-0.1,0.3-0.2,0.6-0.3
		c0.2-0.2,0.1-0.5,0.1-0.7c0-0.2-0.1-0.5-0.2-0.7C69.5,78.2,69.2,78,69,78c-0.2-0.1-0.5,0-0.7,0.1c-0.3,0.1-0.5,0.2-0.7,0.5
		c-0.2,0.2,0,0.6,0,0.8c0,0.2,0.4,0.4,0.6,0.5c0,0,0.3,0.2,0.5,0.3C68.9,80.2,69,80.1,69.2,80.1z M72,77.7c0.2-0.2,0.1-0.5,0.1-0.7
		s-0.4-0.4-0.5-0.5c-0.1-0.1-0.3-0.1-0.5,0c-0.2,0.1-0.6,0-0.7,0c-0.1,0-0.2,0.2-0.3,0.6c-0.1,0.4,0,0.5,0.3,0.6
		c0,0,0.3,0.3,0.4,0.4c0.1,0.1,0.6,0,0.8-0.1C71.7,78,71.8,78,72,77.7z M66.9,81.9c-0.1-0.1,0-0.2-0.4-0.3c-0.4-0.1-0.7-0.2-0.7-0.2
		c-0.2,0.2-0.5,0.4-0.6,0.6c-0.1,0.1-0.3,0.3-0.2,0.5c0.1,0.2,0.5,0.6,0.8,0.7c0.3,0.1,0.8,0.2,1,0.1c0.2-0.1,0.6-0.3,0.5-0.7
		C67.2,82.3,67.1,82.1,66.9,81.9z M67.9,75.2c-0.3-0.1-0.5,0-0.8,0.4c-0.3,0.3-0.2,0.6,0,0.9c0.1,0.3,0.5,0.5,0.9,0.6
		c0,0,0.7-0.3,0.8-0.5c0.1-0.2-0.1-0.4-0.2-0.7C68.4,75.4,68.2,75.3,67.9,75.2z M74.1,80.8c0-0.1-0.2-0.2-0.3-0.4
		c-0.1-0.2-0.1-0.2-0.3-0.4c-0.1-0.2-0.3-0.1-0.5-0.1c-0.2,0-0.4,0-0.6,0.1c-0.2,0.1-0.4,0.3-0.5,0.5c-0.1,0.1,0,0.7,0.2,1
		c0,0,0.2,0.2,0.4,0.3c0.2,0.1,0.3,0,0.5-0.1c0.2-0.1,0.3-0.1,0.5-0.2c0.3-0.1,0.2-0.1,0.5-0.3C74.3,80.9,74.1,80.9,74.1,80.8z
		 M67.3,79.7c-0.2-0.1-0.5-0.1-0.7-0.2c-0.2-0.1-0.8-0.1-0.8-0.1c-0.2,0.1-0.5,0.4-0.5,0.6c0,0.2-0.1,0.4,0.1,0.6
		c0.2,0.2,0.2,0.3,0.5,0.3c0.3,0,0.5,0,0.7-0.1c0.2-0.1,0.3-0.1,0.6-0.2c0.3-0.1,0.4-0.3,0.4-0.5C67.5,80.1,67.5,79.8,67.3,79.7z
		 M74.3,78.5c-0.3-0.2-0.3,0-0.5,0.1c-0.1,0.1-0.4,0.2-0.4,0.2s-0.3,0.3-0.3,0.5c0,0,0.1,0.4,0.3,0.4c0.1,0.1,0.2,0,0.7,0
		c0.5,0,0.2-0.1,0.4-0.3c0.2-0.2,0.1-0.2,0.1-0.5C74.7,78.6,74.6,78.6,74.3,78.5z M74.4,75.5c-0.1-0.1-0.5,0-0.8,0
		c-0.2,0-0.6,0.1-0.8,0.2c-0.2,0.1-0.1,0.4-0.1,0.5s0.3,0.7,0.5,0.8c0,0,0.3,0.2,0.4,0.2c0.1,0,0.4-0.2,0.9-0.5
		c0.5-0.3,0.1-0.3,0.2-0.7C74.7,75.7,74.5,75.7,74.4,75.5z M70.4,83c-0.3,0-0.4,0-0.7,0.1c-0.3,0.1-0.4,0.1-0.4,0.1l0,0.4
		c0,0.4-0.2,0.6,0,0.8c0.1,0.1,0.4,0.3,0.6,0.4c0.2,0.1,0.4,0.1,0.6,0.1c0.2,0.1,0.6-0.1,0.6-0.3c0-0.2,0-0.3,0-0.5
		c0-0.2-0.1-0.7-0.2-0.8C70.8,83.2,70.7,83,70.4,83z M29.9,48.9c0.4,0.6,1.7,1.6,2.3,1.9c0,0,1.3,0.1,1.3-0.4c0-0.4-0.1-1.1-0.6-1.9
		c-0.4-0.7-1.6-1.4-2-1.8c-0.4-0.4-1.3-1.4-1.9-1.8c-0.6-0.4-0.9-0.5-1.8-0.4c-0.9,0.1,0.5,1.8,0.9,2.3
		C28.6,47.5,29.4,48.3,29.9,48.9z M67.7,72.6c-0.4,0-0.5,0.2-0.6,0.3C67,73,66.9,73.5,67,73.7c0,0.2,0.3,0.4,0.6,0.5
		c0,0,0.6,0.1,0.9-0.1c0.3-0.3,0.2-0.3,0.3-0.7c0.1-0.4-0.1-0.4-0.2-0.5C68.4,72.7,68.1,72.6,67.7,72.6z M27.2,71.8
		c0.4,0.1,1,0,1.6-0.1c0.6-0.1,0.6-0.4,1,0.1c0.4,0.4,0.7,0.9,1.5,0.9c0.8,0.1,1.9-0.2,2.6-0.4c0,0,0.8-0.4,0.8-0.9
		s-0.9-0.9-1.5-1.1c-0.6-0.1-1-0.1-1.8-0.2c-0.8-0.1-0.9-0.1-1.3,0.4c-0.4,0.5-0.6,0.3-0.9-0.1c-0.2-0.4-0.6-0.6-1.1-0.4
		c-0.5,0.1-0.9,0.6-1.4,1C26.3,71.3,26.7,71.7,27.2,71.8z M71,0C31.8,0,0,31.8,0,71s31.8,71,71,71c39.2,0,71-31.8,71-71
		S110.2,0,71,0z M81.3,28.3c1.5,0.1,2.1,1,3,1.1c0.9,0.1,1.4-0.6,1.2-1.6c-0.1-1-1.5-2.7-1.8-3.5c-0.3-0.8-1.6-1.6-1.3-2.2
		c0.4-0.6,1.2-0.9,1.7-0.6c0.5,0.3,1.2,0.7,1.9-0.6c0.6-1.4,0.7-3.2,1.3-4.8c0.6-1.6,1.4-2.3,1.9-2.9c0.5-0.6,2.2-2.5,2.9-1.8
		c0.7,0.7,1.4,3.3,1.4,5.3c0,1.9,0.1,3.7,0.1,4.3c0,0.6-0.4,2.8-0.2,3.5c0.2,0.6,0.9,1,1.8,0.6c0.9-0.4,2.8-0.4,3.7-0.4
		c0.9,0.1,1.9-0.4,1.9,0.2c0,0.6-1.1,1.7-1.6,2.3c-0.5,0.6-3.1,1.6-3.3,2.3c-0.3,0.6-0.4,1.3-1.1,1.8c-0.6,0.5-2.6,1.6-1.7,2.3
		c0.9,0.6,1.7-0.2,3.1,0.1c1.4,0.4,2,1.1,2.6,2.2c0.6,1.1,2.1,2.3,1.2,3.2c-0.9,0.9-3.8,1.8-4.7,2.3c-0.9,0.5-2.6,0.7-2.6,1.4
		c-0.1,0.6,1.1,1.3,2.1,1.3c1,0,1.8,0.2,1,1.2c-0.8,1-3.5,2.1-3.8,2.7c-0.4,0.6-0.7,1.4-1.3,1.8c-0.6,0.5-1.2,0.7-1.8,1.4
		c-0.6,0.7-1.9,2-1.6,2.8c0.4,0.9,1.6-0.2,2.2,0.3c0.6,0.5,0.6,0.7,0.4,1.9c-0.2,1.1,1.1,1.4,1.6,0.4c0.6-0.9,0.5-1.4,1.1-2.3
		c0.6-0.9,0.3-1.7,2.1-1.6c1.8,0.1,3.1,0.6,3.6-0.4c0.5-1-0.1-4.3,1.1-4.5c1.3-0.1,2.3,0.3,3.1,0.8c0.8,0.5,1.9,0.6,1.7-0.3
		c-0.2-0.9-2.8-5.3-2.2-5.5c0.6-0.1,1.9-0.1,2.8,0.3c0.9,0.4,1.7,0.9,2.1,0.9c0.4,0,1-0.2,1.1-1.8c0.1-1.6-0.1-2.5,0.9-2.1
		c1,0.4,1.7,0.5,2.1-0.2c0.4-0.7,0.3-2.1,1.1-1.4c0.8,0.7,1.3,1,1.9,1.1c0.6,0.1,1.3-0.2,2.2-0.6c0.9-0.4,2.3-1.7,2.3-1
		c0,0.7-0.6,2.8-1,3.3c-0.4,0.5-1.4,1.4-0.7,2c0.7,0.6,1.8,0.9,2.1,1.1c0.3,0.2,2.8,0.7,2.2,1.6c-0.6,0.9-3.1,1.4-3.8,2.1
		c-0.6,0.7-1.4,1.1-1.4,2.5c0.1,1.4,1.1,4.3,1.1,5.2c0,0.9,0.1,1.2-1.6,0.8c-1.7-0.4-3.3-1.8-4.3-1.4c-0.9,0.4-1.1,1-1.1,2.6
		c0,1.6,0.2,4.3,0.1,5.6c-0.1,1.3,0.1,2.7-2.3,0.6c-2.5-2.1-4.1-3.2-4.8-2.3c-0.7,0.9-0.5,2.3-0.4,3.1c0.1,0.8-0.1,1.3-2,1.3
		c-1.9,0-3.9-0.1-5.1,0.4c-1.1,0.5-1.9,0.9-1.6,1.4c0.4,0.5,1.5,0.6,1.5,0.6c1.1,0.1,2.6-0.1,2.6,0.7c-0.1,0.9-0.9,1.5-1.5,1.9
		c-0.6,0.4-2.3,0.6-3.1,0.7c-0.7,0.1-2,0.1-2.5,0.4c-0.5,0.3-1.6,0.1-2.3,0.4c-0.7,0.3-1.7,0.2-1.5-0.4c0.2-0.6,0.9-1.8,1.3-2.4
		c0.4-0.6,0.8-1.9,1.6-2.6c0.9-0.6,1.9-1.4,2.8-2c0.9-0.6,2.1-1.6,2.6-2c0.5-0.4,2.8-2,3.3-2.4c0.4-0.4,2.4-2.8,3.1-3.3
		c0.6-0.4,4.1-4.3,5.1-4.9c1-0.6,2.3-2.1,2.8-2.4c0.5-0.4,1.6-1.6,2.2-2c0.6-0.4,1.6-1.6,1.1-2.1c-0.5-0.5-1.2-0.6-1.8,0.1
		c-0.6,0.6-1.1,1.1-1.6,1.6c-0.4,0.5-1.5,1.2-1.7,1.6c-0.2,0.4-1.2,1-1.6,1.4c-0.4,0.4-1.4,1.1-2.1,1.9c-0.6,0.9-1.5,1.6-2,2.2
		c-0.5,0.6-2.3,2.3-3.1,3c-0.8,0.7-2.1,1.4-2.6,2.1c-0.5,0.7-1.7,1.7-2.2,2.2c-0.5,0.5-2.1,1.9-2.9,1.8c-0.9-0.1-0.6-0.9-0.5-2.2
		c0.1-1.3-0.1-1.6-1-1.6c-0.9,0-1.4,0.1-1.9,0.7c-0.4,0.6-1.9,1.3-2.8,1.9c-0.9,0.6-1.9,1.2-2.6,1.6c-0.7,0.4-2.2,0.9-1.8-0.7
		c0.4-1.6,2.8-8,3.2-9.7c0.4-1.6,1.5-4.4,1.8-5.3c0.3-0.9,3.1-11.2,3.8-14.5c0.8-3.3,1.5-7.8,1.6-8.3c0.1-0.6,0.6-3.2,0.6-3.8
		c0.1-0.6,0.6-1.7-0.5-1.7s-1.8,0.7-1.8,1.6c0,0.9-0.1,1.4-0.4,3.1c-0.4,1.7-0.3,2.3-0.6,3.3c-0.3,1.1-0.6,2.1-0.6,2.6
		c-0.1,0.6-0.7,2.7-0.8,3.6c-0.1,0.9-0.6,1.7-0.6,2.5c-0.1,0.8-0.9,2.3-0.9,3.1c0,0.7-0.2,2.4-0.4,2.8c-0.1,0.4-0.6,1.4-0.7,1.9
		c-0.1,0.5-0.6,2.1-0.7,2.5c-0.1,0.4-0.5,1.1-0.6,1.8c-0.1,0.6-0.4,1.7-0.4,2.1c-0.1,0.4-0.2,1.4-0.7,1.9c-0.5,0.6-0.7,1.6-1.4,1.6
		c-0.7-0.1-0.6-2.1-0.2-3c0.4-0.9,0.9-2.1,0.9-2.6c0.1-0.5,0.6-2.5,0.6-3c0.1-0.5,0.2-1.6,0.3-2.7c0.1-1.1-0.1-3.1-0.4-4.3
		c-0.3-1.2-0.9-2.2-0.4-2.2c0.4,0,1.4,0.5,1.9,0.1c0.6-0.4,1.1-0.6,0.4-2.6c-0.7-1.9-2.3-4.2-2.8-4.8C80.4,28.9,79.8,28.2,81.3,28.3
		z M99.5,71.2c-0.3-0.4,0.7-0.6,1.4-0.8c0.7-0.2,1.1-0.4,1.9-0.9c0.7-0.6,1.1-0.6,2.1-0.7c0.9-0.1,1.4,0.8,1.7,1.5
		c0.4,0.7,0.8,1.8,0.6,2.6c-0.2,0.8-0.8,1.6-1.7,2.6c-0.9,1-0.7,1.3-0.6,1.9c0.1,0.6,1.5,0,1.8-0.2c0.3-0.2,0.9-0.6,1.4-0.9
		c0.5-0.3,1.8-0.2,2.3-0.4c0.5-0.2,1.1-0.7,1.9-1c0.8-0.3,1.7-0.6,2.5-0.9c0.8-0.4,0.9-0.6,1.6-0.7c0.7-0.1,0.4,0.9,0.6,1.7
		c0.1,0.9,0.6,2.6-0.3,3.3c-0.9,0.6-1,1.4-1.7,1.7c-0.7,0.4-0.4,1.8-0.6,2.8c-0.1,1-0.7,0.2-1.1,0.1c-0.4-0.1-1-0.7-1.5-1.1
		c-0.5-0.4-1.4-0.6-2.1-1c-0.8-0.4-1.8-0.6-2.3-0.9c0,0-0.9-0.6-1.6-1c-0.8-0.4-1.5-0.6-1.9-1c-0.4-0.4-1.1-0.5-2.1-0.8
		c-1.1-0.3-1.9-0.5-2.4-0.7c-0.6-0.2-1.4-1-0.9-1.5c0.5-0.5,0.1-1.1,0.6-1.5c0.4-0.4,1.3-0.5,1.5-0.8
		C100.5,72.1,99.8,71.6,99.5,71.2z M89.4,79.2c0.5,0.3,0.7,0.1,1.3,0.3c0.6,0.3,0.9,0.3,1.3,0.5c0.4,0.2,0.8,0.6,1.1,0.7
		c0.3,0.1,1.4,0.6,1.3,1.2c-0.1,0.6-0.9,0.8-1.4,0.8s-1.1,0.1-1.5,0.2c-0.4,0.1-1.3,0.4-1.7,0.4h-1.7c-0.3,0-1.7-0.1-2.2,0
		c-0.5,0-1.3,0.3-0.9,1c0.4,0.7,0.8,0.8,1.1,1.1c0.4,0.3,1.1,0.8,1.3,1c0.2,0.2,1,0.5,1.4,1c0.4,0.6,0.9,1.1,1.1,1.4
		c0.2,0.3,0.6,1,0.8,1.4c0.2,0.4,0.4,0.9,0.6,1.2c0.2,0.3,0.2,1.3,0.4,1.7c0.2,0.4,0.2,1.1,0.2,1.4c0,0.4,0.1,1.1-0.7,0.6
		c-0.8-0.5-1.4-1.1-1.6-1.3c-0.2-0.2-0.5-0.6-0.9-0.7c-0.4-0.2-0.6-0.7-0.9-0.7c-0.4-0.1-1.2-0.8-1.7-1c-0.5-0.3-1.1-0.5-1.3-0.5
		c-0.2-0.1-0.3-0.4-0.8-0.5c-0.6-0.1-1.2-0.4-1.2,0.1c0,0.5,0.3,0.9,0.5,1.5c0.3,0.7,0,1.3,0.3,1.8c0.3,0.6,0.3,1.6,0.5,2
		c0.3,0.4,0.3,1.4,0.4,1.6c0.1,0.3,0.2,0.9,0.2,1.2c0,0.4-0.3,0.6-0.3,1.2c-0.1,0.6,0.1,1.3-0.6,0.7c-0.7-0.6-0.9-0.8-1.3-1.4
		c-0.4-0.6-0.6-1.2-0.9-1.3c-0.3-0.2-1-0.6-1.3-1c-0.3-0.4-0.7-1-1.1-1.3c-0.4-0.4-0.5-0.8-1-1c-0.5-0.2-0.9-0.3-1.2-0.2
		c-0.3,0.1-0.6,0.3-0.6,0.8c0,0.5-0.2,1.2-0.2,1.7c-0.1,0.5-0.1,1.4-0.1,1.9c0,0.5-0.3,1.2-0.3,1.7v1.2c0,0.3-0.1,1.4-1,0.1
		c-0.9-1.3-0.6-1.3-1.2-1.7c-0.6-0.5-1.1-0.9-1.4-1.1c-0.3-0.3-0.2-1.1-0.7-1.6c-0.5-0.5-0.9-1-1.1-1.4c-0.2-0.4-0.6-1.2-0.9-1.5
		c-0.4-0.3-0.7-0.7-1.2-0.4c-0.5,0.3-1.1,0.7-1.2,1.1c-0.1,0.4-0.2,0.8-0.4,1.1c-0.2,0.4-0.4,0.4-0.4,0.9c-0.1,0.5-0.5,0.6-0.5,1
		c0,0.4-0.6,1.1-0.7,1.4c-0.1,0.3-0.4,0.9-0.4,1.2s-0.4,0.7-0.8,0.9c-0.4,0.2-0.8,0.7-0.8-0.6c-0.1-1.3-0.2-2.7-0.3-3
		c-0.1-0.4-0.1-1.3-0.1-1.8c0-0.5-0.1-1.7-0.1-2.2c0-0.6-0.1-1.5-0.1-1.9c0-0.4-0.1-1.5-0.7-1.5c-0.6-0.1-0.8-0.3-1.1,0.1
		c-0.3,0.4-0.6,0.4-0.7,0.8c-0.2,0.4-0.6,0.5-0.6,0.9c0,0.4-0.3,0.9-0.6,1.1c-0.3,0.2-0.8,0.4-1.2,0.6c-0.5,0.2-1,0.2-1.3,0.5
		c-0.3,0.3-0.5,0.5-0.8,0.6c-0.3,0.1-1,0.5-1.2,0.6c-0.2,0.2-0.8,0.2-1.3,0.7c-0.5,0.5-1.3,0.7-1.3,0.2s0.6-1.3,1-1.8
		s0.9-1.5,1.1-1.9c0.2-0.5,0.6-1.7,0.7-2.1c0.2-0.5,0.7-1.3,0.9-1.6c0.2-0.3,0.5-0.8,0.5-1.3c0-0.5-0.1-0.6-0.3-0.7
		c-0.3-0.1-0.7-0.2-0.7-0.2s0.8-1,1.6-1.5c0.8-0.5,2-1.6,2.2-1.3c0.3,0.4,0.1,0.9-0.4,1.5c-0.4,0.7-1.2,1-1.5,1.9
		c-0.4,0.9-0.7,1.7-1,2.6c-0.3,0.9-0.7,2.2-0.8,2.7c-0.1,0.6,0.2,1.4,1,0.9c0.8-0.5,1.2-1.2,2-1.5c0.9-0.3,1.1-1.1,1.8-1.6
		c0.7-0.6,1.2-1.5,1.6-2c0.4-0.5,0.8-1.8,1.5-1.5c0.7,0.3,0.8,0.5,0.6,1.2c-0.2,0.8-0.6,1.7-0.6,2.4c0,0.8,0,1.5,0.2,2.2
		c0.2,0.7,0.5,2.1,0.4,2.6c-0.1,0.5-0.3,0.9-0.3,1.3c0,0.4,0.7,1.4,1,1c0.3-0.4,0.9-1.3,1.4-2.2c0.5-0.9,0.5-1.9,0.9-2.5
		c0.5-0.6,0.7-1.4,0.8-2.1c0.2-0.7-0.1-1.8,0.4-2.1c0.5-0.3,0.8-0.8,1.4-0.3c0.6,0.5,0.9,0.1,0.8,1.4c0,1.4,0.2,2.5,0.5,3.3
		c0.3,0.8,0.4,0.7,0.9,1.7c0.6,1,0.8,1.4,1.3,2.2c0.5,0.8,0.6,1.7,0.8,2.1c0.2,0.4,1.1,0.6,1.3-0.3c0.3-0.8,0.2-1.9,0.3-2.4
		c0.1-0.5,0.3-2.2,0.3-2.6c0-0.4-0.3-2.4-0.5-3c-0.2-0.6-0.4-1.7-0.7-2c-0.3-0.3-0.6-1,0-1c0.6,0,0.7,0.4,1.2,0.9
		c0.5,0.5,0.7,1.2,1,1.5c0.3,0.3,0.6,1.4,1.1,1.8c0.5,0.4,1.1,1.5,1.7,2.1c0.6,0.6,1.1,1.2,1.6,1.7c0.5,0.5,0.8,1,1.1,1.2
		c0.3,0.3,1.1,0.1,1.2-0.6c0.2-0.6-0.6-1.7-0.7-2.2c-0.1-0.6-0.5-1.9-0.7-2.5c-0.2-0.6-0.6-1.9-1.1-2.5c-0.6-0.6-1-1.3-1.4-1.6
		c-0.4-0.3-0.7-0.8-1-1c-0.3-0.2-0.9-0.9-0.9-1c0-0.2,0.1-0.6,0.5-0.3c0.4,0.3,0.6,0.5,1.1,0.9c0.5,0.4,1.1,0.8,1.3,0.9
		c0.3,0.2,1,0.7,1.3,0.8c0.3,0.2,0.2,0.2,0.8,0.4c0.6,0.2,0.8,0.7,1.1,0.8c0.3,0.1,1,0.2,1.5,0.3c0.5,0.2,1.1,0.3,1.3,0.5
		c0.2,0.3,0.6,0.6,1.1,0.8c0.6,0.2,0.8,0.2,0.9-0.2c0.1-0.4,0.3-0.8,0-1.2c-0.3-0.5-1.1-1.5-1.3-1.8c-0.3-0.3-1.4-1.1-1.5-1.3
		c-0.1-0.2-0.5-1.1-1.4-1.6s-1.7-1.2-2.3-1.4c-0.6-0.2-1.3-0.5-1.7-0.6c-0.5-0.2-1.3-0.8-0.9-0.9c0.4-0.1,1-0.3,1.3-0.1
		c0.3,0.2,1.4,0.4,1.9,0.5c0.5,0.1,1.5,0.4,2.2,0.3c0.7-0.1,1.4-0.3,2-0.3c0.7,0,1-0.4,1.7-0.4c0.8,0,2.1,0,2.5-0.1
		c0.4-0.1,0.5-0.9,0.3-1.1c-0.3-0.3-0.6-0.6-1-0.6c-0.4,0-1-0.3-1.6-0.3c-0.7,0-1-0.3-1.4-0.4c-0.4-0.1-0.9-0.3-1.3-0.4
		c-0.4-0.1-1.6-0.2-2-0.2c-0.5,0-1.6,0-2.3,0c-0.7,0-1.3-0.2-1.7-0.3c-0.4-0.1-0.7-0.6,0.4-0.5c1.1,0.1,1.3,0,1.9,0
		c0.6,0,1.7-0.1,2.2-0.1c0.5,0,1.5-0.2,2-0.5c0.5-0.3,1.3-0.6,1.8-0.7c0.6-0.1,1.6-0.4,2-0.6c0.5-0.2,1.3-0.5,1.6-0.7
		c0.3-0.2,0.4-0.8-0.4-0.9c-0.7-0.2-1.3-0.2-1.6-0.1c-0.4,0.1-1.2,0.2-1.5,0.2c-0.3,0.1-0.6,0-0.9-0.3c-0.3-0.3,0.3-0.6,0.8-0.7
		c0.6,0,1.8-0.6,2.6-0.5c0.8,0.1,1.3,0.1,1.8,0c0.6-0.1,1.5-0.1,1.8-0.1c0.3,0,1.4-0.4,1.9-0.5c0.6-0.2,1.3-0.3,0.9,0.5
		c-0.4,0.8-1.1,1.3-1.6,1.5c-0.5,0.2-0.8,0.7-1.1,0.9c-0.3,0.2-1.2,0.5-1.5,0.6c-0.3,0.1-1.1,0.5-1.7,0.7c-0.6,0.3-0.7,0.5-1.1,0.6
		c-0.5,0.1-1.3-0.1-1.5,0.4C88.8,78.4,88.9,78.9,89.4,79.2z M50.2,79c-0.2-0.6-1.8-0.6-2.2-0.7c-0.5-0.1-1.1-0.3-1.7-0.3
		c-0.6,0-1.2-0.3-1.8-0.3c-0.6,0-1.3-0.6-1.8-0.9c-0.5-0.3-0.9-0.4-1.4-1.2c-0.5-0.9,0.6-0.6,1.3-0.8c0.7-0.2,2.6-0.8,3.5-1.2
		c0.9-0.4,2.3-0.3,2.8-0.3c0.5,0,1.4-0.5,1.5-0.8c0.1-0.3-0.2-0.6-0.8-1C49.2,71,47.6,70.8,47,70c-0.6-0.8-1-1.2-1.8-2.5
		c-0.8-1.3-0.2-1.2,0.2-1.5c0.4-0.3,2.9-0.2,4.8,0.5c1.9,0.7,2.5,0,2.9,0.3c0.4,0.3,0.9,1.1,1.5,1.3c0,0,1.1,0.8,1.6,1
		c0.5,0.3,1,0.3,0.9,0.7s-0.7-0.1-0.9-0.2c-0.2-0.1-0.9-0.3-1.6-0.5c-0.7-0.2-1.1-0.4-1.8-0.6c-0.8-0.2-0.9-0.3-1.5-0.3
		c-0.6,0-1.6-0.3-2-0.5c-0.5-0.2-0.8-0.4-1.5-0.3c-0.7,0.1-0.3,1.2-0.1,1.5c0.3,0.4,1.5,1.1,1.9,1.4c0.5,0.4,1.6,1.5,2,1.7
		c0.5,0.2,1.5,0.5,2,0.7c0.6,0.3,1.4,0.3,1.9,0.5c0.5,0.2,0.5,0.9,0.2,0.9c-0.4,0-1.1-0.1-1.5-0.3c-0.5-0.2-1.2-0.1-1.6-0.2
		c-0.5-0.1-1.1,0.2-1.5,0.2c-0.4,0-1.2,0.2-1.7,0.4c-0.5,0.2-1.9,0.5-2.4,0.6c-0.5,0.2-1.3,0.9-1.6,1.2c-0.3,0.4,1,0.9,1.7,1
		c0.7,0.2,3.1,0.6,3.8,0.8c0.8,0.2,1.5-0.3,2.2-0.4c0.8-0.1,1.7,0.2,1.4,0.3c-0.3,0.2-0.8,0.5-1.6,0.7c-0.8,0.2-1.9,1.2-2.9,1.8
		c-1,0.6-1.8,1.1-1.9,1.4c-0.1,0.3,0.1,0.9,0.6,0.9c0.5,0.1,1.1-0.2,2-0.2c0.9,0,0.2,0.8-0.1,0.9c-0.3,0.1-1.6,0.6-2,0.6
		c-0.4,0-1.2,0-1.9,0.4c-0.7,0.4-1,0.2-0.9-0.3c0.1-0.5,0.5-1.3,0.8-1.8c0.4-0.5,2-1.5,2.4-1.8C49.7,80,50.3,79.5,50.2,79z
		 M57.1,62.8c-0.1-0.5-0.4-0.9-0.7-1.4c-0.3-0.5-0.6-1.4-0.8-2.1c-0.2-0.8-0.7-0.9-1.1-1.8c-0.4-0.9-0.2-1.4,0.4-1.4
		c0.6,0,2.2,0.6,2.8,0.7c0.7,0.1,1.7,0.7,2.2,1c0.6,0.3,1.8,1.5,2.3,1.9c0.5,0.4,1,1.5,1.8,1.8c0.8,0.3,1.1-1,1.3-1.3
		c0.2-0.4,0.6-1.4,0.8-2.1c0.2-0.7,0.8-1.6,1-2.1c0.3-0.5,0.5-1.8,0.8-2.2c0.3-0.4,0.7,0.2,1.1,0.6c0.4,0.4,1.3,3.2,1.5,4.1
		c0.2,0.9,1.2,4.3,2,5c0.8,0.7,1.3-0.7,1.6-1c0.4-0.3,1.7-1.8,2-2.2c0.4-0.4,1.3-1.1,1.7-1.6c0.5-0.5,1-0.9,1.7-1.3
		c0.7-0.4-0.1,1.1-0.1,1.7c0,0.6-0.3,1.9-0.3,2.5c-0.1,0.6-0.4,1.6-0.4,2.4c0,0.8-0.4,2.5-0.3,3.2c0.1,0.7,0.8,0.6,1.5,0.3
		c0.7-0.3,1.3-0.8,1.7-1.1c0.4-0.3,1.6-0.9,2.1-1.2c0.5-0.3,1.4-0.7,1.8-1.1c0.4-0.4,1.3-0.6,1.8-1.1c0.5-0.5,0.9-0.7,1.4-0.5
		c0.5,0.2-0.3,2-0.6,2.7c-0.3,0.8-0.6,1.3-0.9,0.9c-0.3-0.4,0.4-1-0.2-1.4c-0.6-0.4-1.5,0.6-1.8,0.9c-0.3,0.3-1.4,1.2-1.9,1.4
		c-0.5,0.2-1.4,1.2-1.7,1.3c-0.3,0.1-0.9,0.5-1.3,0.9c-0.5,0.4-1.2,1.2-1.7,1.5c-0.5,0.3-0.9,1-1.1,1.2c-0.2,0.3-0.8-0.4-1-0.7
		c-0.2-0.3-0.7-0.8-1.2-1.4c-0.5-0.6-0.1-1.1,0.2-1.5c0.3-0.4,0.5-1,0.8-1.6c0.3-0.6,0.9-1.5,1-2.1c0.1-0.6,0.5-1.8,0.9-2.6
		c0.4-0.8,0.3-1.2,0-1.8c-0.3-0.6-1.3,0.2-1.6,0.6c-0.3,0.4-1.1,0.9-1.4,1.3c-0.3,0.4-1.8,1.8-1.9,2c-0.1,0.2-0.4,0.5-0.7,0.9
		c-0.3,0.4-0.3,0.8-0.7,1.7c-0.4,0.9-0.6,0.6-1.1,0.3c-0.5-0.3-0.5-0.9-0.5-1.4c0-0.6-0.1-1.2-0.2-2.1c-0.1-0.9-0.5-2.1-0.5-2.7
		c-0.1-0.6-0.3-1.2-0.4-1.8c-0.1-0.6-0.2-1.5-0.7-2.3c-0.5-0.8-1.2-0.4-1.5-0.1c-0.3,0.4-0.7,1.2-0.7,1.6V60c0,0.6-0.6,1.8-0.6,2.6
		c0,0.8,0.6,2.3,0.5,3c-0.1,0.7-0.9,0.3-1.4,0.3c-0.5,0-0.8-0.3-1.1-0.9c-0.3-0.7-0.8-1.5-1.1-2.1c-0.3-0.6-0.9-1.2-1.4-1.6
		c-0.5-0.5-1.3-0.9-1.9-1.5c-0.6-0.7-1.4-1.5-1.9-2c-0.5-0.5-1.2-0.4-1.5,0.1c-0.3,0.5,0.5,1.3,0.7,1.8c0.2,0.5,0.3,1.4,0.7,2.5
		c0.5,1.1,1.6,2.5,2,3.2c0.4,0.7,0.6,1.5,0.2,1.8c-0.4,0.4-1.2-0.2-1.6-0.6c-0.4-0.4-0.6-0.8-0.9-1c-0.3-0.2-1.1-0.7-1.3-1
		c-0.2-0.4-1.1-0.4-1.6-0.6c-0.6-0.3-1.2-0.3-2.4-1.3c-1.2-1-1.1-0.2-1.5,0.4c-0.4,0.6,0.6,1,0.8,1.6c0,0-0.1,0.6-0.3,0.6
		c-0.3-0.1-0.4-0.5-0.6-0.9c-0.2-0.4-0.4-1.6-0.4-2c0-0.4-0.6-0.6-0.9-1c-0.3-0.4-0.2-1.4,0.1-1.8c0.2-0.4,1.1,0.3,1.8,0.3
		c0.7,0,1.9,2.1,2.3,2.4c0.4,0.4,1.4,0.7,2.3,1.2C57,64,57.2,63.3,57.1,62.8z M86.1,70c-0.4,0.5-0.4,1.1-0.6,1.6
		c-0.3,0.6-0.5,1.1-1,1.4c-0.4,0.3-0.2,0.9-0.3,1.3c0,0.4-0.6,0.4-1.1,0.4c-0.4,0-1.5,0.3-1.9,0.4c-0.5,0.1-0.9,0.2-1.2,0.3
		c0,0-0.3-0.2-0.5-0.2c-0.3,0,0-0.3,0.2-0.4c0.3-0.2,0.6-0.4,1.1-0.6c0.4-0.3,0.6-0.5,0.9-0.8c0.3-0.3,0.8-0.5,1.1-0.7
		c0.3-0.2,0.3-0.4,0.6-0.7c0.4-0.3,1.1-0.9,1.3-1.2s0.5-0.8,0.7-1.2c0.2-0.4,0.4-0.8,0.6-1.2c0.2-0.4,0.3-0.6,0.7-0.6
		c0.4-0.1,0.1,0.7-0.1,1C86.5,68.9,86.4,69.5,86.1,70z M86.2,76.5c-0.2,0.1-0.9,0.3-1.1,0.3s-0.5-0.1-0.8-0.1
		c-0.3,0-0.3,0.3-0.7,0.3c-0.4,0.1-0.8,0.1-1.1,0.1c-0.4-0.1-1.2-0.2-1.6-0.3c0,0-0.2-0.3,0-0.4c0.2-0.1,0.8-0.1,1.3-0.1
		c0.4,0,0.7-0.1,1.1-0.2c0.4,0,1-0.1,1.3-0.2c0.3-0.1,0.9,0,1.3,0.1C86.3,76.1,86.4,76.4,86.2,76.5z M79.1,83.8
		c0.3,0,0.8,0.4,1.1,0.5c0.3,0.2,0.6,0,1.2,0.2c0.6,0.1,0.9,0.8,1.1,1.1c0.3,0.3,0.7,0.4,1.1,0.5c0.4,0.2,0.8,0.5,1.1,0.7
		s0.5,0.6,0.6,1.1c0.1,0.5-0.6,0.2-1,0c-0.3-0.2-0.7-0.4-1-0.6c-0.3-0.2-0.7-0.3-0.8-0.5c-0.2-0.2-0.6-0.4-1-0.5
		c-0.4-0.1-0.5-0.2-0.8-0.5c0,0-0.5-0.3-0.7-0.6c-0.3-0.3-0.7-0.4-1-0.8C78.9,84.1,78.8,83.8,79.1,83.8z M78.6,73.9
		c0,0-0.1,0-0.2-0.2c-0.1-0.2-0.2-0.4-0.2-0.8c0-0.4,0.4-0.6,0.5-0.7c0.1-0.2,0.4-0.3,0.7-0.5c0.4-0.2,0.7-0.6,0.8-0.7
		c0.1-0.1,1.1-0.9,1.4-1.1c0.3-0.2,0.5-0.4,0.6-0.8c0.2-0.3,0-0.5,0.3-0.9c0.2-0.4,0.4-0.1,0.6,0c0.3,0.1,0.6,0.1,0.7,0.4
		c0.1,0.3-0.3,0.9-0.4,1c-0.2,0.2-0.7,0.9-1,1.1c-0.3,0.2-0.6,1-0.8,1.2c-0.2,0.3-0.4,0.6-0.7,0.7c-0.3,0.1-0.6,0.4-1.2,0.4
		C79.4,73.2,78.9,73.8,78.6,73.9z M77,80.4c-0.3-0.2-0.8-0.2-1.3-0.1c-0.5,0.1-0.7,0.6-0.7,0.8c0,0.2,0.5,0.6,1,0.7
		c0.6,0,0.7-0.2,0.9-0.1c0.2,0.1,0.3,0.5,0.3,0.8c0,0.3-0.7,0.1-1,0c-0.3-0.1-0.7,0.1-0.9,0.4c-0.1,0.3,0.6,1.2,0.7,1.5
		c0.1,0.4-0.4,1-0.6,1.1c-0.3,0.1-1-0.5-1.2-0.9c-0.3-0.4,0.1-0.6,0.2-0.9c0.1-0.3-0.4-0.7-0.7-0.8c-0.4-0.2-0.7,0.1-1,0.5
		c-0.3,0.4-0.2,0.8,0,0.9c0.1,0.1,0.3,0.4,0.1,0.5c-0.2,0.1-0.2,0.4-0.1,0.9c0.1,0.5,0.4,1,0,1.2c-0.3,0.1-0.5-0.2-0.9-0.8
		c-0.4-0.6-0.9-0.8-1.4-0.7c-0.5,0.1-0.6,0.7-0.7,1.1c-0.1,0.4-0.7,0.2-1,0.2c-0.3,0-0.7,0-1-0.2c-0.3-0.2-0.7-0.4-0.5-0.7
		c0.2-0.3,0.4-0.7,0.2-1c-0.1-0.3-0.6-0.3-1.1-0.3c-0.6,0-0.9,0.3-1.3,0.6c-0.4,0.3-0.4,0.2-0.7,0.1c-0.3-0.1-0.5-0.3-0.9-0.4
		c-0.4-0.2-0.6-0.5-0.6-0.7c0-0.2,0.6-0.2,0.7-0.4c0.1-0.1,0.2-0.5,0.1-0.7c-0.1-0.3-0.3-0.3-0.6-0.5c-0.3-0.1-0.7-0.2-1.1-0.1
		c-0.4,0.1-0.5,0.2-0.9,0.2c-0.4,0-0.8-0.3-0.8-0.6c0-0.3,0.2-0.3,0.5-0.4c0.3-0.1,0.7-0.4,0.7-0.6c0-0.3-0.4-0.5-0.7-0.7
		c-0.3-0.2-0.7,0-1.1,0c-0.4,0-0.9-0.2-1.1-0.5c-0.2-0.3-0.2-0.6,0.1-0.7c0.3-0.1,1.2-0.7,1.1-1c-0.1-0.3-0.6-0.6-1-0.6
		c-0.3,0-0.8-0.4-1.2-0.8c-0.4-0.4-0.4-1.3-0.3-1.7c0.1-0.4,1.2-0.4,1.4-0.5c0.2-0.1,0.7-0.4,0.7-0.7c0-0.3,0.2-1.1,0.6-1.4
		c0.4-0.2,0-0.7-0.3-1.1c-0.3-0.4-0.9-0.6-0.8-0.9c0.1-0.3,0.7-0.9,1.2-1.1c0.2-0.1,0.4-0.1,0.4,0.1c0,0.2,0.4,0.5,0.7,0.5
		c0.3,0.1,0.8,0.2,0.9-0.1c0.1-0.3,0.1-0.4,0.3-0.8c0.1-0.3-0.4-0.7-0.5-1.1c-0.1-0.3,0.5-0.3,0.6-0.3c0.2,0,0.6-0.3,1-0.3
		c0.3,0,0.2,0.6,0.2,0.9c0,0.4,0.2,0.8,0,1.1c-0.3,0.4-0.1,1,0.2,1.3c0.3,0.3,0.8,0.3,1.1,0.3c0.3-0.1,0.6-0.6,0.6-0.9
		c0-0.4-0.4-0.9-0.4-1c0-0.1,0.4-0.3,0.5-0.4c0.2-0.1,0.2-0.2,0.3-0.5c0.1-0.2,0.1-0.4,0.1-0.6c0-0.2,0.4-0.1,0.7-0.1
		c0.4,0,0.4,0.5,0.2,0.7c-0.2,0.3,0.2,0.6,0.4,0.9c0.1,0.2,0.5,0.1,0.7,0.1c0.3-0.1,0.4-0.2,0.5-0.5c0.1-0.2,0.2-0.6,0.4-0.8
		c0.2-0.2,0.8,0.2,1.1,0.3c0.3,0.1,0.1,0.4-0.2,0.5c-0.2,0.2-0.1,0.5-0.1,0.8c0,0.3,0.9,0.7,1.2,0.7c0.3,0.1,0.5-0.4,0.7-0.6
		c0.2-0.2,0.1-0.5,0.1-0.6c0.1-0.1,0.5,0.2,0.8,0.4c0.2,0.2,0.9,0.7,0.6,0.7c-0.2,0-0.5,0.1-0.8,0.5c-0.3,0.4-0.1,0.8,0.1,1.1
		s0.7,0.3,0.9,0.3c0.2,0,0.5-0.4,0.6-0.5c0.1-0.1,0.2-0.4,0.4-0.5c0.2-0.1,0.3,0.2,0.5,0.4c0.2,0.2,0.8,1,1,1.2
		c0.2,0.3-0.3,0.9-0.7,1c-0.4,0.2-0.2,0.8,0,1c0.2,0.2,0.8,0.2,1.2,0.1c0.4-0.1,0.8,0.2,0.7,0.5c-0.1,0.2-0.7,0.7-0.9,0.9
		c-0.2,0.3,0.2,0.7,0.6,0.9c0.3,0.1,0.9,0,1.2,0.1c0.3,0.1,0,0.3-0.1,0.6c0,0.3-0.4,0.5-0.7,0.3c-0.3-0.1-0.6,0.1-0.8,0.5
		c-0.2,0.4,0.3,0.5,0.6,0.7c0.3,0.1,0.7-0.2,1,0c0.3,0.2,0.2,0.9-0.1,1.1C77.5,80.7,77.3,80.6,77,80.4z M78.3,88
		c0.2,0.2,0.7,0.6,0.8,1c0.1,0.4,0.4,0.6,0.6,0.9c0.3,0.3,0.5,1.1,0.7,1.5c0.2,0.4,0.1,0.9-0.1,1c-0.2,0.1-0.5-0.4-0.9-0.6
		c-0.4-0.2-0.8-0.7-1-1.1c-0.3-0.3-0.8-1-1.1-1.5c0,0-0.2-0.3-0.3-0.5C77,88.6,77,88.4,77,87.9c0-0.4-0.3-0.6-0.3-0.9
		c0-0.4,0.4,0,0.5,0.2C77.3,87.5,78.1,87.9,78.3,88z M74.3,95.2c-0.1,0.5-0.6,0.1-0.8-0.1c-0.2-0.2-0.3-0.5-0.4-0.9
		c-0.1-0.4-0.2-0.5-0.3-0.9c-0.1-0.4-0.3-0.6-0.5-1c-0.2-0.4-0.4-1-0.5-1.4c-0.1-0.4,0-1.1,0.1-1.7c0,0,0.1-0.3,0.3-0.5
		c0.2-0.2,0.2-0.3,0.6,0.1c0.4,0.3,0.4,0.8,0.5,1.3c0.1,0.5,0.5,0.8,0.5,1.2c0.1,0.4,0.3,1.3,0.3,1.6c0.1,0.3,0,0.6-0.1,1.2
		C74,94.6,74.4,94.7,74.3,95.2z M66.6,89.4c-0.1,0.4,0,1.1-0.2,1.4c-0.1,0.4-0.2,0.9-0.4,1.2c-0.2,0.4-0.4,0.6-0.5,0.5
		c-0.2-0.1-0.4-0.9-0.4-1.2c0-0.4,0-0.8,0-1.1c0-0.3,0.2-0.8,0.3-1.3c0.2-0.4,0.3-1.2,0.6-1.2c0.2-0.1,0.4,0.4,0.5,0.6
		C66.5,88.6,66.7,89,66.6,89.4z M61.7,86c-0.2,0.2-0.4,0.5-0.5,0.8s-0.4,0.6-0.5,1.1c-0.2,0.4-0.2,0.8-0.4,1.1
		c-0.2,0.3-0.6,0.5-0.8,0.7c-0.2,0.1-0.5,0.4-1.1,0.9c-0.6,0.4-0.6,0.1-0.6-0.1c0-0.2,0.1-0.7,0.2-1c0-0.3,0.4-1,0.5-1.3
		c0.2-0.3,0.4-0.6,0.5-0.9c0.1-0.3,0.5-0.7,0.7-1.1c0.2-0.4,0.6-0.6,0.8-1c0,0,0.8-0.1,1.1,0.1C61.8,85.4,61.9,85.8,61.7,86z
		 M55.5,78.8c0,0,0.2,0.2,0.2,0.4c0,0.2,0,0.4-0.2,0.5c-0.2,0.1-0.6,0.4-0.9,0.5c-0.3,0.2-0.9,0.5-1.3,0.7c-0.4,0.2-0.7,0.2-1.1,0.2
		c-0.4,0-0.7-0.4-0.6-0.6c0.1-0.3,0.4-0.5,0.7-0.5c0.3-0.1,0.7-0.3,0.9-0.5c0.2-0.2,0.6-0.2,1.1-0.2C54.8,79.2,55.5,78.8,55.5,78.8z
		 M55.3,76.3c-0.2,0.2-0.8,0.4-1.1,0.4c-0.3,0-0.7-0.2-0.9-0.2c-0.2,0-0.4,0-0.7,0.2c-0.4,0.1-0.4,0.4-0.7,0.6
		c-0.2,0.2-0.5-0.1-0.6-0.3c-0.1-0.2-0.1-0.2-0.4-0.5c-0.3-0.2-0.8-0.1-1.2-0.1c-0.4,0-0.5-0.1-0.9-0.2c-0.4-0.1-1-0.6-0.7-0.7
		c0.3-0.1,0.7-0.2,1.3-0.3c0.6-0.1,2.1,0.1,2.3,0c0.3-0.1,0.5-0.3,1.9-0.4c1.4-0.1,1.9,0.8,1.9,0.8C55.8,75.8,55.5,76.1,55.3,76.3z
		 M54.5,81.3c0.3-0.2,0.8-0.4,1-0.6c0.2-0.1,0.9-0.4,1.2-0.5c0,0,0.4,0.2,0.7,0.4c0.2,0.3-0.1,0.3-0.2,0.6c-0.1,0.3-0.4,0.4-0.7,0.4
		c-0.3,0.1-1,0.6-1.2,0.8c-0.3,0.2-0.5,0.4-0.8,0.5c-0.3,0.1-0.5-0.2-0.7-0.4c-0.2-0.2-0.4-0.6-0.4-0.8
		C53.3,81.6,54.2,81.5,54.5,81.3z M56.2,71.8c-0.1,0.1-0.6,0.1-1.1-0.1c-0.4-0.2-0.6-0.1-1-0.1c-0.4,0-0.7,0-1.2-0.4
		c-0.5-0.4-0.9-0.5-1.2-0.7c-0.3-0.2-1.3-0.7-1.2-0.9c0.1-0.3,1,0.1,1.5,0.2c0.5,0.1,1.1,0.1,2.6,0.5c1.5,0.4,1.9,1.4,1.9,1.4
		S56.3,71.7,56.2,71.8z M54.8,84.5c0-0.3,1.1-1,1.4-1.3c0.3-0.3,1.7-0.8,1.7-0.8s-0.3,0.8-0.5,1c-0.2,0.2-0.4,0.4-0.6,0.6
		c-0.3,0.2-0.5,0.4-0.7,0.7c-0.2,0.3-0.6,0.4-0.9,0.5C54.8,85.3,54.8,84.8,54.8,84.5z M56.4,67.8c-0.6-0.2-1.2-0.7-1.4-0.8
		c-0.2-0.2-0.5-0.7-1-1.1c-0.5-0.4-1.1-1.1-1-1.4c0.1-0.3,2.1,0.8,3,1.3c0.9,0.5,2.1,2.4,2.1,2.4C58,68.7,57,68,56.4,67.8z
		 M59.6,62.8c-0.2-0.6-0.2-1.6,0.5-1.4c0.6,0.2,1.1,1.4,1.7,2.1c0.5,0.7,0.8,1.7,0.8,1.7L62,65.6c0,0-0.7-0.2-1.1-0.8
		C60.5,64.1,59.8,63.4,59.6,62.8z M67.8,61.6c0.1-0.3,0.2-1.1,0.3-0.7c0.1,0.4,0.8,1.3,0.9,1.8c0.1,0.5,0,1.2,0,1.7c0,0,0,0.4,0,0.6
		c0,0.3-0.1,0.5-0.4,0.6c-0.3,0.2-0.5-0.9-0.5-1.3c0-0.4-0.3-1-0.4-1.4C67.8,62.6,67.8,61.9,67.8,61.6z M73.7,66.6
		c0-0.3,0.5-0.6,0.5-0.8c0.1-0.2,0.1-0.4,0.2-0.6c0.1-0.2,0.4-0.4,0.5-0.8c0.1-0.3,0.5-0.8,0.9-1.1c0.4-0.4-0.1,0.4-0.2,0.7
		c-0.1,0.2,0,0.8-0.1,1.1c-0.1,0.3,0,0.7-0.1,1c-0.1,0.3-0.4,0.6-0.6,0.9c0,0-0.2,0.4-0.4,0.7c-0.2,0.2-0.2,0.7-0.4,0.5
		c-0.2-0.1-0.3-0.4-0.3-0.7C73.7,67.2,73.7,66.9,73.7,66.6z M49.8,87.9c0.2-0.6,1.1-1.8,1.5-2.4c0.4-0.6,2.2-2.1,2.2-2.1
		s0.3,0.6,0,1c-0.3,0.4-0.6,0.7-0.9,1c-0.3,0.4-0.5,1.2-1,1.8c-0.5,0.6,0.4,0.5,0.9,0.4c0.5-0.2,2.4-0.8,2.4-0.8s-0.6,0.3-1.1,0.6
		c-0.5,0.3-1.2,1.1-1.8,1.5c-0.6,0.4-1.2,0.5-1.8,0.3C49.8,88.9,49.6,88.5,49.8,87.9z M80.9,80c0.3-0.3,0.7,0,1,0
		c0.3,0,0.5,0,0.9,0.1c0.4,0.1,0.7-0.1,1.1-0.1c0.4,0,0.7-0.1,1.2,0.2c0.5,0.3,0.7,0,1.2,0c0.4,0,1,0.3,1,0.5c0,0.2-0.3,0.4-0.7,0.4
		c-0.4,0-0.8,0.1-1.2,0.1c-0.4,0-1,0-1.5,0c0,0-0.4,0.1-0.5,0.1c-0.2,0-0.4,0-0.7-0.3c-0.3-0.3-0.4,0.1-0.6,0.2
		c-0.3,0.1-0.6,0-1.1-0.3C80.6,80.5,80.6,80.3,80.9,80z M61.7,33.4c0.1-0.7,1.4-0.6,2.1-0.9c0.7-0.3,2.3-0.2,3.1-0.2
		c0.8,0,0.6-1.1,0.2-1.7c-0.4-0.6-1.4-0.8-2.8-1.7c-1.4-0.9-1.5-1.6-0.8-2.1c0.7-0.4,2.8-0.4,4.5,0.1c1.6,0.5,1.7,0.1,2-0.5
		c0.3-0.6,0.4-4.5,0.4-5.8c0-1.4,0.5-3.2,0.9-4.1c0.4-0.9,0.8-1.8,1.4-1.7c0.6,0.1,1,2.9,1.4,4.2c0.4,1.3,1.2,2.5,1.5,4.3
		c0.3,1.8,0.3,2.1,0.9,2.1c0.6,0.1,0.8-0.9,1.6-0.9c0.9,0,0.3,1.2,0.2,2.3c-0.1,1.1-0.9,3.1-1.4,4.5c-0.4,1.4-0.5,2.3,0.1,2.7
		c0.6,0.4,1.6-0.8,2.2-0.9c0.6-0.1,1.1,0.1,1.3,0.6c0.2,0.6-1.1,1.6-1.6,2.8c-0.5,1.1-1.1,1.9-1.6,3.3c-0.6,1.5,0.5,1.6,1.6,1.6
		c1.1,0.1,1.4,0.3,1.2,1c-0.1,0.7-1,1.9-1.7,2.5c-0.7,0.6-0.8,1.4-1.4,2.5c-0.6,1.1-1.5,3.4-2.1,4.8c-0.6,1.4-0.1,1.6,0.3,1.9
		c0.4,0.3,1.5-0.6,2.1-0.4c0.6,0.1,1,2.2,1,2.2S78,56.6,77.5,57c-0.4,0.4-0.9,1-1.3,1.4c-0.4,0.4-1.3,1.3-1.9,1.6
		c-0.6,0.4-0.6,1.1-1.1,1.3c-0.4,0.1-0.7-1.3-0.8-2.1c-0.1-0.8-0.3-1.6-0.1-2.1c0.2-0.6,0.3-2.3,0.3-2.8c0-0.5,0.1-3.1,0.3-3.7
		c0.1-0.6,0.1-1.6,0.1-2.5c0-0.9,0.6-3.1,0.5-3.7c-0.1-0.6,0.3-4.1,0.4-5.2c0.1-1.1-0.1-3.6,0-4.5c0.1-0.9,0-2,0-3.6
		c0-1.6-0.3-3.6-0.4-5.4c-0.1-1.8-0.5-1.8-1.3-1.8c-0.8,0-0.5,3-0.6,4.7c-0.1,1.7,0.1,4.5,0.1,5.3c-0.1,0.9,0.1,2.7-0.1,4.3
		c-0.1,1.6,0,3.3-0.1,5.8c-0.1,2.5-1,9.7-1,9.7s-0.7-0.9-0.9-1.4c-0.2-0.5-0.8-1.1-1.2-1.4c-0.4-0.4-0.2-1.1-0.3-1.6
		c-0.1-0.5-0.2-2.9-0.2-3.6c0-0.7-1-2.7-1.3-3.7c-0.3-1-1.4-2.1-1.4-2.8c0-0.7,1,0.1,2.1,0.5c1.1,0.4,1.5,0.1,1.9-0.6
		c0.4-0.7-1.5-1.8-1.9-2.3c-0.4-0.6-1.7-0.8-2.3-1.5c-0.6-0.7-1.6-0.5-2.4-0.8C61.7,34.3,61.6,34.1,61.7,33.4z M40.7,31
		c0.6,0.1,0.7-0.1,1.2-0.4c0.5-0.3-0.2-1.9-0.6-2.8c-0.4-0.9-1.1-3.4-1.4-4.9c-0.4-1.5,0-1.9,0.6-1.8c0.6,0.1,1.9,1.6,2.7,2.6
		c0.9,1,2.2,2.8,2.8,3.1c0.6,0.2,1.2-0.6,1.2-1.4c0-0.8-0.1-1.6,0.6-1.9c0.7-0.3,0.7,1,0.8,1.6c0.1,0.6,1,1.8,1.4,3.1
		c0.4,1.3,1.3,3.6,2.1,3.8c0.9,0.1,1.8-1.8,2.4-1.6c0.6,0.1,0.5,1.6,0.1,2.6c-0.4,1,0.3,3,0.1,4.6c-0.1,1.6,0.7,2.8,1.7,2.8
		c1,0,1.1-1.9,1.1-2.4c0-0.6,0.6-1.1,1.3-1.2c0.6-0.1,0.9,1.4,0.9,2.1s0.6,1.9,0.7,2.7c0.1,0.9,0.4,3.1,0.4,4.1c0,1.1,0.1,3,0.1,3.7
		c0,0.7,0.4,2.8,1.3,2.8s1-1.1,1.2-1.6c0.2-0.5,0.1-1.2,0.6-1.8c0.5-0.6,0.9,0.1,1,0.9c0.1,0.8,1.1,2.3,1.1,2.8c0,0.6-0.2,2.5-0.7,3
		c-0.5,0.5-0.6,1.6-1,2.3c-0.4,0.6-0.2,1.5-0.5,1.8c-0.3,0.4-0.7-0.6-1.8-2.1c-1.1-1.4-1.5-1.5-1.9-2.3c-0.4-0.9-1-3.1-1.4-3.7
		c-0.4-0.6-1.1-2-1.8-3.1c-0.6-1.1-2.6-4.6-3.3-5.4c-0.6-0.8-1.8-2.2-2.3-3.6c-0.5-1.4-1.4-3.3-2.1-5.1c-0.8-1.8-1.4-2.3-2.6-2.3
		c-1.3-0.1,0.3,2.3,0.8,3.3c0.5,1.1,1.6,3.3,2.2,4.2c0.6,0.9,2.7,4.6,3.3,5.8c0,0,0.8,1.4,1.2,2c0.4,0.6,0.6,1.2,0.9,1.9
		c0.3,0.6,0.9,1.7,1.4,2.2c0.5,0.5,1.4,2.2,1.4,3c0,0.8-0.7,0.9-1.1,0.7c-0.4-0.2-1.6-0.3-2.6-0.5c-1-0.2-1.4-0.1-2.3-0.3
		c-1-0.1-1.1-0.3-1.4-0.6c-0.3-0.4-0.9-0.9-1.4-1.5c-0.4-0.6-1.3-0.5-1.8-1.1c-0.5-0.6-1-1.2-0.4-1.7c0.6-0.5,1.7-0.9,2.5-0.9
		c0.8,0,1.4,0.1,1.6-0.6c0.2-0.7-0.7-1.4-1.3-1.9c-0.6-0.4-1.6-0.5-2.7-0.8c-1.1-0.3-2.6-0.4-3.1-0.7c-0.6-0.3-1.4-0.6-2.2-0.8
		c-0.9-0.1-0.8-0.6-0.5-1.1c0.3-0.5,1.5-0.3,2.3-0.4c0.8-0.1,1.9-0.1,2.1-1c0.2-0.9-1.9-1.3-2.6-1.7c-0.7-0.4-1.4-0.9-1.9-1.3
		c-0.5-0.4-1.4-1.4-1.1-1.7c0.4-0.3,1.3-0.1,1.6-0.4c0.4-0.3,0.1-1-0.1-1.4c-0.3-0.4-0.6-1.1-0.9-1.7c-0.3-0.6-1.1-1.6-1.1-2.2
		C39.6,30.2,40.2,30.9,40.7,31z M19.7,37.6c0.9,0,1.9,0,2.9,0.3c1,0.3,1.7-0.1,2.3,0.6c0.6,0.7,1.3,1.1,1.8,1.3
		c0.5,0.1,1-0.6,1.4-1.4c0.4-0.7,0.4-1.6,0.9-1.3c0.5,0.4,0.6,1.1,1.1,1.9c0.4,0.7,0.4,1.7,1.1,2.8c0.6,1.1,0.9,1.6,1.3,2
		c0.4,0.4,0.6,1.4,1.4,1.8c0.9,0.4,1.4-0.4,1.7-1.2c0.4-0.8,0.9-1.6,1.2-0.5c0.4,1.1,0.5,2.2,0.9,3.1c0.4,0.9,0.8,1.5,1.1,1.8
		c0.3,0.3,0.5,0.9,1,0.4c0.5-0.4,0.6-2,1.6-2.3c1-0.4,1.4-1.1,1.6,0.1c0.1,1.3,0.4,2.6,0.8,3.5c0.4,0.9,0.9,1.7,1.4,2.2
		c0.5,0.5,1.2,1.3,1.6,1.8c0.4,0.6,0.6,1.5,0.9,1.9c0.2,0.4-0.1,1.6,0.1,2.3c0.1,0.7,0.4,2.2,0.4,2.8c0.1,0.6,0.4,2.3-0.7,1.1
		c-1.1-1.2-2.5-2.6-2.8-3.3c-0.4-0.7-2.8-2.6-2.8-2.6c-0.7-0.7-1.5-1.2-2.3-2.1c-0.9-0.9-1.4-1.9-1.9-2.1c-0.6-0.1-1-1.2-2-1.4
		c-1-0.1-1.8,0.2-1.5,1.1c0.3,0.9,1.4,0.6,1.7,1.4c0.4,0.7,1,1.2,1.4,1.7c0.4,0.5,1.5,1.4,2.1,1.9c0.6,0.5,1.8,0.9,2,1.6
		c0.2,0.6,0.6,0.4,1.1,1c0.6,0.6,1.5,1.4,2.1,1.9s1.9,1.4,1.6,1.9c-0.3,0.4-2.1,0.6-2.6,0.3c-0.5-0.4-1.6-1-2.5-1.6
		c-0.9-0.6-1.6-1-2.7-1.4c-1.1-0.4-2.8-0.4-2.3-1c0.5-0.6-0.3-1.6-1.3-1.7c-1-0.1-2.4,0.2-3.1,0.2c-0.7,0,0.4-0.7,0-1.6
		c-0.4-0.9-0.9-1.2-1.7-1c-0.9,0.2-2.8,0.7-3.9,0.3c-1.1-0.4-1.8-0.4-0.6-2c1.2-1.6,2.5-2.1,1.8-2.9c-0.7-0.9-2.9-0.6-2.6-1.4
		c0.3-0.8,1.3-0.8,1.4-1.4c0.1-0.6,0.4-1-1.4-1.7c-1.8-0.7-3.3-0.9-2.8-1.6c0.6-0.6,2-1.5,1-2.8c-1-1.3-1.6-2.4-2.1-3.1
		C19.7,38.6,18.8,37.6,19.7,37.6z M20.1,75c-0.8-0.7-2.1,1.4-2.8,2.3c-0.7,0.9-1.2-0.1-1.5-0.6c-0.3-0.5-1.1-1.7-1.6-2.5
		c-0.4-0.8-1.6,0.1-3.9,0.7C8,75.4,9.1,74,9.6,73.6c0.5-0.4,0.9-1.6,1.4-2.1c0.5-0.4,0.6-1.3,0.5-1.9c-0.1-0.6-1.6-2.2-1.9-2.9
		c-0.4-0.7,0.2-0.9,0.8-0.6c0.6,0.3,1.6,0.7,2.5,0.7c0.9,0,2.5,1.4,3.6,1.5c1.1,0.1,1.1-0.3,1.6-0.6c0.4-0.4,0.9-1.6,1.2-2.3
		c0.3-0.7,2.7-2.2,4.6-2.9c1.9-0.7,1.3,0.7,1.1,1.4c-0.2,0.7,0.5,0.9,1.4,0.9c0.9-0.1,1.4-0.6,1.9-1.1c0.5-0.5,1.6-1.4,2.5-1.5
		c0.9-0.1,0.6-0.4,1.1,0c0.6,0.4,0.4,2,0.7,2.3c0.4,0.3,1.3,0.1,1.9-0.1c0.6-0.2,0.9-1.1,1.5-1.4c0.6-0.2,0.2,1.1,0.7,1.4
		c0.5,0.3,1.8,0.7,2.5,0.9c0,0,0.5,0.1,0.8,0.2c0.3,0.1,1.1,0.8,1.5,1.1c0.4,0.3,0.9,0.3,1.2,0.7c0.3,0.4,1.9,2.3,2.2,2.8
		c0.4,0.5,1.3,0.9,1.7,1.6c0.4,0.7-1.6,0.4-2.2,0.4c-0.6-0.1-2.3-0.2-2.9-0.5c-0.6-0.3-2.6-0.3-3.1-0.6c-0.6-0.3-1.6-0.1-2.1,0.2
		c-0.5,0.3-0.4,1.2,0.1,1.4c0.6,0.1,2.5,0.4,3.3,0.6c0.8,0.2,0.5,0.9-0.5,1.7c-1,0.8,0,1.2,0.8,1.3c0.8,0.1,1,1.3,0.6,1.4
		c-0.4,0.1-1.4,0.1-1.9,0.2c-0.5,0.1-2.6,1.5-3.6,1.8c-0.9,0.4-2.1,1.4-1.5,0.1c0.6-1.2,1.3-1.5,0.5-2.3c-0.8-0.8-2.4,0.6-5,2.7
		c-2.6,2.1-2.6,1.2-3.3,0.6c-0.6-0.6-1.8-1.4-2.8-1.9C21.6,78.3,20.9,75.7,20.1,75z M29.3,97.2c-0.8-0.1-1.4,0.4-1.7,0.9
		c-0.4,0.5-0.9,1.1-1.4,1.7c-0.6,0.6-1.1,0.9-2,1.2c-0.9,0.3-1.9,0.9-2.3,0.9c-0.4-0.1,0.4-1.1,0.5-2.2c0.1-1.1,0.5-2,0.8-2.6
		c0.3-0.6,1.2-1.9,1.6-2.4c0.4-0.6,1.2-1.2,1.2-1.8c0-0.6-0.9-0.7-1.7-0.9c-0.9-0.2-2-0.3-2.1-0.8c-0.1-0.5,0.6-1.1,1.6-1.9
		c1.1-0.7,2.1-0.7,3-1.1c0.9-0.4,2.8-0.6,4.3-0.7c1.4-0.1,0.6-0.9,0.6-1.6c-0.1-0.7-1-0.9-1.1-1.8c-0.1-0.9,0.9-0.3,1.5-0.3
		c0.6,0,1.9-0.2,2.4-0.3c0.6-0.1,2.3-0.2,2.8-0.4c0.6-0.1-0.6-1.8-0.5-2.4c0.1-0.6,1.3-0.4,1.9-0.5c0.6-0.1,2.7-0.1,4.2,0
		c1.5,0.1,2.7,0.4,2.7,0.4L45,82.3c0,0-2.8,1.3-3.4,1.4c-0.6,0.1-2,1.5-2.9,1.8c-0.9,0.3-2.1,1.4-2.8,1.9c-0.7,0.4-1.8,0.9-2.3,1.3
		c-0.6,0.4-0.9,0.6-1.2,0.9c-0.4,0.2-1.9,1.9-2.5,2.2c-0.6,0.4-0.8,1.1-1.2,1.4c-0.4,0.4-1.4,1-1.2,1.9c0.2,0.9,1.6-0.2,2.1-0.6
		c0.5-0.4,2.1-1.7,2.6-2.3c0.5-0.6,1.2-0.9,1.6-1.3c0.4-0.4,1-0.9,1.4-1.1c0.4-0.3,1.5-1.1,1.9-1.6c0.4-0.4,1.2-1.1,2.3-1.6
		c1.1-0.5,2-1.1,2.7-1.6c0.7-0.5,0.7,0.4,0.8,0.8c0.1,0.4,1.3,0.4,2,0.4c0.7-0.1,0.4,0.6-0.1,1.3c-0.5,0.7-1.1,0.8-1.7,1.6
		c-0.6,0.9-0.9,1.1-1.4,0.8c-0.5-0.3-1.1-0.2-1.6-0.1c-0.5,0.1-1.2,1.1-1.8,1.6c-0.6,0.5-0.7,1.5-1.1,2.3c-0.4,0.8-1,1.8-1.6,1.6
		c-0.6-0.1-0.7-0.6-1.4-0.9c-0.6-0.3-1.6,1-1.9,1.5c-0.4,0.5-0.6,1.1-1.1,2.3c-0.5,1.2-0.9,1-0.9,0.5S30.1,97.3,29.3,97.2z
		 M47.3,110.8c-0.4,0.6-1.1-0.6-1.7-0.6c-0.6,0-1.9,0.6-1.9,1.6c-0.1,1.1,0.4,2.3-0.4,2.2c-0.9-0.1-1.8-1.6-2.3-1
		c-0.6,0.6-1,2.4-1.1,3c-0.1,0.6-0.1,1.6-0.9,1.1c-0.7-0.4-1.8-1.1-2.3-1.8c-0.5-0.7-0.6-2.4-0.7-3.3c-0.1-0.9,0.1-1.5-1-1.5h-2.5
		c-0.6,0-1.1-0.4-1.2-0.9c-0.1-0.5-1.1-1-1-1.5c0.1-0.5,0.4-1.8,1.4-2.1c1-0.2,2.1-1.1,2.6-0.6c0.6,0.6,1.3,0.1,1.8,0
		c0.5-0.1,0.6-0.7-0.3-1.1c-0.9-0.4-1.6-0.5-0.1-1.8c1.4-1.3,0.9-1.8,2.1-2.1c1.1-0.3,2.6-0.5,2.4-1.4c-0.2-0.9-0.6-1.3-1-1.6
		c-0.4-0.3-1.1-0.5,1.2-1.4c2.3-0.9,3-0.6,3.1-1.2c0.1-0.6-1.3-1.4-0.8-1.7c0.5-0.3,1.5-0.9,2.3-1.1c0.9-0.1,1.6-0.7,1.4-1.4
		c-0.1-0.7-0.8-1.5,0-1.8c0.8-0.3,0.4,0.1,0.7,0.8c0.3,0.7,0.8,1,1.3,1s1-0.2,1.4-0.2c0.4,0,1.1,0.2,1.1,0.2s-0.8,1-1.2,1.6
		c-0.4,0.6-1.7,2.8-1.7,2.8c-0.4,0.9-1.1,1.9-1.6,3c-0.6,1.1-1.4,1.6-2.1,2.5c-0.7,0.9-1.7,2.3-1.9,2.8c-0.2,0.6-0.9,1.3-1.1,1.8
		c-0.3,0.5-1,1.1-1.1,1.5c-0.1,0.4-1.1,1.7-0.1,1.7s1.7-1.6,2.8-2.5c1.1-0.9,1.6-2.3,2.3-3.1c0.7-0.8,1.4-1.6,1.9-2.3
		c0.4-0.8,1.1-2.6,1.7-3.6c0.6-0.9,1.4-1.7,1.4-1.9c0.1-0.2,0.7-1.4,1-1.9c0.3-0.4,0.7-1.7,1.1-2.1c0.4-0.4,1.1-1.2,1.1-0.4
		c-0.1,0.9-1.1,2.6-1.4,3.5c-0.4,0.9-1.1,0.9-1.5,1.7c-0.4,0.8-0.1,1.8,0.8,1.9c0.9,0.1,0.3,0.8-0.1,1.4c-0.4,0.6-1.1,1.2-1.1,2.2
		c0,1-0.4,3.8-0.8,3.9c-0.4,0.1-2.2-0.8-2.2,0.7C46.9,107.7,47.7,110.2,47.3,110.8z M65.8,111.7c-0.6-0.1-1.6-0.4-3.2-1.1
		c-1.6-0.7-1.6,1.1-2,2.1c-0.4,1,0.7,3.7,0.7,4.8c0,1.1-1.1,0.6-1.6,0.6c-0.6-0.1-0.4-0.9-1.6-1.4c-1.1-0.4-1.2,0.6-1.6,1.4
		c-0.4,0.8-1.3,2.1-2.3,3.1c-1,1-3.6,4.1-3.8,3.8c-0.2-0.3,0-2,0.2-3.1c0.2-1.1,0.9-3.6,1.4-4.9c0.5-1.4-0.5-1.8-1.1-1.4
		c-0.6,0.4-2.1,0.9-2.1,0.9s0-2.4,0.4-3.1c0.4-0.6,1.1-2.4,1.5-2.8c0.4-0.4,2.2-2.1,2.6-2.5c0.4-0.4,0.9-1,0.7-1.7
		c-0.2-0.7-1.4,0.4-2,0.4c-0.6,0-0.9-0.3-0.7-1c0.1-0.7,1.2-1.3,1.7-1.7c0.5-0.4,1.7-0.9,2.3-1.6c0.6-0.6-0.3-1.1-0.9-1.5
		c-0.6-0.4-1.4-0.6-1.5-1c-0.1-0.4,0.4-0.7,0.9-1.3c0.5-0.6,1.4-1.8,2.1-2.8c0.8-1,3.3-1.4,3.3-1.4s0,0.6-0.1,1.1
		c-0.1,0.5-0.1,2-0.7,2.6c-0.6,0.6-0.3,2.4-0.6,2.9c-0.3,0.5-0.6,2.6-1,3.1c-0.4,0.4-0.9,3.5-1.1,4c-0.3,0.5-1.1,2.4-1.3,3.4
		c-0.2,1-0.9,2.6-1.3,4.3c-0.4,1.8,0.1,1.5,0.5,1.4c0.4-0.1,1.6-3.1,1.9-3.6c0.3-0.5,0.6-1.5,0.9-2.4c0.2-0.9,0.7-1.4,0.9-2.1
		c0.2-0.6,0.4-2.1,0.5-2.9c0.1-0.9,0.9-1.7,1.1-2.1c0.2-0.4,0.2-1.9,0.4-2.2c0.2-0.3,0.5-1.8,0.6-2.1c0.1-0.4,0.9-2.6,0.9-3.3
		c0-0.7,0.6-1.9,0.9-1.9c0.3,0,0.1,1.3,0.1,1.7c-0.1,0.4,0.1,2.5,0.1,3.1c0,0.6,0.4,3.8,0.6,4.2c0.2,0.4,1.2,1.1,1.4,1.6
		c0.2,0.6,1.2,2.4,1.6,3c0.4,0.6,1.8,2.1,1.8,2.6C67.2,111.7,66.4,111.9,65.8,111.7z M95.1,123.9c-0.4,0.4-1.1,0.1-2,0.1
		c-0.9,0-1.3-0.3-1.4,0.7c-0.1,1-0.4,1.6-0.5,2c-0.1,0.4-0.3,2-0.4,2.6c-0.1,0.6-0.4,1.4-0.6,2c-0.2,0.6-0.1,1.6-0.9,1.4
		c-0.8-0.2-1.6-1.7-1.7-2.2c-0.1-0.5-0.8-2-1-2.6c-0.2-0.6-0.8-1.1-1.1-1.1c-0.3,0-1.1,0-1.4,0.4c-0.2,0.4-0.4,1.2-0.6,1.5
		c-0.2,0.3-0.6,1.2-1,0.9c-0.4-0.4-0.6-2.1-0.6-2.6c0-0.5,0.1-2.6,0.1-3.1s0.5-2,0.5-2.7c0-0.7-0.1-1.2-0.8-1.1
		c-0.6,0.1-1.4,1.1-1.6-0.3c-0.3-1.4,0-3.9-0.7-3.9c-0.7,0-1.2,0.5-1.8,0.8c-0.6,0.3-1.4,1.5-1.5-0.4c-0.1-1.9,0.1-3.6-0.4-4.3
		c-0.5-0.7-0.9-1.3-1.6-0.9c-0.7,0.4-1.9,0.6-2.7,0.6c-0.8-0.1-1.1-0.7-0.7-2.1c0.4-1.4,1.4-2.2,0.9-2.6c-0.6-0.4-0.9-1-1.6-0.7
		c-0.7,0.3-1,0.9-1.6,0.9c-0.6,0-0.4-1.5-0.4-2.8c0-1.4-0.4-1.9-0.4-2.6c-0.1-0.7-0.6-2.7-0.6-2.7s0.9-0.8,1.2-1.6
		c0.4-0.9,0.4-1.9,0.8-1.4c0.4,0.6,1.1,0.9,1.5,1.9c0.4,1,1.5,2.3,1.5,2.3c0.7,1.2,1.6,1.8,1.9,2.6c0.4,0.7,1.1,1.4,1.4,1.8
		c0.2,0.4,0.6,0.1,1.6,0c1-0.1,1.1,0.4,1.7,1.1c0.6,0.8,0.9,1.7,1.4,2.4c0.4,0.7,1.1,1.9,1.3,2.5c0.2,0.6,0.7,1.7,1.1,2.6
		c0.4,0.9,0.7,0.8,1.1,1.9c0.4,1.1,0.7,2.1,1,2.9c0.3,0.8,1.1,2.4,1.4,3c0.2,0.6,0.5,1.1,0.7,2.1c0.2,1,1.2,2.3,2,2.3
		c0.8,0,1.1-0.3,1-1.1c-0.1-0.9-0.9-1.4-1.2-2.1c-0.3-0.8-0.5-1.9-0.8-2.4c-0.3-0.6-1.3-1.1-1.1-2.1c0.1-1-0.5-2.1-0.8-2.9
		c-0.3-0.8-1.4-3.7-2.1-4.9c-0.7-1.2-2.3-4.1-2.5-4.4c-0.2-0.3-1.4-2.1-1.6-2.4c-0.2-0.3-1.5-1.6-1.5-2.3c0-0.7-0.1-1.4,0-2
		c0.1-0.6,0-2.8,0.7-2.1c0.7,0.6,1.8,2,2.7,3.2c0.9,1.2,1.8,1.9,2.2,2.4c0.4,0.6,1.3,1.7,1.9,2.1c0.6,0.4,1.5,1,1.8,1.4
		c0.3,0.4,0.8,1.2,1.4,1.6c0.6,0.4,1.4,0.5,2.1,0.9c0.7,0.4,2.8,0.8,2.7,1.4c-0.1,0.6-0.9,0.9-1.6,1.5c-0.7,0.6,0.1,2.5,0.4,2.9
		c0.3,0.4,1,1.8,1.9,2.3c0.9,0.5,1,1.1,0.6,1.3c-0.4,0.1-1.9-0.1-2.3,0.1c-0.5,0.2-0.3,1,0.1,1.4c0.4,0.4,0.8,0.6,1,1.1
		c0.2,0.6,0.4,1.4,0.6,1.7C94.1,122.3,95.4,123.5,95.1,123.9z M124.7,103.5c-0.2,0.4-1.8,0.7-2.5,1c-0.6,0.3-3.3,1.1-4.6,1.1
		c-1.2,0-2.1-0.1-2,0.6c0.1,0.8,0.2,1.8,0.2,2.4c0,0.6-0.9,0.7-1.9-0.8c-1-1.5-2-2.8-2.5-2.4c-0.5,0.4-0.6,1.6-0.6,1.6
		s-0.1,2.3-1.3,0.9c-1.1-1.4-3.1-2.7-3.6-3.1c-0.5-0.4-2.6-1.8-3.3-1.4c-0.7,0.4-0.9,0.6-1.2,1.1c-0.3,0.5-0.9,1.3-1.1,1.4
		c-0.3,0.1-0.7,0.4-1.1-0.7c-0.4-1.1-0.6-2.3-1.2-2.8c-0.6-0.5-0.3-1.1-1.6-0.6c-1.4,0.5-1.3,1.4-1.6,2.1c-0.4,0.7-1.2,1.6-1.6,0.4
		c-0.4-1.1,0.6-2-0.1-2.9c-0.7-0.9-0.4-1.6-1.7-1.1c-1.3,0.5-0.9,1.5-1.4,1.1c-0.5-0.4-1.2-0.9-2.2-1.8c-1-0.9-1.5-1.9-1.5-2.8
		c0-0.9-0.4-2.3-0.5-2.8c-0.1-0.5-0.7-1.9,0.3-1.4c1,0.6,1,1,1.5,1.4c0.5,0.4,1.4,0.8,1.4,0.8c0.7,0.4,1.7,1.1,2.1,1.3
		c0.4,0.2,1.2,0.9,1.9,0.4c0.7-0.4,0.6-1.6,1.5-0.9s2.9,1,4.2,1.6c1.3,0.6,3,1,3.6,1.3c0.6,0.3,2.1,0.8,3.3,1.3
		c1.2,0.5,4.4,1.8,5.1,2c0.7,0.2,1.9,0.6,3.3,0.9c1.4,0.3,3.5,1,3.6,0.3c0.1-0.7-1.9-1.4-2.8-1.6c-0.9-0.2-3.6-1.6-5.1-1.8
		c-1.5-0.1-2.8-1.1-3.8-1.6c-1-0.4-1.7-0.6-2.3-0.9c-0.6-0.2-2.3-0.8-2.8-1.1c-0.5-0.3-4.4-1.5-4.9-2.1c-0.5-0.6-2.3-1.1-2.2-1.7
		c0.1-0.6-1.2-2.8-1.5-3.6c-0.3-0.9-1.1-1.6-1.5-2c-0.4-0.4-2.6-2.1-1.9-2.1c0.7-0.1,1.6-0.1,2.3-0.2c0.8-0.1,1.6-0.1,2.6,0.6
		c1.1,0.8,2.3,1.4,2.7,1.8c0.4,0.4,1.8,0.5,2.3,0.9c0.5,0.4,1.2,0.9,1.9,1.1c0.7,0.2,2.2,0.4,2.6,0.6c0.4,0.1,2.3,0.3,1.9,0.8
		c-0.4,0.5-1.3,0.5-1.8,1.1c-0.5,0.6-1.1,1.4-1.1,1.7c0,0.4,0.1,0.6,0.8,0.8c0.7,0.1,1.6,0,2.5,0.2c0.9,0.2,2.5,0,3.1,0
		c0.6,0,1.2-0.1,1.4,0.1c0.2,0.2-1.4,0.9-1.6,1.6c-0.3,0.6,0.6,1.2,1.4,1.2c0.7,0,1.9,0.2,2.6,0.2c0.7,0,1.9-0.2,2.3-0.2
		c0.4,0,1.4-0.3,2-0.3c0.6,0,1.6-0.9,2.3-0.4c0.7,0.5,1.2,1,1.2,1.7c0,0.7-1,1.6-0.5,2.3c0.5,0.8,0.7,0.7,1.6,1.4
		c0.9,0.6,1.6,0.8,2.1,1.1C123.7,103,124.9,103.1,124.7,103.5z M130.3,88.3c-0.4,0-1.6,1-2.3,1.1c-0.6,0.1-1.8,0.7-2.6,0.7
		c-0.9,0-2.5,0.3-3.8,0.1c-1.4-0.1-1.4,0.4-2.1,1.1c-0.7,0.7-0.5,1.6-0.5,1.6s-2-0.9-2.8-1.4c-0.9-0.6-1.5-1.4-2.1-2.5
		c-0.6-1.1-1.4,0.1-2.2,0.6c-0.9,0.4-0.9,1.5-0.9,1.5s-1-0.6-1.4-1.3c-0.4-0.7-0.2-1.1-0.7-1.9c-0.5-0.8-1.1-1.3-1.3-2.1
		c-0.2-0.8-0.9-1.5-1.6-2.1c-0.7-0.6-1.3,0.1-1.4,1.2c-0.1,1.1-0.9,0.5-1.3-0.2c-0.4-0.7-1.3-1-1.7-1.7c-0.4-0.7-1.5-1.1-2.1-1.6
		c-0.6-0.6-2.1-0.8-3.1-1c0,0-0.9-0.5-1.7-0.7c-0.8-0.2-1.6-0.4-2.6-0.9c-0.9-0.6,0.5-1.1,1.1-1.2c0.6-0.1,1.1-0.4,2-0.5
		c0.9-0.1,2.3,0.6,3.1,0.8c0.9,0.2,1.9,0.9,3,1.1c1.1,0.2,3.8,1.4,4.5,1.9c0.7,0.5,2.1,1,2.7,1.2c0.6,0.2,2.1,1.1,2.5,1.2
		c0.4,0.1,2,1.1,2.6,1.4c0.6,0.4,2,1.2,2.3,1.4c0.4,0.1,1.3,0.3,1.9,0.5c0.6,0.2,1.1,0.3,1.7,0.3c0.6,0,1.1-0.4,1.4-0.6
		c0.3-0.3,1.1-1.1,1.2-1.7c0.1-0.6-0.1-1.3-0.4-1.9c-0.2-0.6-0.1-1.1,0.1-1.8c0.2-0.7,1.2,0,2.8,0.1c1.6,0.1,2.3,0.8,1.9,1.4
		c-0.4,0.6-0.6,1.8-0.9,2.1c-0.2,0.3-0.9,1.4-0.5,1.4c0.4,0.1,0.8,0.9,1.4,0.9c0.6,0.1,1.6,0.6,2.6,0.6
		C130.2,87.5,130.7,88.3,130.3,88.3z M70.3,74.2c-0.7,0.1-0.6,0.7-0.4,1.1c0.2,0.4,0.9,0.4,0.9,0.4s0.8-0.3,1-0.5
		c0.2-0.2,0-0.5-0.3-0.9C71.4,74,71,74.1,70.3,74.2z M70.2,72.9c0.1,0.2,0.2,0.1,0.5,0.1c0.3,0,0.4-0.3,0.9-0.7
		c0.5-0.5,0.2-0.6-0.1-1c-0.4-0.4-0.4-0.3-1.2,0.1c-0.7,0.4-0.7,0.4-0.5,1C69.7,72.3,70.2,72.6,70.2,72.9z M72.5,74.2
		c0,0,0.4,0.3,0.5,0.3c0.2,0,0.3-0.1,0.8-0.3c0.4-0.3,0.3-0.4,0.3-0.7c0-0.3-0.1-0.5-0.3-0.7c-0.2-0.2-0.8-0.3-1.2-0.2
		c-0.4,0.1-0.5,0.5-0.6,0.7C72,73.4,72,73.8,72.5,74.2z M59.8,75.1L59.5,75c-0.4-0.1-0.6-0.1-0.7,0c-0.1,0.1-0.1,0.3-0.3,0.3
		c-0.2,0.1-0.3-0.1-0.4,0.2c-0.1,0.3-0.1,0.5,0,0.7c0.1,0.2,0.2,0.3,0.4,0.5c0.1,0.1,0.2,0.3,0.5,0.3s0.2,0.1,0.6,0.1
		c0.3,0,0.4-0.1,0.6-0.3c0.2-0.2,0.3-0.2,0.3-0.5c0-0.3-0.1-0.3-0.1-0.6C60.1,75.4,59.8,75.1,59.8,75.1z"/>
</g>
</svg>
