<?xml version="1.0" encoding="utf-8"?>
<!-- Generator: Adobe Illustrator 21.1.0, SVG Export Plug-In . SVG Version: 6.00 Build 0)  -->
<svg version="1.1" id="Capa_1" xmlns="http://www.w3.org/2000/svg" xmlns:xlink="http://www.w3.org/1999/xlink" x="0px" y="0px"
	 width="461.2px" height="172px" viewBox="0 0 461.2 172" style="enable-background:new 0 0 461.2 172;" xml:space="preserve">
<style type="text/css">
	.st0{fill:#4F6721;}
</style>
<path class="st0" d="M65.2,90.3c-0.1-0.7-0.2-1.5-0.3-2.1c-1.4-0.9-2.6-1.8-4.3-2.9c1-0.2,1.5-0.3,1.9-0.4c0.2,0.1,0.4,0.2,0.6,0.3
	c-0.2-0.1-0.4-0.2-0.6-0.3c-0.5-0.9-1-1.7-1.6-2.6c-0.7-0.2-1.5-0.3-2.2-0.5c0.1-0.3,0.2-0.7,0.2-1c-1.5-2.1-3.8-2.8-6.2-3.1l0,0
	c-1.4-0.4-2.8-1-4.2-1.2c-1.1-0.2-1.9-0.5-2.3-1.9c1.9-1,3.6-0.9,5.3,0.9c1.9-0.4,3.9-0.8,6.3-1.3c1.1-1.8,2.3-3.9,3.7-5.9
	c1.3-1.9,2.9-3.6,4.6-5.8c-2.8-0.3-4.9,1-7.2,1.1c-0.1-0.2-0.3-0.5-0.6-0.9c-0.3,0.4-0.7,0.7-1,1c0.2,0.3,0.3,0.6,0.7,1.1
	c-3.2,0.3-5.9,1.9-9.2,1.8c3.1-2.6,6.8-4.2,9.4-6.1c1.8-4.3,3.4-8,5.1-12.1c-0.9,0.1-1.6-0.1-2.1,0.2c-2.2,1.2-4.5,2.4-6.5,3.9
	c-4.8,3.6-10.3,6-15.8,8.2c-1.1,0.4-2.1,1-2.9,1.4c-0.4,1.1-0.7,2-1.1,2.8c-0.2,0-0.3-0.1-0.5-0.1c-0.1-0.5-0.1-0.9-0.2-1.5
	c-1.7,0.5-2.1,2.1-3.1,3.3c-1.5,0.1-3.1,0.2-4.8,0.3c-1.7-0.7-3.6-1.5-5.5-2.3c-1-1.1-2-2.2-3-3.5c-0.3,0.6-0.5,1-0.7,1.5
	c-0.5-1-0.9-1.9-1.4-2.9l0,0c0.6,0,1.3-0.1,2-0.1c-1.1-1.7-2.1-3.2-3.3-4.9c-0.7-0.1-1.7-0.2-2.7-0.3c-0.4-1.1-0.9-2.1-1.5-3.8
	c1,0.5,1.7,0.6,1.7,0.9c0.3,1.2,0.7,2.2,2.2,2.1c-1.2-2.2-2.3-4.3-3.6-6.8c-0.2,0.9-0.3,1.5-0.4,2.3c-0.3-0.1-0.8-0.2-0.8-0.4
	c-0.6-1.8-1.2-3.6-1.6-5.4c-0.4-1.8-0.7-3.7-1-5.8c0.5-0.2,1.2-0.5,1.8-0.8c0.1-0.2,0.2-0.5,0.2-0.7c-0.4-6.6-0.8-13.2-1.2-19.8
	C7.4,13.6,7,11.1,7.7,8.5c0.3-0.9-0.1-2-0.2-3.9C6.9,5.9,6.3,6.4,6.3,7c0,1.5,0.2,3.1,0.2,4.7C6.8,19.7,6.9,27.8,6.8,36
	c-0.1-0.6-0.4-1.2-0.4-1.8C5.8,25.9,5.2,17.6,4.8,9.3C4.7,7.4,5.1,5.5,5.3,3.5C7.6,2.3,9.8,1.2,12,0.1c0.5,0,1-0.1,1.6-0.1
	c0.4,0.3,0.7,0.6,1.7,1.3c1.2,1.6,0.6,4.2,0.2,6.3c-0.5,2.4-0.6,5-2,7.3c-0.9,1.5-0.8,3.7-0.8,5.6c0,3.5,0.1,7,0.7,10.5
	c1.1,6.2,2.1,12.5,4.4,18.5c1.3,3.5,2.8,6.8,5,9.8c1.8,2.5,4,4.3,7.1,5.4c1.7-1.3,3.4-2.6,5.2-3.8c0.9-0.6,1.9-1.3,3-1.6
	c4.8-1.3,9.3-3.5,13.4-6.2c2.6-1.8,5.2-3.6,7.7-5.3c2.4,0,4.4-0.5,6.9,0c-1.3,2.8-2.6,5.3-3.8,7.8c1.9-1.1,4-1.7,5.2-3.8
	c0.4-0.8,1.5-1.5,2.4-1.9c6.5-3.2,12.4-7.4,19.4-9.7c5.5-1.8,11-3.8,16.6-5.4c2.9-0.8,6.1-0.8,9.1-1.5c4-1.1,8.2-0.7,12.2-1.6
	c3.9-0.9,7.9-0.8,11.8-1.4c13.8-2.4,27.8-2.2,41.7-3.3c6.9-0.5,13.9-0.7,20.8-0.4c3.6,0.2,7.3-0.5,10.7,0.1
	c4.9,0.8,9.7-0.8,14.5,0.5c0.1,0,0.3,0,0.4,0c5.5-0.1,11-0.3,16.6-0.2c5.2,0,10.5-0.2,15.7,0.5c0.4,0.1,0.8,0,1.2,0
	c4,0,8-0.1,11.9,0.1c5.3,0.3,10.6,0.9,16,1.2c3.1,0.2,6.1,0.1,9.2,0.3c3.9,0.3,7.8,0.7,11.7,1.2c5.8,0.7,11.5,1.5,17.3,2.4
	c3.1,0.5,6.2,1.1,9.3,1.8c6.1,1.3,12.1,2.6,18.1,4.2c11.5,3.1,22.4,7.7,32.7,13.8c1.5,0.9,3,1.9,4.4,3.1c4.5,3.7,8.9,7.4,13.3,11.2
	c1.5,1.3,3,2.7,4.4,4.1c3.6,3.8,7.2,7.7,10.6,11.7c2.3,2.7,4.3,5.7,6.4,8.5c4.2,5.4,8.2,11,12.8,16.2c2.8,3.2,6.4,5.7,9.8,8.6
	c1.3,0.4,2.9,1,4.9,1.6c2-0.1,4.4-0.3,6.9-0.4c0.5,0.7,0.9,1.4,1.2,1.9c-0.6,3.9-0.7,7.8-4.1,10.4c-9.3,4.1-18.9,4.7-28.9,2.9
	c0.2,0.9,0.4,1.6,0.6,2.3c-1,0.3-1.9-0.2-2.4-1c-1.4-2.1-3.4-3.7-5.1-5.5c-3.4-3.8-6.4-8-10.2-11.4c-4.9-4.3-8.9-9.6-14.6-13.2
	c-6.2-4-12.1-8.4-19.1-11.1c-8.4-3.2-16.8-6.8-25.4-9.6c-9.2-3-18.2-6.3-27.5-9c-8-2.4-16-5.2-23.9-7.8c-2.9-1-5.7-2.1-8.7-2.9
	c-3.8-1-7.7-1.5-11.5-2.5c-6.9-1.9-13.9-2.8-20.9-4.1c-5.7-1.1-11.5-1.9-17.3-2.7c-4.5-0.6-9.1-1-13.6-1.6c-3.1-0.4-6.4-0.6-9.4-1.1
	c-8.1-1.6-16.3-2.3-24.4-3.6c-6.3-1-12.6-1.4-18.9-2c-2-0.2-4.1-0.3-6.1-0.4c-2.8-0.1-5.6-0.2-8.4-0.3c-3.5-0.2-7.1-0.8-10.6-0.7
	c-8.1,0.1-16.2,0.4-24.3,0.7c-4.9,0.2-9.8,0.5-14.7,1c-3.2,0.3-6.5,0.5-9.5,1.5c-5.9,1.9-12.1,2.6-18,4.9c-3.1,1.2-6.3,1.8-9.4,3
	c-3.2,1.3-6.6,2-9.4,4c-0.7,0.5-1.8,0.6-2.6,0.9c1.2,0.5,2.3,0.9,3.4,1.4c0.2-0.6,0.3-1.3,0.5-2.1c0.7,0,1.2,0.1,1.9,0.1
	c-0.2,1-0.6,1.9-0.4,2.6c0.8,2.7,1.8,5.2,2.6,7.9c0.4,1.5,0.7,3,1.2,5.3c-3.2-3.4-2.5-7.6-4.9-10.3c0.3,2.5,1,4.9,1.6,7.3
	c0.6,2.3,2.3,4.4,1.6,7.4c-1.3-3.3-2.5-6.2-3.7-9.1c-0.6,0-1.1,0.1-2,0.1c0.7,0.4,1.1,0.6,1.5,0.9c0.5,4.3,2.7,7.9,4.8,12.3
	c0.5-1.3,0.7-2,0.9-2.4c1.3,1.3,2.6,2.6,3.9,3.9c0.2,0.1,0.4,0.2,0.6,0.3c-0.2-0.1-0.4-0.2-0.6-0.3c-0.3-1.2-0.5-2.4-0.8-3.6
	c1.6,0.1,1.2,1.7,1.8,2.5c0.7,0.9,1.5,1.6,2.2,2.4c0.3,0.2,0.6,0.5,0.8,0.7c0.1,1,0.2,1.9,2,1.7c-0.9-0.7-1.4-1.2-2-1.7
	c-0.3-0.2-0.6-0.5-0.8-0.7c0.1-0.5,0.2-1.1,0.5-2.2c1.5,1.6,2.7,2.9,3.8,4.1c0.1-0.1,0.3-0.2,0.4-0.2c-0.3-1.1-0.6-2.2-0.8-3.3
	c0.9,0.4,1.3,1.1,1.7,1.6c1.3,1.7,2.7,3.4,4,5c0.1,0.1,0.4,0.1,1,0.1c-0.6-1-1.1-1.7-1.9-2.8c1.5,0.2,2.6,0.4,3.6,0.5
	c0.4-0.6,0.7-1.1,1.1-1.7c3.3,3.5,7.8,1.7,11.4,3.5c0-0.6-0.1-1-0.1-1.5c0.8-0.2,1.7-0.4,2.5-0.5c0-0.6,0.1-0.9,0.1-1.3l0,0
	c1.4,1.3,2.9,2.7,4.3,4c0.1,0.1,0.3-0.1,0.7-0.3c-0.6-0.7-1.1-1.4-1.8-2.3c0.8-0.1,1.2-0.2,1.5-0.2c0.2,0.1,0.4,0.2,0.6,0.3
	c-0.2-0.1-0.4-0.2-0.6-0.3c0-0.5,0.1-1,0.2-1.9c1.4,1.6,2.4,2.7,3.5,3.9c0.7-0.7,1.3-1.3,1.8-1.8c-2.3-2.7-2.4-3-3.2-6.7
	c3.8,3.7,5.1,9.7,11.1,11.1c-0.8-2-3.3-2.3-3.2-4.5l0,0c0.4,0,1-0.1,1.1,0c0.7,1.8,2.4,2,3.8,2.4c0.7,1.2,1.3,2.2,2.1,3.7
	c0.2-1.1,0.3-1.7,0.4-2.3c0.8,0.1,1.5,0.2,2.2,0.3c0.1,0.2,0.3,0.4,0.4,0.6c0.1-0.2,0.2-0.4,0.3-0.6c0.5-0.1,0.9-0.2,1.7-0.4
	c-1.3-2.1-2.2-4.2-2.2-6.6c1.4,2.5,3,4.6,5.8,5.7c0.2-0.7,0.4-1.4,0.6-2.5c0.9,1.2,1.6,2.2,2.3,3.1c0.1-0.1,0.1-0.2,0.2-0.3
	c0.8,0.6,1.7,1.3,2.5,1.9c-0.4,0.1-0.9,0.2-1.7,0.3c0.7,0.5,1.1,0.8,1.7,1.2c0-0.8,0-1.2,0-1.5c1.1,0.5,2.2,0.9,3.2,1.4
	c0.3,0.2,0.6,0.5,0.8,0.7c0.2,0.1,0.4,0.2,0.6,0.3c-0.2-0.1-0.4-0.2-0.6-0.3c-0.3-0.2-0.6-0.5-0.8-0.7c-0.3-1.2-0.5-2.4-0.8-3.6
	c0.6,0.1,1.2,0.2,2.2,0.4c-0.4-2.2-0.8-4-1.2-5.9c0.8,2.4,3.5,4.4,2.6,7.3c-0.5,0.1-0.9,0.1-1.3,0.2c-0.2-0.1-0.4-0.2-0.6-0.3
	c0.2,0.1,0.4,0.2,0.6,0.3c0.7,1.2,1.6,1.7,2.9,1.1c-0.2-0.7-0.4-1.2-0.7-2.3c1.2,0.4,1.8,0.6,2.5,0.8c-0.1,0.7-0.2,1.5-0.3,2.2
	c0.5,0,0.8,0,1.2,0.1c0.2,0.1,0.4,0.2,0.6,0.3c-0.2-0.1-0.4-0.2-0.6-0.3c-0.3-0.7,0.4-2-0.9-2.3c0.1-1.5-2-2.7-0.6-4.4
	c0.7,1.1,1.4,2.2,1.9,2.9c1.1,0.6,1.9,0.9,2.6,1.3c-0.7,0.1-1.4,0.2-2.7,0.3c0.8,0.6,1.1,0.9,1.7,1.3c0.4-0.7,0.7-1.2,1-1.7
	c0.9-0.1,1.8-0.1,2.6-0.2c0.4,0.8,1.4,2,2.1,2.5c-0.4-2.3-2.3-4.4-1.5-7.6c0.9,2.1,1.7,3.6,2.3,5.3c0.4,1.3,1.1,2,2.5,1.8
	c-0.1,0.5-0.3,1-0.5,1.9c0.7-0.5,1-0.7,1.2-0.8c-0.2-0.3-0.5-0.7-0.7-1c0-1,0-2,0-3.5c1.3,2.1,2.3,3.7,3.4,5.5
	c0.7-0.1,1.4-0.2,2.6-0.3c-1.2-0.7-1.9-1.1-2.5-1.5c1.1-2.6-1.4-4.6-1.3-7.8c2.1,2.7,2.5,5.4,3.7,7.8c0.8,0.3,1.5,0.5,2.8,0.9
	c-0.4-1.9-0.8-3.3-1.1-4.8l0,0c1.1,1.6,2.2,3.2,3.5,5.2c0.3,0.1,1.1,0.4,2.2,0.8c-0.2-2.3-2.2-3.9-1.5-6.3c1.1,1.7,2,3.1,3.2,5
	c0.4-1.3,0.6-2,1-3.2c1.8,2,3.3,3.6,5.1,5.7c-0.4-1.8-0.6-3-0.8-4.2l0,0c1.2,1.2,2.4,2.4,3.7,3.7c-0.4-2.2-0.8-4.2-1.2-6.8
	c2,1.8,2,4,2.8,5.7c0.6,0.1,1.2,0.2,1.9,0.3c-0.6,0.5-0.9,0.7-1.4,1.2c1.2,0.3,2.2,0.5,3.1,0.8c0.2,0.1,0.4,0.2,0.6,0.3
	c-0.2-0.1-0.4-0.2-0.6-0.3c-0.3-1.3-0.7-2.5-1-3.8l0.1-0.1c1,0.9,1.9,1.9,2.9,2.9c0.3-0.4,0.6-0.8,0.6-0.7c-0.5-2.3-1-4.2-1.4-6.2
	l0,0c0.9,1.6,1.7,3.2,2.7,5c0.9,0.1,1.8,0.2,2.8,0.3c-0.1,0.1-0.2,0.2-0.3,0.4c1.5,0.9,2.9,1.7,4.1,2.4c-0.6-1.8-1.3-4.2-2.1-6.6
	c0.9,0.4,1.3,1,1.6,1.7c1.2,2.9,2.3,5.9,5.1,7.7c0.2,0.1,0.4,0.2,0.6,0.3c-0.2-0.1-0.4-0.2-0.6-0.3c-0.7-2.5-1.4-5-2.3-8.3
	c2.7,2.5,2,6.1,5.4,7.2c-0.3-1.5-0.6-2.9-1-4.4c2.1,1,1.5,3,2.3,4.5c0.7,0.2,1.5,0.4,2.6,0.6c-0.4-1.4-0.8-2.3-1.1-3.3
	c0.4-0.2,0.7-0.4,1.3-0.7c0.3,1.3,0.6,2.5,0.8,3.7c0.1-0.1,0.3-0.2,0.4-0.3c1.1,1.3,2.1,2.6,3.3,4c-0.4-1.9-0.7-3.6-1-5.3
	c0-0.1,0.3-0.3,0.5-0.5c0.3,1,0.5,2,0.8,3.2c0.9,0.1,1.7,0.2,2.6,0.3c-0.6-1.4-0.6-1.4-0.3-2.8c1.3,0.7,1.2,2.6,2.8,3.4
	c1.1,0.6,1.6,2.6,2.4,3.9c0.2-0.1,0.5-0.2,0.7-0.3c-0.4-1.1-0.8-2.3-1.4-3.9c1.1,0.8,1.8,1.3,2.7,1.9c0.2-1.3,0.3-2.2,0.5-3.6
	c0.8,1.7,1.4,2.8,1.9,4c0.5,0,1-0.1,1.5-0.1c-0.2-1-0.3-1.8-0.4-2.8c2.1,0.5,1.4,2.2,1.8,3.1c1.2,1.2,2.2,2.3,3.2,3.4
	c0.1,0.2,0.3,0.4,0.1,0.1c0.3,0.2,0.1,0.1-0.1,0c0.1-0.8,0.2-1.5,0.5-2.8c1.7,3,5,1.8,7,3.5c0.4-0.7,0.7-1.4,1.1-2.2
	c1.9,1.5,1.5,4.3,4.2,5.6c-0.3-1.2-0.3-2-0.6-2.6c-0.6-1.3-1.3-2.4-2-3.7c-0.1-0.1,0.1-0.4,0.2-0.7c0.2,0,0.5-0.1,0.4-0.1
	c1.5,2.2,3,4.4,4.4,6.5c0.2-0.1,0.4-0.2,0.6-0.3c-0.3-1.3-0.6-2.7-1-4.1c2.2,0.5,1.3,2.3,2,3.3c0.7,0.9,0.7,2.7,2.9,2.3
	c-0.4-1.9-0.7-3.8-1.2-6.3c2.8,2.1,1.7,5.3,3.6,7.1c0.5,0.2,1,0.3,1.5,0.5c0.9-2.5-1.6-4.3-0.6-6.7c1.9,1.5,1.4,3.8,2.4,5.2
	c1.2,1.6,2.2,2.9,3.2,4.2c0.3,0.4,0.7,0.7,1.6,1.6c-0.8-2.1-1.2-3.5-2-5.6c1.8,1.7,2.9,2.7,4,3.8c0.2-0.1,0.3-0.2,0.5-0.3
	c-0.7-2.6-1.3-5.1-2.2-8.2c1.2,1.2,2.5,2.9,2.5,3.7c0,3.1,2.2,4.9,4,7.1c1-2.2-1.7-3.9,0.1-6.2c0.2,3.8,2.7,6.1,5,8.6
	c-0.1-1-0.3-1.9-0.7-2.9c-0.3-0.9-0.8-1.7,0.2-2.6c0.6,1.4,1.1,2.8,1.7,4.2c0.6-0.1,1.1-0.1,1.5-0.2c0.2-0.7,0.4-1.4,0.8-2.4
	c0.9,1.5,1.6,2.7,2.3,3.8c0.2-0.1,0.4-0.1,0.6-0.2c-0.5-2.7-0.9-5.3-1.4-8c1.7,2,2.5,4.2,2.8,6.6c0.2,1.3,0.6,2.1,2.4,2.1
	c-0.5-2.1-1-4-1.5-5.9c2.3,3.2,3.6,6.9,6.9,10.1c-0.6-2.6-1.1-4.6-1.6-6.6l0,0c0.9,1.3,1.7,2.7,2.6,4c0.6,0.9,1.2,1.8,2,2.9
	c1.2-3.4-1.7-5.6-1.5-8.9c0.7,0.8,1.4,1.2,1.5,1.6c0.1,2.5,1.9,4.1,2.9,6.2c0.1,0.3,0.7,0.4,1.7,1c-0.8-2.2-1.8-3.8-0.8-5.9
	c0.9,2.1,1.1,4.3,2.4,5.5c1.4,1.3,1.5,3.7,4.3,4.3c-2.5-3.1-3.2-6.3-4.3-10.3c3.1,3.8,3.3,8.2,7,10.8c-0.1-2.9-2.8-5.1-1.6-8.4
	c1,3.1,2,5.9,3.8,8.4c0.7,0.2,1.5,0.4,2.7,0.7c-0.9-2.3-2.4-4-1.9-6.3c0.7,1.1,1.5,2.2,2.3,3.5c0.6,0.2,1.4,0.5,2.4,0.8
	c-0.6-1.6-1-2.9-1.5-4.2c0.1-0.1,0.3-0.1,0.4-0.2c2,2.5,4,5,6,7.4l0,0c0.6,1,1.2,2,1.8,3c0.2,0.1,0.4,0.2,0.6,0.3
	c-0.2-0.1-0.4-0.2-0.6-0.3c0.3-0.3,0.5-0.7,0.8-1c1.2,1,2.2,1.7,2.9,2.4c-0.2,1.4-0.4,2.5-0.5,3.5c-0.5,0.3-0.9,0.7-1.5,1.2
	c0.6,0.4,0.8,0.6,1.1,0.8c0.2,0.1,0.4,0.2,0.6,0.3c-0.2-0.1-0.4-0.2-0.6-0.3c0.7-0.4,1.3-0.9,2-1.3c-0.2-0.4-0.4-0.9-0.6-1.3
	c0.5-0.8,1-1.5,1.4-2c-1.3-3.3-3.9-5.6-4.5-9.4c3.3,1.9,2.4,6.7,6.5,7.5c0-0.8,0-1.6,0.1-2.3l0,0c1.4,0.5,1.1,1.8,0.8,2.5
	c-0.5,1.2,0.2,1.8,0.7,2.5c0.6-0.2,1.1-0.3,2-0.6c-0.2,1-0.3,1.6-0.5,2.4c2.6-0.8,3.1,1.9,5.1,3c0.2-2.3-2-2.6-2.3-4.1
	c0-0.6-0.1-1.4-0.1-2.2l0,0c0.3,0.3,0.7,0.7,0.9,1c1.5,2,2.9,4.1,5,5.6c0.1,0.4,0.2,0.9,0.3,1.3c0.2-0.1,0.3-0.2,0.5-0.2
	c-0.3-0.4-0.5-0.7-0.8-1.1c-0.6-2-1.2-3.9-1.9-6.3c3.1,2.1,2.3,6.6,6.2,7.6c1-2.4-1.6-3.9-0.8-6.2c1.1,2.2,2.2,4.5,3,6.1
	c1.5,1.5,2.5,2.5,3.6,3.5c0.7,0.6,1.2,1.7,2.6,1.2c-2-2.5-4.2-4.7-4.3-8.1l0,0c0.9,1.2,1.8,2.2,2.6,3.5c1.4,2.4,3.1,4.4,6.2,6.3
	c-0.9-1.6-1.5-2.5-1.9-3.5c-0.5-1.1-0.8-2.3-1.2-3.5l0,0c1.6,0.4,1.8,2,2.6,3.1c0.9,1.2,1.8,2.4,2.6,3.5c0.2-0.1,0.4-0.2,0.6-0.3
	c-0.4-1.7-0.7-3.4-1.1-5.1l0,0c2,2.5,3.9,5,6,7.6c0.5-0.4,1-0.7,1.4-1.1l0,0c0.5,0.3,1,0.6,1.5,0.9c-0.2,0.6-0.4,1-0.6,1.4
	c-0.1,0.2-0.2,0.4-0.3,0.6c0.1-0.2,0.2-0.4,0.3-0.6c1.3,0.7,2.7,1.3,4.2,2.1c0.2-0.2,0.4-0.5,0.6-0.8l0,0c1.8-0.3,2.2,1.8,3.8,2.1
	c1.5,0.3,3.2,0.7,4.5,2.6c-2.2,0.6-4.4,0.5-6.4,0.6c0-1,0.1-2.1,0.1-3.6c-1.3,0.8-2.2,1.4-3.3,2.1c-0.2-0.7-0.5-1.4-0.7-2.1
	c-1.1,0.4-2.1,0.7-2.8,0.9c-3.7-1.4-6.9-2.6-10-3.7c-0.1-1-0.2-1.7-0.4-3.1c-0.4,1.3-0.6,2-0.8,2.8c-1-0.1-1.8-0.1-3.2-0.2
	c0.8,0.6,1,0.9,1.3,1c4.6,1.7,9.2,3.5,13.9,5.1c1.9,0.6,4,0.5,6,0.7c0.3,0.2,0.5,0.6,0.8,0.7c6.7,1,13.3,3,20.1,3.7
	c6.7,0.7,13.3,2.4,20.1,1.6c1.1-0.1,2.2,0.2,2.5,0.3c2-0.3,3.2-0.6,4.5-0.7c3.3-0.3,6.6-0.3,9.9-1.4c1.4-0.5,2.7-0.9,3.9-2.6
	c-3.4,0.9-6.3,1.3-9,2.4c-3,1.3-6.2,0.7-9.2,0.9c-3,0.2-6-0.6-9-1c-1.9-2.5-4.2-4.7-3.8-8.2l0,0c0.6,1,1.4,2,1.7,3.1
	c0.5,1.7,1.5,2.7,2.9,3.8c-0.1-2.1-1.8-3.4-1.1-5.7c2,2.1,2,5.2,4.5,6.8c0-0.7,0.1-1.1,0.1-1.4l0.1-0.1c0.8-0.5,1.5-1,2.4-1.6
	c0.3,0.1,0.8,0.2,1.2,0.3c0-0.5,0-0.9,0.1-1.3l0.1-0.1c0.5,0.7,1,1.5,1.7,2.3c0.4-0.6,0.8-1.1,1.2-1.6c0.6,0.6,1.1,1.3,2.1,2.4
	c-0.5-2.7-1-4.9-1.4-7c1.3,1.4,1.9,3.1,2.7,4.6c0.4,0.7,1.1,1.3,1.6,1.9c0.2,0.1,0.4,0.2,0.6,0.3c-0.2-0.1-0.4-0.2-0.6-0.3
	c-0.1-1-0.1-2.1-0.2-3.1l0,0c0.7,0.7,1.3,1.4,2,2.1c0.9-1,2.8-0.4,3-2.2c1,0.7,2.1,1.4,3.1,2c-0.6-1.8-2.3-3-1.9-5.4
	c2.1,1.1,1.5,4.5,4.4,4.2c-0.1-0.6-0.3-1.3-0.6-2.8c1.3,1.2,1.9,1.9,2.5,2.4c-0.1,0.7-0.2,1.3-0.4,2c3.2-1.1,5.7-2.9,8.1-5
	c-2.6-2.9-3.5-6.3-4.4-9.7c0,1.7,0,3.3,0.4,4.9c0.5,1.6,1.3,3.1,2,4.7c-1-0.2-1.8-0.7-2.2-1.4c-1.4-2.2-2.1-4.6-2.1-7.3
	c0-1,0-2-1.4-2.2c-0.7,4.7,1.5,8.6,4.1,13c-3-1.6-4-3.7-4.6-5.9c-0.7-2.4-0.9-5-1.4-7.5c-0.1-0.5-0.5-0.9-0.7-1.4
	c-0.2,0.1-0.4,0.1-0.5,0.2c0,1.5-0.1,2.9-0.1,4.6c-3.1-2-0.2-5.4-2.3-7.2c-2.7-2.5-5.2-5.1-7.8-7.8c-0.1-0.1-0.1-0.5-0.1-0.8
	c0.8,0.3,1.6,0.7,2.4,1c3.8,4.5,8.1,8.8,16.6,11.9c2.3-0.3,5.2-0.7,8.7-1.1c0.1,0.1,1,0.5,1.1,1.1c0.2,1.1,0.1,2.3-0.2,3.4
	c-0.5,1.8-1.3,3.6-1.8,5c-1.3,2-2.4,3.7-3.6,5.3c-0.6,0.8-1.2,1.8-2,2.3c-3.9,2.6-7.7,5.5-12.5,6.4c-3,0.6-5.9,1.5-8.9,2
	c-1.7,0.3-3.6,0-5.3-0.1c-2.3-0.1-4.5-0.5-6.8-0.6c-4,0-7.9-0.6-11.8-0.7c-4.5-0.1-8.8-1-13.2-1.7c-8.4-1.4-16.7-3.2-24.8-5.5
	c-3.4-1-6.7-2.5-10-3.9c-5.8-2.4-11.6-4.6-17.4-7.1c-7.5-3.3-15.1-6.6-23-8.9c-10.8-3.2-21.5-6.8-32.3-10.2
	c-5.3-1.6-10.7-3.1-16.1-4.6c-5-1.4-10-2.8-15.1-4c-6.9-1.5-13.9-2.8-20.8-4.2c-2.2-0.5-4.4-1.1-6.7-1.5c-2.7-0.6-5.3-1.9-8.2-1.4
	c-0.2,0-0.5,0-0.8-0.1c-7-2.3-14.3-3.3-21.6-4.3c-4-0.6-8-1.4-12-2c-3.9-0.6-7.8-1.2-11.7-1.6c-5.8-0.6-11.6-1.4-17.4-1.8
	c-4.6-0.3-9.1-1.2-13.7-1.1c-5,0.1-10.1-1-15.1-1.6c-2-0.2-4-0.6-6-0.8c-6-0.5-11.9-0.7-17.9-1.3c-3.8-0.4-7.5-1.2-11.2-1.8
	c-1.6-0.3-3.2-0.5-5.1-0.8c0.4,2,0.8,3.8,1.3,6c-2.4-0.6-4.4-1-6.3-2.2c-2.4-1.5-5-2.5-7.6-3.7c-0.5-0.2-1.2-0.1-2.1-0.2
	c0.2,1.4,0.4,2.5,0.5,3.7c-1.2,0.8-2.4-0.1-3.3-0.7c-5.6-3.9-12-6.1-17.9-9.4c-3.7-2-7.3-4.2-10.9-6.3c-1.2-0.7-2.3-1.7-3.5-2.3
	c-2-0.9-3.4-2.2-4.3-4.2c-1.2-2.4-3.5-3.4-5.7-4.3c-5.3-2.4-9.1-6.2-12.6-10.9C9,61.5,6.6,57.2,4.9,52.3C3.5,48.2,2.2,44.1,2,39.7
	c-0.4-6.5-0.8-12.9-1.2-19.4c0-0.7,0-1.5,0-2.4C3,19.2,2.5,20.8,2,22.1c0.3,1.5,0.7,2.7,0.8,3.9c0.2,2.7,0.4,5.4,0.5,8.1
	c0.3,7.5,2,14.7,4.7,21.6c1,2.5,2.2,5.1,4.1,7.3c1.2,1.4,2.4,2.9,3.4,4.5c2.4,3.5,6.1,5,9.4,7.2c1.7,1.1,3.6,1.8,5.5,2.7
	c1.5,2.6,2.8,5.4,5.9,5.7c0.6,0.7,1.1,1.2,1.6,1.8c0.3-0.5,0.4-0.9,0.7-1.4c2.8,1.8,5.6,3.5,8.6,5.5c0.3-0.3,0.7-0.8,1.4-1.6
	c1,0.4,2.1,1,3.2,1.5c-0.1,0.2-0.1,0.4-0.2,0.6c-0.9-0.1-1.7-0.2-3.2-0.4c0.6,0.7,0.8,1.2,1.1,1.3c2.5,0.9,5,1.8,8.1,2.9
	c-0.7-1-1.1-1.5-1.9-2.5c2.3,0.8,4.2,1.4,6,2.1c0.1-0.2,0.2-0.3,0.2-0.5c-1.3-0.8-2.6-1.6-3.9-2.4l0,0c0.8-0.1,1.7-0.1,2.7-0.2
	c-0.2-0.8-0.4-1.6-0.6-2.3l0,0c1.7-0.2,2.4,1,3.3,2.1C64,90,64.7,90,65.2,90.3c0.1,2,0.4,4,1.9,6.2C66.9,93.9,67.4,91.7,65.2,90.3z
	 M109,93C109.2,93.1,109.3,93.3,109,93C109.4,93.2,109.2,93.1,109,93c-0.3-0.2-0.6-0.5-0.9-0.7c0-1.4-0.8-2.1-3-2.1
	c1.4,1,2.2,1.5,3,2C108.5,92.5,108.8,92.7,109,93z M430.5,112.5c-0.3-0.2-0.6-0.5-0.8-0.7c-0.2-0.1-0.4-0.2-0.6-0.3
	c0.2,0.1,0.4,0.2,0.6,0.3C430,112,430.3,112.3,430.5,112.5c0.3,0.2,0.6,0.5,0.9,0.7c0,0.5-0.1,1-0.1,1.4c-1.7-0.8-3.3-1.5-4.8-2.4
	c-1.1-0.7-2-1.9-3-2.8c0.1-0.1,0.2-0.2,0.3-0.3c0.3,0,0.7-0.1,1.1-0.2c0.3,0.2,0.6,0.5,0.8,0.7c0.5,1,1.2,1.6,2.5,2.2
	c-0.4-1.8-1.2-2.3-2.5-2.2c-0.3-0.2-0.6-0.5-0.8-0.7c-1.7-1.5-4.1-2.4-5.1-5.2c3.6,2.3,6.9,4.4,10.1,6.5c-0.1-1-0.6-1.5-1.1-2
	c-2.7-2.3-5.5-4.6-8.2-6.9l0,0c1.3,0.5,2.7,0.8,3.8,1.5c2.8,2,5.4,4.2,8,6.3c0.4,0.3,1,0.5,2.3,1.1c-2.9-3.4-5-6.2-8.3-7.8
	c-1.3-0.7-2.5-1.7-3.7-2.6c-0.8-0.6-1.7-1.2-1.6-2.4l0,0c1,0.3,2,0.6,3,1c0.4-1.2-0.4-1.8-1.2-2.5c-2.5-1.9-5-3.8-7.3-5.9
	c-4.2-3.7-8.5-7.2-13.8-9.4c-0.9-0.4-1.4-1.4-2.2-2.1l0-0.1c1.3,0.2,2.6,0.4,3.9,0.5c0.8,1.2,1.6,2.3,3.3,2.1
	c1.5,1.2,2.9,2.3,4.4,3.5c1,0.8,2,1.5,3,2.3c0.3,0.2,0.6,0.5,0.8,0.7c0.2,0.1,0.4,0.2,0.6,0.3c-0.2-0.1-0.4-0.2-0.6-0.3
	c-0.3-0.2-0.5-0.5-0.8-0.7c-0.1-0.4,0-0.9-0.2-1.1c-2.1-2.1-4.3-4.2-6.5-6.3c-0.3-0.2-0.6-0.5-0.8-0.7c-0.3-0.2-0.5-0.5-0.8-0.7
	c-0.3-0.2-0.6-0.5-0.8-0.7c-1.3-0.6-2.1-2-3.9-2.1c1,1.7,2.2,2.3,3.9,2c0.3,0.2,0.5,0.5,0.8,0.7c0.3,0.2,0.6,0.5,0.8,0.7
	c0.3,0.2,0.6,0.5,0.8,0.7c0,0.7,0.3,1.4-0.7,1.6c-0.8-1.2-1.6-2.3-3.3-2.1c-2.7-2.3-6-3.5-9.1-5c-1.1-0.5-2.6-0.6-3-2.1
	c0.5-0.1,1-0.2,1.4-0.3c0-0.6,0-0.9,0-1.3c0.3,0.2,0.8,0.4,0.8,0.6c0.1,2.2,1.5,2.5,3.3,2.3c0.5,0.9,1.2,1.6,2.5,2.2
	c-0.3-1.8-1.2-2.3-2.5-2.1c0.4-1.3,1.3-1,2.2-0.6c1.6,0.7,3.1,1.5,5.5,2.6c-3.3-3.5-4.2-3.9-7.3-5.2c-4.1-1.7-8.2-3.6-12.2-5.4
	c-2.9-1.3-5.7-2.7-8.7-3.8c-3.8-1.4-7.7-2.5-11.6-3.8c-0.8-0.3-1.6-0.9-2.3-1.3c5.9,1.1,11.4,2.8,16.8,5.1
	c5.3,2.3,10.8,4.2,16.2,6.3c-0.4-0.9-0.9-1.5-1.6-1.8c-3.2-1.5-6.5-2.9-9.8-4.2c-8-3.4-16.4-5.5-24.7-7.8
	c-7.7-2.1-15.4-3.9-23.2-5.5c-6.2-1.2-12.6-1.7-18.8-2.9c-5.2-1-10.6-0.9-15.7-2.7c-0.7-0.2-1.5,0.1-2.3,0.1
	c0.1,0.5,0.2,0.8,0.5,1.6c-3.1-0.7-6.1-0.9-9.4-0.9c1.9,2.1,3.5,3.8,5.1,5.5l0.1,0.1c0.4,1.2,0.8,2.4,1.3,3.7
	c0.2-0.9,0.4-1.6,0.6-2.3c1.9,0.2,3.7,0.3,5.4,0.5c0.2,0,0.4,0.7,0.9,1.6c-1.3-0.4-2-0.7-2.7-0.7c-0.5,0-0.9,0.4-2,0.9
	c2.2,0.6,3.7,1,5.2,1.4c0,0.2,0,0.4-0.1,0.6c-1.7-0.1-3.3-0.3-5-0.4c-0.1,0.2-0.1,0.5-0.2,0.7c2,0.5,3.9,1.1,5.9,1.6
	c0,0.2,0,0.3-0.1,0.5c-1.4,0.1-2.8,0.2-4.2,0.3c-0.1-0.2-0.3-0.3-0.1-0.1c-0.3-0.2-0.1-0.1,0.1,0c1.3,1,2.9,1.2,4.5,1.3
	c0.6,0,1.1,0.6,1.7,1c-0.1,0.2-0.1,0.3-0.2,0.5c-1.6-0.2-3.1-0.4-4.9-0.6c0.2,0.7,0.3,1,0.4,1.4c-0.6,0.2-1.2,0.5-2.3,0.9
	c1.9,0.7,3.4,1.3,4.8,1.8c-3,0.3-5.7-0.5-8.4-1.6c0.2,0.6,0.4,1.2,0.8,1.3c6.2,2.1,12.4,4.2,18.9,6.3c-1.3-4.7,0.1-8.4,2.8-11.8
	c0.8-1,1.4-2.1,1.9-2.9c1.3-0.9,2.3-1.8,3.4-2.3c3.1-1.6,6.1-3.8,10-2.3c0.5,0.2,1,0.1,1.5,0c3.3-0.3,6.3,0.6,9.3,1.8
	c2.6,1,5.1,2.1,7.8,3c2.8,1,5.7,1.7,9.1,2.8c-3.6,0.9-6.5-1.3-10-0.5c2.1,0.7,3.9,1,5.4,1.8c1.6,0.8,3.8-0.2,5.2,1.9
	c-2.1,0.7-4.1-1.5-6.2,0.5c1.1,0.2,1.9,0.4,2.7,0.6c1.1,0.3,2.4,0.4,2.9,1.8c-2.4,0.3-4.5-1.3-6.6-0.6c0.5,2.1,0.9,4.1,1.4,6.3
	c-0.4,2-0.9,4.3-1.3,6.4c0.7,0.5,1.3,0.9,2.6,1.8c-1.7-0.1-2.6-0.1-3.5-0.2c0,0.4-0.1,0.8-0.1,1.1l0,0c-1.4,0.1-2.2,1-2.7,2.3
	c4,1.5,7.9,2.9,11.9,4.4c2.1-3.2,3-6.8,5.9-9.1c2.9-2.3,6.2-3.7,10-4.2c-1.9-0.9-3.8-1.5-5.6-2.4c-1.7-0.9-4-0.5-5.7-3.1
	c4.9,1.9,9.5,2.3,13.2,5.7c2.5-0.1,7.8,0.9,9.7,2c4.9,2.7,8.7,6.8,12.5,10.3c3.3,2,7,2.9,9.2,6.2l0,0c-3-0.4-5-3-8.3-3.9
	c0.5,2.5,1.1,4.6,1.4,6.7c0.2,0.9,0.3,1.8,0,2.7c-0.7,2.7-1.2,5.5-3.2,7.6l-0.1,0.1c-0.2,0.6-0.5,1.2-0.6,1.7
	c4.6,4.7,9.3,8.7,15.7,9.8c1.4,1.5,4,1.3,5.5,3.8c-2.7-1.1-4.9-1.9-7-2.8c-0.1,0.2-0.1,0.3-0.2,0.5c2.4,1.4,4.9,2.9,7.3,4.3
	c-1.1,0.2-2.2,0.1-3.1-0.8c-0.4-0.4-1.1-0.3-1.7-0.5c-0.2-0.1-0.4-0.2-0.6-0.3c0.2,0.1,0.4,0.2,0.6,0.3c1.2,1.9,3,2.9,5.4,2.7
	c-0.3-0.6-0.5-1-0.7-1.5c1.3-0.1,2.6-0.3,3.3,1.3l-0.1,0.1c-0.5,0.2-1,0.4-2,0.7c5.1,2,9.7,3.6,14.7,4.8c-0.4-0.8-0.5-1.2-0.7-1.6
	l0,0c1.2,0.1,2.5,0.1,3.7,0.2c-0.3-0.8-0.6-1-1-1.1c-4.9-1.1-9.6-3-14.3-4.7c-0.8-0.3-1.4-0.9-2.1-1.4l0,0c1.8-0.2,3.5,0.5,5.2,1.1
	c4.7,1.4,9.3,3.3,14.1,4.4c2.9,0.6,5.9,1.3,9.2,0.2c-11.5,0.3-32.3-12-35.6-16.5c3.3,2,5.8,3.5,8.5,5c3.8,2.2,7.5,4.8,11.9,5.8
	c1.5,0.8,3,1.7,4.7,2.2c2.2,0.7,4.6,1.1,6.9,1.7c0.2,0.1,0.5-0.2,0.9-0.3c-1.1-0.7-2.1-1.2-3.1-1.8c-1.1,0.1-2.2,0.1-3.3,0.2
	c-1.9-1.4-3.9-2-6.1-1.9c-0.5-0.7-0.9-1.5-1.3-2.1c-1-0.1-1.8-0.2-2.6-0.2c-0.2-1.1-0.4-1.9-0.5-2.9c-0.8-0.2-1.5-0.4-2.2-0.6
	C431.1,113,430.8,112.8,430.5,112.5z M113.7,92.7c0.3,0.2,0.6,0.5,0.8,0.7c0.2,0.1,0.4,0.2,0.6,0.3c-0.2-0.1-0.4-0.2-0.6-0.3
	C114.2,93.2,113.9,92.9,113.7,92.7c-0.2-0.1-0.4-0.2-0.6-0.3C113.3,92.5,113.5,92.6,113.7,92.7z M427.5,126
	c-0.2-0.1-0.4-0.2-0.6-0.3C427.1,125.8,427.3,125.9,427.5,126c0.2,0.1,0.4,0.2,0.6,0.3C427.9,126.2,427.7,126.1,427.5,126z
	 M117.5,91.6c0.3,0.2,0.5,0.5,0.8,0.7c0.3,0.2,0.6,0.5,0.8,0.7c0.1,1.3,0.6,2.1,2.8,2.2c-1.3-1-2.1-1.6-2.9-2.1
	c-0.3-0.2-0.5-0.5-0.8-0.7C118,92.2,117.8,91.9,117.5,91.6c-0.2-0.1-0.4-0.2-0.6-0.3C117.1,91.4,117.3,91.5,117.5,91.6z
	 M425.1,125.3c-0.2-0.1-0.4-0.2-0.6-0.3C424.7,125.1,424.9,125.2,425.1,125.3C425.2,125.5,425.4,125.7,425.1,125.3
	C425.5,125.6,425.3,125.5,425.1,125.3z M422.8,126.3c-0.2-0.1-0.4-0.2-0.6-0.3C422.4,126,422.6,126.1,422.8,126.3
	c0.2,0.1,0.4,0.2,0.6,0.3C423.2,126.5,423,126.4,422.8,126.3z M419.5,86c-0.3-0.2-0.5-0.5-0.8-0.7c-0.3-0.2-0.6-0.5-0.8-0.7
	c-0.2-0.1-0.4-0.2-0.6-0.3c0.2,0.1,0.4,0.2,0.6,0.3c0.3,0.2,0.5,0.5,0.8,0.7C419,85.4,419.2,85.7,419.5,86c0.2,0.1,0.4,0.2,0.6,0.3
	C419.9,86.2,419.7,86.1,419.5,86z M417.2,86.9c-0.3-0.2-0.5-0.5-0.8-0.7c-0.2-0.1-0.4-0.2-0.6-0.3c0.2,0.1,0.4,0.2,0.6,0.3
	C416.7,86.4,417,86.6,417.2,86.9c0.3,0.2,0.6,0.5,0.9,0.7C420,90,422,92.4,424,95c0.4-0.1,0.8-0.1,1.4-0.3c-1.3-1.9-2.5-3.6-3.9-5.6
	c-1-0.4-2.2-0.9-3.5-1.4C417.8,87.4,417.5,87.1,417.2,86.9z M414.5,80c-0.3-0.2-0.5-0.5-0.8-0.7c-0.6-0.5-1.1-1-1.7-1.4
	c-0.2-0.1-0.4-0.2-0.6-0.3c0.2,0.1,0.4,0.2,0.6,0.3c0,0.5,0.1,1.1,0.1,1.6c-0.3-0.2-0.9-0.3-1-0.5c-0.7-3-3.4-4.3-5.3-6.2
	c-1.2-1.1-2-2.6-3-3.9c-1.3-1.6-2.7-3.1-4.2-4.5c-1.3-1.2-2.9-2.1-4.3-3.2c-5.6-4.7-11.7-8.6-18.3-11.6c-5.3-2.4-11-4.3-16.4-6.6
	c-5.5-2.4-11.4-3.6-17.2-4.8c-6.6-1.3-13.1-2.9-19.8-3.9c-10.2-1.6-20.4-2.6-30.6-3.4c-2.6-0.2-5.1-0.1-7.7-0.3
	c-3.5-0.2-7.1-0.6-10.6-0.7c-4.2-0.1-8.5-0.1-12.7-0.1c-0.3,0-0.5,0.1-0.8,0c-3.7-1.3-7.6,0.1-11.4-0.6c-3.2-0.6-6.6,0.1-10-0.2
	c-3.9-0.3-7.9,0-11.9,0c-6.7-0.1-13.3,0-20-0.4c-3.7-0.2-7.4,0.3-11.1,0c-3.6-0.3-7.2,0.4-10.9,0.5c-3.6,0.1-7.2-0.2-10.8,0
	c-10.4,0.6-20.9,1-31.2,2.7c-3.2,0.5-6.3,0.5-9.5,1.2c-4.8,1-9.7,0.7-14.5,1.8c-3.4,0.7-6.9,0.9-10.2,1.6c-2.4,0.4-4.7,1.2-7,1.8
	c-2.7,0.7-5.4,1.4-8,2.3c-2,0.7-3.8,1.7-5.7,2.6c0.1,0.2,0.2,0.4,0.3,0.6c0.6-0.2,1.2-0.3,1.8-0.5c0.3,0.4,0.5,0.7,0.8,1.1
	c0.6-0.9,1-1.6,1.4-2.2c2.9-1,5.6-2.2,8.4-2.9c1.6-0.4,3.4-1.3,5,0.3c-0.5,0.1-0.9,0.2-1.4,0.3c0.1,0.2,0.1,0.3,0.2,0.5
	c0.4-0.2,0.7-0.5,1.1-0.7c1.7-0.2,3.4-0.2,5-0.5c3.1-0.6,6.2-1.5,9.3-1.9c4.6-0.7,9.2-0.7,13.8-1.5c7.1-1.3,14.3-1.7,21.5-2.3
	c8.6-0.7,17.3-1.2,26-1.6c4.5-0.2,8.9-0.6,13.5-0.3c4.8,0.4,9.7-0.3,14.6-0.1c5.8,0.3,11.5-0.1,17.3-0.2c0.3,0,0.5,0,0.8,0
	c4.7,0.7,9.4,0.6,14.1,0.6c3.6,0,7.3-0.4,10.7,0.3c3.6,0.7,7.2-0.7,10.6,0.7c5.4-0.3,10.7,0.3,16.1,0.4c4.7,0.1,9.4,0.4,14.1,0.7
	c3.5,0.3,7.1,0.5,10.6,0.9c6.2,0.8,12.4,1,18.5,2.1c10.6,1.9,21.1,4.1,31.5,6.6c3.9,0.9,7.5,3,11.3,4.6c6.9,3,14,5.5,20.3,9.7
	c1.1,0.7,2.1,1.6,3.2,2.1c3.7,1.6,6.7,4.3,9.5,6.9c3.7,3.6,7.8,6.8,10.7,11.3c1.4,2.2,3.7,3.9,5.6,5.8c0.4,0.4,1,0.6,1.5,0.8
	c0.2-0.2,0.3-0.3,0.5-0.5c-1.4-1.6-2.8-3.2-4.2-4.8c0.5,0,1-0.1,1.6-0.1C413.9,79.5,414.2,79.8,414.5,80
	C414.6,80.2,414.7,80.4,414.5,80C414.9,80.2,414.7,80.1,414.5,80z M415.3,118.2c-0.2-0.1-0.4-0.2-0.6-0.3
	C414.9,117.9,415.1,118,415.3,118.2c0.2,0.1,0.4,0.2,0.6,0.3C415.7,118.4,415.5,118.3,415.3,118.2z M61.8,97.5c0-0.3,0-0.5-0.1-0.8
	c0.6,0,1.3-0.1,1.4-0.1c1.7,1.3,2.9,2.2,3.8,2.9c0.3,1,0.5,1.5,0.7,2.1c0.1,0,0.3-0.1,0.5-0.1c-0.1-1.3-0.2-2.7-0.2-4
	c-3.4-0.8-5.7-3.7-9.4-3.9c1.1,1,2.2,2.1,3.4,3.1c-0.2,0.1-0.4,0.3-0.6,0.4C61.4,97.3,61.6,97.4,61.8,97.5c0.2,0.1,0.4,0.2,0.6,0.3
	C62.2,97.7,62,97.6,61.8,97.5z M57.7,95.4C57.6,95.2,57.5,95.1,57.7,95.4C57.3,95.2,57.5,95.3,57.7,95.4c0.2,0.1,0.4,0.2,0.6,0.3
	C58.1,95.6,57.9,95.5,57.7,95.4z M320.4,132.7c0.2,0.1,0.4,0.2,0.6,0.3C320.7,132.9,320.5,132.8,320.4,132.7
	c-0.2-0.1-0.4-0.2-0.6-0.3C320,132.5,320.2,132.6,320.4,132.7z M232.1,43.2C232.3,43.3,232.4,43.5,232.1,43.2
	C232.5,43.4,232.3,43.3,232.1,43.2c-0.2-0.1-0.4-0.2-0.6-0.3C231.7,42.9,231.9,43,232.1,43.2z M231.9,40c0.2,0.1,0.4,0.2,0.6,0.3
	C232.3,40.3,232.1,40.2,231.9,40C231.8,39.9,231.7,39.7,231.9,40C231.5,39.8,231.7,39.9,231.9,40z M367.8,81.4
	c0.2-0.3,0.5-0.6,0.7-0.8c0.5,0,1-0.1,1.6-0.1c0.2,1.3-0.4,2-1.5,2.5c-0.5,0.2-0.9,0.6-1.4,0.8c-0.2,0.3-0.5,0.6-0.7,0.8
	c-0.2,0.1-0.4,0.3-0.6,0.4c0.2,0.1,0.4,0.2,0.6,0.3c2,1.8,4.6,2.6,7,3.7c4.8,2,9.5,3.9,14.6,6c1.9-3.8,3.9-7.1,4.5-11.1
	c0.6,4.5-1.6,8.1-3.7,12.1c0.4,0.3,0.8,0.6,1,0.8c0.9-1.7,2-3.1,2.6-4.7c0.7-1.6,1.1-3.4,1.4-5.1c0.3-1.6,0.5-3.2,0.7-4.8
	c1.7,5.6-1.5,10.2-3,15.1c3.2-3.8,4.9-8.2,5.9-13c0.1,1.5,0.2,3,0.3,4.9c-1.3,3-2.8,6.3-4.3,9.7c3.8-2.9,4-7.8,6.6-11.1
	c-0.5-1.7-1-3.2-1.4-4.6c-1-0.7-2-1.4-2.9-2.1c0.2-0.7,0.4-1.1,0.6-1.8c-3.8-1.9-7.4-3.8-10.6-5.4c-1.8,0.1-3.1,0.2-4.4,0.3
	c-0.6-1.1-1.3-0.7-2.5-0.1c1.1,0,1.8,0,2.5,0c0,0.5-0.1,1-0.1,1.3c-2.9,0.6-5.6,1.2-7.7,1.7c-1.5,1.4-2.5,2.3-3.5,3.2
	c-0.1-0.4-0.1-0.9-0.3-1.8c-0.6,0.9-0.9,1.4-1.2,1.9C368.3,80.9,368,81.1,367.8,81.4c-0.1,0.2-0.2,0.4-0.3,0.6
	C367.6,81.8,367.7,81.6,367.8,81.4z M283.9,123.3c0.2,0.1,0.4,0.2,0.6,0.3C284.3,123.5,284.1,123.4,283.9,123.3
	c-0.2-0.1-0.4-0.2-0.6-0.3C283.5,123.1,283.7,123.2,283.9,123.3z M199,99c0.4,0.2,0.8,0.4,1.2,0.6c0.1-0.2,0.1-0.3,0.2-0.5
	C199.9,99.1,199.5,99.1,199,99c-0.2-0.1-0.4-0.2-0.6-0.3C198.6,98.8,198.8,98.9,199,99z M77.5,88c-0.1-0.5-0.2-0.9-0.3-1.4
	c-0.2,0.1-0.3,0.2-0.5,0.2C77,87.2,77.3,87.6,77.5,88c0.2,0.1,0.4,0.2,0.6,0.3C77.9,88.2,77.7,88.1,77.5,88z M332,144.4
	c-0.4-0.2-0.8-0.4-1.2-0.6c-0.1,0.2-0.1,0.3-0.2,0.5C331.1,144.3,331.6,144.4,332,144.4c0.2,0.1,0.4,0.2,0.6,0.3
	C332.4,144.6,332.2,144.5,332,144.4z M367.6,153.1c-0.4-0.2-0.8-0.4-1.2-0.6c-0.1,0.2-0.1,0.3-0.2,0.5
	C366.7,153,367.2,153,367.6,153.1c0.2,0.1,0.4,0.2,0.6,0.3C368,153.3,367.8,153.2,367.6,153.1z M421.9,124c-0.6-1.1-1.3-0.9-2.5-0.1
	C420.5,123.9,421.2,123.9,421.9,124c0.2,0.1,0.4,0.2,0.6,0.3C422.3,124.2,422.1,124.1,421.9,124z M399.1,95.8
	c-0.1,0.2-0.2,0.4-0.3,0.6C398.9,96.2,399,96,399.1,95.8c1.1-0.6,0.7-1.4,0.1-2.5C399.1,94.4,399.1,95.1,399.1,95.8z M237.6,117.6
	c-0.5-1.3-1.6-0.4-2.4-0.6c-0.8-1.5-2.1-0.3-3.2-0.6c-0.4-0.2-0.8-0.4-1.2-0.6c-0.1,0.2-0.1,0.3-0.2,0.5c0.5,0,0.9,0.1,1.4,0.1
	c0.8,1.3,2.1,0.3,3.1,0.6C235.8,118.2,236.8,117.4,237.6,117.6c0.2,0.1,0.4,0.2,0.6,0.3C238,117.8,237.8,117.7,237.6,117.6z
	 M382.7,58.6c0.4,0.4,0.8,0.8,1.2,1.3c0.1-0.2,0.2-0.4,0.3-0.6C383.8,59.1,383.3,58.9,382.7,58.6c-0.4-0.2-0.8-0.4-1.2-0.6
	c-0.1,0.2-0.1,0.3-0.2,0.5C381.8,58.6,382.3,58.6,382.7,58.6z M350.1,73.1c0.2-0.4,0.4-0.8,0.6-1.2c-0.2-0.1-0.3-0.1-0.5-0.2
	C350.2,72.2,350.2,72.7,350.1,73.1c-1.1,0.6-0.7,1.4,0,2.6C350.1,74.6,350.1,73.9,350.1,73.1z M304.9,135.2
	c-0.5-1.3-1.6-0.5-2.4-0.6c-0.6-1.2-1.3-0.8-2.5-0.1c1,0,1.8,0,2.5,0C303.1,135.8,304.1,135,304.9,135.2c0.4,0.2,0.8,0.4,1.2,0.6
	c0.1-0.2,0.1-0.3,0.2-0.5C305.8,135.3,305.4,135.3,304.9,135.2z M350.4,151.1c0,1.2,0.5,1.6,1.7,1.5c1.2,1,2.3,2.1,3.5,3.1
	c0.6-0.3,0.9-0.5,1.5-0.8c-0.7-0.8-1.4-1.6-1.7-2c-1.4-0.1-2.3-0.2-3.2-0.3C352,151.4,351.5,150.9,350.4,151.1
	c-0.2-0.1-0.4-0.2-0.6-0.3C349.9,150.9,350.2,151,350.4,151.1z M188.6,107.5c-1.4-1.3-2.9-0.4-4.4,0.2
	C185.7,107.6,187.2,107.5,188.6,107.5c0.6,1.1,1.4,0.7,2.5,0C190.1,107.5,189.3,107.5,188.6,107.5z M114.1,99.7
	c1.4,1.3,2.9,0.4,4.4-0.2C117.1,99.5,115.6,99.6,114.1,99.7c-1.2-1.3-2.5-0.4-3.7,0.1C111.7,99.7,112.9,99.7,114.1,99.7z
	 M146.3,103.1c0.4,0.2,0.8,0.6,1.2,0.6c1.2,0,2.3-0.1,3.5-0.1c1.4,1.3,2.9,0.4,4.4-0.2c-1.5,0.1-3,0.2-4.4,0.3
	c-0.4-0.2-0.7-0.7-1.1-0.7C148.7,102.9,147.5,103.1,146.3,103.1c-0.3-0.2-0.6-0.5-0.9-0.7c-3.4-2.2-7-1.9-10.9-1.6
	c1.1,2,2.4,1.2,3.4,0.9c0.7,0.4,1.2,0.9,1.7,0.9c2,0.1,3.9,0.2,5.9-0.3C145.7,102.6,146,102.8,146.3,103.1z M426.2,130
	c-0.1,0.2-0.2,0.4-0.3,0.6C426,130.3,426.1,130.1,426.2,130c0.7-0.2,1.5-0.4,2.9-0.7c-1.2-0.8-1.8-1.3-2.8-1.9
	C426.2,128.5,426.2,129.2,426.2,130z M285.1,129.4c1.8,1.5,4.1,1.8,6.4,1.9c1.5,0.6,3.1,1.3,4.6,1.9c0.3-0.5,0.5-0.8,0.7-1.3
	c-1.9-0.2-3.6-0.4-5.4-0.6C289.8,129.2,287.4,129.4,285.1,129.4c-0.6-1-1.3-0.7-2.5,0C283.7,129.4,284.4,129.4,285.1,129.4z
	 M206,111c1.9,1.2,4,0.6,6.8,1.4c-2-1.4-3.2-2.2-4.4-3C207.3,109.7,207.4,111.5,206,111c-0.2-0.1-0.4-0.2-0.6-0.3
	C205.6,110.8,205.8,110.9,206,111z M270.8,124.9c1.8,0.9,3.5,1.9,5.3,2.6c1,0.4,2,0.1,2.3-1.2c-1.3-0.2-2.8,0.1-3.6-0.6
	C273.4,124.7,272.1,124.9,270.8,124.9c-0.2-0.1-0.4-0.2-0.6-0.3C270.4,124.7,270.6,124.8,270.8,124.9z M338.4,147.1
	c1.7,0.8,3.3,1.7,5,2.5c3.3,1.5,3.3,1.4,4.7,1.1c-2.3-1.3-4.7-2.8-6.9-4.1C340.1,146.9,339.3,147,338.4,147.1
	c-0.1-0.7-0.2-1.4-0.3-2c-1.6,0.1-2.9,0.2-4.2,0.3c0,0.2,0,0.4-0.1,0.5C335.4,146.3,336.9,146.7,338.4,147.1z M243.9,118.8
	c2.2,0.8,2.2,0.8,2.7-1.3c-2.7-0.4-5.4-0.8-8.1-1.2c0.3,0.6,0.6,1.1,0.9,1.7C240.9,118.2,242.4,118.5,243.9,118.8L243.9,118.8z
	 M253.4,120.5c0.9,0.4,1.7,1,2.6,1.3c1.6,0.5,3.2,0.8,5.2,1.2c1-0.2,2.8,0.6,3.9-1.5c-0.5-0.2-1-0.5-1.5-0.5c-2.5,0.3-5,0.3-7.6-0.2
	C255.1,120.8,254.2,120.7,253.4,120.5c-0.4-0.4-0.8-0.9-1.1-1.2c-1.5,0.1-2.8,0.2-4.1,0.3c0,0.2,0,0.3,0,0.5
	C249.9,120.2,251.6,120.4,253.4,120.5z M203.7,37.1c1.5-0.9,3-1.7,4.5-2.6c2.7-0.5,5.5-1.1,8.2-1.6c-3.7-0.1-7.3-0.6-11-0.4
	c-8.4,0.4-16.8-0.3-25.1,0.7c-1.8,0.2-3.6,0.2-5.4,0.3c-0.8,0-1.7,0.2-2.3-0.1c-1.8-1-3.2,0-4.8,0.4c-2.2-0.2-4.5-0.7-6.4,0
	c-2.3,0.8-4.5,0.7-6.8,1c-1.2,0.1-2.3,0.2-3.2,0.2c-1.2,0.7-2.2,1.3-2.8,1.6c-6.5,1-12.6,2-18.6,2.9c0,0.2,0,0.3,0,0.5
	c5.7,0.2,11.4,0.5,17.3,0.7c0.5,0.3,1.1,0.8,1.8,1.2c0.8-0.6,2.1-0.8,1.8-2.2l0,0c2.1-1.2,4.1-2.4,6.1-3.6c4.8-0.2,9.4-1,14-0.1
	c1.4,0.8,2.8,1.5,3.9,2.1c1.5-0.4,2.6-0.9,3.7-1c6.4-0.5,12.8-1,19.2-1.1C199.7,36,201.9,35.9,203.7,37.1c-9,0.6-17.9,1.2-27.4,1.8
	c1.1,2,2,3.5,2.8,4.9c3.4,0.3,6.5,0.6,9.7,1c3.2,0.4,6.4,0.8,9.5,1.2c0.7-1.6,1.2-2.9,1.9-4.5c-4.2,0.2-8.1,0.4-12,0.6
	c-2.6,0.1-5.2,0.3-7.7,0.4c-0.5,0-0.9-0.5-2-1c4.2-1.3,7.9-0.5,11.4-1.1c1.2-0.2,2.5,0.2,3.8,0.4c0.6-0.3,1.3-0.6,1.5-0.7
	c2.3,0.2,4,0.3,5.9,0.4C202,39.4,202.8,38.3,203.7,37.1z M221.2,43.1c0-0.6-0.1-1.3-0.1-2.1c0.8-0.7,1.6-1.4,2.7-2.4
	c0.2,1,0.3,1.5,0.4,2c-0.5,0.1-0.9,0.2-1.4,0.3c0.1,0.2,0.2,0.3,0.2,0.5c0.4-0.3,0.7-0.5,1.1-0.8c1.6,0.4,2.1,1.9,2.6,3.1
	c0.7,1.8,1,3.8,1.5,5.6c0.1,0,0.2,0,0.4,0c-0.1-1.6-0.2-3.3-0.3-4.7c0.6-0.4,0.9-0.6,1.3-0.8c-0.6-0.4-1.3-0.8-1.7-1.1
	c-0.5-1.1-1.1-2-1.3-2.9c-0.4-2.6-2.4-3.4-4.4-3.6c-2.9-0.4-5.9-0.3-8.8-0.3c-3.1,0-5.8,1.5-7.9,3.4c-1.8,1.6-3.3,3.9-3.3,6.7
	c0,0.2,0.5,0.4,1.1,0.8c0.1-1.2,0.3-2.2,0.4-3.2c0.9-0.9,1.7-1.8,2.7-2.8c0.4,0.5,0.7,0.7,0.9,1c-0.9,0.9-1.9,1.9-2.8,2.8
	c1.8-0.2,2.9-1,2.8-2.8c0.6-0.3,1.3-0.6,2.3-1.1c-0.1,1.1-0.2,1.7-0.3,2.4c0.7-0.1,1.3-0.3,2-0.4c-0.5,2.1-2.8,2.8-2.8,5.2
	c4.8-0.8,9.1,1.7,13.9,1.3c-0.5-0.9-1-1.6-1.3-2.3C220.5,45.5,219.9,44.2,221.2,43.1c0.6,1.5,0.7,3.2,2.4,4.1
	C222.7,45.9,223.3,43.7,221.2,43.1z M280,49.5L280,49.5c0.3,0,0.7,0.1,0.7,0.3c0.5,2.9,0.9,5.7,0,8.8c2,0.5,3.9,0.9,5.8,1.3
	c1.3-3.2,1.1-9.4-0.4-13.9l0,0c0.5,0,1,0.1,1.3,0.1c0.4,2.1,0.8,3.9,1.1,4.9c-0.1,3.7-0.1,6.6-0.2,9.4c0.7-1.5,1.7-2.8,1.5-4.5
	c-0.2-1.8-0.3-3.6-0.3-5.4c0-0.8,0.4-1.6,0.7-2.6c3,2.5,4.1,6.1,3.4,9.9c-0.1,0.5-0.3,1-0.4,1.5c0,0.5,0.2,1,0.4,2
	c2-9.1,0.8-13.9-10.1-19.8c-2.9,0.6-6-1.2-9.2,0.1c0.5,0.3,0.8,0.4,1.5,0.8c-5.8,1.4-10.4,4.7-14.9,7.7c-0.6,1.4-1.4,2.7-0.4,4.2
	c6.2,1.2,12.5,2.5,19.1,3.8C279.8,55.1,279.9,52.3,280,49.5z M346.4,75.7c-0.1,0.2-0.2,0.4-0.3,0.6
	C346.2,76.1,346.3,75.9,346.4,75.7c2.4-2.4,3.3-5.4,3.2-8.6c-0.2-3.8-0.9-7.6-1.3-11.1c-5.4-3.7-10.9-5-17-4.2
	c-0.7,1.8-2.4,1.9-3.7,2.4c-2.5,1.1-4.9,2.4-6.4,4.7c-0.9,1.4-1.5,3-2,4.1c0.2,2.6,0.3,4.8,0.4,7.1c5.7,1.8,11.3,3.6,17.3,5.5
	c1.1-3.1,2.1-5.9,3.2-9.1c0.7,3.7-1.1,6.5-1.9,9.6c0.7-0.3,1.3-0.6,1.8-0.9l0,0c0.3,0.7,0.6,1.3,1,2.2c1-0.1,1.9-0.2,2.7-0.4
	c0-0.1-0.1-0.2-0.1-0.2c-0.7-0.2-1.3-0.4-2.1-0.6c2.1-4.7,3.7-9.3,3.5-14.3c1.3,4.8,0.9,9.3-2.4,14.1c1.3-0.5,1.9-0.6,2.1-0.8
	c0.5-1,0.9-2,1.3-3.1c1.4-4,1.2-8,0.9-12.1l0,0c0.3,0.3,0.7,0.6,0.8,1c0.3,1.2,0.5,2.4,0.8,3.9c-0.1,0.5-0.4,1.2-0.3,1.9
	c0.3,2.4-0.6,4.5-1.3,6.6C346.8,74.3,346.6,75,346.4,75.7z M239.3,46.6c0-0.5,0.1-1,0.1-1.7c1.5,0.5,2.7,0.9,3.9,1.3
	c0,0.2-0.1,0.4-0.1,0.6c-0.7,0-1.4,0-2.2,0c0.2,0.8,0.4,1.4,0.6,2c-0.7-0.1-1.3-0.2-2.1-0.3c0.2,1.1,0.4,2,0.6,3.2
	c5.6,0.8,11.1,1.5,16.3,2.3c0.5-2.1,0.9-4,1.3-5.8c9.2-9.2,19.6-11,31.3-6.4c3-1.5,6.1,1.1,9.6,0c-2.2-0.5-4-0.8-6.3-1.3
	c1.8-0.4,3-0.5,4.3-0.2c4.2,0.8,8.5,1.3,12.7,1.9c5.6,0.8,11.3,1.4,16.9,2.4c7.2,1.3,14.5,2.4,21.5,4.5c0.4,0.1,1-0.3,2.3-0.6
	c-1.5-0.7-2.2-1.3-3-1.5c-2.6-0.6-5.2-0.9-7.8-1.4c-10.3-2-20.6-3.9-31.1-4.8c-2.5-0.2-4.9-0.9-7.4-1.3c15.2,0.3,30.1,3,45,5.8
	c-0.4-0.6-0.8-1-1.3-1.2c-1.1-0.3-2.2-0.4-3.3-0.6c-5.4-1.2-10.9-2.1-16.4-2.9c-4.5-0.6-9.1-1-13.6-1.7c-6-0.9-12.1-1.2-18-2.4
	c-2-0.4-4-0.3-6.1-0.5c-2.3-0.2-4.5-0.4-7.6-0.6c-1.4,0.5-4.2,0.9-6.3,0.5c-2.6-0.5-6.3-0.3-9.2,0.6c6-0.3,12,0.6,17.9,0.4
	c6-0.2,11.6,1.4,17.4,1.8c-3,1.5-6.1,0.4-9.1,0.1c-6.5-0.6-12.9-1.5-19.4-0.9c-1.2,0.1-2.4,0.3-3.5,0.2c-4.6-0.6-9.1-1.2-13.7-0.7
	c-0.7,0.1-1.5-0.4-2.2-0.5c-0.4-0.1-0.8,0-1.2,0.1c-0.3,0.5-0.7,1-1.1,1.6c-0.5-0.1-1.1-0.2-1.8-0.3c0.2-0.7,0.4-1.2,0.5-1.8
	c-4.5-0.5-9-1.1-13.6-0.5c4,0.5,8,0.9,12,1.4c-1.8,0.7-3.4,0.7-5.2,0.3c-1.6-0.4-3.4,0.1-5.1,0.2c1.8,0.6,3.5,1,5.3,1
	c1.8,0,3.5,0,5.7,1.6c-2.8-0.2-4.9-0.3-7-0.4c0,0.1,0,0.2,0,0.3c2,0.6,3.9,1.2,5.9,1.8c0,0.2,0,0.3,0,0.5c-2.9-0.3-5.9-0.6-9.4-0.9
	c2.6,1.7,5.1,1.3,7.4,2.1c0,0.4-0.1,0.7-0.1,1.2c-1.9-0.4-3.7-0.7-5.9-1.1C238.4,44.8,238.9,45.7,239.3,46.6
	c0.2,0.1,0.4,0.2,0.6,0.3C239.8,46.8,239.6,46.7,239.3,46.6z M170.7,38.7c-4.6-1.6-9.3-0.2-13.7-0.2c-1.3,1-2.4,1.9-3.6,2.8
	c5.7,1.4,10.9,1.6,14,0.4c-0.5-0.7-1-1.5-1.6-2.3c2.8,0,2.8,2.9,4.9,3.6c1.1-0.4,2.4-0.9,3.9-1.5c-0.5-0.9-0.9-1.6-1.4-2.7
	c-0.3,1.1-0.5,1.7-0.8,2.9C171.6,40.5,171.2,39.7,170.7,38.7z M244.7,33.5c-9-0.6-17.2-1-25.4-0.1c1.9,0.5,3.8,0.7,5.7,0.8
	c3.6,0.1,7.1-0.7,10.7,0c2.4,0.4,5-0.2,7.6,0.4C243.5,34.6,243.7,34.3,244.7,33.5z M68.5,82.9c-1.5-3.9-2.9-7.5-4.4-11.3
	c-0.5,0.1-1.1,0.3-1.4,0.4c1.7,3.7,3.3,7.3,4.9,10.9C67.7,82.9,68,82.9,68.5,82.9z M108.4,98.9c-2-0.3-4-0.3-5.9-0.8
	c-2.1-0.6-4-0.6-6,0.1c2,0.4,4.1,0.3,6,0.8C104.5,99.6,106.4,99.2,108.4,98.9z M450.8,157.4c0.8-2.1,0-3.1-1.1-4.2
	c-1-0.9,0.3-2.8-1.5-3.8C447.1,152.8,449.1,154.8,450.8,157.4z M123.6,42.7c2.8-0.2,5.2-0.3,8.4-0.5C128.7,40.4,126.3,41,123.6,42.7
	z M10.4,46c-0.2-1.5-0.3-2.9-0.5-4.4c-0.2-1.3-0.9-2.4-1.1-3.8C7.8,40.8,9,43.5,10.4,46z M128.8,101.8c0.7-0.3,1.6-0.6,2.4-0.8
	c0.7-0.2,1.4-0.3,2.1-0.4c-2.9,0.4-5.9-1-9.1,0.4C125.8,101.3,127.1,101.5,128.8,101.8z M77.9,48.7c3-0.1,3.1-0.1,5.3-1.9
	c0.5-0.4,0.7-1.1,1.4-2.2C82.1,46.1,80.3,47.2,77.9,48.7z M403.6,91.8c-1.9-1.8-0.5-4.5-2.3-6.8c0.4,3,0.6,5.5,1,8.2
	C402.8,92.7,403,92.5,403.6,91.8z M311.7,138.1c0.7-2.4-0.7-2.9-1.8-3.7c-0.6,0.8-1.1,1.4-1.5,1.9
	C309.5,136.9,310.5,137.4,311.7,138.1z M298.9,55.7c-0.3-0.6-0.7-1.5-1-2.5c-0.2,1.3-0.2,2.5-0.1,3.8c0.1,1.1-0.2,2.3,0.6,3.7
	C298.6,59.1,298.7,57.7,298.9,55.7z M453.7,149.5c-0.2,0-0.4-0.1-0.6-0.1c-0.4,1.4-0.8,2.8-1.5,5c1.2-0.8,1.8-1.2,2.2-1.5
	C453.8,151.7,453.7,150.6,453.7,149.5z M449.8,129.8c0.3-0.1,1-0.5,2.6-1.4c-1.9,0.1-2.9,0.2-3.8,0.2c-0.9,0.1-1.8,0.2-2.6,0.3
	c0,0.1,0,0.2,0,0.3C447.1,129.4,448.2,129.5,449.8,129.8z M256.1,36c2.2,0,4.4,0,6.6-0.1C260.5,34.9,258.3,35.3,256.1,36z
	 M436.6,113.7c1.2,1.8,2.9,2.3,5,2.1C439.9,115.1,438.2,114.4,436.6,113.7z M63.5,80.3c-0.2-3-0.2-3-3.2-3
	C61.4,78.3,62.4,79.3,63.5,80.3z M291.7,58.6c0.1-0.1,0.2-0.1,0.3-0.2c-0.1-2.1-0.3-4.1-0.4-6.2c-0.1,0-0.2,0-0.3,0
	C291.5,54.3,291.6,56.5,291.7,58.6z M139,95.1c-1.6-2.4-1.6-2.4-4.7-2.1C135.9,93.7,137.1,94.3,139,95.1z M218.9,113.1
	c2.3,0.8,2.3,0.8,4.2,0.2C222,112,220.8,112.4,218.9,113.1z M225.4,46.5c0.6-1.9-0.3-3.1-1.9-4C224.2,43.9,224.8,45.2,225.4,46.5z
	 M71.8,85.1c0.7,1,1.3,2,2.1,3.2C74.8,86,73.3,85.4,71.8,85.1z M173.3,106.7c1.2-0.1,2.2-0.1,3.9-0.2c-1-0.9-1.6-1.5-2.2-2
	C174.3,105.4,173.9,106,173.3,106.7z M9.6,20.3c0.1,0,0.3,0,0.4,0c0-0.9,0-1.8-0.1-2.6c-0.1-0.7-0.2-1.5-0.4-2.2
	c-0.1,0-0.2,0-0.3,0.1C9.4,17.1,9.5,18.7,9.6,20.3z M433.4,128.7c-1.6-1.5-1.9-1.6-3.7-1.1C431.1,128,432.2,128.3,433.4,128.7z
	 M350.8,69.4c0.2,0.1,0.4,0.3,0.5,0.2c1.3-1,0.8-2.1,0.5-3.7C351.3,67.3,351.1,68.4,350.8,69.4z M313.9,136.3
	c-0.3,0.1-0.6,0.2-0.9,0.2c0,0.8-0.6,1.8,1.4,1.9C314.2,137.6,314.1,137,313.9,136.3z M347,44.8c-0.1,0.2-0.2,0.4-0.2,0.6
	c1,0.3,2,0.7,3,1c0.1-0.2,0.2-0.4,0.2-0.7C349,45.4,348,45.1,347,44.8z M231.3,49.3c0.1-2.2,0.1-2.2-1.3-3.4
	C230.5,47.1,230.9,48.2,231.3,49.3z M233.6,49.8c0.1,0,0.2,0,0.3,0c-0.1-1.3-0.2-2.7-0.3-4c-0.1,0-0.2,0-0.3,0
	C233.4,47.1,233.5,48.5,233.6,49.8z M194.9,99.2c-0.1,0.3-0.2,0.5-0.3,0.8c0.6,0.2,1.3,0.4,1.9,0.5c0.1-0.2,0.1-0.5,0.2-0.7
	C196.1,99.6,195.5,99.4,194.9,99.2z M105.4,42.3c0-0.2,0-0.3,0-0.5c-1.1,0.1-2.1,0.2-3.2,0.4c0,0.1,0,0.2,0,0.4
	C103.3,42.4,104.3,42.4,105.4,42.3z M318.6,137.2c0.2-1,0.9-2.2-1-2.9C318,135.4,318.3,136.3,318.6,137.2z M207.3,45
	c-1.1,0.4-1.9,0.7-2.8,1C205.5,45.9,206.9,47.1,207.3,45z M433.3,131c-1.5-1.2-1.5-1.2-2.5-0.1C431.7,130.9,432.3,130.9,433.3,131z
	 M68.6,96.6c0.7,0.5,1.1,0.7,1.8,1.2c-0.2-1-0.2-1.6-0.4-2.6C69.3,95.8,69,96.1,68.6,96.6z M99.5,90.8c0.3,1.1,0.3,1.5,0.5,1.8
	c0.2,0.3,0.6,0.5,0.9,0.7c0.1-0.2,0.3-0.3,0.4-0.5C100.9,92.3,100.5,91.9,99.5,90.8z M104.4,94.1c1.6-1.2,1.2-1.7,0-2.3
	C104.4,92.5,104.4,93.1,104.4,94.1z M128.7,38.6c0-0.1,0-0.2,0-0.3c-0.8,0.1-1.6,0.1-2.4,0.2c0,0.1,0,0.3,0,0.4
	C127.1,38.8,127.9,38.7,128.7,38.6z M454.1,124.5c0,0.1,0,0.2,0,0.3c0.8-0.1,1.6-0.1,2.5-0.2c0-0.1,0-0.2,0-0.3
	C455.8,124.4,455,124.5,454.1,124.5z M96.1,90.8c-0.2,0.2-0.4,0.4-0.5,0.6c0.4,0.4,0.8,0.9,1.3,1.3c0.1-0.1,0.3-0.3,0.4-0.4
	C96.9,91.8,96.5,91.3,96.1,90.8z M62.2,76.3c0.1-0.1,0.3-0.2,0.4-0.3c-0.4-0.6-0.7-1.1-1.1-1.7c-0.2,0.1-0.3,0.2-0.5,0.3
	C61.5,75.2,61.9,75.8,62.2,76.3z M146.1,42.1c0-0.1,0-0.2,0-0.3c-0.8,0.1-1.7,0.1-2.5,0.2c0,0.1,0,0.2,0,0.3
	C144.4,42.2,145.3,42.1,146.1,42.1z M181,106.7c0.9,0,2.2,0.9,1.9-0.9C182.2,106.1,181.6,106.4,181,106.7z M230.6,108
	c0.2-0.1,0.4-0.2,0.7-0.3c-0.3-0.6-0.6-1.2-0.9-1.9c-0.1,0.1-0.3,0.1-0.4,0.2C230.1,106.7,230.3,107.3,230.6,108z M215,102.6
	c-0.2,0.1-0.4,0.3-0.7,0.4c0.3,0.5,0.7,1.1,1,1.6c0.1-0.1,0.2-0.1,0.4-0.2C215.5,103.9,215.2,103.3,215,102.6z M117.4,43.2
	c0-0.1,0-0.2,0-0.3c-0.8,0.1-1.6,0.1-2.5,0.2c0,0.1,0,0.3,0,0.4C115.7,43.4,116.5,43.3,117.4,43.2z M164.9,104.9c0-0.1,0-0.2,0-0.4
	c-0.8,0.1-1.7,0.1-2.5,0.2c0,0.2,0,0.3,0,0.5C163.2,105.1,164,105,164.9,104.9z M243.5,112.3c-0.3-1.2-0.3-1.5-0.5-1.8
	c-0.2-0.3-0.6-0.5-0.9-0.7c-0.1,0.2-0.3,0.3-0.4,0.5C242.1,110.7,242.6,111.2,243.5,112.3z M98.6,45.5c0,0.2,0.1,0.3,0.1,0.5
	c0.8-0.1,1.6-0.2,2.4-0.3c0-0.1,0-0.2,0-0.3C100.3,45.4,99.4,45.5,98.6,45.5z M268.1,125.9c0.4-1,0.6-1.6,0.9-2.4
	C267.4,123.8,267.6,124.6,268.1,125.9z M199.9,110.1c0,0.2,0.1,0.3,0.1,0.5c0.5-0.1,1.1-0.2,1.6-0.3c0-0.1,0-0.3-0.1-0.4
	C201,109.9,200.5,110,199.9,110.1z M13,41c-0.2,0-0.4-0.1-0.5-0.1c0,0.6,0.1,1.1,0.1,1.7c0.1,0,0.2,0,0.4,0
	C12.9,42.1,12.9,41.6,13,41z M204.2,102.5c0.1-0.2,0.3-0.3,0.4-0.5c-0.3-0.3-0.7-0.6-1-1c-0.2,0.2-0.3,0.4-0.5,0.5
	C203.5,101.9,203.8,102.2,204.2,102.5z M18.6,56.4c-0.2-0.1-0.4-0.2-0.6-0.3c-0.2,0.3-0.5,0.7-0.7,1c0.2,0.1,0.3,0.2,0.5,0.3
	C18.1,57.1,18.4,56.7,18.6,56.4z M300.3,132c0.2,0.1,0.4,0.3,0.7,0.4c0.2-0.4,0.4-0.8,0.6-1.3c-0.1-0.1-0.3-0.1-0.4-0.2
	C300.8,131.3,300.5,131.6,300.3,132z M265.1,46.4c-0.2-0.2-0.4-0.3-0.6-0.5c-0.3,0.4-0.6,0.7-0.9,1.1c0.1,0.1,0.3,0.3,0.4,0.4
	C264.4,47,264.7,46.7,265.1,46.4z M326.5,53c0.1,0.2,0.3,0.3,0.4,0.5c0.2-0.4,0.4-0.7,0.7-1.1c-0.1-0.1-0.2-0.1-0.3-0.2
	C327,52.5,326.8,52.8,326.5,53z M348.4,79.5c0.1-0.1,0.2-0.3,0.3-0.4c-0.3-0.3-0.7-0.6-1-0.8c-0.1,0.2-0.2,0.3-0.4,0.5
	C347.7,78.9,348,79.2,348.4,79.5z M354.5,59c-0.2,0.2-0.4,0.5-0.6,0.7c0.4,0.2,0.7,0.3,1.1,0.5c0.1-0.1,0.2-0.3,0.3-0.4
	C355.1,59.5,354.8,59.2,354.5,59z M375.6,56.3c0.2,0,0.5,0,0.7,0.1c-0.1-0.6-0.1-1.1-0.2-1.7c-0.2,0-0.3,0-0.5,0
	C375.6,55.2,375.6,55.7,375.6,56.3z M80.9,100.1c0.1-0.1,0.2-0.3,0.3-0.4c-0.4-0.3-0.7-0.6-1.1-0.9c-0.1,0.1-0.2,0.3-0.3,0.4
	C80.2,99.6,80.6,99.9,80.9,100.1z M229.1,114.5c0,0.1,0,0.2,0,0.3c0.6,0,1.1-0.1,1.7-0.1c0-0.1,0-0.2,0-0.3
	C230.3,114.4,229.7,114.4,229.1,114.5z M85.1,89.9c-0.2,0.2-0.3,0.4-0.5,0.7c0.4,0.2,0.7,0.4,1.1,0.6c0,0,0.2-0.1,0.3-0.2
	C85.7,90.6,85.4,90.3,85.1,89.9z M224.2,106.8c-0.1,0.2-0.3,0.3-0.4,0.5c0.3,0.3,0.6,0.7,1,1c0.2-0.2,0.3-0.4,0.5-0.6
	C224.9,107.4,224.5,107.1,224.2,106.8z M222.5,104c-0.2,0.1-0.3,0.3-0.5,0.4c0.4,0.2,0.7,0.4,1.1,0.7c0.1-0.1,0.1-0.2,0.2-0.3
	C223,104.5,222.8,104.3,222.5,104z M429.4,99.5c-0.1,0.1-0.2,0.2-0.3,0.3c0.3,0.3,0.6,0.7,1,1c0.1-0.1,0.2-0.2,0.4-0.4
	C430,100.1,429.7,99.8,429.4,99.5z M107.1,44.7c0-0.2,0-0.4,0.1-0.7c-0.6,0.1-1.1,0.1-1.7,0.2c0,0.1,0,0.3,0,0.4
	C106,44.7,106.6,44.7,107.1,44.7z M121.7,100.5c0-0.2-0.1-0.3-0.1-0.5c-0.5,0.1-1.1,0.2-1.6,0.3c0,0.2,0.1,0.3,0.1,0.5
	C120.6,100.7,121.2,100.6,121.7,100.5z M158.3,104.1c0,0.1,0,0.2,0,0.3c0.6,0,1.2-0.1,1.7-0.1c0-0.1,0-0.2,0-0.3
	C159.5,104,158.9,104,158.3,104.1z M169.4,105.5c0-0.2,0-0.5,0.1-0.7c-0.6,0.1-1.2,0.1-1.7,0.2c0,0.1,0,0.3,0,0.4
	C168.3,105.5,168.8,105.5,169.4,105.5z M9.8,11.1c0.3-0.4,0.4-0.5,0.4-0.7c0-0.2-0.2-0.4-0.5-1.1C9.7,10.3,9.7,10.6,9.8,11.1z
	 M352,46c-0.1,0-0.2,0.1-0.3,0.1c0.1,0.3,0.1,0.6,0.2,0.9c0.1,0,0.2-0.1,0.3-0.1C352.2,46.6,352.1,46.3,352,46z M93.7,92.7
	C94.3,92.5,94,92.6,93.7,92.7C94,92.8,94.3,92.9,93.7,92.7z M325.7,39.2c0,0.1,0,0.2,0.1,0.3c0.3-0.1,0.6-0.1,0.9-0.2
	c0-0.1,0-0.2-0.1-0.3C326.2,39,326,39.1,325.7,39.2z M94.7,46.6c0,0.1,0,0.2,0.1,0.3c0.3-0.1,0.6-0.2,0.9-0.2
	c-0.1-0.1-0.1-0.2-0.2-0.2C95.2,46.5,95,46.6,94.7,46.6z M253.2,35.3c0-0.1,0-0.2-0.1-0.3c-0.3,0.1-0.6,0.1-0.9,0.2
	c0,0.1,0.1,0.2,0.1,0.3C252.6,35.4,252.9,35.4,253.2,35.3z M354.4,46.6c-0.1,0-0.1,0-0.2,0c0,0.3,0,0.7,0.1,1c0.1,0,0.2,0,0.3,0
	C354.5,47.2,354.5,46.9,354.4,46.6z M375.5,75c0,0.1,0,0.2,0.1,0.3c0.3-0.1,0.6-0.2,0.9-0.2c-0.1-0.1-0.1-0.2-0.2-0.2
	C376,74.9,375.8,74.9,375.5,75z M104.1,44.7c0-0.1,0-0.2-0.1-0.3c-0.3,0.1-0.6,0.1-0.9,0.2c0.1,0.1,0.1,0.2,0.2,0.2
	C103.6,44.8,103.9,44.7,104.1,44.7z M361.6,49.6c0-0.1-0.1-0.2-0.1-0.3c-0.3,0.1-0.6,0.2-0.9,0.2c0.1,0.1,0.1,0.2,0.2,0.2
	C361.1,49.7,361.3,49.6,361.6,49.6z M62.4,62.1c0-0.1,0-0.1,0-0.2c-0.3,0-0.7,0-1,0.1c0,0.1,0,0.2,0,0.3
	C61.8,62.3,62.1,62.2,62.4,62.1z M65.7,69c0.1,0,0.1,0,0.2,0c0-0.3,0-0.7-0.1-1c-0.1,0-0.2,0-0.3,0C65.6,68.3,65.7,68.7,65.7,69z
	 M70,87.2c0,0.1,0.1,0.2,0.1,0.3c0.3-0.1,0.6-0.1,0.9-0.2c0-0.1-0.1-0.2-0.1-0.3C70.5,87,70.2,87.1,70,87.2z M72.4,97.7
	c0,0.2,0,0.4-0.1,0.5c0.3-0.1,0.6-0.2,0.9-0.2C72.9,97.9,72.6,97.8,72.4,97.7z M235.8,44.2C235.2,44.3,235.5,44.2,235.8,44.2
	C235.5,44.1,235.2,44,235.8,44.2z M352.1,62.1c0-0.2,0.1-0.4,0.1-0.6c-0.3,0.1-0.6,0.2-0.9,0.2C351.5,61.8,351.8,61.9,352.1,62.1z
	 M278.8,34.5c0-0.1,0-0.2-0.1-0.3c-0.3,0.1-0.6,0.1-0.9,0.2c0.1,0.1,0.1,0.2,0.2,0.2C278.3,34.6,278.6,34.5,278.8,34.5z M82.8,102.1
	c0-0.1,0-0.2,0-0.3c-0.3,0-0.6,0-0.9,0.1c0,0.1,0,0.2,0,0.3C82.2,102.2,82.5,102.2,82.8,102.1z M180.4,97.3c0,0.1,0,0.2,0,0.3
	c0.4,0,0.7,0,1.1-0.1c0-0.1,0-0.2,0-0.3C181.2,97.2,180.8,97.3,180.4,97.3z M172.9,97c-0.1,0-0.1,0-0.2,0c0,0.3,0,0.7,0.1,1
	c0.1,0,0.2,0,0.3,0C173,97.6,172.9,97.3,172.9,97z M157.7,102.9c0-0.1,0-0.2,0-0.3c-0.3,0-0.6,0-1,0.1c0,0.1,0,0.2,0,0.3
	C157,102.9,157.3,102.9,157.7,102.9z M141.2,42.1c0,0.1,0,0.2,0.1,0.3c0.3-0.1,0.6-0.1,0.9-0.2c-0.1-0.1-0.1-0.2-0.2-0.2
	C141.7,42,141.5,42.1,141.2,42.1z M252.7,117c0,0.1,0,0.2,0,0.3c0.3,0,0.6,0,0.9-0.1c0-0.1,0-0.2,0-0.3
	C253.3,116.9,253,116.9,252.7,117z M119.5,40.7c0-0.1,0-0.2,0-0.3c-0.3,0-0.6,0.1-0.9,0.1c0,0.1,0,0.2,0,0.3
	C118.9,40.7,119.2,40.7,119.5,40.7z M227,114.2c0-0.1,0-0.2,0-0.3c-0.3,0-0.6,0.1-0.9,0.1c0,0.1,0,0.2,0,0.3
	C226.4,114.3,226.7,114.2,227,114.2z M110,43.3c0,0.1,0,0.2,0,0.3c0.4,0,0.8,0,1.1-0.1c0-0.1,0-0.2,0-0.3
	C110.8,43.2,110.4,43.3,110,43.3z M315.6,138.7c0,0.1,0,0.2,0,0.3c0.3,0,0.6,0,1,0c0-0.1,0-0.2,0-0.3
	C316.2,138.7,315.9,138.7,315.6,138.7z M108.3,41.1c0,0.1,0,0.1,0,0.2c0.3,0,0.7,0,1-0.1c0-0.1,0-0.2,0-0.3
	C109,41,108.6,41,108.3,41.1z M432.7,105.9c0.1,0,0.1,0,0.2,0c0-0.3,0-0.6-0.1-0.9c-0.1,0-0.2,0-0.3,0
	C432.6,105.3,432.7,105.6,432.7,105.9z M212.3,103.4c0-0.1,0-0.1,0-0.2c-0.3,0-0.6,0-1,0.1c0,0.1,0,0.2,0,0.3
	C211.7,103.5,212,103.4,212.3,103.4z M88.5,45.3l-0.1,0.3l0.3,0L88.5,45.3z M93.3,47.8l0.2-0.3l-0.3,0L93.3,47.8z M100.7,41.1
	l0.2-0.2l-0.3,0L100.7,41.1z M105.6,97.5c0.1,0.1,0.1,0.1,0.2,0.2c0-0.1,0-0.3,0-0.4C105.7,97.3,105.7,97.4,105.6,97.5z
	 M272.6,122.2l0.1-0.3l-0.3,0L272.6,122.2z M279.2,127.7c-0.1,0.1-0.1,0.1-0.2,0.2c0.1,0,0.3,0,0.4,0
	C279.3,127.8,279.2,127.7,279.2,127.7z M351.4,59.5l-0.3-0.1l0,0.3L351.4,59.5z M281.3,128.5c0.1,0.1,0.2,0.1,0.2,0.2
	c0-0.1,0-0.3,0-0.4C281.4,128.4,281.4,128.4,281.3,128.5z M352.1,49.1c-0.1,0.1-0.1,0.1-0.2,0.2c0.1,0,0.3,0,0.4,0
	C352.3,49.2,352.2,49.1,352.1,49.1z M353.5,45.1c-0.1,0.1-0.1,0.1-0.2,0.2c0.1,0,0.3,0,0.4,0C353.6,45.2,353.5,45.2,353.5,45.1z
	 M281.9,126.1c0.1,0.1,0.1,0.1,0.2,0.2c0-0.1,0-0.3,0-0.4C282.1,126,282,126.1,281.9,126.1z M299,133.4c-0.1,0.1-0.2,0.1-0.2,0.2
	c0.1,0.1,0.1,0.2,0.2,0.2c0.1,0,0.1-0.1,0.2-0.2C299.1,133.6,299.1,133.5,299,133.4z M290.4,124.8c0.1,0.1,0.1,0.1,0.2,0.2
	c0-0.1,0-0.3,0-0.4C290.6,124.7,290.5,124.7,290.4,124.8z M359,47.5l0.1-0.3l-0.3,0L359,47.5z M290.6,49.8c-0.1,0.1-0.1,0.1-0.2,0.2
	c0.1,0.1,0.1,0.1,0.2,0.2c0.1-0.1,0.2-0.1,0.2-0.2C290.8,50,290.7,49.9,290.6,49.8z M361.5,52.5l0.3,0.1l0-0.3L361.5,52.5z
	 M232.2,37.1c-0.1,0.1-0.2,0.1-0.2,0.2c0.1,0.1,0.1,0.2,0.2,0.2c0.1,0,0.1-0.1,0.2-0.2C232.3,37.2,232.3,37.2,232.2,37.1z
	 M366.1,50.7l0.3,0.1l0-0.3L366.1,50.7z M378.2,163.7l-0.3-0.1l0,0.3L378.2,163.7z M262.7,117.2c0.1,0.1,0.1,0.1,0.2,0.2
	c0-0.1,0-0.3,0-0.4C262.8,117.1,262.7,117.1,262.7,117.2z M378.3,56.8l-0.1,0.3l0.3,0L378.3,56.8z M322.7,139
	c-0.1,0.1-0.1,0.1-0.2,0.2c0.1,0.1,0.1,0.2,0.2,0.2c0.1,0,0.1-0.1,0.2-0.2C322.9,139.1,322.8,139.1,322.7,139z M289.9,128.7
	c0.1,0.1,0.1,0.1,0.2,0.2c0-0.1,0-0.3,0-0.4C290,128.6,290,128.7,289.9,128.7z M204.3,110.8c-0.1-0.1-0.1-0.2-0.2-0.2
	c-0.1,0-0.1,0.1-0.2,0.2c0.1,0.1,0.1,0.2,0.2,0.2C204.1,111,204.2,110.8,204.3,110.8z M329.2,52.3l-0.3-0.1l0,0.3L329.2,52.3z
	 M9.8,7.4C9.7,7.5,9.6,7.6,9.6,7.6s0.1,0.1,0.2,0.2C9.8,7.8,10,7.7,10,7.6C10,7.6,9.8,7.5,9.8,7.4z M228.1,38.3l0.3,0.1l0-0.3
	L228.1,38.3z M188.8,100.1l-0.3-0.1l0,0.3L188.8,100.1z M184.5,101.1c0.1,0.1,0.1,0.1,0.2,0.2c0-0.1,0-0.3,0-0.4
	C184.7,100.9,184.6,101,184.5,101.1z M13,44.1c-0.1-0.1-0.1-0.1-0.2-0.2c-0.1,0.1-0.2,0.1-0.2,0.2c0,0.1,0.1,0.1,0.2,0.2
	C12.9,44.2,12.9,44.2,13,44.1z M10.4,2.9l-0.3-0.1l0,0.3L10.4,2.9z M398,98l0.1-0.3l-0.3,0L398,98z M399.1,101.8l0.1-0.3l-0.3,0
	L399.1,101.8z M15.6,50.7c-0.1,0.1-0.2,0.1-0.2,0.2c0.1,0.1,0.1,0.2,0.2,0.2c0.1,0,0.1-0.1,0.2-0.2C15.7,50.8,15.7,50.8,15.6,50.7z
	 M399.8,92.2c0.1,0.1,0.1,0.1,0.2,0.2c0-0.1,0-0.3,0-0.4C399.9,92.1,399.9,92.2,399.8,92.2z M161.3,97.1L161,97l0,0.3L161.3,97.1z
	 M319.1,140.2l-0.3-0.1l0,0.3L319.1,140.2z M402.6,96.2l0.1-0.3l-0.3,0L402.6,96.2z M156.9,95c0.1,0.1,0.1,0.1,0.2,0.2
	c0-0.1,0-0.3,0-0.4C157,94.9,156.9,94.9,156.9,95z M9.1,22.3c-0.1,0.1-0.2,0.1-0.2,0.2c0.1,0.1,0.1,0.2,0.2,0.2
	c0.1,0,0.1-0.1,0.2-0.2C9.3,22.4,9.2,22.3,9.1,22.3z M61.2,73c0.1,0.1,0.1,0.1,0.2,0.2c0-0.1,0-0.3,0-0.4
	C61.3,72.8,61.2,72.9,61.2,73z M60.5,58.8l-0.1,0.2l0.3,0L60.5,58.8z M414.8,116c-0.1,0.1-0.1,0.1-0.2,0.2c0.1,0,0.3,0,0.4,0
	C414.9,116.2,414.9,116.1,414.8,116z M64.5,82.2c-0.1-0.1-0.1-0.1-0.2-0.2c-0.1,0.1-0.2,0.1-0.2,0.2c0,0.1,0.1,0.1,0.2,0.2
	C64.4,82.3,64.4,82.2,64.5,82.2z M118.7,42.7c-0.1,0.1-0.1,0.1-0.2,0.2c0.1,0,0.3,0,0.4,0C118.9,42.8,118.8,42.7,118.7,42.7z
	 M67.8,88.4l0.1-0.3l-0.3,0L67.8,88.4z M421.7,163.9c-0.1,0.1-0.1,0.1-0.2,0.2c0.1,0.1,0.1,0.2,0.2,0.2c0.1,0,0.2-0.1,0.2-0.2
	C421.9,164.1,421.8,164,421.7,163.9z M345.1,77.7c0.1,0.1,0.1,0.1,0.2,0.2c0-0.1,0-0.3,0-0.4C345.3,77.6,345.2,77.7,345.1,77.7z
	 M224.5,113.9c-0.1,0.1-0.2,0.1-0.2,0.2c0.1,0.1,0.2,0.2,0.2,0.2c0.1,0,0.2-0.1,0.2-0.2C224.7,114.1,224.6,114,224.5,113.9z
	 M71.8,93.3l0.3,0.1l0-0.3L71.8,93.3z M74.7,98.4c-0.1,0.1-0.1,0.1-0.2,0.2c0.1,0,0.3,0,0.4,0C74.8,98.6,74.8,98.5,74.7,98.4z
	 M426.6,96.8c0.1,0.1,0.1,0.1,0.2,0.2c0-0.1,0-0.3,0-0.4C426.7,96.6,426.7,96.7,426.6,96.8z M78.5,100.7l0.3,0.1l0-0.3L78.5,100.7z
	 M435,114.8c-0.1,0.1-0.1,0.1-0.2,0.2c0.1,0.1,0.1,0.1,0.2,0.2c0.1-0.1,0.2-0.1,0.2-0.2C435.2,114.9,435,114.8,435,114.8z
	 M437.5,129.4c-0.1,0.1-0.1,0.1-0.2,0.2c0.1,0,0.3,0,0.4,0C437.6,129.5,437.5,129.5,437.5,129.4z M443.5,125.9
	c-0.1,0.1-0.2,0.1-0.2,0.2c0.1,0.1,0.1,0.2,0.2,0.2c0.1,0,0.1-0.1,0.2-0.2C443.6,126.1,443.6,126,443.5,125.9z M445.7,126.8l0.3,0.1
	l0-0.3L445.7,126.8z M79.5,50.6c-0.1,0.1-0.1,0.1-0.2,0.2c0.1,0,0.3,0,0.4,0C79.6,50.7,79.6,50.7,79.5,50.6z M447.4,126.4
	c-0.1,0.1-0.1,0.1-0.2,0.2c0.1,0,0.3,0,0.4,0C447.5,126.6,447.5,126.5,447.4,126.4z M450.3,151.4l0.3,0.2l0-0.3L450.3,151.4z
	 M43.4,77.6c-0.2-0.3-0.3-0.8-0.6-0.9c-3.3-1.6-6.6-3.1-10-4.6c-1.2-0.5-2.4-0.9-3.6-1.3c0.6,1.1,1.4,1.8,2.3,2.2
	c2.8,1.2,5.5,2.4,8.3,3.5C41,76.9,42.2,77.2,43.4,77.6L43.4,77.6z M0.7,15.4c0.6-3.9,0.8-7.9,3.2-12.2C2.1,4,1,4.5,0,5
	C0.2,8.6,0.4,12,0.7,15.4z M42.2,83.1c0.6,0.5,1.2,1.3,1.9,1.5c2,0.5,4,0.8,6,1.1l0,0C47.8,83.8,44.9,83.9,42.2,83.1L42.2,83.1z
	 M52.3,83.3c-2.9-2.6-4.8-3.8-6.7-3.9C47.9,81,49.4,83.3,52.3,83.3L52.3,83.3z M52.3,83.3c1.4,2,3.5,2.3,5.6,2.7l0,0
	C56.6,84,54.8,83,52.3,83.3L52.3,83.3z M48.7,78.3c0.9,0.7,1.5,1.3,2.2,1.8C50.9,78.6,50.4,77.8,48.7,78.3z M60.4,87.5
	c-0.4-1.1-1.2-1.6-2.4-1.4l0,0C58.4,87.2,59.2,87.6,60.4,87.5L60.4,87.5z M50.1,85.8c0.4,1.2,1.2,1.6,2.4,1.4l0,0
	C52.1,86,51.3,85.6,50.1,85.8L50.1,85.8z M15.8,59.9c0-1-0.2-2-2.1-1.7C14.6,58.9,15.2,59.4,15.8,59.9L15.8,59.9z M52.8,89.9
	c0.4,0.3,0.8,0.6,1.2,0.9c0.1-0.2,0.2-0.4,0.4-0.5c-0.4-0.3-0.8-0.5-1.3-0.8C53,89.6,52.9,89.8,52.8,89.9z M52.7,77.8
	C52,79,52,79,53.4,79.1C53.2,78.6,53,78.2,52.7,77.8L52.7,77.8z M54.2,87.8c0.4,0.4,0.9,0.9,1.3,1.3c0.1-0.2,0.2-0.4,0.4-0.6
	C55.2,88.3,54.7,88.1,54.2,87.8L54.2,87.8z M53.1,69c0.6,0,1.3-0.1,1.9-0.1c0-0.1,0-0.3,0-0.4c-0.6,0-1.3,0.1-1.9,0.1
	C53.1,68.8,53.1,68.9,53.1,69z M34.9,79.7c0.4,0.2,0.8,0.4,1.2,0.7c0.1-0.2,0.1-0.4,0.2-0.6C35.9,79.8,35.4,79.7,34.9,79.7
	L34.9,79.7z M42.2,83.2c-0.5-0.2-1.1-0.5-1.6-0.7l0,0C40.8,83.4,41.5,83.2,42.2,83.2L42.2,83.2z M54.1,87.9
	c-0.5-0.2-1.1-0.5-1.6-0.7l0,0C52.8,88.1,53.5,87.9,54.1,87.9L54.1,87.9z M56.8,80.7c-0.4-0.2-0.8-0.4-1.2-0.7
	c-0.1,0.2-0.1,0.4-0.2,0.5C55.9,80.6,56.4,80.6,56.8,80.7L56.8,80.7z M56.8,80.7c0.1,0.5,0.2,0.9,0.3,1.4c0.2-0.1,0.3-0.2,0.5-0.3
	C57.3,81.4,57.1,81,56.8,80.7L56.8,80.7z M34.9,79.7C34.7,79.6,34.5,79.5,34.9,79.7C34.7,79.3,34.8,79.5,34.9,79.7L34.9,79.7z
	 M40.6,82.5C40.4,82.4,40.1,82.2,40.6,82.5C40.3,82.1,40.4,82.3,40.6,82.5L40.6,82.5z M44.2,78.3c-0.3-0.2-0.5-0.5-0.8-0.7l0,0
	C43.6,77.9,43.9,78.1,44.2,78.3L44.2,78.3z M44.2,78.3c0.2,0.1,0.4,0.2,0.6,0.3C44.6,78.6,44.4,78.4,44.2,78.3L44.2,78.3z
	 M58.2,89.9C58,89.8,57.8,89.7,58.2,89.9C57.9,89.5,58,89.7,58.2,89.9L58.2,89.9z M401.3,155.7c1.7,0.7,0.4,2.3,1.2,3.3
	c0.9,1.2,1.8,2.5,2.8,4c0.6,0.3,1.5,0.7,2.4,1.1c-0.1,0.2-0.2,0.5-0.3,0.5c-0.5,0.1-1.1,0.3-1.5,0.1c-1.9-1-3.7-0.6-5.6,0.7
	c-0.5-0.6-0.9-1-1.3-1.5c-4.4,0.4-8.5-0.8-12.7-1.6c0-1,0-1.8,0-2.5c0.2-0.2,0.5-0.4,0.7-0.6c0.3,0.9,0.6,1.8,0.8,2.7
	c0.3-0.3,0.5-0.5,0.8-0.8c-0.1-0.6-0.2-1.3-0.4-2.3c1,0.3,1.7,0.5,2.3,0.7l0,0c0.9,0.6,1.8,1.3,3,2.1c-0.4-2.1-0.7-4-1-5.9
	c0.2,0,0.3-0.1,0.5-0.1c1.2,2.2,2.5,4.3,3.7,6.4c1.1-0.1,1.8-0.1,2.7-0.2c0.2-0.3,0.4-0.7,0.7-1.1c0.6,0.1,1.1,0.2,1.5,0.3
	C401.6,159.1,401.5,157.4,401.3,155.7L401.3,155.7z M392,161.9c-0.1,0.1-0.2,0.1-0.2,0.2c0,0.1,0.1,0.1,0.2,0.2
	c0.1-0.1,0.2-0.1,0.2-0.2C392.2,162,392,162,392,161.9z M363.1,130.8c1.2-0.7,2.5-1.2,3.6-2c1.7-1.3,3.2-3,5.1-4
	c2.8-1.6,5.7-2.9,9-2.8c2.9,0,5.9-0.8,8.8,0.1c0.2,0.1,0.7-0.7,1.4-1.4c-2.9-0.2-5.1-0.5-7.4-0.5c-2.5,0-4.9,0.3-7.1,0.4
	c-0.4,0.3-0.6,0.5-0.9,0.6c-4.6,1.7-8.1,5-11.8,8.1C363.4,129.6,363.3,130.3,363.1,130.8L363.1,130.8z M207.4,71.4
	c-0.1-0.5-0.2-1.1-0.4-1.9c-5.8,2.8-8.9,8-12.9,12.2c0.1,1.1,0.1,2.1,0.2,3.5C197.6,79.3,201.7,74.7,207.4,71.4z M363.1,134
	c-0.9,0.8-1.3,2.2-2,3.4c5.4-5.4,10.7-10.6,17.8-13.4c0-0.3-0.1-0.6-0.1-1.1C371.7,124.3,367.8,129.7,363.1,134z M346.2,110
	c2.3,4.7,3,9.9,3.9,15.7c-0.1,0.9-1.4,2.7,0.5,4.3c0.3-0.4,0.6-0.6,0.6-0.8c-0.2-4-0.1-8.1-0.8-12C350,114.6,349,111.7,346.2,110
	L346.2,110z M275.4,87.2c1.4,0.6,2.8,1.3,4.7,2.1c0.8,0.8,1.9,1.9,3.2,3.2c0.8,2.2,1.7,4.7,2.7,7.3c0.1-0.6,0.3-0.9,0.3-1.3
	c0.2-2.9-1.2-5.4-2.1-8l0,0c-1.7-1.2-3.5-2.3-5.6-3.7c-0.1-0.2-0.5-0.8-1-1.5C276.7,86.1,276.1,86.7,275.4,87.2L275.4,87.2z
	 M146.6,71.2c-0.1-1.6,0.6-2.4,2.2-2.5l0,0c-0.3-1.9,2.7-2.4,1.8-4.6c-4,2.7-6.1,6.6-7.6,11c-0.1,0.4,0.2,1,0.4,1.8
	C144.6,74.7,145.6,72.9,146.6,71.2L146.6,71.2z M374.8,105.6c-0.4-0.1-0.9-0.5-1.2-0.4c-4.2,1.4-8.4,2.8-12.5,4.4
	c-0.4,0.1-0.5,0.9-0.9,1.7c5.1-1.8,9.9-3.4,14.6-5.1C374.7,106,374.7,105.8,374.8,105.6z M226.8,68.3c-0.9,0.2-1.9,0.3-2.8,0.5
	c-0.1,0-0.1,0.4-0.3,0.9c1,0.2,2.1,0.4,3,0.6c1,2.5,1.2,2.7,5.1,5.5c0.4-0.1,0.9-0.2,1.5-0.4C231.1,73.1,229,70.8,226.8,68.3z
	 M73.4,70.6c-0.9-4.4-1.8-8.8-2.7-13.3c-1.2,1.8-1.3,1.9-1.1,2.8c0.5,2.2,1.1,4.4,1.7,6.6c0.4,1.4,1,2.8,1.5,4.2
	C72.9,70.8,73.1,70.7,73.4,70.6z M408.7,145.4c2.1-0.7,4.3-1.2,7.2-2c-5.6-0.6-9.8,0.7-13.6,4.2
	C405.1,148.3,406.7,146.1,408.7,145.4z M392.5,139.1c3-0.3,5.2-2.4,7.8-3.6c0.3-0.1,0.3-0.8,0.4-1.2
	C397.6,135.6,394,135.6,392.5,139.1L392.5,139.1z M77.3,59c0.4,2.7,0.9,5.5,1.4,8.2c0.1,0.4,0.7,0.7,1.7,1.7
	c-1.9-4.4-1-8.2-2.1-12.7C77.8,57.6,77.2,58.3,77.3,59z M313.4,90.2c-3,1.6-6.2,0.7-8.4,4.1C308.2,94.3,311.5,92.6,313.4,90.2z
	 M349.9,112.8c0.2,0.3,0.6,0.4,1.2,0.8c-0.1-1.1,0-2.1-0.4-2.8c-1-1.8-2.3-3.6-3.5-5.3c-0.1-0.2-0.7,0-1.4,0
	C347.2,108.1,348.5,110.5,349.9,112.8z M199.5,72.9c-2.3,1.8-5.3,2.9-5.4,6.6C196.2,77.5,198.5,75.7,199.5,72.9z M160.1,63.3
	c3.4,0,6-2.2,8.9-3.6c-1.3,0-2.5,0-3.2,0c-1.8,0.8-3.1,1.3-4.3,1.9C161,62,160.6,62.7,160.1,63.3L160.1,63.3z M377.2,156.4
	c-1.6-3-3.3-5.9-4.9-8.9c0-0.1-0.6,0.2-1.1,0.3c1.2,2.1,2.2,4.1,3.4,6C375.2,154.8,376.3,155.6,377.2,156.4L377.2,156.4z
	 M268.8,81.9c1.2,1,2.2,1.8,3.1,2.5c1.3-0.9,2.9-1,3.2-2.7c-1.7-0.5-1.7-0.5-3.4,1.1c-0.4-0.8-0.7-1.5-1.2-2.6
	C269.8,80.8,269.4,81.3,268.8,81.9z M180.7,67.4c0.5,2,2.6,3.4,1.8,5.9c0.8,0.4,1.4,0.6,2.4,1.1c-0.1-2.9-1.8-4.7-2.9-6.7
	C181.9,67.4,181.1,67.5,180.7,67.4L180.7,67.4z M246.5,68c-0.5,0.9-0.5,1.6,0.6,2.4c1.1-1.9,2.2-3.7,3.3-5.6
	c-0.4-0.3-0.8-0.6-1.4-1.1C248,65.4,247.3,66.7,246.5,68z M129.4,89.3c-0.6-1.2-0.8-3-2.5-3.8c0.3,1.9,0.6,3.4,0.8,4.6
	c1.2,1.2,2.2,2.1,3.2,3c0.3,0,0.5,0,0.8-0.1C131.7,91.4,130,90.7,129.4,89.3z M232.8,66c-0.2,0.7-0.3,1.9,1.2,1.8
	c0.3-1,0.6-2.1,1.1-3.2c0.5-1.2,1-2.3,0.1-3.7C233.9,62.4,233.3,64.2,232.8,66z M288.3,104.1c0.7-1,1.3-2.1,1.2-3.2
	c-0.3-2.2-0.9-4.4-1.4-6.6c-0.3,0-0.7,0-0.9,0.1C287.5,97.7,287.9,100.9,288.3,104.1z M239.3,68.3c-0.1,0.1,0.2,0.4,0.3,0.7
	c0.5,0,1.1-0.1,1.5-0.1c0.6-1.8,1.1-3.4,1.8-5.5C239.8,64.2,240,66.6,239.3,68.3z M74.2,67.9c0.6-0.3,0.9-0.4,1.2-0.6
	c-0.9-3.2-1.7-6.2-2.7-9.8C72.1,61.5,73.5,64.6,74.2,67.9z M442.8,159.3c-1.5-2.3-2.9-4.7-3-7.6c-0.6,0.3-0.9,0.4-1.4,0.6
	c0.7,2,1.4,4,2.2,6C440.9,159.1,441.8,159.5,442.8,159.3L442.8,159.3z M246.6,64.4c-0.5-0.4-0.8-0.6-1.1-0.9c-2.4,3.5-2.4,3.5-2,6.7
	C244.8,67.8,245.7,66.1,246.6,64.4z M253.2,64.4c-2.4,0.8-2.4,3.4-4.5,5.3C251.4,69.6,253.5,66.7,253.2,64.4z M149.7,71
	c0.2-0.6,0.4-1.3,0.8-2.2c-0.7,0-1.2-0.1-1.7-0.1l0,0c-0.7,0.8-1.5,1.7-2.2,2.5l0,0c0.3,0.8-0.5,2.1,0.9,2.2
	C148.3,72.5,149,71.7,149.7,71L149.7,71z M96.1,50.6c0-0.2-0.6-0.3-1.1-0.5c-1,2.9,1.2,5,1.6,7.6C96.4,55.4,96.3,53,96.1,50.6z
	 M256.3,84c-1.3,0.8-2.4,1.5-3.9,2.4c1.1,0.5,1.8,0.9,2.4,1.2c0.9-0.7,1.7-1.4,2.9-2.3C257,84.6,256.6,84.3,256.3,84z M76.5,66.1
	c1.4-2.8-2.2-5.4,0.1-8c-0.6-0.5-1-0.8-1.5-1.1C74.4,60.3,75.5,63.1,76.5,66.1z M319,78.8c-2.5,1.4-4,3.1-5,5.9
	C317.1,82.3,317.6,81.6,319,78.8z M309.2,97.4c0.7,0.7,1.1,1.1,1.5,1.5c1.2-0.9,2.2-1.8,3.3-2.7c-0.3-0.4-0.6-0.7-1-1.2
	C311.8,95.9,310.6,96.6,309.2,97.4z M183.8,56.3c-1.8,1.3-2.6,2.7-2.9,5.3C183.6,60.2,184,58.6,183.8,56.3z M323,80.2
	c-3.1,0.8-4.3,2.3-5.6,4.1c0.5,0.4,0.8,0.6,1,0.8C319.7,83.6,321.1,82.2,323,80.2z M291.5,101.7c0.5-0.2,0.8-0.3,1.3-0.5
	c-1.8-1.5,0-4.3-2.6-5.6C289.5,98.1,291.3,99.7,291.5,101.7z M206,61.9c0.1,0.7,0.2,1.4,0.4,2.2c0.7-2.1,2.9-3.4,2-6.1
	C207.5,59.3,206.8,60.6,206,61.9z M322.5,85.1c1.1-1.1,2.5-2.4,3.9-3.7C322.3,83.3,322.3,83.3,322.5,85.1z M236,67
	c0.8,0,1.3,0,1.7,0c1.2-2.4,1.2-2.4,0.2-4.2C237.3,64.2,236.7,65.5,236,67z M92,56.4c-0.3-1.3,0.1-2.8-0.9-3.9
	c0.2,2.7-0.8,5.6,2,8.5C92.6,58.9,92.3,57.6,92,56.4z M428.4,145.1c0.2-2,0.3-3.9-0.8-5.7C426,141.5,428.1,143.2,428.4,145.1z
	 M368,147.6c0.6,2.1,1,4.4,3.4,5.2l0,0C370.8,150.8,370.2,148.7,368,147.6L368,147.6z M287.6,71.5c0-0.1-0.1-0.2-0.3-0.5
	c-1.7,1.4-2.9,2.9-2.7,5.5C285.6,74.8,286.6,73.2,287.6,71.5z M414.2,134.5c-0.6-2.2-1.1-4.1-1.7-6.3
	C411.9,132.7,411.9,132.9,414.2,134.5z M302.9,95.8c-1.5,0.9-1.5,0.9-2.7,2.7C303.3,98.5,303.3,98.5,302.9,95.8z M229.5,61.6
	c-0.4-0.4-0.8-0.7-1.3-1.2c-0.6,1.5-1.1,2.7-1.6,4c0.8,0,1.1,0,1.9,0C228.8,63.5,229.1,62.6,229.5,61.6z M349.9,98.1
	c1.6-1.9,2.9-3.4,4.5-5.3C352.2,94.2,350.8,95.6,349.9,98.1z M304.8,101.5c2.3-0.1,2.3-0.1,3.3-1.8
	C306.1,99.4,306.1,99.4,304.8,101.5z M188.8,63.3c0.8-1.8,1.4-3.3,2.3-5.4C188.4,59.8,188,60.6,188.8,63.3z M152.3,53.5
	c-1.5,1.7-2.4,3.3-1.4,5.8C151.5,57.3,153.1,55.9,152.3,53.5z M324.3,133.2c0.5,0,1,0,1.5-0.1l0.1-0.1c-0.6-1.8-1-3.6-2.8-5.4
	C323.6,129.9,323.9,131.6,324.3,133.2L324.3,133.2z M319.2,94.4c-1.1,0.3-1.9,0.6-3.5,1.1c1.6,0.8,2.5,1.2,4.1,2
	C319.5,95.9,319.4,95.3,319.2,94.4z M186.9,79.6c0,1,0.1,1.8,0,2.5c0,0.7-0.2,1.3-0.3,2.3c1.4-1.4,1.4-1.4,1.8-4.6
	C188,79.7,187.6,79.7,186.9,79.6z M185.2,61.8c1.4-1.4,2.1-2.8,1.8-5.3C185.4,58.4,184.6,59.7,185.2,61.8z M327.7,83
	c-1.8,0.9-2.6,2.6-3.7,4C326.5,85.8,326.8,85.5,327.7,83z M83.7,61.1c-0.3-1.8,0.2-3.3-0.8-4.7C81.4,58.2,81.4,58.2,83.7,61.1z
	 M339.4,137.7c0-2.2-1.1-3.9-2.7-5.3l0,0C336.7,134.6,337.8,136.3,339.4,137.7L339.4,137.7z M345,106.5c-0.9-0.9-1.6-2.1-3.6-1.4
	C343.3,106.9,343.3,106.9,345,106.5z M347.7,95.6c1.2-1.2,2.3-2.4,3.4-3.5C349.2,92.6,347.9,93.6,347.7,95.6z M395.9,156.8
	c0,2.1,0.9,3.3,2.4,4.1C397.4,159.7,398.1,157.6,395.9,156.8z M408.8,164.3c0.8,0.2,1.5,0.4,2.1,0.6c0,0,0.1-0.2,0.2-0.5
	c-0.6-0.9-1.3-1.9-2.5-3.6C408.8,162.5,408.8,163.3,408.8,164.3z M234.9,89c0-0.8,0-1.3,0-2.1c-0.6,0.1-1,0.3-1.4,0.3
	c-0.5,0-1-0.1-2.1-0.3C232.4,88.5,233.4,88.9,234.9,89z M231.3,61.3c-0.3,1.2-1.7,2.3,0.2,3.6C230.9,63.7,233.6,62.5,231.3,61.3z
	 M249.7,90c1.6,0.6,2.9,0.6,3.6-1.2C252.2,89,250.6,88,249.7,90z M132.9,58.8c0.6-1.4,1.1-2.6,1.7-4.1
	C132.4,55.8,132.4,55.8,132.9,58.8z M259.4,67.2c-1.5,0.9-2.5,2.1-2.1,4C257.9,69.9,259.6,69,259.4,67.2L259.4,67.2z M158.1,61.1
	c-1.1,0.9-2.2,1.8-3.3,2.6C156.7,63.9,157.6,62.8,158.1,61.1z M80.4,59.7c0.1,2,0.1,4,0.7,6c0.1-1.9,0-3.8-0.1-5.7
	C81,59.9,80.6,59.8,80.4,59.7L80.4,59.7z M353.4,129.5c0.3-1,0.6-2.1,0.9-3.2c-0.5-0.3-0.9-0.6-1.6-1.1c0.1,1.7,0.2,3.1,0.3,4.4
	C353.1,129.5,353.3,129.5,353.4,129.5z M377.8,152c-0.5-1.6-0.9-3.2-1.5-5C375.2,149.3,376.9,150.6,377.8,152z M80.4,59.7
	c0.2-1,0.4-2,0.5-3c0-0.3-0.6-0.6-1-0.9C80.1,57.3,78.5,58.8,80.4,59.7L80.4,59.7z M352.8,118.1c-0.7,1.3-0.7,2.2,0.5,3.1
	C353.8,120.1,354.3,119,352.8,118.1z M407,162c-0.6-1.4-1.2-2.8-1.9-4.1c-0.3,1.8,0.1,3.2,1.1,4.5C406.5,162.3,406.7,162.2,407,162z
	 M142.5,54.2c-2.3,1.2-2.3,1.2-1.8,4.2C141.3,56.9,141.8,55.7,142.5,54.2z M97.9,53c0.2,0.7,0.3,1.4,0.4,2c0.1,0,0.2-0.1,0.4-0.1
	c-0.1-1.6-0.2-3.2-0.3-5c-0.5,0.4-0.8,0.7-1.1,0.9C97.5,51.7,97.7,52.4,97.9,53z M284.2,90.5c1.3,0.3,2.6,0.6,4.1,0.9
	c-0.9-2.2-2.6-1.7-4.1-2.2C284.2,89.8,284.2,90.2,284.2,90.5L284.2,90.5z M148.9,54.2c-0.9,1.4-1.6,2.4-2.2,3.5
	c0.5,0.4,0.8,0.6,1.3,1C148,57.1,149.5,56.2,148.9,54.2z M424.4,141.2c-0.1-1.9-0.2-3.3-0.3-5.1c-0.6,1.1-0.9,1.7-1.4,2.6
	C423.3,139.5,423.7,140.1,424.4,141.2z M282.5,87c0,0.4,0.1,0.7,0.1,1c1.1-0.1,2.2-0.1,3.6-0.2C285.1,86.2,283.9,86.5,282.5,87z
	 M421.9,161.4c-0.1-1.6-0.1-3.2-1.9-4.4C420.3,158.8,420.7,160.2,421.9,161.4L421.9,161.4z M341.3,93.2c0.6-0.5,1.1-0.9,1.7-1.5
	c0.4-0.5,0.8-1,1.1-1.5c-0.2-0.2-0.5-0.3-0.7-0.5C342.5,90.8,341,91.3,341.3,93.2L341.3,93.2z M180.7,67.4c0-1.2,0-2.3-1.5-2.9
	c0.1,1,0.1,1.9,0.2,2.8C179.9,67.4,180.3,67.4,180.7,67.4L180.7,67.4z M307.2,78.1c-0.7,0.6-1.6,1.4-2.5,2.2
	C307.3,79.2,307.2,79.2,307.2,78.1z M304.6,76.1c-1.2,0.6-2.4,1.2-2.5,3.5C303.5,78.2,304.5,77.4,304.6,76.1z M275.4,87.2
	c-0.2-1,0.3-2.2-0.7-3.1C273.4,85.7,273.4,85.7,275.4,87.2L275.4,87.2z M301.8,105.6c0.6-0.3,1.2-0.7,2-1c-0.1-0.6-0.2-1.2-0.3-2.2
	c-0.9,1.1-1.5,1.9-2.1,2.7C301.5,105.2,301.6,105.4,301.8,105.6z M81.5,67.1c0.5,1.3,0.9,2.6,1.4,3.9C83.1,69.2,83.1,69.2,81.5,67.1
	z M160.1,63.3c-1.7,0-2.4,1.2-3,2.5l0.1,0.1c1-0.4,2-0.8,2.9-1.2C160.1,64,160.1,63.6,160.1,63.3L160.1,63.3z M404.7,125.6
	c-0.8,0.7-1.2,1.1-1.6,1.4c0.7,1.1,1.1,1.9,1.9,3.1C404.9,128.4,404.8,127.2,404.7,125.6z M145.1,79.8c0.5-1.2,1.1-2.3,0.3-3.9
	c-0.4,1.2-0.8,2.4-1.1,3.6C144.5,79.7,144.8,79.7,145.1,79.8z M435.7,147.7c-0.1-1.6-0.1-2.4-0.2-3.3c-0.5,0-0.8,0-1.8,0
	C434.5,145.6,434.9,146.3,435.7,147.7z M409.9,133.1c-0.1-2.1-0.2-3.5-0.3-4.8C409.1,129.6,408.7,131,409.9,133.1z M87.4,59.3
	c-0.1-1.5-0.2-3-0.3-4.5C86.3,57.7,86.3,57.7,87.4,59.3L87.4,59.3z M417.3,161.6c-0.3-1.2,0.5-3-1.9-3.6c0.6,1.3,1,2.4,1.5,3.5
	C416.9,161.7,417.1,161.7,417.3,161.6L417.3,161.6z M312.4,80.8c-0.5,0.7-1,1.3-1.5,2C312.9,83,312.8,82,312.4,80.8z M257.7,84.1
	c1.2-0.1,1.9-0.1,2.6-0.2C259.4,82.6,258.6,82.5,257.7,84.1z M338.9,120.1c0.6,0.4,1,0.7,1.7,1.2c-0.1-1.2-0.1-2-0.2-3.4
	C339.7,118.9,339.3,119.4,338.9,120.1z M343.1,96.4c2.1-1.3,2.1-1.3,1.1-3.1C343.7,94.6,343.5,95.3,343.1,96.4z M359.3,145
	c0-1.2,0-2.3-1.5-2.9C357.3,143.7,357.9,144.6,359.3,145L359.3,145z M224.5,62.4c0.5-0.3,1-0.6,1.4-0.9c0.4-0.4,0.6-0.8,0.9-1.3
	c-0.2-0.1-0.4-0.3-0.6-0.4c-0.7,0.7-1.4,1.4-2.1,2.2C224.2,62.1,224.4,62.2,224.5,62.4z M88.8,53.2c0.1,1.4,0.2,2.8,0.3,4.3
	c0.1,0,0.3,0,0.4,0c-0.1-1.4-0.2-2.8-0.3-4.3C89.1,53.1,88.9,53.1,88.8,53.2z M363.6,99.6c0.9-0.2,1.5-0.4,2.2-0.5
	C364.1,98,364.1,98,363.6,99.6z M336.4,109.6c0.1,1.1,0.1,1.8,0.2,2.5C337.8,111.2,338,110.4,336.4,109.6z M390.6,159.5
	c0.5-0.1,0.9-0.2,1.5-0.3c-0.3-1.3-0.6-2.3-1.7-2.8l0,0C390.5,157.4,390.5,158.4,390.6,159.5L390.6,159.5z M407,155.8
	c-0.2,2-0.4,3.3,1.7,4.2C408.1,158.5,407.7,157.4,407,155.8z M361,98.2c1-0.6,1.6-0.9,2.9-1.6C361.8,96,361.8,96,361,98.2z
	 M163.2,91.4c0.2-2,0.4-3.2-1.8-4.2C162.1,88.8,162.6,89.8,163.2,91.4z M328.6,98.5c0.8,0.2,1.7,0.5,2.7,0.8c-0.1-0.7-0.1-1-0.2-1.5
	c-0.9,0.1-1.7,0.1-2.5,0.2C328.7,98.2,328.6,98.3,328.6,98.5z M282.4,117.1c0.6-1.5,0.1-2.3-1.5-2.3
	C281.4,115.5,281.9,116.2,282.4,117.1z M337,88c1-0.5,1.8-1.1,1.8-2.4C337.4,85.9,336.8,86.7,337,88L337,88z M273,68.7
	c-0.5,0.7-1.1,1.3-1.6,2c0.2,0.2,0.4,0.3,0.6,0.5c0.6-0.6,1.2-1.2,1.7-1.8C273.5,69.1,273.3,68.9,273,68.7z M88.7,58.4
	c0.6,1.2,1.1,2.1,1.6,3.1C90.4,59.6,90.4,59.6,88.7,58.4z M248.3,98.2c1.1-0.8,1.6-1.4-0.1-2.2C248.2,96.7,248.2,97.4,248.3,98.2z
	 M335.3,85.8c-1.6,0-2.2,0.8-2.1,3.1C334.2,87.4,334.8,86.6,335.3,85.8L335.3,85.8z M212.6,58.3c-0.8,0.9-1.3,1.5-1.8,2.2
	C212.3,60.5,213,59.9,212.6,58.3z M104.5,52.2c0.5-1.7,0.2-2.6-1.6-3.4C103.6,50.1,104,50.9,104.5,52.2z M250.2,94.2
	c1-0.4,0.9-1.2,0.2-2.4c-0.5,0.7-0.8,1.3-1.1,1.9C249.5,93.9,249.8,94,250.2,94.2z M108.3,69.6c0.3,1.1-0.5,2.5,1.9,3.3
	C109.4,71.5,108.9,70.6,108.3,69.6L108.3,69.6z M432.4,145.7c-0.1-1.2-0.1-2.3-0.2-3.5c-0.1,0-0.3,0-0.4,0c0.1,1.2,0.1,2.3,0.2,3.5
	C432.2,145.7,432.3,145.7,432.4,145.7z M119.5,86.1c0.1,1.3,0.6,2.4,1.7,3l0,0C121.2,87.7,121.2,86.5,119.5,86.1L119.5,86.1z
	 M417,135.7c-0.1-1.1-0.1-2.2-0.2-3.3c-0.1,0-0.3,0-0.4,0c0.1,1.1,0.1,2.2,0.2,3.2C416.7,135.6,416.8,135.7,417,135.7z M122.2,58.5
	c0.3-0.9,0.6-1.8,0.8-2.7c-0.2-0.1-0.5-0.1-0.7-0.2c-0.3,0.8-0.6,1.6-0.9,2.5C121.7,58.2,121.9,58.3,122.2,58.5z M125.4,55.5
	c-0.2,0.7-0.4,1.3-0.5,2c0.3,0.1,0.5,0.1,0.8,0.2c0.2-0.6,0.4-1.3,0.6-1.9C126,55.7,125.7,55.6,125.4,55.5z M140.8,91
	c-0.3-1,0.5-2.5-1.9-3.3C139.8,89.1,140.3,90,140.8,91L140.8,91z M157.2,65.8c-0.9,0.4-1.9,0.8-3.4,1.4
	C155.9,67.8,156.7,67.2,157.2,65.8L157.2,65.8z M401.3,155.7c-0.2-1.1,0.3-2.5-2.1-2.7C400,154.1,400.7,154.9,401.3,155.7
	L401.3,155.7z M191.8,95.5c-0.3-1,0.4-2.5-1.9-3.2C190.7,93.7,191.2,94.6,191.8,95.5L191.8,95.5z M232.2,78c0.3,0.3,0.5,0.6,0.9,0.8
	c0.3,0.1,0.7,0,1.6,0C233.4,77.4,233.4,77.4,232.2,78z M196.3,62.6c0.4-1.1,0.8-1.9,1.5-3.5C195.8,60.2,195.6,61.2,196.3,62.6z
	 M262.1,68.6c-0.6,0.7-1.1,1.4-1.6,2C262.3,70,262.3,70,262.1,68.6z M233.6,79.1c0.2,1.4,0.3,2.1,0.4,2.9c0.6-0.2,0.9-0.4,1.5-0.6
	C235,80.8,234.6,80.3,233.6,79.1z M85.3,60.4c0.1,0.9,0.1,1.8,0.2,2.7c0.1,0,0.3,0,0.4,0c-0.1-0.9-0.1-1.8-0.2-2.7
	C85.6,60.3,85.5,60.4,85.3,60.4z M129.4,73.5c-0.1-0.9-0.1-1.7-0.2-2.6c-0.1,0-0.2,0-0.4,0c0.1,0.9,0.1,1.7,0.2,2.6
	C129.2,73.5,129.3,73.5,129.4,73.5z M289.4,73.8c-1,0.5-1.7,1-1.1,2.4c0.4-0.4,0.8-0.6,0.9-0.9C289.3,74.9,289.3,74.4,289.4,73.8
	L289.4,73.8z M133.4,69.1c0.1,0.9,0.1,1.7,0.2,2.6c0.1,0,0.3,0,0.4,0c-0.1-0.9-0.1-1.7-0.2-2.6C133.7,69.1,133.6,69.1,133.4,69.1z
	 M135.2,68.2c1,0.6,1.3,0.8,1.9,1.1c-0.1-0.9-0.1-1.4-0.2-2.6C136.1,67.4,135.7,67.7,135.2,68.2z M83.9,64.9c0.3,1-0.6,2.4,1,3.1
	l0,0C84.5,67,85.5,65.6,83.9,64.9L83.9,64.9z M341.6,135.8c0.4,0.5,0.8,1,1.2,1.6c0.2-0.1,0.3-0.3,0.5-0.4c-0.4-0.5-0.8-1-1.2-1.6
	C341.9,135.5,341.7,135.7,341.6,135.8z M412.2,155.4c0.1,0.8,0.2,1.6,0.4,2.4c0.1,0,0.3,0,0.4-0.1c-0.1-0.8-0.1-1.6-0.2-2.4
	C412.6,155.3,412.4,155.4,412.2,155.4z M341.3,93.2c-1,0.5-1.7,1-0.9,3C340.8,94.8,341,94,341.3,93.2L341.3,93.2z M280.1,83.7
	c0.1,0.9,0.1,1.6,0.2,2.5c0.5-0.6,0.9-0.9,1.3-1.3C281,84.5,280.7,84.2,280.1,83.7z M100.8,86.5c0,1,0.2,1.9,2.1,1.7
	C102,87.5,101.4,87,100.8,86.5L100.8,86.5z M280.5,69.6c-1.9,0.6-1.5,1.4-0.9,2.6C279.9,71.3,280.1,70.6,280.5,69.6z M131.2,70
	c0.1,0.9,0.1,1.7,0.2,2.6c0.1,0,0.3,0,0.4,0c-0.1-0.9-0.1-1.7-0.2-2.6C131.4,70,131.3,70,131.2,70z M267.5,72.9c1-0.5,1.7-1,0.9-3
	C268,71.3,267.7,72.1,267.5,72.9L267.5,72.9z M429.7,160.9c-0.1-1-0.2-1.9-0.3-2.9C429.1,159,428,160.2,429.7,160.9L429.7,160.9z
	 M336.3,88.8c-1,0.4-1.7,1-0.9,3.1C335.9,90.4,336.1,89.6,336.3,88.8L336.3,88.8z M296.5,75.8c-1,0.4-1.6,1-1.3,2.4
	C296.4,77.5,296.7,76.8,296.5,75.8L296.5,75.8z M292.6,75.2c-1,0.4-1.7,1-0.9,3C292.1,76.8,292.4,76,292.6,75.2L292.6,75.2z
	 M149.7,70.9c0.1,0.5,0.2,0.9,0.3,1.5c0.5-0.1,0.9-0.2,1.3-0.3c-0.1-0.4-0.2-0.8-0.4-1.1C150.5,71,150.1,71,149.7,70.9L149.7,70.9z
	 M183.9,94.5c-0.1-0.7-0.2-1.4-0.3-2.1C183.3,93.2,182.5,94.1,183.9,94.5L183.9,94.5z M296.5,75.7c0.4-0.4,0.9-0.9,1.3-1.3
	c-0.2-0.1-0.4-0.2-0.6-0.4C296.9,74.7,296.7,75.2,296.5,75.7L296.5,75.7z M299.7,77.1c-0.4,0.4-0.9,0.9-1.3,1.3
	c0.2,0.1,0.4,0.2,0.7,0.4C299.3,78.2,299.5,77.7,299.7,77.1L299.7,77.1z M299.7,77.1c0.4-0.4,0.9-0.9,1.3-1.3
	c-0.2-0.1-0.4-0.2-0.6-0.4C300.2,76,299.9,76.6,299.7,77.1L299.7,77.1z M259.4,67.2c0.4-0.4,0.9-0.9,1.3-1.3
	c-0.2-0.1-0.4-0.3-0.7-0.4C259.8,66.1,259.6,66.6,259.4,67.2L259.4,67.2z M332.1,84.4c-0.9,0.1-1.9,0-1,1.7
	C331.5,85.4,331.8,84.9,332.1,84.4L332.1,84.4z M354.7,96.2c-0.4,0.4-0.9,0.9-1.3,1.3c0.2,0.1,0.4,0.2,0.7,0.4
	C354.3,97.4,354.5,96.8,354.7,96.2L354.7,96.2z M355.4,95.4c0.9-0.1,1.9,0,1.1-1.7C356.1,94.4,355.7,94.9,355.4,95.4L355.4,95.4z
	 M241.7,105.1c0,0.6,0.1,1.3,0.1,1.9c0.1,0,0.3,0,0.4,0c0-0.6-0.1-1.3-0.1-1.9C241.9,105.1,241.8,105.1,241.7,105.1z M360.9,133.3
	c0.5-0.6,1-1.1,1.5-1.7l0,0C361.2,131.6,360.7,132.1,360.9,133.3L360.9,133.3z M367.1,145.3c0.2,0.8-0.4,1.9,0.9,2.3l0,0
	C367.8,146.8,368.5,145.7,367.1,145.3L367.1,145.3z M388.1,144c0.4-0.4,0.9-0.9,1.3-1.3c-0.2-0.1-0.4-0.2-0.6-0.4
	C388.5,142.9,388.3,143.5,388.1,144L388.1,144z M78.4,77c0.2,0.8-0.5,2,0.9,2.3l0,0C79.1,78.5,79.8,77.3,78.4,77L78.4,77z
	 M399.8,159.5c0-0.6-0.1-1.3-0.1-1.9c-0.1,0-0.3,0-0.4,0c0,0.7,0.1,1.3,0.1,1.9C399.5,159.5,399.6,159.5,399.8,159.5z M399.3,124.2
	c0.1,0.5,0.2,1.1,0.4,1.6c0.1,0,0.2,0,0.4-0.1c0-0.6-0.1-1.1-0.1-1.7C399.7,124.2,399.5,124.2,399.3,124.2z M418.2,163.9
	c-0.2-0.8,0.4-1.9-0.9-2.3l-0.1,0.1C417.4,162.5,416.8,163.6,418.2,163.9L418.2,163.9z M83.9,65c-0.1-0.7-0.2-1.4-0.3-2.1
	C83.2,63.6,82.5,64.6,83.9,65L83.9,65z M84.9,68c0.1,0.7,0.2,1.4,0.3,2.5C85.9,69.2,86.2,68.4,84.9,68L84.9,68z M85,57.5
	c-0.1-0.5-0.3-1.1-0.4-1.6c-0.1,0-0.2,0-0.4,0.1c0,0.5,0.1,1.1,0.1,1.6C84.6,57.5,84.8,57.5,85,57.5z M87.4,59.3
	c0.1,0.7,0.2,1.4,0.3,2.1C88,60.6,88.8,59.6,87.4,59.3L87.4,59.3z M106.4,87.7c-0.1-0.9-0.1-1.9-1.7-1
	C105.3,87.1,105.8,87.4,106.4,87.7L106.4,87.7z M442.8,159.3c0.1,0.9,0.1,1.9,1.7,1C443.8,159.9,443.3,159.6,442.8,159.3
	L442.8,159.3z M108.3,69.6c-0.1-0.7-0.2-1.4-0.3-2.5C107.3,68.4,107.1,69.2,108.3,69.6L108.3,69.6z M155.6,90.8
	c-0.2-0.8,0.5-2-0.9-2.3l0,0C155,89.3,154.2,90.5,155.6,90.8L155.6,90.8z M293.9,120.3c-0.1-0.5-0.2-0.9-0.3-1.4
	c-0.2,0.1-0.3,0.2-0.5,0.3C293.3,119.6,293.6,120,293.9,120.3L293.9,120.3z M384.9,154.4c0.1,0.5,0.2,0.9,0.3,1.4
	c0.2-0.1,0.3-0.2,0.5-0.3C385.4,155.1,385.1,154.7,384.9,154.4L384.9,154.4z M353.7,142.3c-0.1-0.5-0.2-0.9-0.3-1.4
	c-0.2,0.1-0.4,0.1-0.5,0.2C353.1,141.5,353.4,141.9,353.7,142.3L353.7,142.3z M333.7,134.2c-0.1-0.5-0.2-0.9-0.3-1.4
	c-0.2,0.1-0.3,0.2-0.5,0.3C333.2,133.5,333.4,133.8,333.7,134.2L333.7,134.2z M78.4,77c-0.1-0.4-0.3-0.9-0.4-1.3
	c-0.2,0.1-0.3,0.2-0.5,0.3C77.8,76.3,78.1,76.6,78.4,77L78.4,77z M364.1,146.3c-0.1-0.5-0.2-0.9-0.3-1.4c-0.2,0.1-0.3,0.2-0.5,0.3
	C363.5,145.6,363.8,145.9,364.1,146.3L364.1,146.3z M325.8,133.2c0.1,0.5,0.2,0.9,0.3,1.4c0.2-0.1,0.3-0.2,0.5-0.3
	C326.4,133.9,326.1,133.5,325.8,133.2L325.8,133.2z M179.3,58.2c-0.2,0.4-0.4,0.8-0.7,1.2c0.2,0.1,0.4,0.1,0.5,0.2
	C179.2,59.1,179.3,58.6,179.3,58.2L179.3,58.2z M171.3,91.4c-0.1-0.5-0.2-0.9-0.3-1.4c-0.2,0.1-0.3,0.2-0.5,0.3
	C170.7,90.7,171,91,171.3,91.4L171.3,91.4z M410,157.5c-0.1-0.5-0.2-0.9-0.3-1.4c-0.2,0.1-0.3,0.2-0.5,0.3
	C409.4,156.7,409.7,157.1,410,157.5L410,157.5z M129.3,56.6c0.8-0.3,1-0.7-0.1-1.8C129.3,55.8,129.3,56.2,129.3,56.6L129.3,56.6z
	 M129.3,56.6c-0.8,0.3-0.9,0.7,0,1.7C129.3,57.5,129.3,57.1,129.3,56.6L129.3,56.6z M432,160c-0.1-0.5-0.2-0.9-0.3-1.4
	c-0.2,0.1-0.3,0.2-0.5,0.3C431.4,159.2,431.7,159.6,432,160L432,160z M432,160c0.1,0.4,0.3,0.9,0.4,1.3c0.2-0.1,0.3-0.2,0.5-0.3
	C432.5,160.6,432.2,160.3,432,160L432,160z M204.3,58.9c-0.8,0.3-1,0.8,0.1,1.8C204.4,59.8,204.3,59.4,204.3,58.9L204.3,58.9z
	 M81.9,83c0.2,0.1,0.4,0.2,0.7,0.3C82.3,83.2,82.1,83.1,81.9,83L81.9,83z M100.8,86.5C100.6,86.4,100.4,86.2,100.8,86.5
	C100.5,86.1,100.7,86.3,100.8,86.5L100.8,86.5z M336.7,132.4c-0.2-0.1-0.4-0.2-0.6-0.3C336.3,132.2,336.5,132.3,336.7,132.4
	L336.7,132.4z M332.9,83.6C333,83.4,333.1,83.2,332.9,83.6C333.2,83.3,333.1,83.5,332.9,83.6L332.9,83.6z M355.4,95.4
	c-0.2,0.3-0.5,0.6-0.7,0.8l0,0C354.9,96,355.2,95.7,355.4,95.4L355.4,95.4z M360.9,133.3c-0.1,0.2-0.2,0.4-0.3,0.7
	C360.7,133.7,360.8,133.5,360.9,133.3L360.9,133.3z M363.1,130.8c-0.2,0.3-0.5,0.5-0.7,0.8l0,0C362.6,131.3,362.9,131.1,363.1,130.8
	L363.1,130.8z M292.6,75.2C292.7,75,292.8,74.8,292.6,75.2C293,74.9,292.8,75.1,292.6,75.2L292.6,75.2z M335.3,85.8
	C335.5,85.6,335.6,85.4,335.3,85.8C335.7,85.5,335.5,85.6,335.3,85.8L335.3,85.8z M367.1,145.3c-0.2-0.1-0.4-0.2-0.6-0.3
	C366.7,145.1,366.9,145.2,367.1,145.3L367.1,145.3z M337,88c-0.2,0.3-0.5,0.5-0.7,0.8l0,0C336.6,88.6,336.8,88.3,337,88L337,88z
	 M289.4,73.8c0.1-0.2,0.2-0.4-0.1,0.1C289.8,73.6,289.6,73.7,289.4,73.8L289.4,73.8z M384.9,154.4
	C384.6,154.2,384.4,154.1,384.9,154.4C384.6,154,384.7,154.2,384.9,154.4L384.9,154.4z M388.1,144C388,144.2,387.9,144.4,388.1,144
	C387.7,144.3,387.9,144.2,388.1,144L388.1,144z M390.4,156.4C390.2,156.2,390,156.1,390.4,156.4C390.1,156,390.3,156.2,390.4,156.4
	L390.4,156.4z M391,140.7C390.9,140.9,390.8,141.1,391,140.7C390.6,141,390.8,140.9,391,140.7L391,140.7z M391.7,139.9
	c-0.2,0.3-0.5,0.6-0.7,0.8l0,0C391.2,140.5,391.5,140.2,391.7,139.9L391.7,139.9z M392.5,139.1c-0.2,0.3-0.5,0.6-0.7,0.8l0,0
	C392,139.6,392.2,139.4,392.5,139.1L392.5,139.1z M193.9,91.5C193.7,91.4,193.5,91.3,193.9,91.5C193.6,91.2,193.7,91.4,193.9,91.5
	L193.9,91.5z M179.3,58.2C179.4,58,179.5,57.8,179.3,58.2C179.7,57.9,179.5,58,179.3,58.2L179.3,58.2z M155.6,90.8
	C155.8,90.9,156.1,91.1,155.6,90.8C155.9,91.2,155.8,91,155.6,90.8L155.6,90.8z M154.7,88.5C154.5,88.4,154.3,88.3,154.7,88.5
	C154.4,88.2,154.6,88.4,154.7,88.5L154.7,88.5z M140.8,91C141.1,91.1,141.3,91.2,140.8,91C141.1,91.4,141,91.2,140.8,91L140.8,91z
	 M346.2,110c-0.2-0.1-0.4-0.2-0.6-0.3C345.8,109.8,346,109.9,346.2,110L346.2,110z M119.5,86.1C119.3,86,119.1,85.9,119.5,86.1
	C119.2,85.7,119.4,85.9,119.5,86.1L119.5,86.1z M332.1,84.4c0.2-0.3,0.5-0.6,0.7-0.8l0,0C332.6,83.9,332.4,84.1,332.1,84.4
	L332.1,84.4z M267.5,72.9C267.4,73.1,267.3,73.3,267.5,72.9C267.1,73.2,267.3,73,267.5,72.9L267.5,72.9z M79.3,79.3
	C79.5,79.4,79.7,79.5,79.3,79.3C79.6,79.6,79.5,79.4,79.3,79.3L79.3,79.3z M81.1,82.3C80.9,82.1,80.7,82,81.1,82.3
	C80.8,81.9,80.9,82.1,81.1,82.3L81.1,82.3z M81.9,83c-0.3-0.2-0.6-0.5-0.8-0.7l0,0C81.3,82.5,81.6,82.8,81.9,83L81.9,83z
	 M204.3,58.9C204.4,58.7,204.5,58.5,204.3,58.9C204.7,58.7,204.5,58.8,204.3,58.9L204.3,58.9z M377.6,64.4c1.1,0.2,2.2,0.2,3.2,0.6
	c1.9,0.8,3.7,1.8,5.6,2.7l0,0c-0.4,0.1-0.7,0.1-1.4,0.3c0.2,0.7,0.3,1.3,0.5,2.3c-2.8-1.1-5.5-1.7-7.8-3.5l0,0
	C379.5,65.9,377.6,65.2,377.6,64.4L377.6,64.4z M380,65.7c-0.2,0.4-0.3,0.5-0.4,0.9c0.6,0.2,1.1,0.5,1.7,0.7
	c0.1-0.1,0.2-0.3,0.2-0.4C381,66.5,380.5,66.1,380,65.7z M383,67.2c-0.1,0.1-0.2,0.3-0.3,0.4c0.4,0.3,0.7,0.6,1.1,0.9
	c0.1-0.1,0.2-0.3,0.3-0.4C383.7,67.8,383.4,67.5,383,67.2z M406,106.3c1.8,2.7,5,3.4,7.5,4.9c0.2,0.2,0.8-0.2,1.6-0.4
	c-2.7-1.5-4.9-2.9-7.2-4.2C407.3,106.4,406.6,106.4,406,106.3L406,106.3z M426.4,122.2c2.4,1.7,5,2.6,8.5,3.1
	C431.7,122.9,430.1,122.4,426.4,122.2L426.4,122.2z M302,46.8c-2.3-1.9-5.1-2.4-8.1-1.4C296.4,45.9,298.9,46.3,302,46.8z
	 M295.7,48.6c2.3,0.2,4.6,0.4,7.5,0.7c-2.6-2-5.1-1.7-7.5-2.3c-0.1,0.7-0.1,1.1-0.1,1.5L295.7,48.6z M420.2,96.8
	c-0.1-0.7-0.2-1.5-0.3-2.2c-1.3-0.7-2.5-1.4-3.8-2.2c0,0.7,0,1.2,0,1.6C417.5,95,418.9,95.9,420.2,96.8L420.2,96.8z M377.6,64.4
	c-2.1-1.6-4.3-2.6-7-2.4C373,62.8,374.9,64.8,377.6,64.4L377.6,64.4z M389.6,69.1L389.6,69.1c0.2,1.1-0.3,1.7-1.4,1.6l0,0
	c0.8,1.1,2,1.4,3.2,1.3c-0.2-1.1,0.3-1.7,1.5-1.6C392.1,69.3,390.9,69.1,389.6,69.1z M388.2,70.7c-0.2-1.1,0.3-1.6,1.4-1.6l0,0
	c-0.8-1.1-1.9-1.4-3.2-1.4l0,0c0.1,0.9,0.1,1.9,0.2,2.9C387.3,70.7,387.7,70.8,388.2,70.7L388.2,70.7z M402.7,103.4
	c0.3,1.9,1.4,2.9,3.3,2.9l0.1-0.1C405.7,104.3,404.7,103.3,402.7,103.4L402.7,103.4z M361.7,72.5c-1.1-0.4-2.3-0.9-3.4-1.2
	c-0.3-0.1-0.8,0.4-1.8,0.9c2.1,0.5,3.5,0.8,4.9,1.2C361.5,73.1,361.6,72.8,361.7,72.5z M361.6,69.7c-1.2-0.3-2.4-0.6-3.5-0.9
	C359.4,70.9,360.7,71.1,361.6,69.7z M406.2,89c0.7,2,2.1,2.8,4.2,2.4C409,90.6,407.6,89.8,406.2,89z M356.7,64.6
	c1.3,1.6,2.8,1,4.3,0.6C359.6,65.4,358.4,63.3,356.7,64.6z M425.4,116.7c-0.9-1.6-2.4-2-4-2.1l0,0
	C422.2,116.3,423.7,116.6,425.4,116.7L425.4,116.7z M361.2,67.6c0-0.1,0-0.2,0-0.3c-1.1-0.3-2.3-0.5-3.5-0.9c0,0.6,0.1,0.9,0.1,1.4
	C359,67.7,360.1,67.7,361.2,67.6z M409,104.5c-0.7-1.2-1.4-2.3-3.5-2C406.8,103.6,407.4,104.9,409,104.5L409,104.5z M406.2,99.4
	c0.9,0.5,1.8,0.9,2.7,1.4C408.7,99.1,407.6,99,406.2,99.4z M372.2,64.8c1,1.4,2.5,1.5,4,1.3l0,0C375.2,64.7,373.7,64.6,372.2,64.8
	L372.2,64.8z M413.2,96.5c-0.7-1.3-1.6-2.3-3.3-2.1l0,0C410.6,95.6,411.5,96.6,413.2,96.5L413.2,96.5z M356.1,74.5
	c1.2,0.5,1.9,0.8,2.5,1.1c0.3-0.4,0.5-0.7,1.2-1.5C358.3,74.2,357.5,74.3,356.1,74.5z M411.4,106.5c0.8,0.3,1.4,0.6,2.2,0.9
	C413.2,105.8,413.2,105.8,411.4,106.5z M411.8,99.7c-0.5-1-1.2-1.6-2.5-2.2C409.7,99.3,410.5,99.8,411.8,99.7L411.8,99.7z
	 M408.3,93.6c-0.1-0.5-0.2-0.9-0.4-1.5c-0.5,0.2-0.9,0.3-2,0.6C407.2,93.2,407.7,93.5,408.3,93.6L408.3,93.6z M305,61.2
	c0.6,1.2,1.3,0.8,2.1-0.1C306.3,61.1,305.7,61.2,305,61.2L305,61.2z M359.1,54.7c0.6,1.2,1.4,0.9,2.5,0
	C360.6,54.7,359.8,54.7,359.1,54.7L359.1,54.7z M421.3,114.7c-0.4-0.4-0.9-0.9-1.3-1.3c-0.1,0.2-0.2,0.4-0.4,0.6
	C420.2,114.2,420.8,114.5,421.3,114.7L421.3,114.7z M429.7,118.5c-0.6-0.6-1-0.9-1.6-1.5C427.7,118.7,428.1,119,429.7,118.5z
	 M438.4,126.1c-0.6-1.1-1.3-0.8-2.1,0.2C437,126.2,437.7,126.1,438.4,126.1L438.4,126.1z M376.2,66.1c0.2,1,1,0.7,1.6,0.7l0,0
	C377.6,65.8,376.8,66,376.2,66.1L376.2,66.1z M372.2,64.8c-0.3-0.8-0.8-1-1.8,0.1C371.3,64.8,371.8,64.8,372.2,64.8L372.2,64.8z
	 M409.9,94.3c-0.5-0.2-1-0.5-1.6-0.7l-0.1,0.1C408.8,93.9,409.4,94.1,409.9,94.3L409.9,94.3z M305,61.2c-0.4-0.2-0.8-0.4-1.2-0.7
	c-0.1,0.2-0.1,0.4-0.2,0.5C304,61.1,304.5,61.1,305,61.2L305,61.2z M354.4,78.3C354.6,78.5,354.8,78.6,354.4,78.3
	C354.6,78.7,354.5,78.5,354.4,78.3L354.4,78.3z M359.1,54.7C358.9,54.6,358.7,54.4,359.1,54.7C358.8,54.3,359,54.5,359.1,54.7
	L359.1,54.7z M399.6,78.6c-0.2-0.2-0.3-0.4-0.5-0.6c-0.1,0.1-0.1,0.2-0.2,0.2C399.1,78.4,399.3,78.5,399.6,78.6L399.6,78.6z
	 M409,104.5C409.2,104.6,409.4,104.8,409,104.5C409.3,104.9,409.1,104.7,409,104.5L409,104.5z M411.8,99.7
	C412,99.8,412.2,99.9,411.8,99.7C412.1,100.1,411.9,99.9,411.8,99.7L411.8,99.7z M412.1,92.7C411.9,92.5,411.7,92.4,412.1,92.7
	C411.9,92.2,412,92.4,412.1,92.7L412.1,92.7z M413.2,96.5C413.4,96.6,413.6,96.7,413.2,96.5C413.4,96.9,413.3,96.7,413.2,96.5
	L413.2,96.5z M413,93.4C413.2,93.5,413.4,93.6,413,93.4C413.2,93.8,413.1,93.6,413,93.4L413,93.4z M412.8,90.2
	c0.2,0.1,0.4,0.2-0.1-0.1C413.1,90.7,412.9,90.5,412.8,90.2L412.8,90.2z M419.7,100.7C419.5,100.6,419.2,100.5,419.7,100.7
	C419.4,100.4,419.5,100.5,419.7,100.7L419.7,100.7z M419.7,100.7c0.3,0.2,0.5,0.5,0.8,0.7l0,0C420.2,101.2,419.9,101,419.7,100.7
	L419.7,100.7z M421,97.5c-0.3-0.2-0.6-0.5-0.8-0.7l0,0C420.5,97.1,420.7,97.3,421,97.5L421,97.5z M424.7,119.1
	C424.5,119,424.3,118.9,424.7,119.1C424.4,118.7,424.6,118.9,424.7,119.1L424.7,119.1z M425.4,116.7c0.2,0.1,0.4,0.3-0.2-0.1
	C425.6,117.2,425.5,117,425.4,116.7L425.4,116.7z M413,93.4c-0.3-0.2-0.5-0.5-0.8-0.7l0,0C412.4,92.9,412.7,93.1,413,93.4L413,93.4z
	 M254,41c1.4-0.2,1.3,0.9,1.6,1.7c0,0.1,0.3,0.1,0.5,0.2c0.2-0.6,0.3-1.2,0.4-1.5c2.8,0.1,5.5,0.2,8.8,0.3c-2.7-2.4-5.6-1.5-8.2-2.1
	c1.1-0.2,2.2-0.5,3.9-0.8c-1.7-0.4-2.7-0.7-3.2-0.9c-2.2,1.2-4,2.1-6.3,3.3C252.5,41.1,253.3,41.2,254,41z M261.7,43.3
	c0-0.3-0.1-0.6-0.1-1c-0.9,0.1-1.8,0.1-2.7,0.2C259.8,42.7,260.4,44.2,261.7,43.3z M248.6,40.8c-1.3,1.7-1.2,2.7,0.3,4.1
	C248.8,43.4,248.7,42.4,248.6,40.8z M340.2,75.4c3.7-4.5,3.4-9.8,2.9-15.2c0-0.4-0.8-0.8-1.7-1.6c0.3,1.6,0.5,2.4,0.6,3.3
	c0.2,1.5,0.8,3.1,0.5,4.5c-0.5,2.4-0.5,5.1-2.2,7.2C339.9,73.8,340.1,74.7,340.2,75.4L340.2,75.4z M324.9,62.4
	c-0.4,2.3-1.9,4.3-1.4,7.1c2.4-2.3,2-5.3,2.7-8.2C325.8,61.7,325,61.9,324.9,62.4z M337.6,67.6c-1.9,1.2-1.5,3.1-2.1,4.9
	C336.8,71.5,337.8,69.1,337.6,67.6z M322,64c-0.3,1.7-1.6,3.4-0.6,5.5c0.4-1.1,0.8-2,1-2.9c0.3-0.9,0.4-1.9,0.7-3.3
	C322.5,63.6,322,63.8,322,64z M328.9,55.8c-1.9,0.1-2.2,1.2-3.2,2.5C327.6,58.1,328,57.1,328.9,55.8z M343.5,56.7
	c-0.6-0.3-1.3-0.6-1.9-0.9c-0.1,0.2-0.2,0.3-0.2,0.5c0.5,0.4,1.1,0.7,1.6,1.1C343.2,57.1,343.4,56.9,343.5,56.7z M339.5,56.5
	c0-0.6-0.1-1.3-0.1-1.9c-0.1,0-0.3,0-0.4,0c0,0.6,0.1,1.3,0.1,1.9C339.3,56.5,339.4,56.5,339.5,56.5z M343.7,58.3
	c0.1,0.5,0.3,1.1,0.4,1.6c0.1,0,0.3,0,0.4-0.1c0-0.6-0.1-1.1-0.1-1.7C344.2,58.3,343.9,58.3,343.7,58.3z M347,60.1
	C346.8,60,346.6,59.9,347,60.1C346.7,59.7,346.8,59.9,347,60.1L347,60.1z M373.1,80.9c-0.2-0.2-0.3-0.3-0.7-0.7
	c-0.4,0.6-0.8,1.2-1.2,1.8c-0.6,1.1-1.2,2.2-2,3.6C370.7,84.9,371.2,84.3,373.1,80.9z M389.6,87.9c-0.7,0.3-1,0.9-1.3,1.4
	c-0.6,1.2-1.1,2.5-1.7,3.8C389.1,92.2,389.1,90,389.6,87.9z M389.5,80c0.3,1.5-0.6,3.5,1.7,4.5C391.2,82.7,392,80.8,389.5,80
	L389.5,80z M389.5,80c-0.1-0.5-0.2-0.9-0.3-1.5c-0.5,0.2-0.9,0.3-1.3,0.4c0.1,0.4,0.2,0.8,0.3,1.1C388.8,80,389.1,80,389.5,80
	L389.5,80z M366.5,85.4c0.5-0.2,1-0.5,1.5-0.7c-0.3-0.3-0.5-0.6-0.8-1c-0.2,0.3-0.5,0.6-0.7,0.8C366.4,84.9,366.5,85.1,366.5,85.4z
	 M283,46.2c0.6,1,1.1,2,1.9,3.4c0.2,2.6,0.4,5.6,0.5,8.7c0.2,0,0.3,0,0.5,0c0.2-2.8,0.4-5.6,0.6-8.1c-0.9-1.6-1.7-2.8-2.4-4
	C283.7,46.2,283.4,46.2,283,46.2L283,46.2z M283.6,57.4c-0.1-2.7-0.2-5.4-0.4-8.1c0-0.5-0.8-0.9-1.3-1.3c1,3.4,0.9,6.6,0.6,10.1
	C283,57.7,283.6,57.5,283.6,57.4z M278.4,50.3c-1.3,2-1.6,3.7-0.8,5.6c0.4-0.1,0.6-0.1,1.1-0.2C278.6,53.7,278.5,52.2,278.4,50.3z
	 M264.5,49.7c-1.6,0-2.2,0.8-2.1,3.1C263.4,51.3,263.9,50.5,264.5,49.7L264.5,49.7z M284.4,44.6c-0.4-0.4-0.9-0.9-1.3-1.3
	c-0.1,0.2-0.2,0.4-0.4,0.6C283.3,44.1,283.9,44.3,284.4,44.6L284.4,44.6z M280.1,49.5c-0.1-0.4-0.2-0.9-0.3-1.3
	c-0.2,0.1-0.3,0.2-0.5,0.3C279.5,48.8,279.8,49.2,280.1,49.5L280.1,49.5z M264.5,49.7c0.5-0.1,0.9-0.2,1.4-0.3
	c-0.1-0.2-0.2-0.3-0.3-0.5C265.2,49.2,264.9,49.4,264.5,49.7L264.5,49.7z M285.3,45.3c0.3,0.2,0.5,0.5,0.8,0.7l0,0
	C285.8,45.8,285.5,45.5,285.3,45.3L285.3,45.3z M284.4,44.6c0.3,0.2,0.5,0.5,0.8,0.7l0,0C285,45,284.7,44.8,284.4,44.6L284.4,44.6z
	 M283,46.2C282.8,46.1,282.6,46,283,46.2C282.7,45.8,282.8,46,283,46.2L283,46.2z M207.8,34c-3-0.2-6.1-0.5-9.1-0.4
	c-6.5,0.3-13.1,0.8-19.6,1.2c-2.3,0.1-4.5,0-7.2,0c-0.2,0.2-0.6,0.8-1,1.4c9.1-0.2,18.2-1.7,27.3-1c3.3,0.2,6.7-0.4,10-0.6
	C208.1,34.3,208,34,207.8,34z M150.8,38.2c1.2-0.7,2.4-1.4,3.6-2C152.6,36,150.8,35.8,150.8,38.2L150.8,38.2z M150.9,39.7
	c0-0.5-0.1-1-0.1-1.5l0,0c-0.7,0.1-1.6,0-1.3,1C149.5,39.5,150.4,39.5,150.9,39.7L150.9,39.7z M193,43.5c-0.9,0.1-1.8,0.1-2.7,0.2
	c0,0.1,0,0.3,0,0.4c0.9-0.1,1.8-0.1,2.7-0.2C193,43.7,193,43.6,193,43.5z M243.9,118.8c0.5-0.1,0.9-0.2,1.4-0.3
	c-0.1-0.2-0.2-0.3-0.3-0.5C244.6,118.3,244.3,118.5,243.9,118.8L243.9,118.8z"/>
</svg>
