<?xml version="1.0" encoding="utf-8"?>
<!-- Generator: Adobe Illustrator 21.1.0, SVG Export Plug-In . SVG Version: 6.00 Build 0)  -->
<svg version="1.1" id="Capa_1" xmlns="http://www.w3.org/2000/svg" xmlns:xlink="http://www.w3.org/1999/xlink" x="0px" y="0px"
	 width="444px" height="423.7px" viewBox="0 0 444 423.7" style="enable-background:new 0 0 444 423.7;" xml:space="preserve">
<style type="text/css">
	.st0{fill:#87A787;}
</style>
<path class="st0" d="M281.3,224.6c-1.4,5.5-6.5,7-10.8,9.4c0.2,0.3,0.4,0.7,0.5,1c1.3-0.3,2.7-0.4,3.9-1c6.6-3.8,13.5-7.2,19.6-11.8
	c5.1-3.9,8.9-9,10.8-15.6c1.3-4.3,4.3-8,6.9-11.7c-1.7,10-5.7,18.9-13.1,25.9c-1.4,1.3-2.9,2.4-4.4,3.5c-6.4,4.4-12.8,8.8-19.2,13.2
	c-0.4,0.3-0.7,0.7-1.7,1.8c1.6,0,2.5,0.3,3.1,0c5.1-2.6,10.2-5.3,15.2-8.1c8.8-5.1,14.8-12.6,18.2-22.2c0.8-2.4,2.6-4.5,4.2-7.1
	c2.1,2.9,1.2,5.1,0.3,7.1c-4.7,10.1-12,17.7-21.4,23.5c-4.1,2.5-8,5.4-12,8c-2,1.3-4.1,2.4-6.2,3.6c-1.6,0.9-3.2,1.7-4.6,2.8
	c5,0.5,8-5.4,14.2-3.9c-6.9,4.7-13.6,7.9-20.6,11c2.3,1.6,2.3,1.6,8.6-1.5c2.8-1.4,5.5-3.2,8.2-4.9c0.2,0.2,0.5,0.4,0.7,0.7
	c-0.7,0.8-1.3,1.7-2.2,2.3c-3.8,2.3-7.7,4.4-11.5,6.7c-1.7,1-3.3,2.2-4.7,3.7c6.7-1.4,12.4-5.2,18.6-8.9c0.2,3.7-2.1,4.6-4.2,5.7
	c-5,2.5-10,5.1-15,7.6c0.1,0.3,0.3,0.7,0.4,1c5.5-2.3,11-4.6,16.5-6.9c0.1,0.3,0.3,0.6,0.4,0.9c-6.8,4.6-14.1,8.4-21.8,11.7
	c0.1,0.4,0.1,0.7,0.2,1.1c1-0.1,2.1,0,3-0.4c4.2-2,8.4-4.2,12.6-6.3c1.3-0.6,2.6-1.2,4.4-2c0.1,2.7-1.6,3.5-3,4.2
	c-5.8,2.8-11.6,5.6-17.4,8.4c-0.8,0.4-1.5,0.9-2,1.7c7.6-1,13.8-5.6,21.1-7.4c-6.7,6.1-15,9.3-23.2,12.7c8.8,0,15.7-6,24-7.5
	c0.2,0.5,0.4,0.9,0.5,1.4c-8.1,3.5-16.1,7-24.2,10.5c0.2,0.4,0.3,0.8,0.5,1.3c7.6-2.8,15.3-5.6,22.9-8.4c0.2,0.5,0.3,0.9,0.5,1.4
	c-9.5,4.3-19.1,8.5-29.9,11.5c3.5,1.4,5.7,0.9,14-2.1c4.3-1.6,8.5-3.1,12.8-4.7c0.2,0.4,0.3,0.8,0.5,1.2c-2.1,1-4.1,2.1-6.3,3
	c-5.1,2.1-10.2,4.2-15.3,6.2c-2.5,1-5,1.5-7.2-1.2c1.4,6.7,3.9,12.5,7.4,17.9c2.7,4.2,5.7,8.1,8.5,12.3c4.9,7.4,11.1,13.7,17.5,19.9
	c4.4,4.3,8.5,9,13.2,13c4.3,3.7,8.9,7,13.7,9.9c3.7,2.3,7.8,4.3,12,5.6c6.8,2.1,13.1,5,17.9,10.3c4.4,4.9,10.5,6.2,16.2,8.6
	c4.5,1.9,9,1,13.5,1c0.6,0,1.3-0.3,1.9-0.6c5.4-2.6,9.1-1.9,13.8,2.1c1.4,1.2,3.3,1.9,5.1,2.6c-3.8-8.1-11.7-9.5-17.7-8.5
	c-5,0.8-9.8,1.4-15-0.2c-3.9-2.9-8.9-5.3-9.7-11.3c-0.2-1.7,0.2-3.4,0.4-5.1c0.4,0,0.7,0,1.1,0c0.3,1.1,0.7,2.2,0.9,3.3
	c1,8.1,7.4,11,15.4,10.8c5.5-0.2,11-0.7,16.5-1c1-0.1,2.1,0.3,3.5,0.6c1.1,1.2,2.3,2.7,3.7,4c2.2,2,4.3,4.1,6.9,5.5
	c2.6,1.4,4.3,3.2,5,5.9c1,3.7,3.9,6.9,3.1,11.1c-0.3,1.4-0.7,2.7-1.1,3.9c-2.7,0.4-3.9-0.8-4.4-2.6c-1.9-7-6.3-11.6-13.1-14.1
	c-1.3-0.5-2.5-1.6-3.4-2.7c-2.1-2.4-4.6-2.5-7.4-1.9c-5.1,1.1-10.1,2.3-15.4,3.5c-3-4.8-7.9-4.7-12.1-6.4c-5.1-2-8.7-6.1-12.9-9.4
	c-4.9-3.9-10.8-6-16.7-7.7c-0.2,0.4-0.5,0.7-0.7,1.1c0.6,0.7,1.1,1.6,1.9,2.2c2.5,2,5.2,3.8,7.7,5.9c0.8,0.7,1.3,1.7,1.9,2.6
	c-0.2,0.3-0.5,0.5-0.7,0.8c-3.9-2.3-7.8-4.6-12.2-7.2c-0.8,4.5-3,8,0.1,11.8c1.5,1.9,2.4,4.5,3.2,6.9c0.5,1.7,0.4,3.7,0.5,5.6
	c-0.5,0-0.9,0.1-1.4,0.1c-0.5-2.8-1.1-5.6-1.7-8.6c-5.1-3.8-5.1-9-3.5-14.7c1.7-6,0.7-8-5.2-11.4c-6.6,0.8-9.1,5.1-6.2,11.1
	c1.7,3.5,3.9,6.7,5.9,10.1c1.7,2.9,2.2,5.7-0.1,8.6c-1.5,2-1.6,4.2,0,6.4c0.8,1.1,1.3,2.3,2,3.7c-3.9-0.7-7.1-5.2-5.7-8.6
	c2.9-7.1,0.4-12.8-3.6-18.4c-1.1-1.6-1.7-3.6-2.7-5.9c1.4-3.4,2.9-6.9,4.6-11.1c-4.5-3.5-9.2-7.2-14.1-11c-1.4,0.8-2.7,1.5-3.6,2
	c-1.9,0.2-3.5,0.4-5.2,0.5c0,0.3,0,0.5-0.1,0.8c1,0.5,2,1,3,1.5c-2.3,4.5-10.5,12.2-17.3,15.7c-0.3,1-0.6,2.3-1,3.6
	c0.8,0.9,1.5,1.6,2.2,2.4c-0.3,1.1-0.6,2.1-0.8,3c1.9,3.3,4.6,4.9,8.2,5.4c5.6,0.9,10.1,3.2,12.6,8.8c2.8,6.3-0.2,11.8-7.2,12.1
	c-3.1,0.1-6.2-0.4-9.3-0.6c-1.7-0.1-3.4-0.2-5.6-0.3c-1.8,2.7-3.6,5.4-5.8,8.7c-2.7-0.3-5.9-0.7-9.9-1.1c-0.6-1-1.5-2.3-2.1-3.7
	c-0.8-1.8-1.3-3.8-2.3-5.6c-1.6-3.1-3.9-4.1-7.4-3.4c-1.2,0.2-2.4,0.3-3.7,0.4c-0.2-0.4-0.3-0.8-0.5-1.2c1.1-0.7,2.1-1.8,3.2-2.2
	c4-1.2,8.5,0.7,10.7,4.5c0.8,1.4,1.5,2.8,2.4,4.2c2.4,4,6.5,4.4,9.7,0.9c1.2-1.3,2.1-2.9,3.4-4c2.8-2.2,5.7-4.5,9.8-3.6
	c1.6,0.4,3.5-0.1,5.4-0.3c0.3-0.9,0.6-1.7,1.1-2.9c-1.4-0.7-2.7-1.5-4-1.9c-1.8-0.6-3.7-0.9-5.5-1.2c-5.6-0.9-9.5-3.5-10.2-10
	c-5.5,0.4-3.9,6.4-7.5,8.9c-0.3-1.5-0.9-2.7-0.8-3.8c0.3-2.8,0.8-5.5,1.5-8.3c0.6-2.5,1-5-0.3-7.8c-1.6-0.4-3.2-0.8-4.9-1.2
	c-2.8,3.7-0.9,9.5-5.7,11.9c0.3-3.9,3.3-7.4,1.1-11.8c-1.2,0.1-2.5,0.3-4,0.4c1-3.2-0.4-4.8-3.1-6.5c-7.7-4.8-13.3-11.6-17.8-19.4
	c4.2,0.6,8.4,1.2,12.7,1.7c3.1,0.4,6.1,0.8,9.2,1c12.3,0.9,23.8-3.5,35.7-5.7c0.4-0.1,0.7-0.6,1.1-0.9c-0.1-0.3-0.1-0.5-0.2-0.8
	c-1.4,0.1-2.8,0-4.1,0.2c-4,0.7-7.9,1.6-11.9,2.2c-13.1,2-26.1,3.3-39.3,1c-0.9-0.2-2.1,0.8-3.1,1.2c-1.2-1.7-2.5-3.5-3.8-5.1
	c-0.8-1-1.7-1.9-2.7-3c-3.4,3.1-4.7,6.7-4.6,10.8c0.1,6,2.4,11.1,5.8,16c4.9,7.3,7,15.6,5.2,24.2c-1.2,6.2-5.3,11.2-11.4,13.8
	c-3,1.3-5.3,3.2-6.3,6.4c-0.5,1.7-1.5,2.8-4.2,1.9c-0.2-2-0.4-4.1-0.6-6.6c2.1-1.9,4.2-3.8,6.2-5.8c1.2-1.1,2.1-2.4,3.3-3.5
	c5.5-4.8,4.4-10.8,3.1-16.8c-1.7-7.8-6.8-14.1-9.4-21.6c-0.6-1.7-1.9-3-2.9-4.4c-2.6,3.9-4.8,7.5-7.3,10.9
	c-3.8,4.9-9.7,6.7-14.9,9.4c-4.9,2.6-10,4.5-15.6,5.1c-1.6,0.2-3.1,1.4-5.2,2.4c-0.1,4-0.5,7.9-0.4,11.9c0.1,4.1-0.8,7.8-2.9,11.1
	c-2,3.1-4.7,5-8.7,4.9c-3.3-0.1-6.7,0.4-10.3,0.6c-0.8-0.5-1.8-1.2-3-1.9c-1.5,0.1-3.1,0.2-4.7,0.4c-1.1,0.1-2.2,0.4-3.2,0.3
	c-4.4-0.4-8.8-1-13.9-1.6c3.8-2.8,5.1-7.5,11.4-8c7.1-0.6,13.9-0.1,20.9,1.5c1-1.2,1.8-2.4,2.6-3.3c0.3-7.6-2.8-13.9-6.2-20
	c-0.6-1.1-1.8-2.1-2.9-2.7c-9.6-5.4-14.6-14.4-18.2-24.2c-1.5-4-2.3-8.1-3.5-12.5c-4.4,1.9-7,4.9-7.9,9.2c-0.1,0.3,0,0.5-0.1,0.8
	c-2.3,7.7-4.3,15.5-7,23c-0.8,2.4-3,4.4-4.9,6.2c-6.7,6.3-11.7,13.7-15.5,22c0.2,1.2,0.4,2.4,0.6,3.7c-1.1,3.8-1.7,7.8-5.7,10.1
	c-1,0.6-1.4,2.2-2.3,3.8c-1.6-0.1-3.4-0.2-6-0.3c-1.3,0.8-3.3,1.9-5.3,3.1c-1.1,0-2.2,0-3.2,0c2.9-5.5,8.7-6.7,13.2-9.1
	c2.3-3.2,2.6-6.2,1.8-9.6c-0.8-3.4-1.3-6.9,1.3-10c3.3-3.9,6.4-8,9.6-12c6.1-7.6,10-15.9,9-25.9c-0.2-1.7,0.4-3.4,0.6-5.1
	c0.5-3.6,1.2-7.1,1.3-10.7c0.1-1.6-1.1-3.3-1.7-5c-1.8,0.5-2.8,0.7-3.9,1c-6.1,1.7-12.1,3.3-18.6,2.9c-4.3-0.3-8.6-0.1-12.9,0.2
	c-7.1,0.4-14.9,3.7-12.8,13.9c0.2,0.9-0.3,2-0.6,3.5c-4.6-3-1.4-7.6-3.7-11c-1,0.9-2.1,1.4-2.4,2.2c-1.5,3.7-3.1,7.4-4.2,11.2
	c-1.3,4.4-1.4,9.2-3.3,13.2c-3.2,6.7-6,13.5-7.2,20.9c-0.2,1.5-1.1,3-1.6,4.4c-0.4-0.1-0.9-0.2-1.3-0.4c0.7-6,1.4-12,2.2-18.4
	c-4.5,0.3-8.9,0.5-13.3,0.8c0-1.1,0-2.2,0-3.2c3.4,0,6.8,0,9.3,0c5.6-3.8,9.7-7.6,10.5-14.1c-2.8,0.2-3.6,1.9-4.3,3.9
	c-2.3,6.1-6,8.4-12.3,8c-1.1-0.1-2.1-0.2-3.2-0.2c0-1.1,0-2.2,0-3.2c10.4,0.4,11.4-1.2,13.5-11.7c0.5-2.2,0.1-4.7,0.1-8
	c-3.3,1-5.7,1.7-8,2.5c-0.2-0.3-0.3-0.5-0.5-0.8c1.1-1,2.1-2.4,3.4-2.9c8.1-3.3,11.7-10,13.5-17.9c0.5-2.1,2.5-4.4,0-7.1
	c-3.3,4.6-7.4,7.9-12.1,10.4c-0.3-0.4-0.6-0.7-0.9-1.1c1.7-1.6,3.1-3.5,5-4.8c6.9-4.8,8.7-11.8,8.5-19.4
	c-0.4-16.4,2.6-32.3,7.2-47.8c2.4-8.1,5.7-15.9,9-23.6c3-7,6.1-13.9,10-20.4c4-6.6,8.8-12.7,13.5-18.9c1.3-1.8,3.4-3,5.3-4.3
	c6-4.3,12.1-8.5,18.1-12.7c1.4-1,3-1.8,4.4-2.9c2.5-2,4.9-4,7.7-6.4c0.6,0,1.8-0.1,3.7-0.2c2.8-3.3,5.8-7,9.6-11.5
	c-5.2,0.5-9.1,5.4-14.1,1.9c-0.3-0.6-0.8-1.4-1-2.3c-0.7-4.3-3.2-7.1-6.6-9.7c-2-1.5-2.9-4.3-4.6-6.9c0.9-1.9,1.7-3.9,2.8-5.7
	c2.2-3.3,2.5-5.4,0.7-8.1c-1.6-2.5-5.6-4.1-8.5-3.3c-1.7,0.4-3.4,1-4.9,1.9c-5.1,3.2-10.6,3.6-16.5,3.1c-3.8-6.1-9.5-5.7-15.3-4.5
	c-0.1,0-0.3,0.1-0.4,0.1c-7.5-1.5-15.7-1.3-21.7-7.3c-2.6-2.6-5.1-5.2-7.6-7.8c-0.8-0.8-1.4-1.6-2.3-2.3c-2.5-1.8-4.4-4-3.9-7.5
	c-1-0.6-2-1.1-2.7-1.8c-1-1-2.1-2.2-2.4-3.5c-0.7-3.4-1.4-7-1.1-10.4c0.2-2.5,2.1-4.9,3.2-7.4c0.3,0.1,0.6,0.2,0.9,0.3
	c-0.4-3.1-0.6-6.3-1.3-9.4c-1-4.9,2.1-8.2,4.7-11.5c2.9-3.8,6.3-6.6,11.5-7.3c2.9-0.4,5.5-2.6,8.9-4.3c9.3,1.7,20.3-0.1,28.9,8
	c0.2-0.3,0.3-0.5,0.5-0.8c0.8,1.7,1.6,3.4,2.4,5.1c1.5,3.3,3.7,5.5,7.5,6c4,0.5,7.9,1.1,11.9-0.4c1.1-0.4,2.9-0.3,3.7,0.4
	c5.3,4.2,9.6,8.9,10.5,16.1c0.4,2.9,0.7,5.6-1.7,7.6c-1.3,5.5,1.3,9.6,4.1,13.8c-0.1,1.2-0.3,2.5-0.6,4.4c1.5-0.1,2.7-0.1,3.9-0.3
	c0.8-0.1,1.5-0.5,2.3-0.8c7.8-3.4,7.8-3.4,15.7-0.9c2.1-2,4.4-4,7.3-6.7c0.3-3.7,0.6-8.2,0.9-12.7c3.1-3.8,6.1-1.1,9-0.8
	c3.2-0.6,6.5-2.1,9.5-1.7c3.1,0.4,5.9,2.5,9.2,4c0.8-0.9,1.5-1.7,2.3-2.6c-2.7-4.7-8.4-8-5.9-14.3c6.7-1.5,12.7-4,19.3-3
	c1.9,0.3,4-1.1,6.5-1.9c-1.5-8.1-6-13.8-11.2-19.1c2,6.2,7.5,11,7.1,18.6c-4.3,0-8.5-0.2-12.5,0.1c-1.9,0.1-3.8,0.9-5.5,1.9
	c-2.6,1.4-4.3,1.1-5.5-1.6c-1.5-3.3-1.6-6.8-0.8-10.4c2.9-2.9,6.6-5.2,7.2-9.7c-2.5-3.2-5.6-3.4-8.3-0.2c-3.3,4.1-6.2,8.5-9.5,12.6
	c-2,2.5-4.2,5-6.8,6.8c-1.7,1.2-4.4,1.8-6.5,1.5c-4-0.5-7.1,0.9-9.9,3.5c-5.5,5.1-14.1,4.5-18.8-1.2c-1.5-1.9-3-3.7-4.3-5.8
	c4.1,1.7,5.6,7,11,6.9c4.6,0,8.9-0.2,12.2-4.2c-0.9,0-1.9-0.2-2.5,0.2c-3.1,1.8-6.2,1.8-9.7,1.6c-3.1-0.1-5.1-0.8-6.6-3.5
	c-0.8-1.4-1.9-2.6-3.1-4.1c0.8-1.6,1.4-3.3,2.5-4.5c6.7-7.5,13.7-14.6,23.8-17.2c4.6-1.2,9.4-2.5,14.8,0.8c-2.2,0.6-3.6,1-5.1,1.4
	c0.4-2.6-1.6-1.6-2.6-1.6c-10.8,0.6-18.9,6.2-25.7,14.1c-0.4,0.5-0.5,1.3-0.8,2c0.2,0.2,0.4,0.3,0.7,0.5c2.3-2,4.8-3.8,6.8-6
	c5.9-6.3,13.3-8.7,21.7-9.1c0.3,1.9,1.6,2.5,3.2,1.8c2.2-1,4.2-2.3,6.4-3.4c1.3-0.7,2.7-1.3,4.5-2.2c0,1.8,0,2.6,0,4.3
	c2.1-1.6,3.7-2.8,5.3-4c0-0.4-0.1-0.8-0.1-1.1c-3.5-0.5-7-1.4-10.5-1.4c-7.4,0.2-14.7,0.4-22,2.4c-4.6,1.3-8.6,3.1-12,6.3
	c-2.9,2.8-5.7,5.7-8.5,8.5c-1.1,1.1-2.2,2-3.7,2.6c4.3-8,10.9-13.6,19.3-17.8c-4.1-0.4-7.8-0.5-11.3-1.2c-3.5-0.8-6.8-2.3-9.4-3.2
	c-3.1,0.5-5.4,1-7.6,1.3c-7.2,1-13,5.2-18.7,9.2c-1.8,1.2-2.1,4.5-3.2,7c-2.5-1.1,0.1-4.1-1.3-5.9c-0.9-0.8-1.8-1.6-3.1-2.7
	c0.1-7.3-0.2-14.8,7.3-19.7c1.5-1,2.7-2.6,3.9-4c2.3-2.9,4.2-6.3,6.9-8.8c2.5-2.5,5.8-4.2,7.8-5.6c4.7-0.3,8.4-0.8,12-0.6
	c4,0.2,8,1.1,12,1.5c4.8,0.5,9.5,0.7,14.4-0.8c5.8-1.8,10.9-0.1,14.8,4.7c0.8,0.9,1.5,1.9,2.4,3c1.3-0.4,2.5-0.9,3.8-1.2
	c6.1-1.8,10.9,0.8,12.7,6.9c0.3,1.1,0.8,2.6,1.7,3.1c3.9,2.4,3.9,6.2,4,10c0.1,2.2-0.3,4.7,2.3,6.4c1.3-0.5,2.8-1,4.2-1.4
	c0-2.6,0-5,0-7.5c-0.2,0-0.5,0-0.7-0.1c-0.3,1.2-0.5,2.3-0.8,3.5c-0.3,0-0.5,0.1-0.8,0.1c-1.8-7.6-3.6-15.3-5.3-22.7
	c5.4-3.5,7.9-3.1,11.3,1.5c3,0.6,2.4-2.3,3.7-3.9c2.7-2.1,6-2.3,9.7-1.2c1.2,2,2.5,4.1,3.7,6.1c2.8,0.5,5.4,0.9,8.2,1.3
	c0.9-2,1.7-4,2.6-6.1c2,0,3.7-0.2,5.4,0c6.8,0.8,12.9-1.9,19.1-4c4.2-1.4,8.1-0.8,11.7,2.2c1.4,1.1,3.3,2.1,5.1,2.2
	c3.6,0.1,5.9,2,8.5,4c-0.3,2.1-3.5,3.5-1.1,5.8c2.6-0.5,5.2-0.9,8.2-1.5c4-5.7,10.3-8.9,18.4-12.3c2.8,0,7.3,0.2,11.8-0.1
	c4.1-0.3,8.1-1.3,12.2-1.6c6.6-0.4,13.4-1.9,19.8,1.4c0.6,0.3,1.3,0.4,2,0.4c8,0.3,11.6,5.7,14.6,12.4c0.8,0.5,1.8,1.1,2.9,1.7
	c0.1,0.5,0.3,1.1,0.3,1.6c-0.3,6-0.8,12.1-4,17.1c-3.1,5-7.6,8.7-13.6,10.8c-5.6,1.9-11.2,4.2-16,8.1c-3.6,3-8.3,4.2-13.2,3.1
	c-3.9-0.9-7.9-1.5-11.9-2c-1.3-0.2-2.8,0.4-4.6,0.7c0.8,2.3,1.4,4,2,5.6c1.2,0.9,2.3,1.6,3.6,2.5c0.4,3.9-0.8,7.4-2.7,10.7
	c-0.8,1.3-1.7,2.4-2.4,3.7c-3.5,6.3-1,11.7,5.7,14.2c7,2.6,13.7,6.3,20.4,9.5c0.9,0.4,1.8,0.9,3,1.5c1.6-3.7,3-7,4.5-10.5
	c-3.4-5.4-1.9-10.4,1.1-15.5c1.1-1.9,1.4-4.5,1.6-6.8c0.5-7.8,4.9-13.2,11.4-16.4c4.4-2.2,9.4-2.8,14.2-4.3c1.4-0.4,2.9-0.9,3.9-1.8
	c4.5-3.9,9.3-2.7,14-1c4.5,1.6,9,3.3,13.5,5.2c1.7,0.7,3.4,1.6,4.7,2.8c4.2,4.1,6.3,9.3,7.3,15c0.2,1.3,0.1,2.8-0.5,3.9
	c-2.2,4.2-4.8,8.3-7.9,13.7c0.6,3.4-0.4,8-3.4,12.1c-2.9,3.8-5.7,7.5-10.8,8.6c-0.4,0.8-0.9,1.5-1.1,2.2c-1.3,5.9-5.8,8.3-11,9.3
	c-2.5,0.4-5.3-0.5-7.9-0.8c-1.8-0.2-3.6-0.3-5.4-0.4c-0.1,0.4-0.2,0.9-0.3,1.3c2.1,0.6,4.3,1.3,6.4,1.7c7.3,1.2,9.4,3.6,9.5,12.1
	c-2.5,3.2-5.5,7.1-9,11.6c4.1,2,8.1,4.2,12.3,5.7c7.2,2.5,13.1,6.8,18.3,12.1c3.5,3.5,7.2,6.9,10.3,10.8c5.1,6.5,9.9,13.4,14.7,20.2
	c2.4,3.3,4.9,6.5,6.9,9.9c2.5,4.3,4.9,8.7,6.8,13.3c4.8,11.5,7.6,23.5,8.7,35.9c0.8,9.4-0.2,18.8-1.9,28.1c-0.5,2.9,0.1,5.2,1.5,7.6
	c2,3.6,4,7.3,5.9,11c1.4,2.7,1.7,5.6,0.7,8.6c-1.3,4-0.8,8-0.4,12c0.5,5.1,3,8.9,7.7,10.4c6.4,2.2,10.3,7,14.3,11.8
	c0.6,3.9,0,7.2-3.1,9.9c-3.9,3.4-6.2,7.6-6.3,13.1c0,2.7-1.1,5.4-1.7,8.2c-1-0.2-1.7-0.1-2-0.4c-2.5-2.1-4.3-10.1-2.8-13
	c1.4-2.7,3.2-5.3,4.7-8c1-1.8,1.6-3.9,2-4.9c-2.4-7-8.7-7.8-12.8-11.3c-1.5-1.2-3.2-2.6-3.8-4.3c-1.9-5-3.4-10.1-4.9-15.2
	c-1.1-3.6-1.7-7.3-3-10.8c-1.2-3.5-4.7-4.8-9.1-4.2c-8.3,1.2-16.6,2-24.9,0.8c-2.3-0.3-4.4-1-6.7-1.4c-1.5-0.3-3.1-0.3-5.1-0.5
	c-1.2,22.3-8.1,43-13.2,64.2c1.9,1.7,3.7,1.2,5.4-0.1c2-1.5,4-2,7.1-0.3c-5.8,2.3-10.8,4.8-16.4,5.2c-1.2-1.3-2.1-2.3-3.5-3.8
	c-1.4,0.6-3.3,0.9-4.6,1.9c-3.4,2.6-7.4,3.5-11.1,5.2c-0.1-0.3-0.3-0.5-0.4-0.8c6.2-4.2,12.3-8.4,19.3-13.1c0.1,0.4,0.4,1.6,0.6,2.8
	c0.4-0.3,0.9-0.5,1.3-0.8c0.8-3,1.7-6,2.6-9.2c-0.7-0.5-1.4-0.9-2.3-1.6c1.3-0.9,2.2-1.5,3.4-2.3c0.3-1.4,0.7-3,1.2-4.7
	c-0.6-0.5-1.2-0.9-2.1-1.6c1-0.4,2-0.7,2.9-1c1-2.3,1.9-4.7,3-7.3c-1.2-0.3-2.2-0.6-4.1-1c1.8-0.5,2.8-0.8,3.9-1.1
	c3.4-14,4.3-28.2,2.8-42.4c-0.9-8.5-1.8-17-3.4-25.4c-3.5-19.1-9.9-37.1-20.9-53.2c-5-7.3-9.8-14.9-15.6-21.5
	c-5.4-6.1-12-11.1-18.2-16.4c-2.5-2.2-5.4-3.9-8.4-6c-7.9-0.6-16.4-3.5-24.5,2.1c0.5,2.5,0.9,4.8,1.5,7.4c1.5-0.4,2.5-0.7,4-1.2
	c-0.5,1.9-0.9,3.3-1.5,5.1c4-0.3,4.5-3.8,6.4-5.7c0,3.3-0.1,3.5-6.7,11.1c0.7,1.8,2.2,2.1,3.4,0.9c1.8-1.8,3.2-3.9,4.6-5.9
	c0.5-0.7,0.6-1.8,1.1-2.6c0.8-1.6,1.7-3.2,2.9-5.4c1.2,2.8,1,5-0.3,6.9c-1.4,2.1-3,4.1-4.8,6c-2.1,2.2-4.7,4-5.4,7.3
	c-0.2,0.7-1.4,1.2-3,2.4c-3.3-27.6-10.9-52.8-27.8-75.8c-1.4-0.8-4-2.4-6-3.7c-8.4,2.8-16.1,3.4-24.1,2c-1.3-0.2-2.6-0.8-3.7-1.5
	c-6.8-3.8-12-3.1-17.2,2.8c-8,8.9-15,18.5-19.9,29.6c-4.1,9.5-7.4,19.3-10.3,29.2c-2.9,9.7-4.9,19.6-6.5,29.5c-0.6,3.8-1,7.7-1,11.6
	c-0.1,7.8-0.1,15.6,0.4,23.4c0.4,5.3,2,10.5,2.7,15.9c1.5,12.4,7.5,23.2,12.4,34.3c3,6.8,7.7,12.9,11.3,19.5
	c2.7,4.9,5,10.1,7.2,15.3c1.5,3.5,2.9,7.2,4,10.9c0.8,2.7,1.1,5.6,1.2,8.3c0.1,12,4.8,22.4,11.2,32.2c0.3,0.4,0.6,0.9,0.4,0.6
	c0.8,3.3,1.2,5.8,2,8.2c2.4,6.7-1.2,11.3-4.9,16c-0.7,0.8-1.4,1.6-1.8,2.7c3.7-1,6.3-3.6,8.1-6.8c4.8-8.6,3.9-17.2-0.7-25.7
	c-3-5.5-6-11-9.2-16.8c1.6-4.9,3.2-9.7,4.8-14.5l-0.1,0.1c2.5-2.8,4.9-5.6,7.4-8.4c7.5-8.4,15.3-16.6,22.5-25.2
	c4.7-5.6,9.3-11.6,12.8-18c4.7-8.4,8.5-17.4,12.3-26.3c1.9-4.5,2.8-9.4,4.2-14.1c0.3-1,0.5-2.1,0.8-3.1c1.7-6.6,3.7-13.1,5-19.8
	c0.9-4.7,1-9.5,1.4-14.3c0.5-5.5,0.9-11,1.3-16.3c2.6-1.3,4.6-2.3,6.6-3.3c0.2,0.3,0.5,0.6,0.7,0.8c-1.6,1.6-3.1,3.2-4.9,5
	c1.8,0.4,3.5,0.9,6,1.5c-1.7,2-3,3.5-4.4,5c0.1,0.2,0.2,0.4,0.3,0.6c2.1-1.1,4.5-1.8,6.3-3.3c1.9-1.5,3.4-3.7,4.9-5.6
	c1.5-1.9,2.9-4,4.8-5.6c-2.8,7.7-9.5,12.6-14.4,19.3c3.5,0.4,5.3-1.7,7.1-3.2c4.4-3.9,7.6-8.7,10.1-13.9c0.6-1.3,1.6-2.4,2.5-3.5
	c0.4,0.3,0.8,0.6,1.3,0.8c-2.9,4.6-5.4,9.6-8.8,13.8c-3.5,4.3-8,7.7-12.3,11.8c4.1,2.7,5.6-0.7,7.6-1.8c2.2-1.2,4-3.3,6.3-4.6
	c-1.5,4.4-6,5.4-8.9,8.2c-3,2.9-6.1,5.8-9.8,9.3c3.3-1.1,6-2,8.6-2.9L281.3,224.6z M334.9,194c-1.9,0.5-4.3,0.1-5.3,2.5
	c3.2,1.1,4.5,0.4,5.2-2.6c2,0.1,3.5-0.6,4.7-2.7C336.7,190.8,334.9,191,334.9,194z M115.3,139.9c-1.3-0.4-2.6-0.9-4-1.3
	c-0.1,0.3-0.2,0.6-0.3,1c1.6,1.1,3.1,2.3,4.7,3.4c0.2-0.2,0.3-0.3,0.5-0.5c-0.4-1-0.7-1.9-1.1-2.9c0.5,0.1,0.9,0.1,1.5,0.2
	c-1.2-4-1.3-4.1-4.1-4.4C113.5,137,114.4,138.5,115.3,139.9z M113.4,13.5c-1.2-1.3-2.1-3.2-4.7-1.9c1.6,0.6,3.2,1.2,4.8,1.8
	c0.8,3.1,2.7,5.3,5.5,6.7c0.2-0.7,0.2-1.3-0.1-1.6C117.2,16.8,115.3,15.1,113.4,13.5z M316,170.2c3.8-0.5,7.1-3.6,7.9-7.2
	c-0.2-0.2-0.5-0.5-0.7-0.7c-2.4,2.7-4.8,5.4-7.1,8c-1.4,0.9-2.8,1.7-4.3,2.6c0.2,0.2,0.3,0.5,0.5,0.7
	C314.3,173.3,316.3,173.1,316,170.2z M76.1,196.6c-0.8,0.2-1.6,0.4-2.6,0.7c6.6,6,8.9,7.2,13,6.9c-4.1-2.1-8.4-3.5-10.5-7.7
	c1.7,0.5,3.5,0.8,5.2,1.4c1.8,0.7,3.5,1.6,5.2,2.4c0.2-0.4,0.3-0.7,0.5-1.1c-3.1-1.9-6.1-3.7-9.6-5.8
	C76.7,195,76.4,195.8,76.1,196.6z M322.6,171.3c-3.6,1.4-7,3.3-10.7,5.9c4.6,0.9,9-2,10.6-6c4.2-0.9,6-3.9,7.1-7.4
	c-0.2-0.2-0.4-0.4-0.7-0.6C326.9,165.9,324.8,168.6,322.6,171.3z M88.9,121.2c2.6,3.8,7.2,3,10.7,4.7
	C96.9,122.2,92.8,121.9,88.9,121.2c-0.2-0.4-0.1-1.2-0.4-1.3c-2.4-1-4.8-2-7.3-2.7c-1-0.3-2.2,0.3-3.3,0.5c0,0.3,0,0.7,0,1
	c1.3,0.3,2.7,0.7,4,1c0.9,0.8,1.7,1.6,2.4,2.3C86,121.7,87.4,121.5,88.9,121.2z M372,287.7c5.5-0.7,8.1-5.3,11.7-8.5
	c1.1-1,1.7-2.7,2.5-4c-0.3-0.2-0.5-0.3-0.8-0.5c-4.4,4.4-8.8,8.8-13.2,13.1c-1.8,1.1-3.7,2.2-5.5,3.4c0.2,0.3,0.4,0.6,0.6,0.8
	C369.4,291.3,371.7,290.7,372,287.7z M68.9,224.8c-5.7-0.4-8.7-5.5-13.5-8.2c-0.6,0.8-1.1,1.5-1.7,2.3c4.5,2.9,8.6,5.6,12.8,8.2
	c4.2,2.6,8.5,5.3,14,6.1c-0.5-2.9-2.7-2.9-4.3-3.5c-2.9-1.2-5.8-2.1-7.4-5.1c3.8,0.9,7.5,1.8,11.3,2.6c0.1-0.3,0.2-0.7,0.3-1
	c-2.6-1.2-5.4-2.3-7.9-3.6c-2.7-1.5-5.3-3.2-7.9-4.8c-2.2-1.4-3.8-4.3-7.1-3.4c0.3,0.8,0.8,1.1,1.2,1.5
	C62.1,218.9,65.5,221.8,68.9,224.8z M344.5,75.2c1.1-1.3,2.3-2.6,3.4-3.9c-0.2-0.2-0.4-0.4-0.6-0.7c-1.4,1.2-2.9,2.3-4.8,3.8
	c1.2,0.3,1.6,0.5,2.1,0.6c-1.5,0.7-3,1.5-5.2,2.6c-2,2.7-4.5,6.2-6.9,9.7c-0.1-0.1-0.3-0.1-0.4-0.2c-0.3,1.7-0.6,3.3-1,5.3
	c2.1,0,3.8,0,5.5,0c0-0.2,0.1-0.4,0.1-0.7c-1.4-0.5-2.7-1-4.1-1.5c0-0.4-0.1-0.7-0.1-1.1c5.9-0.7,11.6-1.7,16.4-5.6
	c-3.2,0.8-6.5,1.6-9.7,2.4c-0.1-0.3-0.2-0.7-0.3-1c4.9-2,10.6-2.5,13.2-6.4c4-1.4,7.1-2.4,10.2-3.5c-0.1-0.4-0.2-0.7-0.4-1.1
	c-4.6,1.5-9.7,0.9-13.7,4.7c-2,2-4.7,2.9-8.4,2.6c5.8-3.1,10.9-5.8,16.5-8.8c-1.4-0.6-2.4-1-2.8-1.1C350.1,72.8,347.3,74,344.5,75.2
	z M316.9,126.6c2.6-0.1,2.9,2.2,3.6,3.7c1.5,0.8,2.8,1.5,4,2.1c-0.7,3.9,3.2,5,4.5,7.7c-0.8-3-1.8-5.9-4.6-7.6
	c-1-4.2-7.3-12.6-9.8-13.4c-2.2,5.5-4,11.1-6.8,16.3c-2.4,4.5-5.3,8.8-8.8,12.4c-3.7,3.8-8.5,6.6-12.8,9.7c-1.9,1.3-3.8,2.5-5.8,3.8
	c0.2,0.4,0.4,0.9,0.5,1.3c1.3-0.2,2.9,0,3.9-0.6c4.7-3,9.6-6,13.9-9.6c4.5-3.8,8.7-8.2,10.9-13.7c1.8-4.4,2.9-9.1,4.3-13.7
	c0.2-0.7,1-1.3,1.9-2.4C316.4,124.4,316.7,125.5,316.9,126.6c-1.6,1.9-1.8,4-1,6.6c0.8-0.9,1.4-1.5,1.9-2.1
	C317.4,129.4,317.1,128,316.9,126.6z M23.3,338.1c-1.2,2.4-2.4,4.9-3.7,7.7c2.2,0.8,3.7,1.4,5.4,2c8.1-8.7,18.6-10.7,30.6-10.3
	c-0.9-0.6-1.2-0.9-1.5-1c-8.9-2.4-17.6-5.1-24.1-12.2c-0.8-0.9-2.3-1.1-3.8-1.9c-0.1,1.5-0.2,2.3-0.2,3c3.1,2.1,5.9,4.2,8.8,6.1
	c2.9,1.9,7,1.5,9.6,4.7c-0.7,0.3-1.1,0.6-1.4,0.6c-0.9-0.1-2,0-2.8-0.4c-4.8-2.5-9.6-5.1-14.9-8.1c-0.6,3.2-1.3,6.5-2,9.9
	L23.3,338.1z M241,54c2.6-3.4,6.4-5.7,8.9-10.1c-5.7-0.6-10.6-1-16.3-1.6c-0.6,0.4-1.8,1.2-3,2c-4.6,2.8-5.8,5.8-4.6,10.8
	c0.3,1.5,0.1,3.1,0.2,4.7c0,0.3,0.1,0.5,0.3,0.9c0.7,0,1.4,0,2.1,0c0.6,1.5,1.2,2.8,1.8,4.2c-4.2,2.5-8.6,2.3-13.5,1.2
	c0-11.6-3.1-22.8-2.9-34.1c1.3-0.4,2-0.7,3.1-1.1c-1.3-0.4-2.3-0.7-3.5-1.1c0-6.5,0-13,0-20c-1.9,0.2-3.3,0.4-5.3,0.6
	c0.7,13,1,25.5,2.7,38.1c-1.7-1.5-2.8-3-4-4.6c-1.9-2.5-4.4-2.9-7.2-2.2c-4.7,1.2-9.2,6.5-10,11.7c0.7,1.1,1.5,2.3,2.1,3.2
	c0.2,2.5,0.3,4.5,0.5,6.7c2.1,0.2,3.5,0.3,5.3,0.5c0.7,1.2,1.5,2.5,2.8,4.5c7.3,0.2,15,0.7,22.8,0.5c9.8-0.2,19.6-0.8,29.4-1.6
	c5.1-0.4,10.2-1.9,14.7-2.7c2.7-6.8,2.2-9.2-1.9-10.1c-0.3,2.5-0.5,5-0.8,8c-2.4,0.5-4.7,1.1-6.7,1.5c-0.6-3.5-1-6.2-1.4-8.9
	c-1.2-0.8-2.4-1.6-4.2-2.8c-2.1,4.1-4,7.9-6.2,12.2c-1.4,0.3-3,1-4.7,1c-3.7,0-7.5-0.3-11.2-0.5c0.7-2.9,1.4-5.8,2.1-8.8
	c0.2,0,0.3,0,0.5,0c0.3,2.6,0.5,5.2,0.8,7.8c0.3,0,0.6,0,1,0c0.4-1.1,0.8-2.2,1-3.4c1.1-4.6,2.4-9.1,6-12.5c0.7-0.6,1.7-0.8,2.6-1.3
	c-1.2,2.8-2.1,5.1-3.1,7.3c-2.1,0.7-2.6,2.3-1.9,4.6C239.8,57.1,240.4,55.5,241,54z M55.2,255.6c-1.5-0.8-3.1-1.6-4.5-2.5
	c-3.8-2.5-7.5-5.1-11.6-8c-0.4,1.3-0.7,2.2-0.9,2.8c2.7,2.4,5.1,4.5,7.9,6.9c-4.1,0.2-5.6-4.7-9.7-3.5c6.2,9.8,34.7,25.7,42.3,23.3
	c-8.1-3.6-16-6.7-22.4-12.3c3.5,1.4,6.8,3.3,10.2,4.7c3.5,1.4,7.2,2.1,10.8,3.2c0.2-0.5,0.4-1,0.5-1.5c-1.6-0.7-3.1-1.6-4.8-2.2
	c-6.6-2.7-12.9-6-18-11c1.4,0.4,2.8,0.6,4.1,1.1c5.1,2.3,10.2,4.7,15.3,7c1.8,0.9,3.6,1.1,5.1-0.7c2.3,1.7,0.8,4.2,1.1,6.3
	c0.5,3.5,0,7.1-0.1,11.5c-8.9-3.2-16.6-7-23.9-11.2c-7.3-4.2-14-9.5-21-14.3c-0.3,0.3-0.6,0.6-0.9,0.9c0.9,4.6,7.1,5.1,8.7,10.2
	c-4.1-1.1-6.1-5.2-11-5.1c2.8,2.9,4.9,5.1,7.1,7.3c-0.2,0.2-0.4,0.4-0.6,0.6c-2.4-1.3-4.7-2.6-7.1-3.9c-0.3,0.3-0.5,0.6-0.8,1
	c2.3,4.6,8.1,6.1,9.9,11.4c-3.5-2.3-7-4.6-11.1-7.3c0.3,3.6-3.5,5.5-1.4,8.8c1.4,0.3,2.7,0.6,4,0.9c1.4,0,2.8-3,4.4-0.1
	c-0.8,0.7-1.5,1.4-2.4,2.2c0.8,1.4,1.5,2.7,2.7,4.8c-3.5-2.3-6.2-4-9.4-6.1c-0.6,2.8-1.1,5.3-1.6,7.5c16.1,15.2,34.4,25.7,55.7,30.7
	c-6.1-3.3-12.6-6-18.9-9.1c-6.4-3.2-12.6-6.7-18.7-10.3c-6-3.6-11.5-7.9-15.7-13.6c1.5,0.3,2.8,0.9,3.7,1.9
	c7.2,7.4,15.9,12.7,25.4,16.6c2,0.8,3.9,1.9,5.7,3.1c6.4,4.2,13.4,5.9,21.3,6.1c0.5,2.8,0.9,5.7,1.5,8.5c2.2,9.9,3.5,19.8,1.1,30
	c-0.7,3.2-0.5,6.7-0.9,10c-0.4,3.5,0,7.4-1.6,10.2c-2.6,4.7-6.1,9.2-10.1,12.9c-4.6,4.4-7,9.7-8.6,15.6c-0.2,0.8,0.3,1.9,0.5,2.9
	c0.3,0,0.7-0.1,1-0.1c0.4-1.8,0.4-3.7,1.3-5.3c4.3-7.5,9.6-14.3,15.8-20.3c4-3.9,5.3-8.9,6.7-13.9c1.5-5.5,3-11,4.5-16.4
	c0.2-0.7,0.7-1.5,1.3-2c3.7-3.6,7-7.6,11.2-10.4c5.1-3.4,10.9-5.7,16.5-8.4c7.2-3.5,14.9-6.3,21.2-11.5c4.1-3.4,7.9-7.3,12.4-10.1
	c4.7-2.9,5.4-8,9.5-12.2c-3.2-0.2-5.3-0.3-7.4-0.5c-4.9-0.5-10.1-0.3-14.8-1.6c-11.7-3.1-23.2-6.9-34.7-10.5c-1-0.3-1.7-1.5-2.5-2.3
	l-0.1,0.1c1.3,0.2,2.7,0.4,3.9,0.7c6.2,1.7,12.4,3.4,18.6,5.3c10.5,3.3,21.2,5,32.1,5.6c0.9,0.1,1.9-0.2,2.9-0.3c0-0.3,0-0.6,0-0.9
	c-9.2-1.6-18.6-2.7-27.7-5c-9.2-2.4-18.1-6.2-27.1-9.3c0.1-0.4,0.2-0.7,0.2-1.1c0.6-0.1,1.2-0.3,1.7-0.2c4.8,1.3,9.7,2.5,14.3,4.2
	c10.2,3.7,20.7,5.8,31.4,7c1.1,0.1,2.3-0.2,3.4-0.3c-8.4-2.6-16.9-3.9-25-6.4c-8.2-2.5-16.1-6.1-24.1-9.2c1.1-0.7,2-0.9,2.8-0.6
	c5.3,1.8,10.6,3.8,16,5.4c2.8,0.8,5.8,0.7,8.6,1.1c0.6,0.5,1.2,1.3,1.8,1.5c5.5,1.1,11,2,16.6,3c0.1,0,0.3-0.4,0.5-0.8
	c-0.4-0.3-0.8-0.8-1.2-0.9c-5.9-0.9-11.9-1.8-17.8-2.7c-1.4-0.8-2.8-2-4.4-2.5c-5.5-1.8-10.4-4.4-15-7.9c2,0.1,3.9,0.7,5.6,1.5
	c1.6,0.7,3,2,4.6,2.4c6.7,1.9,13.5,3.8,20.2,5.4c1.9,0.5,4.2,0.8,6.5-1.1c-7.5-1.7-14.7-2.9-21.5-5.1c-6.8-2.2-13.3-5.6-19.9-8.4
	c0.1-0.4,0.2-0.8,0.4-1.1c12.8,4.6,25.2,10.9,39.3,10.1c-10.3-2-20.4-4.6-29.5-10.1c9.1,0.9,17.2,7.9,27.1,4.7
	c-6.6-2.4-14.3-1.7-19.9-7.1c6.2,2.1,12.5,2.8,19.7,2.8c-2-2.9-4.3-2.4-6.3-2.8c-3.3-0.7-6.6-1.1-9.9-2c-1.2-0.3-2.1-1.6-3.2-2.5
	l-0.1,0.1c6.2,0.5,12.4,2.7,18.8,1c-6.6-3.4-14.8-1.6-20.8-7c6.6,2.2,13.3,3,20.3,1.7c-1.3-1-2.7-1.6-4.1-1.9c-4.3-1-8.7-1.8-13-2.8
	c-0.7-0.2-1.4-0.8-2-1.2c0.1-0.3,0.2-0.5,0.3-0.8c3.1,0.6,6.2,1.3,9.3,1.7c2.9,0.3,6.1,1.8,8.9-0.8c-5.8-2-12.3-1.9-17.4-5.9
	c5.5,0.4,10.9,2.1,16.5,0.5c-4.4-3.6-10.5-1.7-14.7-5.6c5,0.3,9.9,0.6,14.9,0.9c0.1-0.4,0.2-0.7,0.3-1.1c-3.6-4-9.9-1-13.7-4.8
	c2.2-0.2,4.3,0.1,6.4,0.2c2.2,0,4.6,1.6,7.2-1.3c-5.3-1.4-10-2.7-14.7-4c0.1-0.4,0.2-0.7,0.2-1.1c2.5,0.3,4.9,0.7,7.4,0.8
	c2.3,0.1,4.9,1.1,7.8-1c-4.8-2.3-10.2-1.4-14-5.4c4.9-0.5,9,2.9,13.9,1c-1.6-3.2-4.3-3.9-7.3-4.3c-2.8-0.4-5.5-1-8.3-1.7
	c-0.6-0.1-1-1.1-1.5-1.7c0.2-0.2,0.3-0.5,0.5-0.7c5.4,1.1,10.8,2.2,16.5,3.4c0.2-1.4,0.2-2.3,0.3-3.1c-3.8-1.8-8.5-0.1-12-4.1
	c4.8,0.1,8.9,1.9,12.9,0.8c0.1-0.4,0.2-0.9,0.3-1.3c-3.6-1.1-7.2-2.2-10.8-3.3c0.1-0.4,0.2-0.8,0.3-1.2c3.6,0.6,7.2,1.2,11.1,1.9
	c-0.2-3-1.8-3.3-3.4-3.4c-3.6-0.1-6.5-1.8-9.7-4.5c5,0.4,9.2,3.7,14.5,1.6c-3-3.9-8.4-2.1-11.6-6.2c4.3,0.8,7.7,1.4,11.2,2.1
	c0.9-2.8-0.4-3.4-2.1-3.9c-2.2-0.6-4.6-0.7-6.6-3.2c3.9,0.4,7.2,0.7,10.5,1.1c0.1-0.4,0.2-0.9,0.3-1.3c-3.5-3.3-8.9-3-12.5-6.1
	c2.7,0.2,5.2,0.8,7.8,1.3c2.4,0.5,5,1.8,7.7-1.2c-10.9-3.2-21.3-6.4-30.7-12c2,0,3.8,0.5,5.4,1.3c6.9,3.4,14.4,5.1,21.8,7.1
	c1.4,0.4,3,1.4,4.6-1.4c-3.1-1.1-6-2.1-8.8-3c-4.1-1.4-8.2-2.7-12.2-4.2c-0.7-0.3-1.2-1-1.8-1.5c8.1,0.8,15.2,5.5,23.5,4.8
	c-1.4-1.4-3-2.2-4.6-2.8c-3.4-1.2-6.9-2.2-10.3-3.4c-1.9-0.7-3.7-1.6-5.5-2.6c-1.6-0.9-3.1-1.9-5-3c8.2,2.6,15.8,5,23.5,7.4
	c1.6,0.5,3.4,1,5-2.1c-11.6-1.3-21.4-6-30.3-12.5c2,0.2,3.9,0.8,5.5,1.8c6.7,4.2,14.2,6.3,21.9,7.9c1.2,0.3,2.6-0.1,3.9-0.2
	c0.1-0.4,0.1-0.8,0.2-1.2c-4.2-2.8-9.6-2.5-14-4.7c-4.5-2.2-9.1-4.2-13.6-6.3c0.2-0.4,0.3-0.8,0.5-1.1c2,0.7,4,1.2,5.8,2.2
	c6,3.2,12.4,5.2,19,6.6c1.4,0.3,3.1,1.2,4.6-1.6c-6.8-2.3-14-3.7-19.6-8.3c1.5,0.1,2.9,0.7,4.2,1.1c4.6,1.5,9.2,3,13.8,4.3
	c1.1,0.3,2.5-0.2,3.8-0.4c0-0.5,0.1-0.9,0.1-1.4c-2.5-0.8-4.9-1.5-7.3-2.4c-2.5-1-4.9-2.1-7.4-3.2c-2.2-1-4.4-2.2-6.7-3.2
	c0.2-0.4,0.4-0.8,0.6-1.2c7.3,2.9,14.3,6.4,22.3,7.4c1.6-3.1-0.5-3.6-2.5-4c-5.2-1-9.8-3.6-14.4-6.1c3-0.8,5.3,0.4,7.7,1.7
	c4.1,2.3,8.5,2.3,13.1,1.9c-3.6-4.6-10-3.5-13.9-7.1c0.1-0.3,0.2-0.6,0.3-0.9c5.3,1.3,10.5,2.6,15.8,4c0.2-0.4,0.4-0.8,0.6-1.2
	c-0.9-1.2-1.8-2.4-3-3.8c1.8,0,3.2,0,4.8,0c-0.1-3-2.2-3.8-4.2-4.5c-4-1.5-8.2-2.7-12.3-3.9c-1.1-0.3-2.5-0.4-3.5,0
	c-4.4,2-9.1,3.7-12.8,6.7c-5.8,4.6-11.8,9.1-17,14.7c-7.5,8-13.6,16.8-19.9,25.6c-4.2,5.9-7.4,12.5-10.7,18.9
	c-3.5,6.7-6.7,13.4-9.8,20.3c-2,4.3-3.5,8.7-5.5,13.8c-7.3-4.6-13.8-8.7-20.7-12.9c-0.3,0.3-0.9,0.9-1.9,2c7,4.1,13.7,8,20.9,12.3
	c1.2,8.6-0.1,17.4-3.3,26.5c-6.6-2.4-12.3-5.9-17.6-10c1.2,0.1,2.3,0.5,3.4,1c2.9,1.4,5.8,2.9,8.7,4.2c2.5,1.1,2.9,0.9,4.5-0.8
	c-3.2-1.5-6.6-2.7-9.6-4.6c-6-3.7-12.8-6.5-16.9-12.7c1.1,0.6,2.2,1,3.1,1.7c6.6,4.6,13.3,9,21,11.6c1,0.3,2,0.4,3.4,0.6
	c-0.3-1-0.4-1.3-0.5-1.4c-0.5-0.4-1.1-0.7-1.7-1c-8.4-3.2-15.6-8.1-22.5-13.7c-0.6-0.5-1.5-0.7-3-1.3c0.2,1.7,0.3,2.7,0.4,3.7
	c-3.5,0.4-3.5,0.4-3,4.4c-1,0.3-2,0.5-3,0.8c-0.4,0.8-0.8,1.4-1,2c-0.2,0.7-0.2,1.6-0.3,2.2c9.5,9.3,19.7,17.2,33.2,19.6
	c0-0.9,0.1-1.3,0-1.4c-0.5-0.4-1-1-1.6-1.1c-8.7-2.6-15.7-8-23-13.1c-2.3-1.6-4.4-3.5-5.7-6c1.1,0.1,1.9,0.5,2.5,1
	c6.5,5.9,13.6,10.9,22,13.9c2.7,1,5.2,2.4,7.2,3.4c0.3,3.4,0.5,5.9,0.7,7.8c-0.5,2.2-0.8,3.9-1.2,5.6c-14.3-4.5-25.8-13.9-38-22.6
	c-0.7,0.9-1.1,1.4-1.7,2.1c4.5,3.5,8.9,6.7,13.2,10.1C54,253.5,54.5,254.7,55.2,255.6z M259.6,83.1c1.2,0.8,2.5,1.6,3.7,2.5
	c0.3-0.2,0.6-0.4,0.9-0.6c-0.1-1.5-0.1-3-0.2-4.6c2-1.8,5.6-0.3,7.5-3.4c-3.9-1.1-7.2,0.4-10.4,1.4c-10.2,3.3-20.7,4.7-31.3,4.7
	c-10.2,0-20.1,0.7-29.9,3.6c-4.3,1.3-9,2.2-13.5,2.1c-7.5-0.2-15,2-22.5,0.1c-0.6-0.1-1.3,0.2-2.7,0.4c0.4,4.4,0.8,8.8,1.2,13.6
	c1.1,0,2.1,0,3.3,0c-0.2-4-0.4-7.7-0.5-11.6c1.9,0,3.7,0,6.2,0c0.1,9-0.5,17.8-4,26.8c1.8-0.4,3-0.2,3.5-0.8c2.6-2.8,5.1-5.8,5-10.1
	c0-2.1,0.6-4.2,0.9-6.3c0,0,0.1,0,0.1,0c0.3-2.4,0.6-4.8,0.8-7.2c-1.1-0.4-2.2-0.8-3.2-1.2c4.7-1,9.2-2.3,13.3-0.6
	c-3.2,9.2-6.2,18-9.6,27.9c1.8-0.5,3.2-0.5,3.6-1.1c2.4-3.6,4.7-7.4,6.9-11c-0.5-1.1-0.9-1.8-1.2-2.4c3.1-4.1,2.5-9,3.3-14
	c2.7-0.7,5.6-1.4,9.1-2.3c0.1,2.5,0.2,4.1,0.3,5.8c0.1,0,0.3-0.1,0.4-0.1c1.4,4.7,2.8,9.4,4.3,14.6c1.2-0.4,2.3-0.7,2.8-0.9
	c0-2.6,0-4.5,0-5.5c-1.4-4.1-2.5-7.5-3.7-10.9c0.2-0.1,0.4-0.1,0.5-0.2c-0.7-1.1-1.4-2.2-2.3-3.7c1.4-0.2,2.4-0.3,3.1-0.3
	c1.7,2.3,3.1,4.3,4.5,6.2c3.1-2-0.1-6,2.8-7.6c0.4,0.1,0.9,0.2,1.3,0.3c-0.6,7.6-1.2,15.2-1.9,23.3c2.7-0.6,4.4-1,6.4-1.5
	c-0.3-3.5-0.6-6.5-1-9.7c1.5-4.5,2.5-9.1-2.4-13.5c9.9-0.3,19-0.6,28.9-0.9c0,2.9-0.1,5.2,0,7.5c0.4,6.5,0.8,13.1,1.2,19.6
	c0.1,2,0.8,3.3,3.1,3.9c0.6-0.7,1.2-1.5,1.9-2.4c-3.2-5.1-2-10.1-0.6-15.2c1.4,0,2.6,0,3.6,0c1.8-0.9,3.3-1.6,4.9-2.5
	c-0.7-1.7-1.4-3.4-2.2-5.2c-0.9-0.1-1.8-0.1-2.9-0.2c-0.1,0.9-0.1,1.5-0.2,2.1c-0.6,3.3-3.2,4.8-4.9,2.6c0.3-0.9,0.6-1.8,0.7-2
	c-0.8-3.2-1.4-5.6-2-7.9c2.2-0.9,3.8-1.7,5.4-2.2c2.6-0.7,5.3-1.4,7.7,0.6L259.6,83.1z M290.5,126.3l-0.1-0.1
	c-3.1,8.1-10.2,12.1-17.1,16.8c-0.1,0.9-0.1,1.9-0.2,3.3c1.8-0.2,3.3-0.4,5-0.5c-1.1,3.2-7.5,1.2-6.1,6.5c4.6,0.4,13.9-6.7,21-15.6
	c5.7-7.1,9.4-15,11.3-24.5c2,4.5,0.3,8.2-1.1,11.2c-6.8,15.3-17.2,27.1-33.7,32.5c1.4,2.4,2.5,4.3,3.9,6.8c4.6-1.4,8.6-4.2,12.5-6.7
	c14.7-9.6,24-23,26.1-41.3c-0.5-0.5-1.3-1.4-2.3-2.1c-3.7-2.8-7.4-5.8-11.3-8.2c-3.8-2.3-7.8-4.1-11.9-5.7c-2.5-1-5.2-1.3-7.9-1.9
	c0-0.2,0.1-0.4,0.1-0.6c-2.1-0.3-4.1-0.6-5.9-0.9c-3.2,3.9-4.5,9.3-10.6,10.1c0.4-3.2,4.4-4.5,3.5-8.6c-4.9,2.8-9.4,5.3-14.4,8.2
	c4.1,4.1,9.5,4.1,13.8,7c-1.4,1-2.4,1.8-3.5,2.6c0.1,0.3,0.1,0.6,0.2,0.9c1.8,0,3.7,0.2,5.4,0c4.6-0.8,8.9-0.8,11.6,4
	c1.6-0.5,2.9-1,4.3-1.4c0.1,0.1,0.2,0.3,0.3,0.4c-1.3,1.1-2.5,2.1-4.1,3.5c1,5.4-1.2,9-7.2,10c-0.5,0.1-0.8,1.1-1.2,1.7
	c0.1,0.3,0.3,0.6,0.4,0.9c2.1-0.4,4.2-0.8,7.2-1.3c-2.9,1.5-4.9,2.6-7.1,3.8c0.8,2.8,2.5,3.2,4.6,1.9c1.6-1,3-2.3,4.4-3.5
	C283.9,132.4,287.2,129.4,290.5,126.3z M371,169.9c-0.4,0-0.7,0-1.1,0.1c0,3.4,0.1,6.8,0,10.2c-0.1,3.3,0.1,6.7-1.4,9.8
	c-0.5-7.8-1-15.6-1.5-23.4c-1.6-0.3-2.6-0.5-3.2-0.6c-0.8-1.4-1.5-2.3-2.1-3.3c-0.3,0.1-0.6,0.2-0.8,0.3c-0.3,1-0.5,2-0.9,3.3
	c-1-2.2-1.8-3.9-2.2-4.9c-1.9-1.7-3.3-2.9-4.6-4c-0.7,0.2-1.5,0.5-2.2,0.7c-0.6-1.2-1.1-2.2-1.3-2.8c-3.9-1.8-7.2-3.4-10.6-5
	c-0.2,0.2-0.3,0.4-0.5,0.6c1.9,4,3.8,8,5.7,12c0.8,0.2,1.7,0.3,2.8,0.6c-2.3,5.4-0.7,10,1.7,14.6c-0.5,3.1,0,6.1,2.1,9.4
	c1-2.3,1.7-4.1,2.5-5.8c0.2,0.1,0.5,0.2,0.7,0.3c-0.6,2.5-1.3,5.1-2,8.2c-0.4,0.6-1.2,1.7-1.9,2.6c0.4,3.4,0.8,6.5,1.2,10.2
	c1.4-1,2.3-1.6,3.1-2.2c0.3,0.2,0.6,0.4,0.9,0.6c-1.2,2.6-2.3,5.3-3.5,7.9c-0.2-0.1-0.5-0.2-0.7-0.3c0,2.8,0,5.6,0,8.3
	c1.2,0.2,2.3,0.3,4.2,0.6c-1.5,2.1-2.7,3.8-4.1,5.8c0,1.6,0,3.5,0,5.8c4.1-1,4.3-5.1,7-7c-1.5,4.7-3.5,9.1-6.9,13.1
	c0.6,0.9,1.1,1.7,1.8,2.9c3.9-4.6,5.4-10.6,10.4-13.9c-0.7,4.9-5.3,8.2-5.9,13c0.3,0.2,0.7,0.5,1,0.7c2.3-2.4,4.5-4.8,6.8-7.2
	c0.2,0.2,0.4,0.3,0.6,0.5c-3.5,5.8-7.1,11.6-10.6,17.4c0.3,0.3,0.5,0.5,0.8,0.8c1.2-0.4,2.4-1.1,3.6-1.3c1.2-0.2,2.7-0.1,3.8,0.4
	c0.5,0.3,0.5,1.8,0.5,2.8c0,0.3-0.7,0.6-1.1,0.9c-0.9-0.8-1.7-1.5-2.6-2.3c-1.4,0.9-2.7,1.8-4,2.6c1.4,3.7,3.7,0.9,5.7,1.2
	c1.2,3.8-2.8,3.5-4.3,5.3c0.6,0.7,1.1,1.4,1.8,2.3c3-3.3,5.4-6.7,8.5-9.4c3.1-2.7,3.4-7.8,8-9.2c-5.5,7.2-8.8,16.1-16,22.3
	c1,0.1,2.1,0,2.6-0.6c2.6-2.6,4.9-5.3,7.5-7.9c2.9-3.1,4.4-7.6,9.2-9.7c-1,1.8-1.6,3.2-2.4,4.4c-1,1.4-2.8,2.6-3.1,4.1
	c-0.7,3.3-3,5.3-5.2,7.5c-2.3,2.2-4.7,4.3-7.7,7c5.4-1.4,8.3-4.4,10.9-8.1c1.5-2.2,3.5-4,5.3-6c0.2,0.2,0.4,0.4,0.6,0.6
	c-1.5,2.6-2.9,5.1-4.4,7.7c0.2,0.2,0.4,0.3,0.6,0.5c1.7-1.4,3.4-2.8,5.1-4.1c0.2,0.1,0.3,0.2,0.5,0.3c-1.6,2.8-3.2,5.6-4.7,8.5
	c9.9-9.4,18.9-19.2,21.4-33.4c-1.1,1.1-2.3,2.2-4,3.9c1.4-4.7,3.1-8.5,3.5-12.5c0.3-3.9-0.7-8-1.2-12c-0.3-0.1-0.5-0.2-0.8-0.3
	c-2.8,7.5-3.7,15.9-9.6,21.9c2.3-6.6,4.7-13.2,7.1-20.1c-1.6-0.3-2.4-0.4-3.4-0.6c0.5-4.1,1.1-7.9,1.5-11.7c0.5-3.9,0.6-7.8-2-12
	c1.2,10.2-1.4,19.1-5.4,27.6c0.4-3,1.5-6,2-9c0.5-3,0.4-6.1,0.5-9.2c0.2-3.1,0.3-6.1,0.5-9.2c-0.5-0.1-1-0.1-1.6-0.2
	c-0.8,5.7-1.5,11.4-2.3,17.1c-0.3,0-0.6-0.1-0.9-0.1c0-3.4,0-6.9,0-10.3c0.1-5,0.3-10,0.4-14.9c0-0.9-0.5-1.8-0.7-2.6
	c-0.4,0.1-0.8,0.1-1.2,0.2c0,2.3,0,4.7,0,7c-0.2,0-0.5,0-0.7,0c-0.5-3.7-1-7.4-1.4-11c-0.3,0-0.6,0.1-0.9,0.1
	c-0.5,5.6-0.6,11.3-1.5,16.9c-0.9,5.6-2.1,11.1-5.3,16.1C372.4,197.2,374.2,183.7,371,169.9z M81.6,334.4c0.1-0.5,0.2-1.1,0.3-1.6
	c-20.7-3.5-37.9-13.5-53.1-27.3c6.5,2.5,11.5,7.4,17.5,10.6c6.1,3.2,12.3,5.9,18.5,9c5.3,2.7,17.1,5.5,19.9,4.1
	C74,326.8,64,323,54.6,317.5c-9.4-5.5-18.9-11-26.1-19.4c8.7,5.3,17,11.1,25.5,16.7c8,5.2,24.3,10.5,28.9,9.2
	c-21.6-6.4-39.6-18.9-57.1-33.3c-0.8,10.8-1.5,20.6,0,29.3c4.1,2.6,7.6,4.5,10.9,6.7c4.3,2.9,8,4.3,12,3.9
	c-8.3-4-15.4-8.5-20.9-15.2c3,0.3,4.9,2.4,7.2,4c6.5,4.6,13.1,8.7,20.9,11c4.4,1.3,8.4,3.8,13.9,6.4
	C72.6,336.3,77.1,335.4,81.6,334.4z M220.9,74.9c0,0.3,0,0.6,0,0.8c0.5,0.1,0.9,0.3,1.4,0.3c6.5,0.8,13,0.4,19.6,0.2
	c9.1-0.2,17.9-1.5,26.6-3.6c2.6-0.6,4.7-1.7,5.7-4.4c-2.3-2.6-3.2-3.1-5.9-2.3c-9.5,2.8-19.1,4.6-28.9,4.7
	c-11.9,0-23.9-0.2-35.8-0.1c-2.9,0-6-1.2-8.7,1.4c4.6,0.9,9.2,1.5,13.8,1.6c9,0.2,18,0.1,27,0.1c0.6,0,1.3,0.2,1.9,0.3
	c0,0.3-0.1,0.6-0.1,1C231.9,74.9,226.4,74.9,220.9,74.9z M228.2,5.8c-2.3,0.6-5,1.3-7.6,1.9c-0.3,3-0.5,5.4-0.7,7.5
	c3.5,2.3,5.7,0.4,7.9-1.9c0.2,0.2,0.5,0.5,0.7,0.7c-1,1.9-2.1,3.7-3.1,5.5c-1.7-0.1-3-0.2-4.7-0.3c-0.4,1.4-0.7,2.6-1,3.7
	c1.1,0.9,2,1.5,3,2.3c-1,0.7-1.8,1.3-2.7,2c0.3,1.1,0.5,2.2,0.7,2.9c-0.7,1.5-1.3,2.7-1.8,3.9c0.4,0.3,0.7,0.5,1.1,0.8
	c5.7-4.7,11.9-8.9,17-14.1c2.7-2.7,6-6,5.5-11.1c-0.8-0.7-1.8-1.6-2.6-2.3c-1.6,0.6-2.8,1-4.2,1.6C233.4,8,231.2,7,228.2,5.8z
	 M82.1,15.3c0.1-0.3,0.1-0.5,0.2-0.8c0.8,0.2,1.5,0.4,2.3,0.5c6.1,1,11.9,2.7,17,6.7c2.4,1.9,6.2,2.2,9.4,3c0.4,0.1,1.1-0.5,1.6-0.7
	c-4.8-2-9.5-3.6-13.8-6c-2.8-1.5-5.3-3.4-8.7-3.8c-3.9-0.4-7.7-2.2-11.8-0.9c3.4-1.5,6.9-3,10.5-3.3c3.5-0.3,7.1,0.5,10.6,0.9
	C89.1,4,80.4,8.7,71.3,15.2c0.3,5-4.3,7.5-7.3,11c4.9-1.9,9.1-0.8,13.3,1.4c1.4,0.8,3.1,1.1,4.7,1.6c0.3-1.4,0.5-2.2,0.6-2.8
	c1.8,0.1,3.3,0.2,4.8,0.3c0.1-0.3,0.2-0.7,0.2-1c-4.4-3.6-9.9-4.7-15.5-6.2C75.4,18.1,78.8,16.7,82.1,15.3z M160.7,74.8
	c-0.2,0.6-0.3,1.1-0.5,1.9c2.1,0.3,4,0.5,5.8,0.7c5.3,0.7,10.7,1,16,2c8.7,1.7,17.4,1.8,26.1,1c1.5-0.1,3-0.8,4.6-1.2
	c-0.1-0.4-0.1-0.7-0.2-1.1c-15.1-1.9-29.7-6.9-45.2-6.1c-2.8,0.1-5.6,0.6-8.3,1c-0.2,0-0.3,0.4-0.5,0.9
	C159.3,74.3,160.1,74.6,160.7,74.8z M183.2,41.7c0.2,0.2,0.4,0.5,0.6,0.7c-5.3,7-5.3,7-5.3,10.3c2.4,2,5,1.6,7.3,0
	c1.6-1.1,3.3-2.7,2.2-5.4c-3,0.6-4.5,4.1-8,3.4c1.3-1.7,2.7-3.3,4.5-4.3c1.8-1,3.9-1.3,6-1.9c0-2.4,0-4.6,0-6.8
	c-3.1-5.3-9.1-7.4-13.2-5.7c-2.2,2-3.7,3.3-5.1,4.6c-1.9,1.7-1.9,2.3,0.3,4.6c1.1-1.6,2.2-3.1,3.3-4.7c0.3,0.3,0.7,0.6,1,0.9
	c-0.3,1.2-0.7,2.5-1.1,3.8c0.8,1.5,1.6,3,2.4,4.5C180,44.2,181.6,42.9,183.2,41.7z M288.4,8.3c-6.7-4.5-15-4.2-19.4-0.1
	c-1.9,0.4-3.4,0.2-4.3,0.9c-4.6,3.4-8.3,7.6-10.5,13c-1.1,2.6-1.9,5.2-3.2,8.9c0.3,1.7,0.8,4.5,1.4,7.3c0.4,0,0.8,0.1,1.2,0.1
	c2.5-5.6,0.1-12.5,4.7-17.7c0.9-0.2,2.2-0.4,3.8-0.6c-0.7-1.1-1.2-1.9-1.7-2.5c1.8-1.2,3.3-2.3,5.2-3.6c0.6-0.1,1.8-0.4,2.3-0.5
	c2.4-2.1,4.3-3.8,5.8-5.1c2,0.7,3.5,1.2,5.1,1.8c0.2,0.4,0.6,1.1,1.2,2.2c1.7-1.6,3.2-2.9,4.7-4.3c0.8,1.3,1.3,2.1,2.1,3.2
	C287.3,10.1,287.8,9.3,288.4,8.3z M226.7,113.1c0.2,0.1,0.4,0.3,0.6,0.4c1-1.2,2-2.4,2.7-3.3c0-7.4,0-14.4,0-21.5
	c-1.4-0.6-2.5-1.1-4.3-2c-0.9,8.7-1.8,16.6-2.6,24.9c-3.9,0.4-7.1,0.7-11.4,1.1c1.3,1.3,1.9,2.4,2.7,2.4c2,0.2,4,0.1,5.9-0.3
	C222.4,114.5,224.5,113.7,226.7,113.1z M181.3,347.5c-23.8,1.9-47.4,0.7-70.8-3.8C121.1,351.3,171,353.1,181.3,347.5z M333.2,104.8
	c5.8-1.2,11.2-2.4,16.6-3.5c-0.1-0.4-0.1-0.8-0.2-1.2c-6.1,0.9-12.1,4-19.2,1.4c3.4-0.5,6-1,8.7-1.4c0-0.1-0.1-0.3-0.1-0.4
	c-2.6-0.4-5.2-0.9-8.6-1.5c3.9-2.1,7.8-0.2,10.8-2.9c-4.3-0.4-8-0.7-12.2-1c-0.3,0.6-0.9,1.6-1.4,2.7c0.2,0,0.4,0.1,0.6,0.1
	c0,3.7,0,7.4,0,11.6c0.4,0.3,1.2,1,1.9,1.6c-0.3,1.2-0.5,2-0.6,2.8c5.2,1.7,15.8,0.6,18-1.9c-2.4,0.2-4.6,0.4-6.9,0.4
	c-2.2,0-4.3-0.4-6.5-0.6c0-0.3,0.1-0.7,0.1-1c1.5,0,3,0,4.5,0c0-0.1,0-0.2-0.1-0.3c-2.6-0.4-5.3-0.8-7.9-1.3c0-0.4,0-0.7,0-1.1
	c1.8-0.2,3.7-0.4,6.2-0.6C335.1,105.8,334.3,105.3,333.2,104.8z M199.4,83.2c-15.1,0.4-29.7-1.8-44.2-6.8c0.3,1.8,0.5,3.1,0.6,4
	c4.5,5.4,10.8,4.2,16.3,5.4c3.9,0.9,8.3,0,12.4-0.1C189.5,85.7,194.5,85.3,199.4,83.2z M186.9,352c0-0.6-0.1-1.1-0.1-1.7
	c-12.6,4.6-25.5,2.5-38.3,2.5c-12.8-0.1-25.6-1.6-38.2-4.9c2.5,1.6,5,3.2,7.7,3.7c8.6,1.4,17.3,2.8,25.9,3.4
	c7.9,0.6,15.9,0.4,23.8,0.3C174.2,355.2,180.8,354.7,186.9,352z M185.3,342c-6.4,0.5-12.8,1.3-19.2,1.5c-6.6,0.1-13.2-0.5-19.8-0.7
	c-6.4-0.3-12.9-0.6-19.4-0.8c-6.4-0.2-12.5-3.1-18.9-2.2C122.6,345.8,169.3,348.5,185.3,342z M304.8,37c-6.3-0.7-13.2,1.2-18.3-4.4
	c2.3,0.5,4.5,1.5,6.7,1.9c2.4,0.4,4.9,0.7,7.9-1.3c-3.6-0.5-6.5-0.8-9.3-1.2c0-0.3,0.1-0.6,0.1-1c3.4-0.5,6.9,1.1,10.2,0.1
	c0-0.4,0-0.7,0-1.1c-2.6-0.5-5.2-1-7.8-1.5c0.1-0.3,0.1-0.7,0.2-1c2.9,0,5.7,0,8.7,0c-1.1-2.8-2.4-3.2-5.7-2.3
	c-2.7,0.7-5.4,1.1-8.1,1.7c-0.9,0.2-1.9,0.4-2.6,0.9c-2.3,1.5-4.6,3.2-7.6,5.3C287.8,36.9,295.6,41,304.8,37z M182,338.8
	c0-0.4,0-0.9-0.1-1.3c-1.1,0.1-2.3,0.1-3.4,0.2c-3.2,0.3-6.4,0.8-9.6,0.8c-6.7-0.1-13.4-1.1-20.1-0.7c-11.5,0.6-22.7,0-33.9-2.6
	c-0.8-0.2-1.7,0.4-2.6,0.6c0.1,0.3,0.1,0.6,0.2,0.9C135.5,342.7,158.7,341.8,182,338.8z M124.5,122.8c-0.8,2.9-1.3,5.3-2.1,8.1
	c1.2-0.2,1.8-0.3,2.4-0.3c0.1,1.2,0.2,2.4,0.3,3.7c0.3,0.1,0.6,0.2,0.8,0.3c1.2-1.6,2.4-3.2,3.6-4.8c0.2,0.1,0.4,0.2,0.6,0.4
	c-1.6,3.3-3.1,6.7-4.7,10c0.4,0.3,0.9,0.6,1.3,0.8c4.8-3.9,7.4-9.7,12.2-14.4c-4.2-2.4-6.4-7-11.9-6.2c0,1.7,0,3,0,4.7
	C125.9,124.1,125.3,123.6,124.5,122.8z M195.7,19.5c3.1,4.5,6.9,7.9,10.7,11.5c0.2-0.2,0.4-0.3,0.7-0.5c-0.5-3.4-1-6.8-1.5-10.2
	c2-2.2,1.7-7-0.6-9.8c-1.7-2.1-3.6-1.9-5.2-0.6C198.4,13.2,197.2,16.1,195.7,19.5z M258.9,376.3c-2.8,0-4.8,0-6.8,0
	c-0.1,0.4-0.2,0.8-0.2,1.2c1.4,0.4,2.7,0.8,4.7,1.4c0,1,0,2.3,0,3.6c0.3,6.8,2.8,13.3,11.6,14.5c2.2,0.3,4.5,0.9,6.6,1.8
	c1.4,0.5,2.5,1.7,3.4,2.5c-0.9,6.4-1.6,6.9-7.3,6.4c-1.3-0.1-2.7,0-4,0c0,0.4,0,0.8,0,1.2c3,0.2,6,0.5,8.9,0.4
	c3.7-0.1,5-1.5,5.1-5.3c0.2-5.7-1.3-7.6-7-8.8c-0.9-0.2-1.8-0.6-2.7-0.7c-7.4-0.9-11.6-5.1-12.8-11.8
	C258.4,380.5,258.6,378.7,258.9,376.3z M118.1,332c10.7,6.4,54.4,4,60.3,2.3C159,333.6,138.9,332.8,118.1,332z M268.5,343.4
	c0-0.3,0-0.7,0-1c-1.6,0.1-3.3,0-4.9,0.4c-14.8,3.5-29.7,4.9-44.9,3.4c-1.8-0.2-3.7,0-5.5,0C224.9,351.6,254.8,349.7,268.5,343.4z
	 M167.9,358.3c-18.9-0.6-37.8-0.6-56.2-6C117,358.4,154.5,362.6,167.9,358.3z M272.5,40.4c0.1-0.4,0.2-0.8,0.3-1.1
	c3.3,1,6.5,2,9.3,2.9c1.3,1.3,2.3,2.2,3.2,3.2c0.3-0.2,0.5-0.4,0.8-0.6c-0.7-1.5-1.5-2.9-2.2-4.2c-6.8-1.8-6.8-1.8-8.2-3.5
	c1.8,0.2,3.4,0.4,5.5,0.7c-5.1-5.6-13.4-3.3-17.1,4.1c4.8,4.2,12.6,6.6,18.1,4.9c-4.8-1.2-9.3-0.7-12.8-4.8c3.2,0.9,5.6,1.5,8.1,2.2
	c0-0.2,0.1-0.3,0.1-0.5C276,42.5,274.3,41.4,272.5,40.4z M262.5,339c-17.5,3.5-35.1,3.8-52.8,2.1c-0.3,0.3-0.5,0.6-0.8,1
	c1,0.8,1.9,1.6,2.9,2.3C229.1,344.4,246.2,346.8,262.5,339z M222.3,358.5c7.8,6.3,44.3,4.1,53.9-3.5c-6.8,0.2-12.2,2.9-17.9,3.4
	c-6,0.5-12,1.2-18.1,1.2C234.4,359.7,228.6,359,222.3,358.5z M211.2,337.5c6.1,2.9,41.8,3.8,50.3-3.3c-2.7,0.3-4.7,0.4-6.6,0.7
	c-2.8,0.4-5.5,1.3-8.3,1.4c-10.6,0.4-21.2,0.5-31.8,0.8C213.6,337.1,212.4,337.4,211.2,337.5z M171.4,363.8c0-0.3,0-0.6,0-0.9
	c-5.9,0-11.7-0.2-17.6,0c-13,0.6-25.7-1-38.1-5.3c-0.7-0.2-1.5,0-3.1,0c1.5,0.9,2.2,1.5,3,1.8c9.1,4.1,19,4.9,28.7,5.8
	c4.8,0.4,9.6-0.5,14.5-0.8C163,364.1,167.2,364,171.4,363.8z M184.6,324.7c-0.1-0.4-0.1-0.7-0.2-1.1c-1.1,0.1-2.2,0.1-3.3,0.3
	c-1.8,0.4-3.6,1.2-5.4,1.3c-4.7,0.2-9.3,0.1-14,0c-8.6-0.2-17.1-0.4-25.7-0.5c-1.1,0-2.2,0.7-3.3,1.1c0.1,0.3,0.2,0.6,0.2,0.8
	c3.9,0.3,7.7,0.7,11.6,0.8c9,0.1,18-0.1,27-0.2C176,327.2,180.6,327.1,184.6,324.7z M124.8,328.8c0.1,0.4,0.1,0.7,0.2,1.1
	c8.6,2.2,43.4,2.6,47.1,0.1c-7.7-0.4-14.9-0.7-22.1-1.1c-6.6-0.4-13.1-0.9-19.7-1.1C128.5,327.8,126.7,328.4,124.8,328.8z
	 M275.7,351.2c-15.7,1.9-31.1,6.5-47.1,4.8C244.9,360.7,260.3,356.3,275.7,351.2z M77,257.9c0.2-0.3,0.4-0.7,0.6-1
	c-1.1-0.6-2.1-1.3-3.2-1.8c-2.1-0.9-4.4-1.5-6.3-2.7c-7-4.5-13.8-9.3-20.7-13.9c-1.3-0.9-2.5-2.6-5.2-1
	C53,246.4,62.8,255.8,77,257.9z M299.2,54.5c0-0.5,0.1-1,0.1-1.4c-3.7-0.5-7.3-0.9-11-1.4c-3.7-0.5-7.4-1.5-11.1-1.6
	c-8.5-0.4-8.6-0.3-10.4-1.7c1.2-0.1,2.3-0.3,4.1-0.5c-7.2-4.3-11.5-4.5-12.7-0.3c5,1.2,9.1,5.1,14.7,4.6c7.1-0.7,13.9,0.6,20.7,2.4
	C295.3,54.9,297.3,54.5,299.2,54.5z M177,62c1.9-12.9-20.7-29.4-30.6-27.6C160.3,39.4,171.2,47.8,177,62z M388.5,285.3
	c-0.2-0.2-0.4-0.4-0.5-0.7c-5.8,4.2-11.5,8.5-17,12.5c-2.3-0.5-4-0.9-6-1.3c0.3,0.8,0.3,1.1,0.5,1.3c0.3,0.3,0.6,0.6,1,0.6
	c6.2,1.4,12.3,4.7,18.8,0.1c4.4-3.1,9.2-5.7,11.9-10.8c-5.9,4.2-11.8,8.4-17.8,12.6c-0.2-0.2-0.3-0.4-0.5-0.6
	c-1.8-0.4-3.5-0.8-5.5-1.2C378.2,293,385.3,291.3,388.5,285.3z M215.5,333.4c0,0.4,0,0.8,0.1,1.2c14,0.4,28.1,2.6,41.6-3.5
	C243.3,331.9,229.4,332.7,215.5,333.4z M418.1,312.7c-0.4,0-0.8,0-1.2-0.1c-0.2,1.1-0.7,2.2-0.6,3.3c0.3,2.6,0.5,5.4,1.3,7.9
	c1.4,4.5,2.8,8.9,7.4,11.8c5.3,3.3,11.3,6.1,14,12.7c0.1-2.1,0.2-4.3-0.9-5.6c-2.2-2.6-4.7-5.3-7.7-6.7c-8.7-4.2-12.4-9.9-11.9-19.6
	C418.7,315.2,418.2,313.9,418.1,312.7z M295,13.3c0,0.3,0.1,0.5,0.1,0.8c1.4-0.5,3-0.8,4.2-1.6c1.2-0.9,2.1-2.4,3.2-3.7
	c-0.2,2.2-0.3,4.1-0.4,5.9c0.5,0.1,1,0.2,1.5,0.3c0.6-1.7,1.3-3.4,2.1-5.6c0.6-0.5,1.5-1.3,2.8-2.4c-1.3-0.4-2.1-0.7-2.9-0.9
	c0-0.7,0.1-1.3,0.1-1.9c-5.2-1.4-10-0.7-14.5,1.7c1,1.3,1.9,2.4,2.7,3.4c2.5-0.3,3-4.8,7.1-3C298.7,8.7,296.9,11,295,13.3z
	 M159,367.7c-1.4-0.2-2.8-0.7-4.1-0.5c-12.3,2-24.1-0.8-35.7-4.3c-1-0.3-2.1-0.4-3.1-0.6C122.8,367.8,144.3,372.8,159,367.7z
	 M225.6,362.4c7.1,6.1,41.5,4.4,47.5-2.5C257.5,365.3,241.6,365.3,225.6,362.4z M161.1,51.2c-1.8-0.8-2.8-1.3-4.2-1.9
	c-2.7,4.4-7.3,7.4-7.3,13.2c5-1.7,9.5-3.2,14.1-4.7c-0.5-0.7-0.9-1.3-1.3-1.7c0.4-0.6,0.6-1.1,1.3-2.2c-2.6,0-4.6,0-6.6,0
	c0-0.2,0-0.4,0-0.6C158.1,52.8,159.1,52.3,161.1,51.2z M174.8,28.7c2-0.5,3.7-1,4.9-1.3c0-6,0-11.4,0-17.2c-1.9,0.8-3.3,1.3-4.9,1.9
	C174.8,17.4,174.8,22.8,174.8,28.7z M311.5,143.3c-0.2-0.1-0.5-0.2-0.7-0.3c-3.6,3.7-6.8,7.7-10.7,11c-3.9,3.2-8.5,5.7-13.4,9
	c2.8,1,4.2,0.8,5.7-0.5c1.8-1.6,3.6-3.4,5.8-4.3c5.3-2.4,8.5-6.9,12-11.1C310.9,146,311,144.5,311.5,143.3z M179,321.5
	c-12.7,1.2-25.6-2.4-38.3,0.4C153.5,322.8,166.3,324.1,179,321.5z M114.7,407.8c1,0.6,1.6,1.2,1.9,1.1c3.8-1.1,7.4,0.4,11,1.2
	c1.9,0.4,4.1,0.6,6,0.2c3.2-0.6,6.8-1,8.2-5.2c-1.2-0.2-2.3-0.1-3.1,0.5c-4.3,2.6-8.6,3.4-13.3,1.2
	C121.9,405.2,118.6,405.7,114.7,407.8z M237.2,36.7c0.9-1.8,1.8-3.4,2.6-4.9c-0.9-0.8-1.7-1.6-2.5-2.4c0.5-1.7,1-3.1,1.5-4.7
	c-4.3,0.3-6.5,2.7-6.4,6.4c0,2.1,0,4.3,0,7C233.9,39.3,235.5,37.2,237.2,36.7z M269.5,365.8c-0.9-0.1-1.4-0.3-1.7-0.2
	c-10.6,3.2-21.3,3.9-32.2,1.8c-1-0.2-2.1,0.2-3.2,0.4C240,371.6,262.8,370.5,269.5,365.8z M391.6,299.2c-3.8-0.9-3.8-0.9-5.6,1.6
	c4.3-0.2,8.5,0.8,11.8-2.3c2.9-2.7,5.6-5.8,8.3-8.7c0.6-0.7,1-1.6,1.5-2.5c-0.2-0.2-0.4-0.3-0.6-0.5
	C401.9,290.9,396.8,295,391.6,299.2z M253.1,326.9c-4.9-0.9-9.5,1.1-14.4,1.4c-4.8,0.3-9.7,0.5-14.6,0.7c0,0.3,0,0.6,0.1,0.9
	C234.2,332.3,243.6,329.7,253.1,326.9z M197.8,99.6c-0.4,0.1-0.9,0.2-1.3,0.3c-0.7,4.2-1.5,8.5-2.2,12.8c3,1,4.2-1.4,6.5-2.6
	C198.9,106.8,201.1,102.4,197.8,99.6z M177.2,317.2c-9.2,0-18.3,0-27.5,0c0,0.3,0,0.7,0,1C158.9,319.9,168.1,319.2,177.2,317.2z
	 M81.9,222.6c-6.9-4.3-13.7-8.6-20.9-13.1c-0.4,0.4-1,1-1.8,1.8C66.7,215.9,73.3,221.5,81.9,222.6z M23.4,85.8
	c7.8,5.4,17.4,4.4,25.9,7.5C41.6,87.5,32,88.4,23.4,85.8z M156,95.2c-3.4-0.9-6.9-1.8-10.3-2.7c-0.2,2.9-0.4,6.2-0.7,10.5
	c2-1,3-1.5,4-2c-0.4-1.4-0.7-2.4-1-3.5c1.2,0.3,2.1,0.5,2.5,0.6C152.6,96.9,154.3,96.1,156,95.2z M66.3,118.2
	c-11.2-0.6-21.9-1.2-33.1-1.8C37.5,118.8,62.2,120.2,66.3,118.2z M248.9,323.4c-8.5,0.4-17,0.9-25.5,1.3
	C231,327.4,239.3,327,248.9,323.4z M108.2,20.7c-1.5-5.6-16.1-11-20.3-8.1C95.4,12.5,101,17.7,108.2,20.7z M61.4,28.7
	c-0.1,0.3-0.2,0.6-0.3,0.9c0.9,0.4,1.8,0.8,2.8,1.2c-0.6,0.7-1.1,1.3-2.1,2.6c2.9-0.5,5-0.9,6.8-1.2c0.7-0.9,1.2-1.7,1.7-2.3
	c2.2,0.3,4.2,0.6,6.2,0.8c0-0.4,0.1-0.7,0.1-1.1C71.8,25.8,66.5,27.8,61.4,28.7z M118.2,12.8c-0.1,0.3-0.1,0.5-0.2,0.8
	c3.2,1.6,3.4,5.8,7.1,6.9c-0.7-1.4-1.4-2.8-2.1-4.1c0.6-1.5,1.2-2.7,1.9-4.2c1.3,0.9,2.4,1.7,3.5,2.5c0.1-0.2,0.3-0.3,0.4-0.5
	c-1.2-1.6-2.3-3.1-3.8-5.1c-1.9,3.2-3.6-0.2-5.6,0.3c0.5,1.2,0.9,2.1,1.4,3.2C119.7,12.7,118.9,12.8,118.2,12.8z M152.1,64.8
	c5.7-0.3,11-0.6,16.5-0.9C165.3,59.3,157.6,59.9,152.1,64.8z M62.5,103.5c0.1-0.4,0.1-0.8,0.2-1.1c-3.7-1-7.5-2.1-11.2-3.1
	c-5.7-1.6-9.2-1.6-11.5,0.1C47.7,100.8,55.1,102.2,62.5,103.5z M54.6,97.6c0.1-0.3,0.2-0.7,0.2-1c-2.8-0.6-5.5-1.3-8.3-1.8
	c-2.8-0.5-5.5-1.1-8.3-1.2c-2.7-0.1-4.9-2.5-7.7-1.6C38.2,95.5,46.3,97.2,54.6,97.6z M318.6,182.5c0.2,0.5,0.4,1,0.6,1.4
	c1.6-0.4,3.4-0.5,4.7-1.4c3.1-2.1,6-4.6,8.7-7.1c1.8-1.6,3.2-3.7,4.7-5.6c-0.3-0.3-0.5-0.6-0.8-0.9C330.9,174,326.1,180,318.6,182.5
	z M155.4,377.6c-9.2-0.3-18.5,0.5-27.6-2.3C136.7,379.9,145.9,380.1,155.4,377.6z M393.8,249.1c-4.1,4.3-7.5,9.1-9.6,14.8
	C388.5,259.6,393.2,255.7,393.8,249.1z M196.1,68.1c0-0.5,0.1-0.9,0.1-1.4c-1.2-0.2-2.4-0.5-3.7-0.5c-1.4-0.1-2.8,0-4.2,0
	c-0.1-1.7-0.2-2.8-0.3-3.9c-0.3,0-0.6-0.1-0.9-0.1c-0.6,1.3-1.2,2.5-1.9,3.9c-1,0.6-2.1,1.3-3.2,1.9c0.1,0.3,0.1,0.6,0.2,0.9
	C186.8,68.5,191.4,68.3,196.1,68.1z M228.9,319.7c0,0.3-0.1,0.7-0.1,1c6.7,2.1,13,0.1,19.5-1.1c0-0.3-0.1-0.7-0.1-1
	C241.7,319,235.3,319.3,228.9,319.7z M67.2,203.3c-0.3,0.6-0.5,1.1-0.8,1.7c5.9,2.2,10.2,7.3,17,7.7
	C77.4,210.8,73.5,204.7,67.2,203.3z M176.4,313.2c0-0.4-0.1-0.8-0.1-1.1c-3.8,0.3-7.7,0.8-11.5,0.8c-9.7-0.1-9.7-0.2-11.1,1.2
	C161.3,313.8,168.9,315.5,176.4,313.2z M84.3,209c0-0.5,0-0.9-0.1-1c-4.2-2.7-8.5-5.4-12.8-7.9c-0.4-0.2-1.3,0.6-2.6,1.2
	C74.5,204,78.2,208.8,84.3,209z M50.7,331.5c-0.1,0.3-0.1,0.6-0.2,0.9c2.5,1.6,5,3.2,7.7,5c1.8,0,4,0,6.2,0c0.1-0.3,0.1-0.7,0.2-1
	C59.9,334.7,55.3,333.1,50.7,331.5z M308.4,155c-5.8,2.3-12,6.7-13.1,9.5C300.4,161.6,305.5,159.9,308.4,155z M259.8,24
	c-2.6,2.9-3.5,10.6-1.9,13.3c0.8-1.3,1.6-2.5,1.9-3.1C259.8,30.3,259.8,27.2,259.8,24z M324.2,22.3c-5.9,0.5-11.6,0.9-17.2,1.3
	C311.7,26.2,321.3,25.3,324.2,22.3z M21.5,354.4c-0.9-0.4-2-1-3.1-1.6c-0.6,2.7-1,4.8-1.6,7.5c1,0.6,2.1,1.2,3.6,2.1
	C20.8,359.4,21.1,357.2,21.5,354.4z M236.4,103.4c-1.9,4.4-1.6,6.2,1.7,8.8C241,109.8,240.6,107.8,236.4,103.4z M308.6,159.9
	c-3.5,2.1-7.1,4.1-10.9,6.4C301.4,168.2,306.2,165.5,308.6,159.9z M43.6,121.6c0,0.4,0,0.7,0,1.1c6.9,0,13.7,0,20.6,0
	c0-0.4,0-0.7,0-1.1C57.3,121.6,50.4,121.6,43.6,121.6z M302,169.6c4.4,0.7,6.5-2,8.9-3.8c1.6-1.2,4.2-2.2,3.9-5.3
	C310.6,163.5,306.7,166.3,302,169.6z M134.9,381c3.4,4.1,8.1,2.4,12.1,3.2c1.5-1,2.8-1.9,4.1-2.8c0-0.3-0.1-0.5-0.1-0.8
	C145.7,382.9,140.3,383.6,134.9,381z M30.2,103.8c2.4,2.2,14.7,3.9,17,2.3C41.2,105.2,35.7,104.5,30.2,103.8z M15.7,98.7
	c-0.3,0.3-0.5,0.6-0.8,0.9c1.6,2,3.2,4,4.7,6c1.4-1.2,2.5-2.1,3.7-3.2C21.8,98.7,17.4,101.6,15.7,98.7z M53.8,105.4
	c0.1-0.4,0.1-0.8,0.2-1.2c-5.8,0-11-4-17-2.6c0,0.3-0.1,0.6-0.1,1C42.5,103.5,48.1,104.5,53.8,105.4z M392,273.8
	c-5,1.9-6.4,6.3-8.8,9.7C386.8,281.2,390.2,278.6,392,273.8z M375.9,275.3c-0.3-0.3-0.5-0.6-0.8-0.9c-3.8,3.3-7.6,6.6-11.5,9.8
	c0.2,0.2,0.4,0.5,0.6,0.7C368.5,282.2,372.8,279.5,375.9,275.3z M395.9,253.5c0.4,0.2,0.7,0.4,1.1,0.6c2.8-3.7,4.8-7.8,4.4-12.8
	C399.6,245.4,397.7,249.5,395.9,253.5z M60.2,38c4,0,7.4-1.4,10.5-3.7C66.9,34.8,62.6,33.9,60.2,38z M307.3,18.9
	c2.7,3.8,10.9,3.8,15.2,0.5c-1.8,0-3.4,0.4-5.1,0.6c-2,0.3-4,0.4-5.1,0.4C310.1,19.8,308.7,19.4,307.3,18.9z M97.7,182
	c-5.3,0.4-7.2,1.5-9.4,4.9c1.3,0.6,2.6,1.1,4.2,1.9c0-1.4,0-2.2,0-2.7C94.4,184.5,96.1,183.2,97.7,182z M122.6,370
	c4.7,1.5,9.2,4.2,14.5,3.1C132.3,371.8,127.8,369.4,122.6,370z M197.6,28.5c-1.9,0.3-3.3,0.6-4.6,0.8c-0.2,0.3-0.3,0.5-0.5,0.8
	c3,1.7-0.4,5.7,3,7.5C196.2,34.5,196.8,31.8,197.6,28.5z M315.5,179.4c0,0.3,0,0.7,0,1c1,0,2.4,0.4,3.1-0.1c2.6-2,6.4-2.5,7.5-6.3
	C322.6,175.8,319,177.6,315.5,179.4z M201.2,38c2.3,0.2,4,0.4,6.3,0.7c-1.4-2.7-1.7-5.3-5.3-5.6C202,34.5,201.7,35.8,201.2,38z
	 M101.2,24.9c6,4.3,11.5,5.3,14.6,3C111.1,27,106.5,26,101.2,24.9z M392.7,285.4c-3.8,3.1-7.6,6.2-11.3,9.4c0.2,0.3,0.4,0.5,0.7,0.8
	C386.4,293,390.1,289.8,392.7,285.4z M40.5,79c-2.5-3.1-5-6.2-7.5-9.3c-0.3,0.3-0.6,0.5-0.9,0.8C33.9,74.1,36.1,77.5,40.5,79z
	 M171.4,358c0,0.4,0.1,0.8,0.1,1.1c4.4,1.1,8.5-0.7,12.6-2.5C179.8,357.1,175.6,357.6,171.4,358z M34.8,85.7
	c0.1-0.5,0.2-0.9,0.3-1.4c-3.6-1-7.2-1.9-10.8-2.9c-0.1,0.4-0.2,0.7-0.3,1.1C27.3,84.7,30.9,85.6,34.8,85.7z M163,12.5
	c-0.5,0.1-0.9,0.3-1.4,0.4c1,3.9,1.9,7.7,2.9,11.6c0.5-0.1,1-0.3,1.5-0.4C163.7,20.6,165.5,16,163,12.5z M15,66.1
	c2.5,1.1,4.7,2.1,6.8,3c0.2-0.3,0.4-0.6,0.6-0.8c-2-1.7-4-3.5-6.5-5.6C15.4,64.4,15.2,65.2,15,66.1z M43.3,110.6
	c0.1-0.4,0.1-0.7,0.2-1.1c-3.9-0.8-7.9-1.5-11.8-2.3c-0.1,0.4-0.2,0.8-0.2,1.2C35.4,109.1,39.4,109.9,43.3,110.6z M406.2,297.8
	c1.5,1.4,2.7,2.5,4.2,3.8c0.7-0.2,1.4-0.5,2.9-1.1c-1.6-0.8-2.6-1.2-3.8-1.8c0.3-1.1,0.6-2.1,0.9-3.2c-0.2-0.1-0.4-0.3-0.5-0.4
	C408.6,296,407.5,296.9,406.2,297.8z M89.8,197c-3.6-4.4-6.3-5.7-9.2-4.6C83.9,194.1,86.8,195.6,89.8,197z M316.7,164.1
	c0.2,0.2,0.4,0.3,0.7,0.5c3.9-3.3,6.7-7.2,6.9-10.2C321.6,157.9,319.2,161,316.7,164.1z M138.7,392.1c-0.2,0.3-0.4,0.7-0.6,1
	c0.5,0.8,0.9,1.6,1.3,2.3c2.4-0.5,4.3-0.8,6.3-1.2c0-0.3,0-0.7,0-1C143.4,392.9,141.1,392.5,138.7,392.1z M184,329.9
	c-0.1-0.4-0.1-0.8-0.2-1.2c-3.1,0.4-6.2,0.9-9.2,1.3c0.1,0.4,0.1,0.8,0.2,1.3C177.9,330.8,180.9,330.4,184,329.9z M172.6,309.5
	c0-0.3,0-0.6,0-0.9c-3.8,0-7.7,0-11.5,0c0,0.3,0,0.6,0,0.9C165,309.5,168.8,309.5,172.6,309.5z M333.7,185.9
	c-0.2-0.5-0.5-0.9-0.7-1.4c-2.5,1.4-5,2.7-7.4,4.1c0.2,0.4,0.4,0.8,0.7,1.2C328.7,188.5,331.2,187.2,333.7,185.9z M243.2,315.2
	c-3.8,0-7.6,0-11.5,0C235.6,317.8,239.4,315.5,243.2,315.2z M338.7,197.7c-5.4,0.6-5.4,0.6-6.6,2.7
	C335,202.1,336.6,200.1,338.7,197.7z M323.1,40.7c1.7-1.2,3.2-2.3,5-3.6c-3.6,0.6-6.5,1.1-9.8,1.7C320,39.4,321.3,40,323.1,40.7z
	 M151.7,374.2c0-0.3,0-0.7,0.1-1c-2.8-0.2-5.7-0.8-8.4,1C146.1,374.2,148.9,374.2,151.7,374.2z M311.7,7.3c3.7,0.2,5.7,0,6.2-0.8
	c-1.9-0.6-3.7-1.2-5.8-1.9C311.9,5.9,311.8,6.6,311.7,7.3z M112.1,119.9c2.4-0.8,4.2-1.4,5.9-2c-0.1-0.2-0.2-0.4-0.2-0.7
	c-2-0.2-3.9-0.4-6.1-0.7C111.8,117.6,111.9,118.4,112.1,119.9z M46.6,114.7c3.5,0.3,7,0.6,10.4,0.9
	C53.7,112.9,50.1,114.3,46.6,114.7z M111,7.5c-0.2,0.3-0.3,0.6-0.5,1c2,1.2,4.1,2.5,6.1,3.7c0.2-0.3,0.3-0.5,0.5-0.8
	C115.6,9.2,114.1,7,111,7.5z M19.3,348c-0.9,2.7,0.5,3.4,2,3.3c0.9,0,1.8-1,2.7-1.6c-0.1-0.3-0.3-0.6-0.4-1
	C22.2,348.5,20.8,348.3,19.3,348z M139.9,396.9c2.2,2.9,4.2,3,6.8,0.6C144.2,397.3,142.3,397.2,139.9,396.9z M266,93.5
	c1.2-4.9,0.3-6.1-3.4-5.2C263.6,89.9,264.5,91.3,266,93.5z M115.8,49.9c0.1,0.4,0.3,0.8,0.4,1.2c2.9-1,5.8-1.9,8.7-2.9
	c-0.1-0.3-0.2-0.7-0.4-1C121.6,48.1,118.7,49,115.8,49.9z M280.8,17.1c1.8,0.8,3.2,1.4,4.6,2c0.2-0.4,0.5-0.7,0.7-1.1
	c-1.2-1.3-2.4-2.5-4-4.1C281.6,15.1,281.3,15.8,280.8,17.1z M17.1,69.2c-0.2,0.3-0.5,0.6-0.7,0.9c1.8,1.7,3.3,3.8,6.6,3.1
	C21.1,71.8,19.1,70.5,17.1,69.2z M351.5,81.1c0.2,0.4,0.4,0.7,0.5,1.1c2.5-0.7,5-1.5,7.5-2.2c-0.1-0.3-0.2-0.6-0.3-0.9
	C356.4,78.9,353.8,79.5,351.5,81.1z M250.9,385.7c0.3,0.1,0.7,0.2,1,0.3c2.6-2.1,2.7-2.6,0.6-6.2C252,381.8,251.4,383.7,250.9,385.7
	z M318.6,44.7c-0.1-0.5-0.1-1-0.2-1.5c-2.4,0.4-4.8,0.9-7.2,1.3c0.1,0.5,0.2,1,0.3,1.5C313.8,45.6,316.2,45.2,318.6,44.7z
	 M395.5,277.9c-0.2-0.2-0.5-0.4-0.7-0.6c-3.2,1.8-4,2.8-4.2,6.2C392.5,281.3,394,279.6,395.5,277.9z M221.9,39.7
	c-1.7,4-1.1,4.8,3,4.8C223.9,42.9,223.2,41.7,221.9,39.7z M372.3,272.6c-0.2-0.2-0.4-0.5-0.6-0.7c-2.1,1.7-4.1,3.4-6.2,5.1
	c0.3,0.3,0.5,0.6,0.8,0.9C368.3,276.2,370.3,274.4,372.3,272.6z M117.6,64.6c2.2,0.3,4.3,0.5,6.5,0.8c0-0.4,0.1-0.7,0.1-1.1
	C122.1,63.1,120,62.2,117.6,64.6z M382.7,271c3.6-0.5,5.2-2.7,6-6.4C386.4,267.1,384.6,269.1,382.7,271z M313.7,148.1
	c-0.3-0.2-0.6-0.4-1-0.6c-1.1,1.6-2.2,3.2-3.7,5.5C312.5,152.1,313.4,150.4,313.7,148.1z M363.7,274.1c1.8-1.3,3.7-2.7,6.2-4.4
	C365.5,268.8,365.2,272.2,363.7,274.1z M150.5,105.8c-2.8,2.5-2.8,2.9,0,4.8C150.5,108.9,150.5,107.5,150.5,105.8z M65.6,70.7
	c-0.6,4-0.6,4,2.3,4.6C67,73.6,66.3,72.2,65.6,70.7z M43.3,72.5c0.3-0.3,0.7-0.6,1-0.9c-0.1-2.5-2-3.2-4.5-3.3
	C40.9,69.7,42.1,71.1,43.3,72.5z M99.8,135.7c0-0.3,0.1-0.7,0.1-1c-2.1-1.4-4.4-1.1-6.9,0.2C95.3,135.1,97.5,135.4,99.8,135.7z
	 M90.8,192.4c0.1-0.3,0.2-0.6,0.4-0.8c-2.6-2.9-3.3-3.1-5.7-1.7C87.4,190.8,89.1,191.6,90.8,192.4z M180.5,363.1
	c-0.1-0.5-0.1-1-0.2-1.4c-1.9,0.3-3.7,0.5-5.6,0.8c0.1,0.4,0.1,0.8,0.2,1.2C176.7,363.5,178.6,363.3,180.5,363.1z M109.8,32.2
	c0-0.5,0.1-0.9,0.1-1.4c-2.1,0.5-3.9-1.8-7,0.5C105.7,31.7,107.7,32,109.8,32.2z M291.7,50.4c-3.2-2.9-3.4-3-6.4-1.5
	C287.8,49.5,289.7,50,291.7,50.4z M56.5,59.7c-1.4-1-2.9-2.1-4.3-3.1c-0.2,0.2-0.3,0.5-0.5,0.7C52.8,58.8,53.4,61,56.5,59.7z
	 M339.6,162.9c-0.9,1.4-1.8,2.8-2.7,4.2c0.3,0.2,0.6,0.4,0.9,0.6C338.9,166.6,341.1,166.2,339.6,162.9z M37.8,71.9
	c0.3-0.3,0.6-0.7,0.9-1c-1.5-1.4-3.1-2.8-3.9-3.5C35.5,68.3,36.6,70.1,37.8,71.9z M378.4,269.7c0.3,0.3,0.7,0.6,1,0.9
	c1.7-0.7,3.3-1.5,2.9-5.2C380.6,267.2,379.5,268.5,378.4,269.7z M44.8,54.9c-0.2,0.2-0.3,0.5-0.5,0.7c1.6,1.7,3,3.7,6,3.4
	C48.4,57.6,46.6,56.3,44.8,54.9z M405.6,294.4c-0.3-0.2-0.5-0.5-0.8-0.7c-1,1.2-2,2.5-3,3.7C404.6,297.8,405.3,296.4,405.6,294.4z
	 M119.8,52.3c0.1,0.6,0.3,1.2,0.4,1.8c1.7-0.5,3.3-1,5-1.5c-0.1-0.5-0.2-0.9-0.4-1.4C123.2,51.6,121.5,52,119.8,52.3z M312.1,156.9
	c0.3,0.2,0.5,0.4,0.8,0.6c1-1.4,2-2.7,3-4.1c-0.3-0.2-0.7-0.5-1-0.7C313,153.3,312.7,155.2,312.1,156.9z M292.2,46.2
	c-0.1,0.4-0.1,0.8-0.2,1.1c1.7,0.2,3.4,0.5,5.1,0.7c0-0.4,0.1-0.8,0.1-1.2C295.6,46.7,293.9,46.4,292.2,46.2z M307.9,171.2
	c0.1,0.2,0.3,0.5,0.4,0.7c2-1.2,4-2.4,6.1-3.5c-0.2-0.3-0.3-0.5-0.5-0.8C311.9,168.7,309.9,170,307.9,171.2z M79.7,110.6
	c-0.3-0.4-0.6-0.9-0.9-1.3c-1.2,0.9-2.3,1.8-3.5,2.7c0.2,0.3,0.5,0.7,0.7,1C77.3,112.2,78.5,111.4,79.7,110.6z M381.9,286.1
	c-3.8,1-4.8,1.8-5.4,4.6C378.4,289.1,380,287.8,381.9,286.1z M153.6,118.1c0.3,0.5,0.7,1,1,1.5c0.9-0.7,1.8-1.4,2.6-2.2
	c-0.3-0.4-0.5-0.7-0.8-1.1C155.5,116.9,154.5,117.5,153.6,118.1z M248.8,51.7c0.8-0.7,1.6-1.5,2.9-2.6
	C248.7,48.3,248.1,49.2,248.8,51.7z M170.6,15.7c-0.4,0.1-0.8,0.2-1.2,0.4c0.5,1.5,1,3,1.5,4.6c0.4-0.1,0.8-0.3,1.2-0.4
	C171.7,18.7,171.2,17.2,170.6,15.7z M316.9,13.8c0,0.3,0,0.7-0.1,1c1.7,1.3,3.3,0.7,5.7-1C320.1,13.8,318.5,13.8,316.9,13.8z
	 M321.6,185.5c0.2,0.5,0.4,0.9,0.7,1.4c1.3-0.8,2.7-1.5,4-2.3c-0.2-0.3-0.3-0.6-0.5-0.9C324.4,184.3,323,184.9,321.6,185.5z
	 M340.6,211.9c0.2,0.5,0.5,1,0.7,1.5c1.2-0.6,2.4-1.2,3.6-1.8c-0.2-0.4-0.4-0.8-0.6-1.3C343.1,210.8,341.8,211.3,340.6,211.9z
	 M348.2,213.9c-1.7,0.6-2.9,1.1-4.7,1.7c2.1,0.5,3.4,0.8,5.2,1.3C348.5,215.7,348.4,215,348.2,213.9z M314.3,68.6
	c-0.3,0.1-0.6,0.1-1,0.2c0.3,1.6,0.5,3.2,0.8,4.8c0.4-0.1,0.8-0.2,1.2-0.2C315,71.8,314.6,70.2,314.3,68.6z M357.1,240
	c-4,0.4-4.2,0.9-2.3,3.8C355.6,242.5,356.3,241.4,357.1,240z M78.1,82.3c-0.1,0.4-0.1,0.7-0.2,1.1c1.7,0.3,3.3,0.5,5,0.8
	C81.7,81.1,79.7,82.5,78.1,82.3z M24.1,78.7c0.2-0.4,0.3-0.8,0.5-1.2c-1.4-0.5-2.8-0.9-4.2-1.4c-0.1,0.4-0.3,0.7-0.4,1.1
	C21.3,77.7,22.7,78.2,24.1,78.7z M275.2,15.2c2.2,2.4,2.4,2.4,4.3-0.6C277.8,14.9,276.5,15,275.2,15.2z M102.6,140.9
	c-0.1,0.5-0.2,1.1-0.3,1.6c1.4,0.1,2.9,0.3,4.3,0.4c0.1-0.4,0.1-0.8,0.2-1.2C105.4,141.5,104,141.2,102.6,140.9z M141.4,95.1
	c0.5-0.1,1.1-0.3,1.6-0.4c-0.4-1.3-0.7-2.6-1.1-3.9c-0.4,0.1-0.8,0.2-1.2,0.3C140.9,92.5,141.2,93.8,141.4,95.1z M309.3,14.3
	c-0.1-1.6-0.2-2.7-0.2-3.9c-0.2,0-0.5-0.1-0.7-0.1c-0.5,1.2-1,2.5-1.5,4C307.9,14.3,308.4,14.3,309.3,14.3z M274.4,25.5
	c0.1-0.4,0.2-0.8,0.3-1.2c-1.5-0.2-3-0.4-4.6-0.6c-0.1,0.5-0.1,0.9-0.2,1.4C271.4,25.1,272.9,25.3,274.4,25.5z M84.9,17
	c-0.1,0.4-0.1,0.9-0.2,1.3c1.4,0.2,2.9,0.3,4.3,0.5c0-0.3,0.1-0.7,0.1-1C87.7,17.5,86.3,17.3,84.9,17z M118.8,57.4
	c0.1,0.4,0.3,0.8,0.4,1.2c1.8-0.6,3.5-1.3,5.3-1.9c-0.1-0.3-0.2-0.6-0.3-0.9C122.4,56.3,120.6,56.9,118.8,57.4z M390.3,399.4
	c-0.2,0.4-0.5,0.8-0.7,1.2c1.2,0.6,2.3,1.2,3.5,1.8c0.2-0.4,0.4-0.7,0.6-1.1C392.6,400.7,391.5,400,390.3,399.4z M339.1,117
	c0-0.4,0-0.9,0-1.3c-1.8,0-3.6,0-5.4,0c0,0.3,0,0.5,0,0.8C335.5,116.6,337.3,116.8,339.1,117z M311.9,139.4c2.8-0.7,2.8-0.7,1.9-3.6
	C313,137.3,312.4,138.3,311.9,139.4z M29.2,66.9c0.4-0.3,0.7-0.6,1.1-1c-1.2-1-2.3-2.1-3.5-3.1c-0.2,0.2-0.4,0.4-0.6,0.6
	C27.2,64.6,28.2,65.8,29.2,66.9z M339.7,202.9c-0.1-0.3-0.2-0.7-0.3-1c-1.2,0.3-2.4,0.5-4.2,0.9
	C337.6,205.2,338.7,204.3,339.7,202.9z M96.2,147.7c0,0.3,0.1,0.7,0.1,1c1.5-0.2,2.9-0.4,4.4-0.6c0-0.3-0.1-0.6-0.1-0.9
	C99.1,147.4,97.7,147.5,96.2,147.7z M332.7,180.8c-0.2-0.3-0.4-0.7-0.6-1c-0.9,0.7-1.9,1.4-2.8,2.1c0.2,0.3,0.4,0.6,0.7,0.9
	C330.8,182.1,331.8,181.4,332.7,180.8z M348.6,191.8c-2.1-2.6-2.1-2.6-3.6,0.3C346.3,191.9,347.3,191.9,348.6,191.8z M366.7,77.2
	c-0.1-0.5-0.2-0.9-0.3-1.4c-1.2,0.3-2.5,0.6-3.7,1c0.1,0.4,0.2,0.7,0.2,1.1C364.1,77.7,365.4,77.4,366.7,77.2z M341.2,174.7
	c2.5,1.1,2.5,1.1,2.5-1.5C342.8,173.8,342,174.3,341.2,174.7z M128,18.6c-0.2,0.4-0.5,0.7-0.7,1.1c1.1,0.7,2.3,1.4,3.4,2.1
	c0.2-0.3,0.4-0.7,0.6-1C130.2,20.1,129.1,19.4,128,18.6z M164.4,45.7c-1.8-0.9-3-1.4-4.7-2.2C160.6,46,161.6,46.8,164.4,45.7z
	 M341.5,208.2c-0.1-0.3-0.2-0.7-0.3-1c-1.1,0.2-2.3,0.4-3.4,0.6c0.1,0.4,0.2,0.9,0.3,1.3C339.2,208.8,340.4,208.5,341.5,208.2z
	 M141.6,388.3c-1.3-0.3-2.6-0.6-4.6-1C139.1,389.7,139.1,389.7,141.6,388.3z M94.8,142.2c0-0.4,0-0.9,0-1.3
	c-1.6,0.2-3.3,0.3-4.9,0.5c0,0.4,0.1,0.8,0.1,1.1C91.6,142.4,93.2,142.3,94.8,142.2z M326,9.2c0-0.4,0-0.7-0.1-1.1
	c-1.7-0.8-3.3-1-4.8,1.7C323.1,9.6,324.5,9.4,326,9.2z M319.3,137.8c-0.4-0.3-0.8-0.6-1.1-0.9c-0.3,0.6-0.7,1.1-0.9,1.7
	c-0.2,0.6,0,1.2,0,1.9c0.2,0,0.4,0.1,0.7,0.1C318.4,139.7,318.9,138.8,319.3,137.8z M396.7,267.3c-0.2-0.1-0.3-0.3-0.5-0.4
	c-0.7,0.7-1.5,1.3-2.2,2c-0.1,0.1,0,0.5,0.1,1.7C395.2,269.1,396,268.2,396.7,267.3z M101.3,129.9c0-0.5,0.1-1,0.1-1.4
	c-1.1,0-2.1,0-3.2,0c0,0.3,0,0.7-0.1,1C99.2,129.6,100.3,129.7,101.3,129.9z M148.7,16.2c0.2-0.2,0.5-0.4,0.7-0.6c-1-1-2-2-3-2.9
	c-0.2,0.3-0.5,0.5-0.7,0.8C146.6,14.4,147.7,15.3,148.7,16.2z M111.2,113.8c0.4,0.2,0.8,0.5,1.1,0.7c0.5-0.8,1-1.6,1.5-2.4
	c-0.4-0.2-0.8-0.5-1.2-0.7C112.1,112.2,111.6,113,111.2,113.8z M153.3,102.4c0.5-0.1,0.9-0.2,1.4-0.3c-0.2-0.9-0.4-1.8-0.6-2.7
	c-0.3,0-0.7,0.1-1,0.1C153.1,100.4,153.2,101.4,153.3,102.4z M345.5,98.2c-0.2-0.4-0.4-0.8-0.6-1.2c-1,0.5-2,1-3,1.5
	c0.1,0.3,0.3,0.6,0.4,0.9C343.4,99,344.5,98.6,345.5,98.2z M241.7,372.7c-0.1,0.3-0.2,0.7-0.3,1c1.2,0.4,2.4,0.8,3.7,1.2
	c0.1-0.3,0.2-0.7,0.3-1C244.2,373.5,242.9,373.1,241.7,372.7z M314.4,93.3c0-0.4-0.1-0.7-0.1-1.1c-1,0.1-2.1,0.3-3.1,0.4
	c0,0.3,0.1,0.7,0.1,1C312.3,93.5,313.4,93.4,314.4,93.3z M284.9,22.9c0.1-0.4,0.1-0.9,0.2-1.3c-1.2-0.2-2.4-0.5-3.5-0.7
	c-0.1,0.4-0.2,0.7-0.3,1.1C282.6,22.3,283.8,22.6,284.9,22.9z M150.5,23.2c0.7-0.7,1.3-1.3,1.9-1.9c-0.1-0.2-0.3-0.4-0.4-0.6
	c-0.9,0.2-1.8,0.5-3,0.8C149.7,22.2,150,22.5,150.5,23.2z M220.1,354.3c0,0.4-0.1,0.8-0.1,1.2c1.5,0.1,3,0.3,4.6,0.4
	c0-0.3,0.1-0.6,0.1-0.9C223.1,354.8,221.6,354.6,220.1,354.3z M145,15.5c-0.3,0.4-0.6,0.8-0.9,1.2c0.8,0.5,1.6,1.1,2.3,1.6
	c0.3-0.4,0.5-0.7,0.8-1.1C146.5,16.7,145.7,16.1,145,15.5z M129.2,9.1c0.2-0.3,0.5-0.6,0.7-0.9c-1-0.8-2-1.6-2.9-2.3
	c-0.3,0.3-0.5,0.7-0.8,1C127.2,7.6,128.2,8.4,129.2,9.1z M144.8,402.5c0-0.2-0.1-0.5-0.1-0.7c-1.2,0-2.4,0-3.6,0c0,0.2,0,0.5,0,0.7
	C142.3,402.5,143.6,402.5,144.8,402.5z M102.1,159.1c0-0.4-0.1-0.8-0.1-1.2c-1.1,0.1-2.2,0.1-3.3,0.2c0,0.4,0.1,0.9,0.1,1.3
	C99.9,159.2,101,159.1,102.1,159.1z M331.2,123.4c-0.2,0.4-0.4,0.8-0.5,1.2c1.1,0.2,2.1,0.5,3.2,0.7c0.1-0.3,0.2-0.7,0.3-1
	C333.1,124,332.1,123.7,331.2,123.4z M416.7,302.6c-0.3-0.4-0.5-0.8-0.8-1.2c-0.9,0.6-1.8,1.2-2.7,1.8c0.2,0.3,0.4,0.7,0.6,1
	C414.8,303.6,415.8,303.1,416.7,302.6z M327.5,191.9c0.1,0.5,0.1,1,0.2,1.5c1-0.3,2.1-0.6,3.1-0.9c-0.1-0.4-0.2-0.7-0.2-1.1
	C329.5,191.6,328.5,191.8,327.5,191.9z M343.7,51.2c-0.3-0.4-0.5-0.7-0.8-1.1c-0.5,0.4-0.9,0.9-1.4,1.3c0.2,0.3,0.4,0.5,0.6,0.8
	C342.6,51.9,343.2,51.6,343.7,51.2z M348,204.7c0.2,0,0.3-0.1,0.5-0.1c-0.1-1-0.3-2-0.4-3c-0.2,0-0.5,0.1-0.7,0.1
	C347.5,202.7,347.8,203.7,348,204.7z M406.3,237.3c0-0.2,0-0.4,0-0.6c-1,0-2,0-3,0c0,0.2,0,0.4,0,0.6
	C404.4,237.3,405.4,237.3,406.3,237.3z M157.2,101.7c0.4-0.1,0.7-0.1,1.1-0.2c-0.2-0.9-0.4-1.8-0.6-2.7c-0.3,0.1-0.5,0.1-0.8,0.2
	C156.9,99.8,157,100.8,157.2,101.7z M327.2,57c-0.1-0.3-0.2-0.5-0.3-0.8c-0.9,0.3-1.9,0.6-2.8,0.9c0.1,0.3,0.2,0.6,0.3,0.9
	C325.4,57.7,326.3,57.3,327.2,57z M187.8,346.4c-0.1-0.3-0.2-0.6-0.2-0.9c-1,0.2-1.9,0.5-2.9,0.7c0.1,0.3,0.2,0.6,0.2,0.9
	C185.8,346.8,186.8,346.6,187.8,346.4z M7.7,93.8c0.2,0.5,0.4,1,0.6,1.5c0.7-0.4,1.4-0.7,2.1-1.1c-0.1-0.4-0.3-0.7-0.4-1.1
	C9.2,93.3,8.5,93.5,7.7,93.8z M359.7,90.9c-0.1,0.4-0.2,0.8-0.3,1.1c0.8,0.1,1.6,0.3,2.4,0.4c0.1-0.3,0.1-0.6,0.2-0.9
	C361.2,91.3,360.4,91.1,359.7,90.9z M264.8,23.9c-0.2-0.4-0.3-0.8-0.5-1.2c-0.8,0.3-1.6,0.6-2.4,1c0.2,0.4,0.3,0.8,0.5,1.2
	C263.2,24.5,264,24.2,264.8,23.9z M319.5,72c-0.2,0.3-0.5,0.6-0.7,0.9c0.7,0.4,1.4,0.9,2.1,1.3c0,0,0.3-0.4,0.6-0.8
	C320.8,73,320.1,72.5,319.5,72z M316,109.2c-0.1,0.3-0.2,0.7-0.3,1c0.8,0.2,1.7,0.5,2.5,0.7c0.1-0.4,0.2-0.7,0.3-1.1
	C317.7,109.6,316.8,109.4,316,109.2z M364.5,72c0.1,0.3,0.2,0.7,0.3,1c0.7-0.2,1.5-0.4,2.2-0.7c-0.1-0.3-0.2-0.7-0.3-1
	C366,71.5,365.2,71.8,364.5,72z M325.1,71.9c0.1-0.3,0.1-0.6,0.2-1c-1.3-0.2-2.6-0.5-3.9-0.7c0,0.2-0.1,0.4-0.1,0.6
	C322.6,71.2,323.8,71.5,325.1,71.9z M345.7,197.8c0.3,0.1,0.6,0.3,0.9,0.4c0.2-0.5,0.5-1.1,0.7-1.6c-0.3-0.1-0.6-0.3-0.9-0.4
	C346.2,196.8,345.9,197.3,345.7,197.8z M340.9,195c0,0.3,0.1,0.6,0.1,0.8c0.7-0.1,1.3-0.2,2-0.3c0-0.3-0.1-0.6-0.1-0.8
	C342.3,194.9,341.6,194.9,340.9,195z M121.3,46.1c0-0.3,0-0.7-0.1-1c-0.8,0.1-1.6,0.2-2.4,0.3c0,0.2,0,0.5,0,0.7
	C119.7,46.1,120.5,46.1,121.3,46.1z M122.2,116.8c-0.3-0.1-0.7-0.1-1-0.2c-0.1,0.8-0.1,1.6-0.2,2.5c0.3,0,0.6,0.1,0.8,0.1
	C122,118.3,122.1,117.5,122.2,116.8z M333,167.2c0.2,0.1,0.4,0.2,0.6,0.2c0.2-0.4,0.5-0.8,0.6-1.3c0.1-0.4,0-0.9,0-1.4
	c-0.2,0-0.4,0-0.6,0C333.5,165.5,333.3,166.4,333,167.2z M398.5,228.9c-0.3,0-0.5-0.1-0.8-0.1c-0.1,0.8-0.3,1.5-0.4,2.3
	c0.3,0.1,0.6,0.1,0.9,0.2C398.3,230.4,398.4,229.6,398.5,228.9z M401.8,257.8c-0.3,0-0.7-0.1-1-0.1c-0.1,0.7-0.2,1.4-0.3,2.2
	c0.3,0,0.7,0.1,1,0.1C401.6,259.2,401.7,258.5,401.8,257.8z M327,79.7c0-0.3-0.1-0.6-0.1-0.9c-0.7,0.1-1.5,0.2-2.2,0.3
	c0,0.2,0,0.5,0.1,0.7C325.5,79.8,326.3,79.7,327,79.7z M262.8,26.3c-0.3,0.3-0.6,0.7-0.9,1c0.6,0.3,1.1,0.7,1.7,1
	c0.2-0.3,0.4-0.5,0.6-0.8C263.7,27.1,263.3,26.7,262.8,26.3z M129.8,103.9c-0.2,0.2-0.4,0.4-0.6,0.6c0.7,0.7,1.3,1.5,2,2.2
	c0.2-0.2,0.4-0.3,0.5-0.5C131,105.4,130.4,104.6,129.8,103.9z M65.6,129.1c0-0.2,0.1-0.3,0.1-0.5c-1.1-0.2-2.1-0.3-3.1-0.5
	c0,0.3,0,0.6,0,0.9C63.6,129,64.6,129.1,65.6,129.1z M325,63.1c0.1-0.4,0.1-0.7,0.2-1.1c-0.7-0.1-1.4-0.1-2.1-0.2
	c0,0.3-0.1,0.5-0.1,0.8C323.7,62.8,324.3,63,325,63.1z M313.7,298.3c0.6-0.2,1.2-0.5,1.8-0.8c9.8-6.5,18.2-14.3,24.3-24.4
	c0.8-1.3,2.1-2.3,3.2-3.4c0.3,0.3,0.7,0.6,1,0.9c-3.5,6.4-7.1,12.7-12.5,17.8c-5.3,5.1-10.8,9.9-16.3,14.9c18-9.9,30-24.7,36-44.6
	c-3,1.1-2.4,5.9-6.9,5.9c1.1-3,2.1-5.5,3-8c-0.2-0.1-0.4-0.2-0.5-0.3c-1.2,1.1-2.3,2.2-4.2,3.9c0.3-2.4,0.5-3.8,0.7-5.3
	c-0.9,0-1.6,0-2.6,0c1-3.9,2-7.5,3-11.2c-0.2-0.1-0.4-0.2-0.6-0.3c-1.3,1.3-2.7,2.6-4,3.9c-0.2-0.2-0.4-0.3-0.7-0.5
	c0.7-2.5,1.5-4.9,2.2-7.2c-1.1-1-1.9-1.6-2.6-2.2c0.4-1.7,0.7-3.2,1-4.6c-0.4-0.2-0.7-0.4-1.1-0.7c-0.7,1.4-1.4,2.8-2.1,4.2
	c-0.5-0.4-1-0.7-1.5-1.1c0.6-2.2,1.1-4.5,1.7-6.7c-0.4-0.1-0.9-0.3-1.3-0.4c-2.4,4.7-4.9,9.4-7.3,14.1c-3.9,7.6-9.7,13.4-16.4,18.5
	c-1,0.8-2,1.7-3,2.5c0.3,0.3,0.6,0.6,0.8,0.9c7.2-4.2,12.6-10.7,18.8-16.1c-5.9,11.2-15.1,19-25.4,26c0.8,0.2,1.5,0.3,1.9,0
	c4.7-3.3,9.7-6.2,14-10c4-3.6,7.1-8.1,10.6-12.1c0.9-1,2.2-1.8,3.3-2.7c0.3,0.3,0.6,0.6,0.9,1c-3.2,6.1-7.3,11.6-12.4,16.3
	c-5,4.6-10.3,8.9-15.5,13.4c6.7-2,12.1-6.5,17-11.2c5.1-4.8,9.3-10.5,13.9-16c1.6,0.9,1,2,0,3.2c-1.1,1.4-2.3,2.7-3.2,4.2
	c-2.7,4.9-6,9.2-10.2,12.9c-4.9,4.5-9.3,9.6-15.5,12.6c0.7,0.3,1.4,0.5,1.9,0.3c9.2-5.5,17.4-12.1,23.8-20.8c1-1.4,2.5-2.3,3.8-3.5
	c0.3,0.3,0.6,0.7,1,1c-8.2,10.7-15.8,22.1-27.6,29.7c12.9-6,20.8-17.4,30.2-27.4c0.3,1.2,0.3,2.2-0.1,2.9
	c-7.2,11.8-15.6,22.4-28.1,30.1C313.2,298.2,313.5,298.4,313.7,298.3z M247.6,246.8c-11.7,5.3-23.3,10.3-36.5,6.6
	c9.5-0.8,18.9-1.4,27.6-6.1c-8.9,0.9-17.7,3.4-26.7,1.7c8.7-1.8,17.5-2.9,25.8-5.6c8.2-2.6,15.9-6.6,24.2-9.5
	c-2.2,1.4-4.4,2.9-6.6,4.3c0.1,0.3,0.3,0.7,0.4,1c1.8-0.6,3.5-1.1,5.3-1.7c0.1,0.2,0.2,0.4,0.3,0.6c-3,2.1-6,4.1-8.9,6.2
	c0.1,0.2,0.2,0.4,0.2,0.6c2.6-0.9,5.3-1.9,8.6-3c-1.6,4.4-6.1,3.8-8.2,6.9c2.1-0.2,3.7-0.3,5.4-0.5c-3.9,4.6-9.6,6.4-13.8,10.5
	c4.3-1.6,8.5-3.3,13.2-5c-1.8,3.7-16.8,10.9-27.5,13.7c-8.5,2.2-21.1,1.9-31.4-1c10.7,0.1,20.7,0.4,30.4-2.5
	c-10.3,1.6-20.4,0.8-30.5-2c11.8,0.7,23.6,1.7,35.2-3.3c-9.4,0.4-18.4,0.8-27.4,1.1c0-0.4-0.1-0.8-0.1-1.3c4.4-0.4,8.8-0.9,13.1-1.1
	c9.5-0.4,18.1-3.8,26.5-7.7c0.8-0.4,1.5-1,2.3-1.5C248.1,247.7,247.9,247.3,247.6,246.8z M239.6,261.6c-0.1-0.4-0.3-0.9-0.4-1.3
	c-2.3,0.8-4.6,1.6-6.8,2.4c0.1,0.4,0.3,0.8,0.4,1.1C235,263,237.3,262.3,239.6,261.6z M66.8,52.1c-0.4-1-0.8-2-1.3-3
	c-0.5-1-1.1-2-2.2-3.9c2.1,0.4,3.4,0.7,5.2,1.1c1.6-0.2,3.7-0.5,6.3-0.9c1.1-0.9,2.6-2.1,3.4-2.7c6-1.5,11.3-2.9,16.6-4.1
	c1.6-0.3,3.3,0.3,4.1,0.3c-4,4.8-8.1,9.6-12.4,14.7c1,1.6,2.1,3.5,3.3,5.5c-0.3,0.2-0.6,0.4-0.9,0.6c-1.2-1.3-2.4-2.6-4-4.3
	c-1.1,1-2.1,1.9-3.1,2.9c-2.9,3-6.3,5-10.5,5.3c-2.9,0.2-5.2-0.5-6.6-3.5c-1.1-2.4-3.5-4.1-2.9-8c1.5,2.6,2.6,4.5,4,6.9
	c1.7,0.8,3.8,1.7,6.1,2.8c0.6-1.5,1-2.5,1.6-4c-1.7,0.5-3,0.8-4.3,1.2c-2-1.9-3-4.3-3-7.1c0,0,0.2-0.1,0.3-0.1
	C66.6,52,66.7,52,66.8,52.1c1.3,0.4,2.6,1.3,3.5-1.8C68.7,51.2,67.7,51.7,66.8,52.1z M75.4,53.6c-0.1-0.4-0.2-0.7-0.3-1.1
	c-2.4-0.5-3.5,1.1-4.8,2.4c0.2,0.3,0.4,0.7,0.5,1C72.4,55.2,73.9,54.4,75.4,53.6z M82.8,45.2c0-0.4,0-0.8-0.1-1.2
	c-1.4,0.1-2.8,0.2-4.2,0.3c0,0.4,0,0.7,0.1,1.1C80,45.3,81.4,45.2,82.8,45.2z M345,335.9c-0.8,1-1.6,2-2.5,2.9
	c-7.8,8.3-17.3,13.9-28,17.7c-2.5,0.9-4.8,2.1-7.2,3.1c12.5-0.6,37.9-16,41-25.4c-1-0.3-2-0.6-3.1-0.8c2.8-3.5,5.4-6.6,8-9.8
	c-1.1-0.8-1.7-1.2-2.5-1.8c1.7-2.7,3.3-5.3,4.9-7.9c-15.3,14.3-30.2,28.9-50.1,36.9c6.2-1.9,12.3-4.1,17.8-7.2
	c5.4-3.1,10.3-7.1,15.5-10.8c-8.1,12.7-21.8,17.2-34.3,23.3c12.7-3.2,24.4-8.1,34-17.3c1.7-1.7,3.2-3.9,6.1-3.7
	C344.6,335.3,344.8,335.6,345,335.9z M321.2,221.2c-4.2,10.7-11.2,19.2-20.5,25.9c7.8-3.1,12.6-9.9,18.9-15.1
	c0.1,1.5-0.1,2.8-0.6,3.9c-2.3,5-6.3,8.3-10.5,11.4c-1.6,1.2-3,2.5-4.6,3.8c0.3,0.4,0.7,0.8,1,1.1c4.4-3.8,9.1-7.4,13.2-11.6
	c2.3-2.3,3.7-5.6,5.6-8.3c0.8-1.2,1.9-2.2,3.3-3.7c-2.5,13.8-11.6,22-21.5,29.5c9.2-1.5,27.9-25,28.3-37c-1.2,1.3-2.5,2.6-3.7,3.9
	c-0.2-0.2-0.4-0.4-0.7-0.5c0.3-2,0.7-3.9,1-5.9c-0.9-0.4-1.7-0.8-2.8-1.3c0.5-2.4,1-4.6,1.6-6.9c-0.3-0.1-0.5-0.2-0.8-0.3
	c-1.5,2.9-2.9,5.9-4.6,8.7c-0.6,1-1.8,1.6-2.7,2.4L321.2,221.2z M303.2,323.4c4.3-2.2,8.7-4.2,12.8-6.8c5.6-3.6,11.1-7.5,16.4-11.6
	c3.3-2.5,6.5-5.3,9.3-8.2c6.5-6.9,8.6-16.1,12.6-24.4c-3.7,5.3-5.9,11.6-11.4,15.6c2.2-5.1,4.3-10.2,6.5-15.3
	c-5.3,6.5-9.6,13.6-15.1,19.7c-5.5,6.1-12.1,11-18.3,16.5c0.2,0.3,0.4,0.5,0.5,0.8c4.1-2.8,8.4-5.5,12.4-8.5c4-3.1,7.7-6.5,11.6-9.8
	c0.2,0.3,0.4,0.5,0.6,0.8c-9.8,14.3-24.7,22.1-40.1,30.8C302.5,323.3,303,323.6,303.2,323.4z M280.4,335.8c1,0,2,0.3,2.9,0
	c7.1-2.4,14.5-4.2,21.2-7.4c8.5-4.1,16.6-9.3,24.6-14.3c3.8-2.4,7.4-5.3,10.9-8.2c6.6-5.4,10.4-12.8,13.8-20.5
	c0.3-0.6,0.1-1.3,0.2-1.4c-3.6,4.4-7.4,9.1-11.2,13.7c-0.2,0.2-0.2,0.5-0.4,0.7c-2.2,2.7-3.9,5.9-6.6,7.9
	c-7.8,5.9-15.8,11.6-24.1,16.7c-5.2,3.2-11.1,5.4-16.8,7.6c-4.7,1.8-9.7,2.8-14.6,4.2C280.3,335,280.3,335.4,280.4,335.8z
	 M286.7,347.1c2-0.6,4-1.1,5.9-1.9c9.8-3.7,19.5-7.8,28.2-13.7c5.4-3.6,10.6-7.3,16-10.8c6.4-4.2,12.5-8.7,16.2-15.8
	c1.1-2.2,2.8-4.1,4.2-6.1c-0.3-0.2-0.5-0.5-0.8-0.7c-0.5,0.6-0.9,1.2-1.4,1.7c-4.4,4.9-8.8,9.8-13.3,14.5c-1.5,1.5-3.2,2.8-5,4
	c-5,3.4-10.1,6.6-15.1,10c-6.7,4.5-13.6,8.6-21.3,11.4c-4.8,1.7-9.5,4-14.2,6.1C286.4,346.3,286.6,346.7,286.7,347.1z M173.1,282.6
	c4.9,1.4,9.8,3.5,14.9,4.2c19.9,2.9,39.4,1.8,58.2-6.1c1.1-0.5,1.9-1.6,2.9-2.4c-0.2-0.3-0.4-0.6-0.6-1c-12,4.4-24.1,7.8-37,8.6
	c-13,0.8-25.5-1.6-38-4.7C173.3,281.6,173.2,282.1,173.1,282.6z M212.7,290.7c-11.5,1.5-22.7-0.5-34.5-2.1c13.5,8,58.9,4.9,67.8-4.8
	C235.1,287.4,224,289.2,212.7,290.7z M242.5,289.8c-6.6,1.5-13.2,2.7-19.7,4.5c-6.7,1.9-13.5,2.5-20.4,2.2
	c-6.6-0.3-13.2-1.2-19.8-1.9c17.6,6.9,36.6,6.1,57.2-1.7c1.2-0.5,2.2-1.5,3.3-2.3C242.9,290.3,242.7,290.1,242.5,289.8z
	 M293.5,350.1c0.6,0.1,1.3,0.4,1.8,0.1c8.3-3.7,17-6.9,24.9-11.4c8.1-4.6,15.6-10.4,23.2-15.9c3.7-2.7,6.4-6.3,8.2-11.3
	c-1,0.5-1.6,0.6-1.9,0.9c-5.4,6-11.3,11.4-18.3,15.5c-0.6,0.3-1.1,0.8-1.6,1.2c-6.2,6.7-14.6,9.8-22.3,14.2c-1,0.6-2.3,0.7-3.4,1.1
	c-3.7,1.5-7.3,3-11,4.5C293.3,349.5,293.4,349.8,293.5,350.1z M251,271.8c-9.8,3.8-19.9,7.2-30.3,8.3c-10.4,1.1-21,0.5-32.3,0.7
	C201,287.1,244.4,280.8,251,271.8z M240.2,269.1c-0.6,0.7-1,1.8-1.7,2c-7.4,2.7-15,5.2-23,5.3c-8,0-16.1-0.7-24.2-1
	c-0.8,0-1.6,0.3-2.4,0.4c0,0.4,0.1,0.8,0.1,1.2c14.2,1.4,28.5,2.8,42.5-0.8c7.8-2,15.6-5.1,22.4-9.9c-1.3-0.2-2.3,0.2-3.4,0.4
	c-3.5,0.9-6.9,1.7-10.4,2.5L240.2,269.1z M240.1,269.2c4.1-1.9,8.2-3.8,12.3-5.8c1.3-0.6,2.4-1.6,3.6-2.4c-0.2-0.3-0.3-0.5-0.5-0.8
	c-9.3,3.2-18.5,6.7-27.9,9.6c-9.5,2.9-19.3,1.9-29.2,1.4c0.7,0.9,1.4,1.5,2.2,1.6c4,0.5,8,1,12,1.1c9.5,0.1,18.6-1.9,27.5-4.9
	L240.1,269.2z M355.6,289.5c-0.5,0.7-1,1.5-1.5,2.2c-2.2,3.2-4.1,6.6-6.6,9.6c-5.9,7.4-13.5,12.9-21.5,18.1
	c-3.3,2.1-6.3,4.8-9.4,7.2c0.2,0.3,0.5,0.6,0.7,0.9c9.4-6.4,20.3-10.6,27.9-19.5c4.6-5.4,8.1-11.7,11.4-18
	C356.3,289.8,356,289.6,355.6,289.5z M236.8,297c-8.8,1.7-17.3,4.4-26,4.9c-8.8,0.5-17.8-1-27-1.6C200.8,306.9,231.7,305,236.8,297z
	 M321.2,221.3c0.3-1,0.2-2.2,0.8-3c2.4-3.2,2.5-6.8,2.4-10.6c-1.2,1.4-2,3.1-2.9,4.6c-2.6,4.7-5,9.4-7.8,14
	c-3.5,5.8-8.9,9.6-14.4,13.3c-2.3,1.6-4.5,3.5-6.7,5.3c4.3-0.9,13.9-7.4,16.8-10.6c3.9-4.4,7.9-8.7,11.8-13L321.2,221.3z
	 M210.4,307.5c-7.5,0.6-15.1-0.5-22.6-0.8c10.7,6.5,39.5,4.3,45.3-3.5C225.4,304.7,218,306.9,210.4,307.5z M281.3,224.6
	c5.6-1.2,9.9-4.5,14-8.3c4.8-4.3,7.7-9.9,10.2-15.7c1.2-2.8,3.5-5.5,2.3-9.6c-2.7,3.2-4.4,6.3-5.7,9.9c-2.5,6.8-6.1,12.8-12.1,17.1
	c-2.9,2.1-5.7,4.4-8.5,6.6L281.3,224.6z M241.2,237.2c-7.3,2.5-15,4.2-22,6.1c9.4,2.2,39.2-7.8,43.5-15.2
	C255.4,231.2,248.5,234.7,241.2,237.2z M318.9,206.9c-3.7,6-6.5,12-10.5,17c-4,5-9.2,8.9-13.9,13.4
	C303.6,235.8,321.4,215.2,318.9,206.9z M216.1,195.1c2.7-0.3,5.5-0.9,8.2-1c8.1-0.1,16.1-0.3,24-2.6c6.5-1.9,11.5-6.3,16.6-10.5
	c-7.7,3.6-14.7,8.8-23.4,9.8c-8.5,1.1-17.1,2-25.6,3.1C216,194.2,216,194.7,216.1,195.1z M262,169.2c-0.5,0.2-1.1,0.2-1.5,0.5
	c-1,0.7-1.9,1.5-2.8,2.3c-6.3,5.5-13.6,8.5-21.9,8.9c-4.4,0.2-8.9,0.1-13.3,0.2c-0.8,0-1.6,0.5-2.4,0.7c0,0.3,0.1,0.7,0.1,1
	c8,0.3,16,0.9,23.9-1.1c7.4-1.8,13.5-5.9,18.4-11.7C262.4,169.8,262.2,169.5,262,169.2z M263.4,174.8c-11.1,9.1-24,12.9-38.1,12.8
	C239.2,190.8,259.6,183.7,263.4,174.8z M247.6,152.7c-2.9,1.1-5.4,3.2-8.3,4.2c-3,1-6.3,1.3-9.4,1.8c-2.9,0.5-5.7,1-8.6,1.5
	c7.2,2.8,23-0.4,34-10.9C252,148.6,250.3,151.7,247.6,152.7z M227.5,310c-6.3,1.2-11.9,2.7-17.6,3.3c-5.8,0.5-11.7,0.1-17.7,0.1
	C202.8,318.1,220.8,316.2,227.5,310z M324.5,359.6c6.5-3.6,12.6-8.1,18.9-12.2c2.1-1.4,3.1-3.3,3.4-5.9
	c-9.5,10.5-22.1,15.9-34.3,22.1C316.5,362.3,320.9,361.6,324.5,359.6z M247,134.8c-5.3,2.2-10,4.7-14.9,6.2
	c-5,1.5-10.4,2.1-15.9,3.1C223.6,147.5,242.1,142.1,247,134.8z M258.5,158.1c-4.7,3-8.8,6.4-13.6,8.5c-4.8,2.1-10.1,2.8-15.3,4.2
	C238.4,173.4,257.3,165,258.5,158.1z M254.6,205.1c-4.5,2-9.6,2.8-14.4,4.1c0.1,0.3,0.2,0.5,0.2,0.8c9.8,0.8,25.8-6.4,26.6-12.5
	C262.7,200.2,258.9,203.2,254.6,205.1z M229.4,231.4c12-2.1,24.1-4.1,33.7-13.1c-10.2,7.3-22.4,9-34.2,11.4
	C229,230.3,229.2,230.9,229.4,231.4z M234.6,199.2c11.5-0.9,22.5-3.3,30.8-12.6c-4.9,2.4-9.5,5.7-14.7,7.5c-5.2,1.9-11,2.4-16.5,3.6
	C234.3,198.2,234.4,198.7,234.6,199.2z M254.7,154.7c-8.3,6-17.2,10.4-27.7,10.5c-0.5,0-1.1,0.6-2.3,1.4
	c13.1,0.9,23.1-3.7,31.3-12.6C255.6,154.3,255.1,154.4,254.7,154.7z M228,223.9c7,2.6,29.2-3.1,34.9-10.9
	C252.7,220.1,240.9,222.1,228,223.9z M250.5,139.8c-1.7,0.1-3.2,0.6-4.6,1.4c-6.7,4-13.6,7.4-21.8,6.8c-2.6-0.2-5.2,0.5-7.8,0.8
	C228.8,150.2,240.7,148.7,250.5,139.8z M239.8,204.2c9.5,0.1,17.6-3.7,25-9.4c0.6-0.5,1-1.4,1.4-2.1c-4.7,2-8.8,4.5-13.2,6.3
	c-4.4,1.8-9,2.9-13.5,4.3C239.6,203.6,239.7,203.9,239.8,204.2z M215.6,139.5c7,0.9,13.6-0.7,20.1-2.8c3.6-1.2,6.3-3.6,8.5-6.7
	c-1.1-0.1-1.9,0.1-2.8,0.4c-0.6,0.2-1.3,0.5-1.8,0.9c-5.9,5.7-13.6,5.9-21,6.9C217.7,138.4,216.7,139.1,215.6,139.5L215.6,139.5z
	 M345.2,349.5c-8.2,5.3-16.7,10.8-24.7,16C332.2,362.5,344.3,354.6,345.2,349.5z M320.7,369.9c9.7-1.8,17.9-6.2,24-14
	C336.7,360.6,328.7,365.2,320.7,369.9z M227.8,235.9c1.5,0.5,3.1,0.9,4.4,0.5c6.1-1.6,12.1-3.6,18.2-5.2c4.2-1.1,7.4-3.4,10.3-6.6
	C250.4,230.2,239.5,234,227.8,235.9z M265.9,205.3c-7.4,6.3-17.3,6.9-25.7,11.5C248,217.6,263.2,210.9,265.9,205.3z M286.6,341
	c9.3-3.1,18.5-6.3,27-11.4c-0.2-0.4-0.4-0.8-0.5-1.2c-9,3.9-17.9,7.7-26.9,11.6C286.3,340.3,286.5,340.7,286.6,341z M224.4,154.8
	c10.1,0.3,23-4.4,27.3-10.2c-1.1,0.6-1.8,1-2.5,1.3c-5.9,2.8-11.3,6.9-18.4,6.2c-1.6-0.1-3.2,0.3-4.7,0.8
	C225.5,153.3,225.1,154.2,224.4,154.8L224.4,154.8z M250.8,302.3c1.3,0.1,2.6,0.5,3.8,0.2c6.2-1.4,11.7-4.3,17.2-7.4
	c-0.1-0.3-0.3-0.7-0.4-1c-6.8,2.4-13.6,4.8-20.4,7.2C250.9,301.7,250.8,302,250.8,302.3z M302.6,189c-3.5,6.7-6.6,12.6-9.7,18.5
	C298.3,204.5,303.4,194.7,302.6,189z M185.4,268.8c-7.2-2.1-14.3-4.1-21.5-6.2c-0.1,0.4-0.2,0.9-0.4,1.3c6.9,3.2,14.1,5.3,21.7,5.8
	C185.3,269.5,185.3,269.1,185.4,268.8z M288.9,173.8c-1.7,3.3-3,5.9-4.4,8.6c-1.3,2.7-2.6,5.4-3.9,8.2
	C286,188.4,290.4,180.1,288.9,173.8z M217.4,132.9c5.5,2.6,18.3-0.7,21-5C231.7,129.5,224.6,131.2,217.4,132.9z M227.1,177.2
	c8.1,1.5,22.2-2,25-6.6c-4.4,1.7-8.2,3.7-12.2,4.6c-4.2,0.9-8.6,0.9-12.9,1.2C227,176.6,227.1,176.9,227.1,177.2z M214.4,323.3
	c-2.2,0.5-4.3,1.2-6.5,1.5c-2.2,0.3-4.5,0-6.8,0.1c-2.1,0.1-4.3-0.8-6.1,1c6.7,1.3,13.4,2.6,19.6-1.2
	C214.5,324.2,214.4,323.7,214.4,323.3z M220.1,318.1c-7.6,0.9-15.3,1.8-22.7,2.6C203,323.2,216.8,321.6,220.1,318.1z M185.1,275.3
	c-5.6-3.4-12.2-3.9-18.5-5.6C172.1,273.3,178.5,274.8,185.1,275.3z M213.8,120.9c7.5,3.6,14.8,2.4,21.9-1.5
	C228.6,122.8,221.1,120.7,213.8,120.9z M188.8,163.2c-5.7-1-11.4-1.9-17.2-2.9c-0.1,0.5-0.2,1-0.2,1.5c5.8,0.6,11.2,3.7,17.3,2.6
	C188.7,164,188.7,163.6,188.8,163.2z M221.9,127.6c6.9,0.6,13-0.9,17.7-6.4C234.4,125.3,227.5,124.8,221.9,127.6z M174.8,190.6
	c1.5,0.5,2.9,1,4.9,1.7c-1.3-3.4-1.4-3.3-3.4-3.4c-2.9-0.2-5.7-0.6-8.6-1c-1.4-0.2-2.7-0.3-4.1-0.4c-0.1,0.4-0.1,0.8-0.2,1.3
	c3.7,0.7,7.3,1.4,11,2.1C174.6,190.8,174.7,190.7,174.8,190.6z M168.2,275.9c6,1.6,11.6,4.9,18,5.1c0.1-0.4,0.2-0.8,0.3-1.2
	c-6-1.6-12-3.2-18.1-4.8C168.3,275.3,168.2,275.6,168.2,275.9z M165.9,177.2c5,0,9.7,2.5,14.8,0.7c-4.9-0.3-9.5-3-14.6-2.3
	C166,176.1,166,176.7,165.9,177.2z M164.7,258.9c5,2.3,10.2,3.7,15.6,4.5c0.1-0.4,0.2-0.7,0.3-1.1c-5.1-1.5-10.2-3-15.3-4.6
	C165.1,258.1,164.9,258.5,164.7,258.9z M168.1,170.8c4.3,2.1,8.9,2.4,13.5,2.3C177.2,171.4,172.8,170.2,168.1,170.8z M73.7,41.2
	c4.2-0.8,8.4-1.5,12.6-2.4c1.3-0.3,2.4-1.1,3.6-1.6c-0.1-0.3-0.2-0.6-0.4-0.9c-4.9,0.3-9.7,1.5-14.2,3.4
	C74.7,39.8,74.3,40.7,73.7,41.2L73.7,41.2z M254.1,307.1c5.4,0.4,9.5-2.6,13.7-5.2C263.3,304,258.1,304,254.1,307.1z M288.6,188.6
	c1.7-1.8,3.3-3.7,5-5.6c-0.4-1.4-0.7-2.6-1-3.8c-0.4-0.1-0.7-0.1-1.1-0.2c-1.3,2.9-2.5,5.9-3.8,8.8C288,188,288.3,188.3,288.6,188.6
	z M171.9,243.7c-3-2.4-6.8-3-10.4-3.8c-0.8-0.2-1.7,0-2.5,0c0,0.3-0.1,0.6-0.1,0.9C162.9,242.9,167.4,243.5,171.9,243.7L171.9,243.7
	z M280.1,316.9c-4.2,1.1-8.7,1.4-12.5,3.9c0.1,0.4,0.2,0.7,0.3,1.1c4.2-1.2,8.3-2.3,12.5-3.5C280.3,317.9,280.2,317.4,280.1,316.9z
	 M271.8,326.7c4.3,0.2,8.3-0.9,12-3.1c-0.1-0.4-0.2-0.8-0.3-1.2c-4,1-7.9,2-11.9,2.9C271.6,325.8,271.7,326.3,271.8,326.7z
	 M181.5,138c3.9,1.9,7.8,2.2,11.9,1.6C190.4,137.4,183.3,136.6,181.5,138z M341.1,368.7c-2.9,2-5.8,4.1-8.7,6.1
	c4.2-0.2,7.7-1.3,9.2-5.4C341.4,369.2,341.2,369,341.1,368.7z M185,133.6c4,0,7.4,0,10.8,0C193.1,131.4,187.9,131.1,185,133.6z
	 M293,189.6c4-1.8,4-5.1,4-8.2C295.8,184,291.8,185.4,293,189.6z M172.4,194.7c-3.5-0.5-7.1-1-10.6-1.5c-0.1,0.5-0.2,1-0.2,1.5
	c3.5,0.7,7,1.3,10.5,2C172.2,196,172.3,195.4,172.4,194.7z M286.4,328.3c-4.1-0.8-7.4,1.5-11,2.9C279.4,331.3,283.2,331,286.4,328.3
	z M174.5,249.4c-3.9-0.9-7.9-1.9-11.8-2.8c-0.1,0.4-0.2,0.8-0.3,1.2c3.9,1,7.8,2.1,11.7,3.1C174.2,250.3,174.4,249.9,174.5,249.4z
	 M171.5,200.9c-3.8-0.7-7.6-1.4-11.4-2.1c-0.1,0.4-0.1,0.7-0.2,1.1c3.3,3.5,7.8,0.6,11.4,2.3C171.4,201.8,171.4,201.4,171.5,200.9z
	 M187.2,145.1c-3.3-1.1-5.8-2.7-8.8-0.9C180.9,145.5,183.4,147,187.2,145.1z M304.7,316.2c3.3-1.6,7.1-2.3,9.7-5.3
	c-0.2-0.3-0.3-0.6-0.5-0.9c-3.3,1.7-6.5,3.4-9.8,5.1C304.4,315.5,304.5,315.8,304.7,316.2z M164.4,183.5c3.2,0.3,6.4,0.6,9.6,1
	c0.1-0.4,0.1-0.8,0.2-1.2c-3.2-0.5-6.4-1.1-9.6-1.6C164.6,182.2,164.5,182.8,164.4,183.5z M209.5,330c-3.2,0.4-6.4,0.8-9.5,1.2
	c0,0.4,0.1,0.8,0.1,1.1c3.3,0.6,6.5,0.6,9.6-1.1C209.7,330.8,209.6,330.4,209.5,330z M342.2,374.7c-3.7,0.1-5.1,2.6-6.8,4.7
	C338.4,379.1,340.9,378.2,342.2,374.7z M220,203.7c-3.1,0.3-6.2,0.6-9.3,0.9c3.2,0.6,6.3,2.7,9.5,0.3
	C220.1,204.5,220,204.1,220,203.7z M165.8,236.6c3.2-0.2,5.9,2.7,9.3,1.3c0.1-0.4,0.1-0.7,0.2-1.1c-3.1-0.6-6.1-1.1-9.2-1.7
	C166,235.6,165.9,236.1,165.8,236.6z M272.8,313c-3.2-0.1-5.9,1.7-8.9,2.6c0.1,0.3,0.2,0.6,0.2,0.9c3-0.7,5.9-1.5,8.9-2.2
	C273,313.9,272.9,313.4,272.8,313z M188.4,271.3c2.6,0.1,5.2,0.2,7.9,0.4c0-0.4,0-0.8,0-1.1c-2.6-0.3-5.2-0.6-7.9-1
	C188.4,270.1,188.4,270.7,188.4,271.3z M179.9,156.6c-2-1-4.1-1.9-6.4-0.7c-0.1,0.3-0.1,0.7-0.2,1c2.1,0.4,4.2,0.8,6.3,1.2
	C179.8,157.6,179.8,157.1,179.9,156.6z M263.2,310.8c2.2-0.9,4.4-1.7,6.6-2.6c-0.1-0.3-0.3-0.7-0.4-1c-2.8-0.9-4.6,1.1-6.6,2.5
	C262.9,310.1,263,310.4,263.2,310.8z M175.3,255.3c-2.7-0.6-5.4-1.2-8.2-1.7c-0.1,0.3-0.1,0.5-0.2,0.8c2.6,0.8,5.3,1.7,7.9,2.5
	C175,256.4,175.2,255.9,175.3,255.3z M342,379.4c-1.3,1-2.5,2.1-4.1,3.4c1.2,0.5,1.9,0.8,2.9,1.2c0.8-1.4,1.5-2.6,2.2-3.8
	C342.7,380,342.4,379.7,342,379.4z M160.7,223.2c2.1,0.5,4.2,1,6.3,1.5c0.1-0.5,0.2-0.9,0.3-1.4c-2.1-0.3-4.3-0.7-6.4-1
	C160.9,222.6,160.8,222.9,160.7,223.2z M203.9,342c-2.5-2.3-4.1-2.5-7.1-0.6C199.1,343.3,201.6,342.2,203.9,342L203.9,342z
	 M224.5,154.9c-2.4-1.5-4.9-1.2-7.4-0.9c0,0.3,0,0.5,0,0.8C219.6,154.8,222,154.8,224.5,154.9L224.5,154.9z M300.5,268.7
	c1.9-0.8,3.8-1.6,5.6-2.4c-2.9-1.8-4.3,0.3-6.1,1.3C300.2,267.9,300.4,268.3,300.5,268.7z M175.4,151.5c1.7,0.2,3.5,0.5,5.2,0.7
	c0.1-0.5,0.1-0.9,0.2-1.4c-1.7-0.4-3.4-0.7-5.1-1.1C175.6,150.3,175.5,150.9,175.4,151.5z M205,335.7c-2.2,0-4.1,0-5.9,0
	C202.2,338,202.4,338,205,335.7z M194.7,126.7c-1.6-0.1-3.2-0.3-4.8-0.4c0,0.5-0.1,0.9-0.1,1.4c1.6,0.2,3.2,0.4,4.8,0.6
	C194.6,127.8,194.6,127.2,194.7,126.7z M176.1,166.3c-1.7-0.2-3.5-0.4-5.2-0.7c-0.1,0.4-0.1,0.8-0.2,1.1c1.7,0.4,3.4,0.7,5.1,1.1
	C175.9,167.3,176,166.8,176.1,166.3z M346,388.5c1.8,0.8,3.6,1.6,5.5,2.5c0.1-0.2,0.2-0.4,0.3-0.6c-1.8-0.9-3.5-1.8-5.3-2.8
	C346.3,387.9,346.1,388.2,346,388.5z M205.4,182c1.8,0.4,3.2,0.7,4.6,1C207.9,180.4,207.9,180.4,205.4,182z M190.5,246.4
	c-1.1,0-2.1,0-3.2,0c0,0.4,0,0.7,0,1.1c1.1,0,2.1,0,3.2,0C190.5,247.1,190.5,246.7,190.5,246.4z M225.7,236c-1.9,0-3.8,0-5.7,0
	c0,0.2,0,0.5,0,0.7c1.9,0,3.8,0,5.7,0C225.7,236.4,225.7,236.2,225.7,236z M158.2,228.9c1.5,0.2,3,0.4,4.5,0.6
	c0-0.2,0.1-0.4,0.1-0.6c-1.5-0.5-2.9-0.9-4.4-1.4C158.4,228,158.3,228.5,158.2,228.9z M345.1,385.3c-1.2-1.6-2.4-1.5-4.3,0.7
	c1.8,0.2,3,0.4,4.2,0.5C345,386.1,345,385.7,345.1,385.3z M163.3,234.2c-1.5-0.2-2.9-0.3-4.4-0.5c0,0.4-0.1,0.8-0.1,1.2
	c1.4,0.2,2.9,0.4,4.3,0.6C163.2,235.2,163.2,234.7,163.3,234.2z M205.1,194.3c1.1,0,2.2,0,3.3,0c0-0.3,0-0.7,0.1-1
	c-1.1-0.1-2.2-0.3-3.3-0.4C205.2,193.4,205.2,193.9,205.1,194.3z M201.8,116.7c-1,0.1-2,0.2-2.9,0.2c0,0.4,0,0.7,0,1.1
	c1,0,1.9,0,2.9,0C201.8,117.6,201.8,117.2,201.8,116.7z M307.8,301.4c0.9-0.3,1.8-0.7,2.7-1c-0.1-0.4-0.3-0.8-0.4-1.1
	c-0.9,0.3-1.9,0.5-2.8,0.8C307.4,300.5,307.6,301,307.8,301.4z M304,308.4c-0.9,0.2-1.9,0.5-2.8,0.7c0.1,0.4,0.2,0.8,0.3,1.2
	c1-0.2,1.9-0.3,2.9-0.5C304.3,309.3,304.2,308.8,304,308.4z M294,318.9c-1,0.5-1.9,1-3.1,1.6C293.5,321.3,293.5,321.3,294,318.9
	L294,318.9z M204.8,199c0.9,0.1,1.7,0.1,2.6,0.2c0.1-0.4,0.1-0.7,0.2-1.1c-0.8-0.2-1.6-0.4-2.4-0.6C205,198,204.9,198.5,204.8,199z
	 M205.4,176.4c1.1,0,2.2,0,3.3,0c0-0.4,0-0.7,0-1.1c-1,0-2.1,0-3.1,0C205.5,175.7,205.5,176.1,205.4,176.4z M211.8,177.5
	c1.1-0.1,2.2-0.1,3.3-0.2c0-0.4,0-0.7,0-1.1c-1.1-0.1-2.2-0.2-3.2-0.3C211.9,176.5,211.9,177,211.8,177.5z M203.4,175
	c-0.9,0.1-1.9,0.2-2.8,0.2c0,0.4,0,0.8,0.1,1.2c0.9,0,1.8,0,2.8,0C203.4,175.9,203.4,175.5,203.4,175z M215.3,166.8
	c1.1,0,2.2,0,3.3,0c0-0.3,0-0.7,0-1c-1.1,0-2.2,0-3.2,0C215.4,166.1,215.3,166.4,215.3,166.8z M171.9,243.7c1.3,0.3,2.7,0.7,4,1
	c0.1-0.4,0.1-0.7,0.2-1.1C174.8,242,173.3,243.2,171.9,243.7L171.9,243.7z M289.5,280.1c-0.9,0.1-1.7,0.2-2.6,0.3
	c0,0.4,0.1,0.9,0.1,1.3c0.9-0.1,1.7-0.2,2.6-0.3C289.5,281,289.5,280.5,289.5,280.1z M73.8,41.3c-1.5,0.4-2.9,0.8-4.4,1.2
	c0.1,0.4,0.3,0.7,0.4,1.1C71.2,42.7,72.4,41.9,73.8,41.3L73.8,41.3z M207.2,204.4c-0.8,0-1.6-0.1-2.4-0.1c0,0.3-0.1,0.7-0.1,1
	c0.8,0.1,1.6,0.3,2.4,0.4C207.1,205.3,207.1,204.9,207.2,204.4z M164.2,206.8c0.7,0.2,1.4,0.3,2.1,0.5c0.1-0.4,0.2-0.7,0.3-1.1
	c-0.7-0.2-1.4-0.3-2.1-0.5C164.4,206,164.3,206.4,164.2,206.8z M193.6,262.4c1-0.1,2-0.2,2.9-0.3c0-0.3,0-0.6-0.1-0.9
	c-1,0-2,0-2.9,0C193.6,261.7,193.6,262,193.6,262.4z M299.1,185.9c-0.4,0.6-0.8,1.3-1.2,1.9c0.2,0.2,0.5,0.3,0.7,0.5
	c0.5-0.6,0.9-1.2,1.4-1.8C299.7,186.2,299.4,186.1,299.1,185.9z M184.9,197c-0.8-0.2-1.5-0.4-2.3-0.6c-0.1,0.4-0.2,0.7-0.2,1.1
	c0.8,0.1,1.6,0.3,2.3,0.4C184.8,197.7,184.8,197.4,184.9,197z M293.6,279.3c0.5,0,0.9-0.5,1.3-0.7c-0.1-0.2-0.1-0.4-0.2-0.6
	c-0.7,0-1.4,0.1-2.9,0.1C292.9,278.8,293.3,279.3,293.6,279.3z M169.3,231.4c0.8,0.1,1.6,0.1,2.4,0.2c0-0.3,0-0.6,0.1-0.8
	c-0.8-0.1-1.6-0.2-2.3-0.3C169.4,230.7,169.3,231.1,169.3,231.4z M255.9,166.7c-0.6,0.8-1.2,1.6-1.8,2.4c0.1,0.1,0.2,0.2,0.3,0.3
	c0.8-0.7,1.5-1.3,2.3-2C256.3,167.2,256.1,166.9,255.9,166.7z M293.9,318.8c1.1,0.3,2.2,0.5,3.3,0.8c0-0.5,0-0.9,0-1.4
	C296.2,318.4,295.1,318.7,293.9,318.8L293.9,318.8z M215.7,139.5c-1.3-0.7-2.7-1.9-4.1-0.9c0,0.4,0,0.7,0,1.1
	C212.9,139.6,214.3,139.6,215.7,139.5L215.7,139.5z M182.7,263.7c0.7,0.1,1.5,0.2,2.2,0.3c0-0.3,0.1-0.6,0.1-0.9
	c-0.7-0.1-1.5-0.2-2.2-0.3C182.8,263.2,182.7,263.5,182.7,263.7z M183.3,247.5c0.6,0.1,1.1,0.3,1.7,0.4c0.1-0.2,0.2-0.5,0.3-0.7
	c-0.5-0.3-1-0.6-1.5-0.8C183.6,246.8,183.5,247.2,183.3,247.5z M198.1,347.5c0.2-0.6,0.4-1.2,0.6-1.8c-0.3-0.1-0.6-0.3-0.9-0.4
	c-0.3,0.6-0.6,1.1-0.9,1.7C197.3,347.2,197.7,347.3,198.1,347.5z M178,257.4c0.7,0.1,1.5,0.2,2.2,0.3c0-0.3,0.1-0.5,0.1-0.8
	c-0.7-0.2-1.4-0.4-2.2-0.6C178.1,256.7,178,257,178,257.4z M194,266.5c0.7-0.1,1.4-0.1,2.1-0.2c0-0.2,0-0.5,0-0.7
	c-0.7-0.1-1.4-0.1-2.1-0.2C194,265.8,194,266.2,194,266.5z M294.9,326.4c0.5-0.1,0.9-0.5,1.4-0.8c-0.1-0.2-0.1-0.4-0.2-0.6
	c-0.7,0.1-1.5,0.1-3.1,0.3C294.2,325.9,294.6,326.4,294.9,326.4z M226.3,204.2c-0.9,0-1.8,0.1-2.6,0.1c0,0.3,0,0.7,0,1
	c0.9,0.1,1.7,0.2,2.6,0.2C226.3,205.1,226.3,204.6,226.3,204.2z M289.1,327.7c0.8-0.1,1.6-0.2,2.3-0.3c0-0.3,0-0.6-0.1-0.8
	c-0.8,0-1.5,0-2.3,0C289.1,327,289.1,327.3,289.1,327.7z M259.6,83.1c0.8,0.1,1.6,0.1,2.3,0.2c-1.6-1.5-1.6-1.5-2.3,0.1L259.6,83.1z
	 M77,294.4c-5.6-2-11.3-3.6-16.7-6.1c-5.3-2.5-10.2-5.8-15.3-8.8c-0.2,0.3-0.3,0.5-0.5,0.8c9.8,8.8,22.3,13.1,34,19.8
	c-1.1,0.3-1.7,0.7-2,0.6c-9.7-4.4-19.3-8.8-29-13.2c10.6,6.8,20.8,14.2,32.3,19.6c-10.6-1.4-19.1-8.7-29.4-10.8
	c0.7,0.9,1.5,1.6,2.4,2.1c6.1,3.3,12.2,6.8,18.4,9.8c4,2,8.3,3.5,12.8,3.9c1.7-5.4-0.8-19.2-4.5-26.9c0.2-0.9,0.5-1.8,0.7-2.5
	c-5.4-1.8-10.7-3.2-15.8-5.3c-5.1-2-10-4.7-15-7c-0.2,0.3-0.3,0.5-0.5,0.8c4.6,2.9,9.2,5.8,13.8,8.6c4.6,2.9,10.5,3.4,14.5,7.7
	c-7.4-0.5-13.9-4-20.6-6.6c-0.1,0.3-0.3,0.7-0.4,1c7.1,3.7,14.2,7.5,21.3,11.2C77.3,293.5,77.1,293.9,77,294.4z M160.1,299.7
	c-25.2-1.2-48.5-7.3-70-19.5C100.2,292.7,150.4,306.8,160.1,299.7z M123.5,300c-10-2.5-19.1-7.4-29.1-9.8
	c18.3,11.4,37.8,18.4,59.8,14.7C143.9,303.3,133.6,302.5,123.5,300z M107.9,283.5c-0.5,2.3,1.6,2.3,2.8,2.7
	c6.7,2.3,13.7,4.2,20.2,6.9c9.5,3.9,19.4,4.1,29.4,3.8c0.9,0,1.9-0.5,2.8-0.7c0-0.3,0-0.7,0-1c-1.7-0.2-3.3-0.6-5-0.6
	c-11.6-0.1-22.6-3.4-33.7-6C118.8,287.2,113.4,285.2,107.9,283.5L107.9,283.5z M119.6,304.6c-9-2.5-17.6-6.4-26.4-9.7
	c-0.1,0.3-0.2,0.6-0.3,0.9c16.6,10.3,34.5,16.3,54.4,14.1C138,308.2,128.6,307.1,119.6,304.6z M117.5,309.5
	c-7.4-2.1-14.6-5.1-21.9-7.7c9.8,9.7,38.9,15.3,45.1,12.6C132.7,312.8,125,311.6,117.5,309.5z M133.1,318.1
	c-4.8-1.4-9.8-1.9-14.6-3.2c-5-1.3-9.9-3.4-14.8-5.1c-4.7-1.5-8.7-4.8-13.8-5.1C103.1,313.2,117,319.5,133.1,318.1z M92.4,311.7
	c10.6,5.9,21.4,11.2,34,10.4C115,318.6,103.7,315.1,92.4,311.7z M119.6,325.1c-8-2.3-16.1-4.6-24.1-6.9c-0.1,0.4-0.2,0.7-0.3,1.1
	c7.6,4,15.5,6.6,24.1,7C119.4,325.9,119.5,325.5,119.6,325.1z M107.9,283.5c-6.2-3.7-12.5-7.4-18.7-11.1c-1.3-0.8-2.6-2.1-4.4-0.1
	c0.5,0.5,0.9,1.1,1.5,1.3c5.9,3.2,11.8,6.4,17.8,9.4C105.1,283.7,106.6,283.4,107.9,283.5L107.9,283.5z M94,323.5
	c5.2,5,15.5,7.4,19.7,4.7C107.2,326.6,100.9,325.1,94,323.5z M100.6,267.7c-5.1-2.5-8.9-7.6-15.2-7.6
	C89.8,264.3,94.9,266.6,100.6,267.7z M98.3,272c-4.1-2.3-8.3-4.6-12.4-6.9C86.8,268.9,94.3,273,98.3,272z M92.5,216
	c5.8,5.8,9.8,7.7,14.5,6.4c-2.5-1-5-2-7.5-3c0,0.1-0.1,0.2-0.1,0.3c-2.1-1.5-4.3-2.9-6.4-4.4C92.9,215.5,92.7,215.8,92.5,216z
	 M89.8,234.4c3.3,4.1,8.1,6.8,12.2,6.9C99.8,238.3,94.4,235.3,89.8,234.4z M87.2,237.8c3.2,4.1,7.3,6.6,12.3,7.7
	c0.2-0.3,0.4-0.7,0.6-1c-4.1-2.5-8.3-5-12.4-7.5C87.5,237.3,87.3,237.6,87.2,237.8z M95.7,211.6c4.7,4.4,10.4,7,12.9,6
	c-4.2-2.3-8.3-4.6-12.4-6.9C96,211,95.8,211.3,95.7,211.6z M97.9,258.9c-3.5-1.6-6.1-4.9-10.5-4.7c-0.2,0.3-0.3,0.6-0.5,0.9
	c3.4,1.8,6.8,3.5,10.1,5.3C97.3,260,97.6,259.4,97.9,258.9z M106.5,331.5c-4-1.1-8.1-2.2-12.1-3.3c3.3,3.7,7.4,4.5,11.8,4.4
	C106.3,332.3,106.4,331.9,106.5,331.5z M91.5,245.8c3.3,4,8.1,5,12.6,6.6c-3.7-3.2-8.3-4.8-12.7-6.5L91.5,245.8z M93.2,332.9
	c2.1,3.6,5.4,4.1,10.1,1.8C99.6,334.1,96.6,333.5,93.2,332.9z M92.4,230.7c3.3,1.8,6.6,3.6,9.9,5.4c0.2-0.4,0.4-0.7,0.6-1.1
	c-3.2-1.9-6.5-3.7-9.7-5.6C92.9,229.8,92.7,230.3,92.4,230.7z M163.8,124.9c3.3,0.8,6.6,1.7,9.9,2.5c0.1-0.4,0.2-0.9,0.4-1.3
	c-3.3-0.9-6.6-1.8-9.9-2.7C164.1,123.9,163.9,124.4,163.8,124.9z M86,248.4c3,1.9,5.9,3.7,8.9,5.6c0.2-0.4,0.5-0.8,0.7-1.2
	c-2.9-1.9-5.9-3.9-8.8-5.8C86.5,247.5,86.3,247.9,86,248.4z M136.1,158.9c-2.2-1.2-3.8-3.4-6.5-3.5c-0.2,0.4-0.4,0.8-0.6,1.2
	c2.2,1.1,4.4,2.3,6.6,3.4C135.8,159.6,135.9,159.2,136.1,158.9z M95.8,224.5c-0.1,0.3-0.3,0.6-0.4,0.9c2.2,1.2,3.6,3.9,7.1,2.4
	C100.3,226.6,98,225.5,95.8,224.5z M92.8,340.9c1.6,1.7,3.2,1.3,4.9-1c-1.6-0.1-3.1-0.1-4.7-0.2C93,340.1,92.9,340.5,92.8,340.9z
	 M52.6,230.7c2.1,1.4,4.2,2.8,6.2,4.2c0.2-0.3,0.4-0.6,0.6-0.9c-2.1-1.4-4.2-2.8-6.3-4.2C52.9,230.1,52.8,230.4,52.6,230.7z
	 M108.5,278.1c-1.8-1.8-4.1-2.6-6.4-3.1c-0.2,0.5-0.3,0.9-0.5,1.4c2.3,0.5,4.6,1.1,6.9,1.6L108.5,278.1z M109.5,191.7
	c-1.2-0.3-2.3-0.6-3.5-0.9c-0.1,0.4-0.2,0.8-0.4,1.2c1.1,0.4,2.2,0.8,3.4,1.3C109.2,192.8,109.3,192.2,109.5,191.7z M108.8,260.8
	c1.2,0.4,2.5,0.8,3.7,1.2c0.1-0.4,0.3-0.8,0.4-1.2c-1.2-0.4-2.5-0.8-3.7-1.2C109.1,260,109,260.4,108.8,260.8z M108.6,271.4
	c-1.6-0.6-3.3-1.1-4.9-1.7c-0.1,0.2-0.2,0.4-0.3,0.5c1.5,0.8,3.1,1.6,4.6,2.4C108.2,272.2,108.4,271.8,108.6,271.4z M91.9,346.4
	c0.9-0.2,1.8-0.3,2.7-0.5c-0.1-0.4-0.1-0.8-0.2-1.2c-0.9,0.1-1.8,0.1-2.8,0.2C91.7,345.4,91.8,345.9,91.9,346.4z M91.4,245.9
	c-1.1-1.1-2.3-2.3-3.4-3.4c-0.2,0.3-0.5,0.6-0.7,0.9c1.4,0.8,2.8,1.6,4.2,2.4L91.4,245.9z M126.7,227.2c0.6,0,1.3,0,2,0
	c0.1-0.2,0.1-0.4,0.2-0.6c-0.6-0.3-1.2-0.6-1.7-0.9c-0.3,0.3-0.4,0.4-0.5,0.5C126.6,226.4,126.6,226.7,126.7,227.2z M117.6,262.2
	c-1-0.1-1.9-0.1-2.9-0.2c0,0.4-0.1,0.7-0.1,1.1c1,0.1,2,0.3,2.9,0.4C117.6,263.1,117.6,262.6,117.6,262.2z M30.3,275.7
	c0.8,0.4,1.7,0.8,2.5,1.3c0.2-0.4,0.3-0.7,0.5-1.1c-0.9-0.4-1.7-0.8-2.6-1.2C30.7,275,30.5,275.4,30.3,275.7z M91.5,354.9
	c-0.7-0.1-1.5-0.2-2.2-0.3c0,0.3-0.1,0.6-0.1,0.9c0.7,0.1,1.5,0.3,2.2,0.4C91.4,355.6,91.5,355.3,91.5,354.9z M134.4,250.5
	c-1.1-0.5-2.2-1-3.2-1.6c-0.1,0.2-0.2,0.5-0.3,0.7c0.3,0.2,0.6,0.6,0.9,0.6C132.7,250.4,133.6,250.4,134.4,250.5L134.4,250.5z
	 M385.9,222.4c-4,4.4-5.8,9.8-7.6,15.3c2.4-3.3,4.4-6.9,6.2-10.5c0.7-1.5,0.9-3.2,1.3-4.9L385.9,222.4z M358.4,189.2
	c0.5-2.4,0.9-4.7,1.4-7.1c-0.4-0.1-0.8-0.1-1.2-0.2c-0.5,2.4-1,4.7-1.6,7.1C357.5,189,358,189.1,358.4,189.2z M390.2,243.1
	c-1.2,2.3-2.5,4.6-3.7,6.9c0.3,0.2,0.7,0.4,1,0.6c1.3-2.2,2.6-4.4,3.9-6.7C390.9,243.6,390.5,243.4,390.2,243.1z M366.8,239.3
	c-0.2-0.2-0.4-0.4-0.6-0.6c-1.6,1.8-3.2,3.7-4.8,5.5C365.3,244.4,365.2,241.2,366.8,239.3z M367.2,193.8c-1.7,1.6-1.7,3.6-1.4,5.6
	c0.3,0.1,0.6,0.2,1,0.2c0.5-1.9,1-3.8,1.5-5.6C367.9,194,367.6,193.9,367.2,193.8z M384.8,252.2c-1.2,1.5-2.5,3.1-3.7,4.6
	c0.3,0.3,0.7,0.5,1,0.8c1.2-1.6,2.5-3.2,3.7-4.7C385.5,252.6,385.1,252.4,384.8,252.2z M371.8,240.2c0.9-1.5,1.9-3.1,2.8-4.6
	c-0.3-0.2-0.6-0.4-1-0.6c-1,1.5-2,2.9-3.1,4.4C371,239.7,371.4,239.9,371.8,240.2z M357.9,210.8c0.8-2.2,1.5-4,2.1-5.8
	C357.2,207.8,357.2,207.8,357.9,210.8z M350.3,169.7c-0.2,1.6-0.3,3.2-0.5,4.8c0.3,0,0.7,0,1,0.1c0-1.6,0-3.2,0-4.8
	C350.7,169.7,350.5,169.7,350.3,169.7z M364.3,183.1c0-1.5,0-3,0-4.6c-0.2,0-0.3,0-0.5,0c0,1.5,0,3,0,4.6
	C364,183.1,364.1,183.1,364.3,183.1z M370.3,231.7c-0.7,1.1-1.4,2.2-2.1,3.3c0.3,0.2,0.6,0.4,0.9,0.6c0.8-1,1.5-2.1,2.3-3.1
	C371,232.2,370.7,231.9,370.3,231.7z M369,222.6c-0.5,1.1-1.1,2.3-1.6,3.4c0.2,0.1,0.4,0.2,0.7,0.3c0.6-1.1,1.2-2.3,1.8-3.4
	C369.5,222.9,369.3,222.8,369,222.6z M380.2,223.1c-0.8,0.7-1.5,1.4-2.3,2.1c0.3,0.3,0.6,0.6,0.9,0.9c0.7-0.8,1.4-1.6,2-2.3
	C380.7,223.5,380.4,223.3,380.2,223.1z M385.8,222.3c0.6-0.9,1.1-1.7,1.7-2.6c-0.4-0.2-0.9-0.3-1.3-0.5c-0.1,1.1-0.2,2.1-0.3,3.2
	L385.8,222.3z M278.7,157.2c0.4-0.1,0.8-0.2,1.1-0.4c0.6-0.3,1.2-0.6,1.8-1c8-5.1,15.1-11,20.6-19c3.6-5.2,6.1-10.3,5.5-16.8
	c-5.4,15.7-15.2,28-29.7,36.5C278.2,156.7,278.4,157,278.7,157.2z M290.5,126.2c3.9-4,5.8-8.9,6.6-14.2c-0.3-0.1-0.7-0.3-1-0.4
	c-1.8,4.9-3.6,9.8-5.5,14.7L290.5,126.2z M290.2,133.9c4.7-2.8,6.3-7.5,8.2-12.1c-0.3-0.2-0.5-0.3-0.8-0.5
	c-2.5,4.2-4.9,8.5-7.4,12.7L290.2,133.9z M290.3,134c-2.8,2.7-5.5,5.4-8.3,8.1c0.3,0.2,0.5,0.5,0.8,0.8c3.3-2.2,6.6-4.5,7.4-9
	L290.3,134z M287.1,123.3c1.2-2.5,2.5-5,3.7-7.5c-0.3-0.2-0.7-0.3-1-0.5c-1.2,2.4-2.4,4.9-3.7,7.3
	C286.5,122.9,286.8,123.1,287.1,123.3z M281.6,129.8c3.1-1.7,3.3-2,3.4-5.3c-1.6,1.8-2.8,3.2-4,4.6
	C281.2,129.4,281.4,129.6,281.6,129.8z M212,56.6c-1.1-0.7-2-1.3-2.3-1.5c-0.8-1.9-1.4-3.3-1.9-4.6c-0.3,0.1-0.5,0.2-0.8,0.3
	c0,1.6,0,3.1,0,4.7c-0.8,0.3-1.4,0.6-2.2,1c0.9,1.4,1.7,2.5,2.7,4c-2-0.6-3.4-1.1-4.8-1.5c-0.1,0.2-0.2,0.5-0.3,0.7
	c1.1,1,2.2,2,3.3,3c-0.2,0.3-0.5,0.6-0.7,0.9c-1.6-1.2-3.2-2.5-4.8-3.7c-0.2,0.1-0.4,0.2-0.6,0.3c0.8,1.6,1.5,3.1,2.4,4.7
	c3.6,0.3,6.6,2.8,10.1,1.4C212,62.7,212,59.6,212,56.6z M198.2,55.8c-1.1-1.3-2.2-2.5-3.3-3.8c-0.4,0.3-0.7,0.6-1.1,0.9
	c1,1.3,2,2.7,3.1,4C197.3,56.6,197.8,56.2,198.2,55.8z M31.2,312.1c6.4,10.2,36,22.8,44.5,21.8C60.3,328.4,45.3,322,31.2,312.1z
	 M234.4,12c-3-0.2-3.4,1.4-2.7,3.8C232.6,14.5,233.5,13.3,234.4,12z M236.3,14.6c-1.4,1.3-2.7,2.6-4.1,3.9c0.3,0.3,0.7,0.6,1,0.9
	c1.3-1.4,2.5-2.8,3.8-4.2C236.8,15,236.5,14.8,236.3,14.6z M224.4,8.8c-0.4,1.3-0.7,2.6-1.1,3.9c0.3,0.1,0.7,0.2,1,0.3
	c0.4-1.3,0.9-2.5,1.3-3.8C225.3,9,224.9,8.9,224.4,8.8z M229.5,52.8c0.5-1.4,1.5-2.7,0.7-4.1c-0.4,0-0.7,0-1.1,0
	c-0.1,1.4-0.2,2.7-0.4,4.1C229,52.7,229.2,52.8,229.5,52.8z M73,23.7c2.3,0.6,4.6,1.3,6.9,1.9c0.1-0.4,0.2-0.8,0.3-1.2
	c-2.3-0.6-4.6-1.1-6.9-1.7C73.2,23,73.1,23.4,73,23.7z M196,77.8c-4.6-0.9-8.4-1.6-12.2-2.3C186.6,78.4,192,79.3,196,77.8z
	 M36.2,338.1c0-0.3,0-0.6,0-0.9c-2.9-1.5-5.9-3-8.8-4.5c-0.2,0.3-0.5,0.5-0.7,0.8c1.4,1.7,2.9,3.5,4.7,5.7
	C33.2,338.8,34.7,338.4,36.2,338.1z M23.3,338.1c1.4,2.5,3.3,3.6,6.7,2.6c-2.2-2.3-4.3-3-6.8-2.5L23.3,338.1z M26.7,343.2
	c-1.1-0.1-2.2-0.2-3.3-0.3c0,0.4-0.1,0.8-0.1,1.3c1.1,0.2,2.2,0.3,3.2,0.5C26.6,344.1,26.6,343.7,26.7,343.2z M154.6,57.1
	c0.1,0.3,0.1,0.7,0.2,1c1.4-0.2,2.9-0.5,4.3-0.7C157.2,55.7,155.8,55.7,154.6,57.1z M176.5,18c0.1,1.1,0.2,2.3,0.3,3.4
	c0.5,0,0.9-0.1,1.4-0.1c-0.1-1.2-0.2-2.3-0.3-3.5C177.5,17.9,177,17.9,176.5,18z"/>
</svg>
